solid OpenSCAD_Model
  facet normal -0.995185 -0.0980167 0
    outer loop
      vertex -17 -15 -2.5
      vertex -16.9616 -15.3902 -2.5
      vertex -17 -15 2.5
    endloop
  endfacet
  facet normal -0.995185 -0.0980167 0
    outer loop
      vertex -17 -15 2.5
      vertex -16.9616 -15.3902 -2.5
      vertex -16.9616 -15.3902 2.5
    endloop
  endfacet
  facet normal 0 0 -1
    outer loop
      vertex -17 -15 -2.5
      vertex -17 15 -2.5
      vertex -16.9616 -15.3902 -2.5
    endloop
  endfacet
  facet normal 0 0 -1
    outer loop
      vertex -16.9616 -15.3902 -2.5
      vertex -17 15 -2.5
      vertex -16.9616 15.3902 -2.5
    endloop
  endfacet
  facet normal 0 0 -1
    outer loop
      vertex -16.9616 -15.3902 -2.5
      vertex -16.9616 15.3902 -2.5
      vertex -16.8478 15.7654 -2.5
    endloop
  endfacet
  facet normal 0 0 -1
    outer loop
      vertex -16.9616 -15.3902 -2.5
      vertex -16.8478 15.7654 -2.5
      vertex -16.6629 16.1111 -2.5
    endloop
  endfacet
  facet normal 0 0 -1
    outer loop
      vertex -16.9616 -15.3902 -2.5
      vertex -16.6629 16.1111 -2.5
      vertex -16.4142 16.4142 -2.5
    endloop
  endfacet
  facet normal 0 0 -1
    outer loop
      vertex -16.9616 -15.3902 -2.5
      vertex -16.4142 16.4142 -2.5
      vertex -16.1111 16.6629 -2.5
    endloop
  endfacet
  facet normal 0 0 -1
    outer loop
      vertex -16.9616 -15.3902 -2.5
      vertex -16.1111 16.6629 -2.5
      vertex -15.7654 16.8478 -2.5
    endloop
  endfacet
  facet normal 0 0 -1
    outer loop
      vertex -16.9616 -15.3902 -2.5
      vertex -15.7654 16.8478 -2.5
      vertex -15.3902 16.9616 -2.5
    endloop
  endfacet
  facet normal 0 0 -1
    outer loop
      vertex -16.9616 -15.3902 -2.5
      vertex -15.3902 16.9616 -2.5
      vertex -15 17 -2.5
    endloop
  endfacet
  facet normal 0 0 -1
    outer loop
      vertex -6.94463 10.3934 -2.5
      vertex -15 17 -2.5
      vertex -2.5 17 -2.5
    endloop
  endfacet
  facet normal 0 0 -1
    outer loop
      vertex -2.5 17 -2.5
      vertex -2.5 21.25 -2.5
      vertex -0.625 21.25 -2.5
    endloop
  endfacet
  facet normal 0 0 -1
    outer loop
      vertex -2.5 17 -2.5
      vertex -0.625 21.25 -2.5
      vertex -0.625 12.4384 -2.5
    endloop
  endfacet
  facet normal 0 0 -1
    outer loop
      vertex 6.94463 10.3934 -2.5
      vertex 2.5 17 -2.5
      vertex 8.83883 8.83883 -2.5
    endloop
  endfacet
  facet normal 0 0 -1
    outer loop
      vertex -2.5 17 -2.5
      vertex -0.625 12.4384 -2.5
      vertex -2.43863 12.2598 -2.5
    endloop
  endfacet
  facet normal 0 0 -1
    outer loop
      vertex -2.5 17 -2.5
      vertex -2.43863 12.2598 -2.5
      vertex -4.78354 11.5485 -2.5
    endloop
  endfacet
  facet normal 0 0 -1
    outer loop
      vertex -8.83883 8.83883 -2.5
      vertex -15 17 -2.5
      vertex -6.94463 10.3934 -2.5
    endloop
  endfacet
  facet normal 0 0 -1
    outer loop
      vertex -12.5 1.53081e-15 -2.5
      vertex -16.9616 -15.3902 -2.5
      vertex -12.2598 2.43863 -2.5
    endloop
  endfacet
  facet normal 0 0 -1
    outer loop
      vertex -10.3934 6.94463 -2.5
      vertex -15 17 -2.5
      vertex -8.83883 8.83883 -2.5
    endloop
  endfacet
  facet normal 0 0 -1
    outer loop
      vertex -11.5485 4.78354 -2.5
      vertex -15 17 -2.5
      vertex -10.3934 6.94463 -2.5
    endloop
  endfacet
  facet normal 0 0 -1
    outer loop
      vertex -12.2598 2.43863 -2.5
      vertex -15 17 -2.5
      vertex -11.5485 4.78354 -2.5
    endloop
  endfacet
  facet normal 0 0 -1
    outer loop
      vertex -16.9616 -15.3902 -2.5
      vertex -15 17 -2.5
      vertex -12.2598 2.43863 -2.5
    endloop
  endfacet
  facet normal 0 0 -1
    outer loop
      vertex -12.2598 -2.43863 -2.5
      vertex -16.9616 -15.3902 -2.5
      vertex -12.5 1.53081e-15 -2.5
    endloop
  endfacet
  facet normal 0 0 -1
    outer loop
      vertex -11.5485 -4.78354 -2.5
      vertex -16.9616 -15.3902 -2.5
      vertex -12.2598 -2.43863 -2.5
    endloop
  endfacet
  facet normal 0 0 -1
    outer loop
      vertex -10.3934 -6.94463 -2.5
      vertex -16.9616 -15.3902 -2.5
      vertex -11.5485 -4.78354 -2.5
    endloop
  endfacet
  facet normal 0 0 -1
    outer loop
      vertex -16.9616 -15.3902 -2.5
      vertex -10.3934 -6.94463 -2.5
      vertex -8.83883 -8.83883 -2.5
    endloop
  endfacet
  facet normal 0 0 -1
    outer loop
      vertex -8.83883 -8.83883 -2.5
      vertex -6.94463 -10.3934 -2.5
      vertex -16.9616 -15.3902 -2.5
    endloop
  endfacet
  facet normal 0 0 -1
    outer loop
      vertex -6.94463 -10.3934 -2.5
      vertex -4.78354 -11.5485 -2.5
      vertex -16.9616 -15.3902 -2.5
    endloop
  endfacet
  facet normal 0 0 -1
    outer loop
      vertex -4.78354 -11.5485 -2.5
      vertex -2.43863 -12.2598 -2.5
      vertex -16.9616 -15.3902 -2.5
    endloop
  endfacet
  facet normal 0 0 -1
    outer loop
      vertex -2.43863 -12.2598 -2.5
      vertex -2.29621e-15 -12.5 -2.5
      vertex -16.9616 -15.3902 -2.5
    endloop
  endfacet
  facet normal 0 0 -1
    outer loop
      vertex -2.29621e-15 -12.5 -2.5
      vertex 2.43863 -12.2598 -2.5
      vertex -16.9616 -15.3902 -2.5
    endloop
  endfacet
  facet normal 0 0 -1
    outer loop
      vertex 15 17 -2.5
      vertex 8.83883 8.83883 -2.5
      vertex 2.5 17 -2.5
    endloop
  endfacet
  facet normal 0 0 -1
    outer loop
      vertex 2.43863 -12.2598 -2.5
      vertex 17 -15 -2.5
      vertex -16.9616 -15.3902 -2.5
    endloop
  endfacet
  facet normal 0 0 -1
    outer loop
      vertex 15 17 -2.5
      vertex 10.3934 6.94463 -2.5
      vertex 8.83883 8.83883 -2.5
    endloop
  endfacet
  facet normal 0 0 -1
    outer loop
      vertex 4.78354 -11.5485 -2.5
      vertex 17 -15 -2.5
      vertex 2.43863 -12.2598 -2.5
    endloop
  endfacet
  facet normal 0 0 -1
    outer loop
      vertex 2.5 17 -2.5
      vertex 6.94463 10.3934 -2.5
      vertex 4.78354 11.5485 -2.5
    endloop
  endfacet
  facet normal 0 0 -1
    outer loop
      vertex 6.94463 -10.3934 -2.5
      vertex 17 -15 -2.5
      vertex 4.78354 -11.5485 -2.5
    endloop
  endfacet
  facet normal 0 0 -1
    outer loop
      vertex 8.83883 -8.83883 -2.5
      vertex 17 -15 -2.5
      vertex 6.94463 -10.3934 -2.5
    endloop
  endfacet
  facet normal 0 0 -1
    outer loop
      vertex 10.3934 -6.94463 -2.5
      vertex 17 -15 -2.5
      vertex 8.83883 -8.83883 -2.5
    endloop
  endfacet
  facet normal 0 0 -1
    outer loop
      vertex 11.5485 -4.78354 -2.5
      vertex 17 -15 -2.5
      vertex 10.3934 -6.94463 -2.5
    endloop
  endfacet
  facet normal 0 0 -1
    outer loop
      vertex 12.5 0 -2.5
      vertex 15 17 -2.5
      vertex 12.2598 -2.43863 -2.5
    endloop
  endfacet
  facet normal 0 0 -1
    outer loop
      vertex 12.2598 2.43863 -2.5
      vertex 15 17 -2.5
      vertex 12.5 0 -2.5
    endloop
  endfacet
  facet normal 0 0 -1
    outer loop
      vertex 11.5485 4.78354 -2.5
      vertex 15 17 -2.5
      vertex 12.2598 2.43863 -2.5
    endloop
  endfacet
  facet normal 0 0 -1
    outer loop
      vertex 0.625 21.25 -2.5
      vertex 2.5 17 -2.5
      vertex 4.78354 11.5485 -2.5
    endloop
  endfacet
  facet normal 0 0 -1
    outer loop
      vertex 2.5 17 -2.5
      vertex 0.625 21.25 -2.5
      vertex 2.5 21.25 -2.5
    endloop
  endfacet
  facet normal 0 0 -1
    outer loop
      vertex 10.3934 6.94463 -2.5
      vertex 15 17 -2.5
      vertex 11.5485 4.78354 -2.5
    endloop
  endfacet
  facet normal 0 0 -1
    outer loop
      vertex 12.2598 -2.43863 -2.5
      vertex 15 17 -2.5
      vertex 15.3902 16.9616 -2.5
    endloop
  endfacet
  facet normal 0 0 -1
    outer loop
      vertex 12.2598 -2.43863 -2.5
      vertex 15.3902 16.9616 -2.5
      vertex 15.7654 16.8478 -2.5
    endloop
  endfacet
  facet normal 0 0 -1
    outer loop
      vertex 12.2598 -2.43863 -2.5
      vertex 15.7654 16.8478 -2.5
      vertex 16.1111 16.6629 -2.5
    endloop
  endfacet
  facet normal 0 0 -1
    outer loop
      vertex 12.2598 -2.43863 -2.5
      vertex 16.1111 16.6629 -2.5
      vertex 16.4142 16.4142 -2.5
    endloop
  endfacet
  facet normal 0 0 -1
    outer loop
      vertex 12.2598 -2.43863 -2.5
      vertex 16.4142 16.4142 -2.5
      vertex 16.6629 16.1111 -2.5
    endloop
  endfacet
  facet normal 0 0 -1
    outer loop
      vertex 12.2598 -2.43863 -2.5
      vertex 16.6629 16.1111 -2.5
      vertex 16.8478 15.7654 -2.5
    endloop
  endfacet
  facet normal 0 0 -1
    outer loop
      vertex 12.2598 -2.43863 -2.5
      vertex 16.8478 15.7654 -2.5
      vertex 16.9616 15.3902 -2.5
    endloop
  endfacet
  facet normal 0 0 -1
    outer loop
      vertex 12.2598 -2.43863 -2.5
      vertex 16.9616 15.3902 -2.5
      vertex 17 15 -2.5
    endloop
  endfacet
  facet normal 0 0 -1
    outer loop
      vertex 12.2598 -2.43863 -2.5
      vertex 17 15 -2.5
      vertex 17 -15 -2.5
    endloop
  endfacet
  facet normal 0 0 -1
    outer loop
      vertex 12.2598 -2.43863 -2.5
      vertex 17 -15 -2.5
      vertex 11.5485 -4.78354 -2.5
    endloop
  endfacet
  facet normal 0 0 -1
    outer loop
      vertex -16.9616 -15.3902 -2.5
      vertex 17 -15 -2.5
      vertex 16.9616 -15.3902 -2.5
    endloop
  endfacet
  facet normal 0 0 -1
    outer loop
      vertex -16.9616 -15.3902 -2.5
      vertex 16.9616 -15.3902 -2.5
      vertex 16.8478 -15.7654 -2.5
    endloop
  endfacet
  facet normal 0 0 -1
    outer loop
      vertex -16.9616 -15.3902 -2.5
      vertex 16.8478 -15.7654 -2.5
      vertex 16.6629 -16.1111 -2.5
    endloop
  endfacet
  facet normal 0 0 -1
    outer loop
      vertex -16.9616 -15.3902 -2.5
      vertex 16.6629 -16.1111 -2.5
      vertex 16.4142 -16.4142 -2.5
    endloop
  endfacet
  facet normal 0 0 -1
    outer loop
      vertex -16.9616 -15.3902 -2.5
      vertex 16.4142 -16.4142 -2.5
      vertex 16.1111 -16.6629 -2.5
    endloop
  endfacet
  facet normal 0 0 -1
    outer loop
      vertex -16.9616 -15.3902 -2.5
      vertex 16.1111 -16.6629 -2.5
      vertex 15.7654 -16.8478 -2.5
    endloop
  endfacet
  facet normal 0 0 -1
    outer loop
      vertex -16.9616 -15.3902 -2.5
      vertex 15.7654 -16.8478 -2.5
      vertex 15.3902 -16.9616 -2.5
    endloop
  endfacet
  facet normal 0 0 -1
    outer loop
      vertex -16.9616 -15.3902 -2.5
      vertex 15.3902 -16.9616 -2.5
      vertex 15 -17 -2.5
    endloop
  endfacet
  facet normal 0 0 -1
    outer loop
      vertex -16.9616 -15.3902 -2.5
      vertex 15 -17 -2.5
      vertex -15 -17 -2.5
    endloop
  endfacet
  facet normal 0 0 -1
    outer loop
      vertex -16.9616 -15.3902 -2.5
      vertex -15 -17 -2.5
      vertex -15.3902 -16.9616 -2.5
    endloop
  endfacet
  facet normal 0 0 -1
    outer loop
      vertex -16.9616 -15.3902 -2.5
      vertex -15.3902 -16.9616 -2.5
      vertex -15.7654 -16.8478 -2.5
    endloop
  endfacet
  facet normal 0 0 -1
    outer loop
      vertex -16.9616 -15.3902 -2.5
      vertex -15.7654 -16.8478 -2.5
      vertex -16.1111 -16.6629 -2.5
    endloop
  endfacet
  facet normal 0 0 -1
    outer loop
      vertex -16.9616 -15.3902 -2.5
      vertex -16.1111 -16.6629 -2.5
      vertex -16.4142 -16.4142 -2.5
    endloop
  endfacet
  facet normal 0 0 -1
    outer loop
      vertex -16.9616 -15.3902 -2.5
      vertex -16.4142 -16.4142 -2.5
      vertex -16.6629 -16.1111 -2.5
    endloop
  endfacet
  facet normal 0 0 -1
    outer loop
      vertex -16.9616 -15.3902 -2.5
      vertex -16.6629 -16.1111 -2.5
      vertex -16.8478 -15.7654 -2.5
    endloop
  endfacet
  facet normal 0 0 -1
    outer loop
      vertex -6.94463 10.3934 -2.5
      vertex -2.5 17 -2.5
      vertex -4.78354 11.5485 -2.5
    endloop
  endfacet
  facet normal 0 0 -1
    outer loop
      vertex 0.625 21.25 -2.5
      vertex 4.78354 11.5485 -2.5
      vertex 2.43863 12.2598 -2.5
    endloop
  endfacet
  facet normal 0 0 -1
    outer loop
      vertex 0.625 21.25 -2.5
      vertex 2.43863 12.2598 -2.5
      vertex 0.625 12.4384 -2.5
    endloop
  endfacet
  facet normal -1 0 0
    outer loop
      vertex -17 -15 -2.5
      vertex -17 -15 2.5
      vertex -17 15 -2.5
    endloop
  endfacet
  facet normal -1 0 0
    outer loop
      vertex -17 15 -2.5
      vertex -17 -15 2.5
      vertex -17 15 2.5
    endloop
  endfacet
  facet normal 0 0 1
    outer loop
      vertex -17 15 2.5
      vertex -17 -15 2.5
      vertex -16.9616 -15.3902 2.5
    endloop
  endfacet
  facet normal 0 0 1
    outer loop
      vertex -16.6629 -16.1111 2.5
      vertex -17 15 2.5
      vertex -16.8478 -15.7654 2.5
    endloop
  endfacet
  facet normal 0 0 1
    outer loop
      vertex -16.8478 -15.7654 2.5
      vertex -17 15 2.5
      vertex -16.9616 -15.3902 2.5
    endloop
  endfacet
  facet normal 0 0 1
    outer loop
      vertex -16.4142 -16.4142 2.5
      vertex -17 15 2.5
      vertex -16.6629 -16.1111 2.5
    endloop
  endfacet
  facet normal 0 0 1
    outer loop
      vertex -16.1111 -16.6629 2.5
      vertex -17 15 2.5
      vertex -16.4142 -16.4142 2.5
    endloop
  endfacet
  facet normal 0 0 1
    outer loop
      vertex -15.7654 -16.8478 2.5
      vertex -17 15 2.5
      vertex -16.1111 -16.6629 2.5
    endloop
  endfacet
  facet normal 0 0 1
    outer loop
      vertex -15.3902 -16.9616 2.5
      vertex -17 15 2.5
      vertex -15.7654 -16.8478 2.5
    endloop
  endfacet
  facet normal 0 0 1
    outer loop
      vertex -15 -17 2.5
      vertex -17 15 2.5
      vertex -15.3902 -16.9616 2.5
    endloop
  endfacet
  facet normal 0 0 1
    outer loop
      vertex -12.2598 -2.43863 2.5
      vertex -17 15 2.5
      vertex -15 -17 2.5
    endloop
  endfacet
  facet normal 0 0 1
    outer loop
      vertex 2.43863 -12.2598 2.5
      vertex -2.29621e-15 -12.5 2.5
      vertex -15 -17 2.5
    endloop
  endfacet
  facet normal 0 0 1
    outer loop
      vertex -12.5 1.53081e-15 2.5
      vertex -12.2598 2.43863 2.5
      vertex -17 15 2.5
    endloop
  endfacet
  facet normal 0 0 1
    outer loop
      vertex -10.3934 6.94463 2.5
      vertex -8.83883 8.83883 2.5
      vertex -17 15 2.5
    endloop
  endfacet
  facet normal 0 0 1
    outer loop
      vertex -0.625 12.4384 2.5
      vertex -2.5 21.9353 2.5
      vertex -2.5 21.25 2.5
    endloop
  endfacet
  facet normal 0 0 1
    outer loop
      vertex -0.625 12.4384 2.5
      vertex -1.92882 23.4524 2.5
      vertex -2.5 21.9353 2.5
    endloop
  endfacet
  facet normal 0 0 1
    outer loop
      vertex -0.625 12.4384 2.5
      vertex -1.67045 24.1386 2.5
      vertex -1.92882 23.4524 2.5
    endloop
  endfacet
  facet normal 0 0 1
    outer loop
      vertex 8.83883 -8.83883 2.5
      vertex 16.4142 -16.4142 2.5
      vertex 16.6629 -16.1111 2.5
    endloop
  endfacet
  facet normal 0 0 1
    outer loop
      vertex 8.83883 -8.83883 2.5
      vertex 16.1111 -16.6629 2.5
      vertex 16.4142 -16.4142 2.5
    endloop
  endfacet
  facet normal 0 0 1
    outer loop
      vertex 8.83883 -8.83883 2.5
      vertex 15.7654 -16.8478 2.5
      vertex 16.1111 -16.6629 2.5
    endloop
  endfacet
  facet normal 0 0 1
    outer loop
      vertex 12.2598 2.43863 2.5
      vertex 12.5 0 2.5
      vertex 17 -15 2.5
    endloop
  endfacet
  facet normal 0 0 1
    outer loop
      vertex 12.5 0 2.5
      vertex 12.2598 -2.43863 2.5
      vertex 17 -15 2.5
    endloop
  endfacet
  facet normal 0 0 1
    outer loop
      vertex 10.3934 -6.94463 2.5
      vertex 8.83883 -8.83883 2.5
      vertex 16.8478 -15.7654 2.5
    endloop
  endfacet
  facet normal 0 0 1
    outer loop
      vertex 8.83883 -8.83883 2.5
      vertex 15.3902 -16.9616 2.5
      vertex 15.7654 -16.8478 2.5
    endloop
  endfacet
  facet normal 0 0 1
    outer loop
      vertex 8.83883 -8.83883 2.5
      vertex 15 -17 2.5
      vertex 15.3902 -16.9616 2.5
    endloop
  endfacet
  facet normal 0 0 1
    outer loop
      vertex 8.83883 -8.83883 2.5
      vertex 6.94463 -10.3934 2.5
      vertex 15 -17 2.5
    endloop
  endfacet
  facet normal 0 0 1
    outer loop
      vertex -0.625 12.4384 2.5
      vertex -1.39742 24.6775 2.5
      vertex -1.67045 24.1386 2.5
    endloop
  endfacet
  facet normal 0 0 1
    outer loop
      vertex -0.625 12.4384 2.5
      vertex -1.03553 25.3917 2.5
      vertex -1.39742 24.6775 2.5
    endloop
  endfacet
  facet normal 0 0 1
    outer loop
      vertex -0.625 12.4384 2.5
      vertex -0.625 25.8907 2.5
      vertex -1.03553 25.3917 2.5
    endloop
  endfacet
  facet normal 0 0 1
    outer loop
      vertex 2.63205 21.25 2.5
      vertex 2.5 21.25 2.5
      vertex 2.52868 21.25 2.5
    endloop
  endfacet
  facet normal 0 0 1
    outer loop
      vertex 2.71174 21.25 2.5
      vertex 2.5 21.25 2.5
      vertex 2.63205 21.25 2.5
    endloop
  endfacet
  facet normal 0 0 1
    outer loop
      vertex 2.5 21.9353 2.5
      vertex 2.5 21.25 2.5
      vertex 2.71174 21.25 2.5
    endloop
  endfacet
  facet normal 0 0 1
    outer loop
      vertex 10.3934 -6.94463 2.5
      vertex 16.9616 -15.3902 2.5
      vertex 17 -15 2.5
    endloop
  endfacet
  facet normal 0 0 1
    outer loop
      vertex 10.3934 -6.94463 2.5
      vertex 16.8478 -15.7654 2.5
      vertex 16.9616 -15.3902 2.5
    endloop
  endfacet
  facet normal 0 0 1
    outer loop
      vertex 17 15 2.5
      vertex 0.625 12.4384 2.5
      vertex 2.43863 12.2598 2.5
    endloop
  endfacet
  facet normal 0 0 1
    outer loop
      vertex 17 15 2.5
      vertex 2.43863 12.2598 2.5
      vertex 4.78354 11.5485 2.5
    endloop
  endfacet
  facet normal 0 0 1
    outer loop
      vertex 11.5485 -4.78354 2.5
      vertex 10.3934 -6.94463 2.5
      vertex 17 -15 2.5
    endloop
  endfacet
  facet normal 0 0 1
    outer loop
      vertex 17 15 2.5
      vertex 4.78354 11.5485 2.5
      vertex 6.94463 10.3934 2.5
    endloop
  endfacet
  facet normal 0 0 1
    outer loop
      vertex 17 15 2.5
      vertex 6.94463 10.3934 2.5
      vertex 8.83883 8.83883 2.5
    endloop
  endfacet
  facet normal 0 0 1
    outer loop
      vertex 12.2598 -2.43863 2.5
      vertex 11.5485 -4.78354 2.5
      vertex 17 -15 2.5
    endloop
  endfacet
  facet normal 0 0 1
    outer loop
      vertex 17 15 2.5
      vertex 8.83883 8.83883 2.5
      vertex 10.3934 6.94463 2.5
    endloop
  endfacet
  facet normal 0 0 1
    outer loop
      vertex 17 15 2.5
      vertex 10.3934 6.94463 2.5
      vertex 11.5485 4.78354 2.5
    endloop
  endfacet
  facet normal 0 0 1
    outer loop
      vertex 17 15 2.5
      vertex 12.2598 2.43863 2.5
      vertex 17 -15 2.5
    endloop
  endfacet
  facet normal 0 0 1
    outer loop
      vertex 17 15 2.5
      vertex 11.5485 4.78354 2.5
      vertex 12.2598 2.43863 2.5
    endloop
  endfacet
  facet normal 0 0 1
    outer loop
      vertex 16.8478 -15.7654 2.5
      vertex 8.83883 -8.83883 2.5
      vertex 16.6629 -16.1111 2.5
    endloop
  endfacet
  facet normal 0 0 1
    outer loop
      vertex -0.625 12.4384 2.5
      vertex -2.5 17 2.5
      vertex -17 15 2.5
    endloop
  endfacet
  facet normal 0 0 1
    outer loop
      vertex -12.2598 -2.43863 2.5
      vertex -12.5 1.53081e-15 2.5
      vertex -17 15 2.5
    endloop
  endfacet
  facet normal 0 0 1
    outer loop
      vertex -2.29621e-15 -12.5 2.5
      vertex -2.43863 -12.2598 2.5
      vertex -15 -17 2.5
    endloop
  endfacet
  facet normal 0 0 1
    outer loop
      vertex 15 -17 2.5
      vertex 6.94463 -10.3934 2.5
      vertex 4.78354 -11.5485 2.5
    endloop
  endfacet
  facet normal 0 0 1
    outer loop
      vertex 15 -17 2.5
      vertex 2.43863 -12.2598 2.5
      vertex -15 -17 2.5
    endloop
  endfacet
  facet normal 0 0 1
    outer loop
      vertex 15 -17 2.5
      vertex 4.78354 -11.5485 2.5
      vertex 2.43863 -12.2598 2.5
    endloop
  endfacet
  facet normal 0 0 1
    outer loop
      vertex -2.43863 -12.2598 2.5
      vertex -4.78354 -11.5485 2.5
      vertex -15 -17 2.5
    endloop
  endfacet
  facet normal 0 0 1
    outer loop
      vertex -4.78354 -11.5485 2.5
      vertex -6.94463 -10.3934 2.5
      vertex -15 -17 2.5
    endloop
  endfacet
  facet normal 0 0 1
    outer loop
      vertex -11.5485 4.78354 2.5
      vertex -10.3934 6.94463 2.5
      vertex -17 15 2.5
    endloop
  endfacet
  facet normal 0 0 1
    outer loop
      vertex -6.94463 -10.3934 2.5
      vertex -8.83883 -8.83883 2.5
      vertex -15 -17 2.5
    endloop
  endfacet
  facet normal 0 0 1
    outer loop
      vertex -8.83883 -8.83883 2.5
      vertex -10.3934 -6.94463 2.5
      vertex -15 -17 2.5
    endloop
  endfacet
  facet normal 0 0 1
    outer loop
      vertex -10.3934 -6.94463 2.5
      vertex -11.5485 -4.78354 2.5
      vertex -15 -17 2.5
    endloop
  endfacet
  facet normal 0 0 1
    outer loop
      vertex -11.5485 -4.78354 2.5
      vertex -12.2598 -2.43863 2.5
      vertex -15 -17 2.5
    endloop
  endfacet
  facet normal 0 0 1
    outer loop
      vertex -12.2598 2.43863 2.5
      vertex -11.5485 4.78354 2.5
      vertex -17 15 2.5
    endloop
  endfacet
  facet normal 0 0 1
    outer loop
      vertex -0.625 12.4384 2.5
      vertex -2.5 21.25 2.5
      vertex -2.5 17 2.5
    endloop
  endfacet
  facet normal 0 0 1
    outer loop
      vertex -6.94463 10.3934 2.5
      vertex -17 15 2.5
      vertex -8.83883 8.83883 2.5
    endloop
  endfacet
  facet normal 0 0 1
    outer loop
      vertex -4.78354 11.5485 2.5
      vertex -17 15 2.5
      vertex -6.94463 10.3934 2.5
    endloop
  endfacet
  facet normal 0 0 1
    outer loop
      vertex -2.43863 12.2598 2.5
      vertex -17 15 2.5
      vertex -4.78354 11.5485 2.5
    endloop
  endfacet
  facet normal 0 0 1
    outer loop
      vertex -0.625 12.4384 2.5
      vertex -17 15 2.5
      vertex -2.43863 12.2598 2.5
    endloop
  endfacet
  facet normal 0 0 1
    outer loop
      vertex -2.5 17 2.5
      vertex -15 17 2.5
      vertex -17 15 2.5
    endloop
  endfacet
  facet normal 0 0 1
    outer loop
      vertex -15.3902 16.9616 2.5
      vertex -17 15 2.5
      vertex -15 17 2.5
    endloop
  endfacet
  facet normal 0 0 1
    outer loop
      vertex -15.7654 16.8478 2.5
      vertex -17 15 2.5
      vertex -15.3902 16.9616 2.5
    endloop
  endfacet
  facet normal 0 0 1
    outer loop
      vertex -16.1111 16.6629 2.5
      vertex -17 15 2.5
      vertex -15.7654 16.8478 2.5
    endloop
  endfacet
  facet normal 0 0 1
    outer loop
      vertex -16.4142 16.4142 2.5
      vertex -17 15 2.5
      vertex -16.1111 16.6629 2.5
    endloop
  endfacet
  facet normal 0 0 1
    outer loop
      vertex -16.6629 16.1111 2.5
      vertex -17 15 2.5
      vertex -16.4142 16.4142 2.5
    endloop
  endfacet
  facet normal 0 0 1
    outer loop
      vertex -16.8478 15.7654 2.5
      vertex -17 15 2.5
      vertex -16.6629 16.1111 2.5
    endloop
  endfacet
  facet normal 0 0 1
    outer loop
      vertex -16.9616 15.3902 2.5
      vertex -17 15 2.5
      vertex -16.8478 15.7654 2.5
    endloop
  endfacet
  facet normal 0 0 1
    outer loop
      vertex -2.5 21.25 2.5
      vertex -2.63205 21.25 2.5
      vertex -2.52868 21.25 2.5
    endloop
  endfacet
  facet normal 0 0 1
    outer loop
      vertex -2.5 21.25 2.5
      vertex -2.71174 21.25 2.5
      vertex -2.63205 21.25 2.5
    endloop
  endfacet
  facet normal 0 0 1
    outer loop
      vertex -2.5 21.25 2.5
      vertex -2.5 21.9353 2.5
      vertex -2.71174 21.25 2.5
    endloop
  endfacet
  facet normal 0 0 1
    outer loop
      vertex 0.625 25.8907 2.5
      vertex 1.39742 24.6775 2.5
      vertex 1.03553 25.3917 2.5
    endloop
  endfacet
  facet normal 0 0 1
    outer loop
      vertex 0.625 25.8907 2.5
      vertex 1.67045 24.1386 2.5
      vertex 1.39742 24.6775 2.5
    endloop
  endfacet
  facet normal 0 0 1
    outer loop
      vertex 0.625 25.8907 2.5
      vertex 1.92882 23.4524 2.5
      vertex 1.67045 24.1386 2.5
    endloop
  endfacet
  facet normal 0 0 1
    outer loop
      vertex 0.625 25.8907 2.5
      vertex 2.5 21.9353 2.5
      vertex 1.92882 23.4524 2.5
    endloop
  endfacet
  facet normal 0 0 1
    outer loop
      vertex 0.625 25.8907 2.5
      vertex 2.5 21.25 2.5
      vertex 2.5 21.9353 2.5
    endloop
  endfacet
  facet normal 0 0 1
    outer loop
      vertex 0.625 25.8907 2.5
      vertex 2.5 17 2.5
      vertex 2.5 21.25 2.5
    endloop
  endfacet
  facet normal 0 0 1
    outer loop
      vertex 2.5 17 2.5
      vertex 15.3902 16.9616 2.5
      vertex 15 17 2.5
    endloop
  endfacet
  facet normal 0 0 1
    outer loop
      vertex 2.5 17 2.5
      vertex 15.7654 16.8478 2.5
      vertex 15.3902 16.9616 2.5
    endloop
  endfacet
  facet normal 0 0 1
    outer loop
      vertex 2.5 17 2.5
      vertex 16.1111 16.6629 2.5
      vertex 15.7654 16.8478 2.5
    endloop
  endfacet
  facet normal 0 0 1
    outer loop
      vertex 2.5 17 2.5
      vertex 16.4142 16.4142 2.5
      vertex 16.1111 16.6629 2.5
    endloop
  endfacet
  facet normal 0 0 1
    outer loop
      vertex 2.5 17 2.5
      vertex 16.6629 16.1111 2.5
      vertex 16.4142 16.4142 2.5
    endloop
  endfacet
  facet normal 0 0 1
    outer loop
      vertex 2.5 17 2.5
      vertex 16.8478 15.7654 2.5
      vertex 16.6629 16.1111 2.5
    endloop
  endfacet
  facet normal 0 0 1
    outer loop
      vertex 2.5 17 2.5
      vertex 16.9616 15.3902 2.5
      vertex 16.8478 15.7654 2.5
    endloop
  endfacet
  facet normal 0 0 1
    outer loop
      vertex 2.5 17 2.5
      vertex 17 15 2.5
      vertex 16.9616 15.3902 2.5
    endloop
  endfacet
  facet normal 0 0 1
    outer loop
      vertex 2.5 17 2.5
      vertex 0.625 12.4384 2.5
      vertex 17 15 2.5
    endloop
  endfacet
  facet normal 0 0 1
    outer loop
      vertex 0.625 25.8907 2.5
      vertex 0.625 12.4384 2.5
      vertex 2.5 17 2.5
    endloop
  endfacet
  facet normal -0.95694 -0.290285 0
    outer loop
      vertex -16.9616 -15.3902 -2.5
      vertex -16.8478 -15.7654 -2.5
      vertex -16.9616 -15.3902 2.5
    endloop
  endfacet
  facet normal -0.95694 -0.290285 0
    outer loop
      vertex -16.9616 -15.3902 2.5
      vertex -16.8478 -15.7654 -2.5
      vertex -16.8478 -15.7654 2.5
    endloop
  endfacet
  facet normal -0.881921 -0.471397 0
    outer loop
      vertex -16.8478 -15.7654 -2.5
      vertex -16.6629 -16.1111 -2.5
      vertex -16.8478 -15.7654 2.5
    endloop
  endfacet
  facet normal -0.881921 -0.471397 0
    outer loop
      vertex -16.8478 -15.7654 2.5
      vertex -16.6629 -16.1111 -2.5
      vertex -16.6629 -16.1111 2.5
    endloop
  endfacet
  facet normal -0.77301 -0.634394 0
    outer loop
      vertex -16.6629 -16.1111 -2.5
      vertex -16.4142 -16.4142 -2.5
      vertex -16.6629 -16.1111 2.5
    endloop
  endfacet
  facet normal -0.77301 -0.634394 0
    outer loop
      vertex -16.6629 -16.1111 2.5
      vertex -16.4142 -16.4142 -2.5
      vertex -16.4142 -16.4142 2.5
    endloop
  endfacet
  facet normal -0.634394 -0.77301 0
    outer loop
      vertex -16.4142 -16.4142 2.5
      vertex -16.4142 -16.4142 -2.5
      vertex -16.1111 -16.6629 -2.5
    endloop
  endfacet
  facet normal -0.634394 -0.77301 0
    outer loop
      vertex -16.1111 -16.6629 2.5
      vertex -16.4142 -16.4142 2.5
      vertex -16.1111 -16.6629 -2.5
    endloop
  endfacet
  facet normal -0.471397 -0.881921 0
    outer loop
      vertex -16.1111 -16.6629 2.5
      vertex -16.1111 -16.6629 -2.5
      vertex -15.7654 -16.8478 -2.5
    endloop
  endfacet
  facet normal -0.471397 -0.881921 0
    outer loop
      vertex -15.7654 -16.8478 2.5
      vertex -16.1111 -16.6629 2.5
      vertex -15.7654 -16.8478 -2.5
    endloop
  endfacet
  facet normal -0.290285 -0.95694 0
    outer loop
      vertex -15.7654 -16.8478 2.5
      vertex -15.7654 -16.8478 -2.5
      vertex -15.3902 -16.9616 -2.5
    endloop
  endfacet
  facet normal -0.290285 -0.95694 0
    outer loop
      vertex -15.3902 -16.9616 2.5
      vertex -15.7654 -16.8478 2.5
      vertex -15.3902 -16.9616 -2.5
    endloop
  endfacet
  facet normal -0.0980167 -0.995185 0
    outer loop
      vertex -15.3902 -16.9616 2.5
      vertex -15.3902 -16.9616 -2.5
      vertex -15 -17 -2.5
    endloop
  endfacet
  facet normal -0.0980167 -0.995185 0
    outer loop
      vertex -15 -17 2.5
      vertex -15.3902 -16.9616 2.5
      vertex -15 -17 -2.5
    endloop
  endfacet
  facet normal 0 -1 0
    outer loop
      vertex -15 -17 2.5
      vertex -15 -17 -2.5
      vertex 15 -17 -2.5
    endloop
  endfacet
  facet normal 0 -1 0
    outer loop
      vertex 15 -17 2.5
      vertex -15 -17 2.5
      vertex 15 -17 -2.5
    endloop
  endfacet
  facet normal 0.0980167 -0.995185 0
    outer loop
      vertex 15 -17 2.5
      vertex 15 -17 -2.5
      vertex 15.3902 -16.9616 -2.5
    endloop
  endfacet
  facet normal 0.0980167 -0.995185 0
    outer loop
      vertex 15.3902 -16.9616 2.5
      vertex 15 -17 2.5
      vertex 15.3902 -16.9616 -2.5
    endloop
  endfacet
  facet normal 0.290285 -0.95694 0
    outer loop
      vertex 15.3902 -16.9616 2.5
      vertex 15.3902 -16.9616 -2.5
      vertex 15.7654 -16.8478 -2.5
    endloop
  endfacet
  facet normal 0.290285 -0.95694 0
    outer loop
      vertex 15.7654 -16.8478 2.5
      vertex 15.3902 -16.9616 2.5
      vertex 15.7654 -16.8478 -2.5
    endloop
  endfacet
  facet normal 0.471397 -0.881921 0
    outer loop
      vertex 15.7654 -16.8478 2.5
      vertex 15.7654 -16.8478 -2.5
      vertex 16.1111 -16.6629 -2.5
    endloop
  endfacet
  facet normal 0.471397 -0.881921 0
    outer loop
      vertex 16.1111 -16.6629 2.5
      vertex 15.7654 -16.8478 2.5
      vertex 16.1111 -16.6629 -2.5
    endloop
  endfacet
  facet normal 0.634394 -0.77301 0
    outer loop
      vertex 16.1111 -16.6629 2.5
      vertex 16.1111 -16.6629 -2.5
      vertex 16.4142 -16.4142 -2.5
    endloop
  endfacet
  facet normal 0.634394 -0.77301 0
    outer loop
      vertex 16.4142 -16.4142 2.5
      vertex 16.1111 -16.6629 2.5
      vertex 16.4142 -16.4142 -2.5
    endloop
  endfacet
  facet normal 0.77301 -0.634394 0
    outer loop
      vertex 16.4142 -16.4142 2.5
      vertex 16.4142 -16.4142 -2.5
      vertex 16.6629 -16.1111 -2.5
    endloop
  endfacet
  facet normal 0.77301 -0.634394 0
    outer loop
      vertex 16.6629 -16.1111 2.5
      vertex 16.4142 -16.4142 2.5
      vertex 16.6629 -16.1111 -2.5
    endloop
  endfacet
  facet normal 0.881921 -0.471397 0
    outer loop
      vertex 16.6629 -16.1111 2.5
      vertex 16.6629 -16.1111 -2.5
      vertex 16.8478 -15.7654 -2.5
    endloop
  endfacet
  facet normal 0.881921 -0.471397 0
    outer loop
      vertex 16.8478 -15.7654 2.5
      vertex 16.6629 -16.1111 2.5
      vertex 16.8478 -15.7654 -2.5
    endloop
  endfacet
  facet normal 0.95694 -0.290285 0
    outer loop
      vertex 16.8478 -15.7654 2.5
      vertex 16.8478 -15.7654 -2.5
      vertex 16.9616 -15.3902 -2.5
    endloop
  endfacet
  facet normal 0.95694 -0.290285 0
    outer loop
      vertex 16.9616 -15.3902 2.5
      vertex 16.8478 -15.7654 2.5
      vertex 16.9616 -15.3902 -2.5
    endloop
  endfacet
  facet normal 0.995185 -0.0980167 0
    outer loop
      vertex 16.9616 -15.3902 2.5
      vertex 16.9616 -15.3902 -2.5
      vertex 17 -15 -2.5
    endloop
  endfacet
  facet normal 0.995185 -0.0980167 0
    outer loop
      vertex 17 -15 2.5
      vertex 16.9616 -15.3902 2.5
      vertex 17 -15 -2.5
    endloop
  endfacet
  facet normal 1 0 0
    outer loop
      vertex 17 -15 2.5
      vertex 17 -15 -2.5
      vertex 17 15 -2.5
    endloop
  endfacet
  facet normal 1 0 0
    outer loop
      vertex 17 15 2.5
      vertex 17 -15 2.5
      vertex 17 15 -2.5
    endloop
  endfacet
  facet normal 0.995185 0.0980167 0
    outer loop
      vertex 17 15 -2.5
      vertex 16.9616 15.3902 -2.5
      vertex 16.9616 15.3902 2.5
    endloop
  endfacet
  facet normal 0.995185 0.0980167 0
    outer loop
      vertex 17 15 2.5
      vertex 17 15 -2.5
      vertex 16.9616 15.3902 2.5
    endloop
  endfacet
  facet normal 0.95694 0.290285 0
    outer loop
      vertex 16.9616 15.3902 -2.5
      vertex 16.8478 15.7654 -2.5
      vertex 16.8478 15.7654 2.5
    endloop
  endfacet
  facet normal 0.95694 0.290285 0
    outer loop
      vertex 16.9616 15.3902 2.5
      vertex 16.9616 15.3902 -2.5
      vertex 16.8478 15.7654 2.5
    endloop
  endfacet
  facet normal 0.881921 0.471397 0
    outer loop
      vertex 16.8478 15.7654 -2.5
      vertex 16.6629 16.1111 -2.5
      vertex 16.6629 16.1111 2.5
    endloop
  endfacet
  facet normal 0.881921 0.471397 0
    outer loop
      vertex 16.8478 15.7654 2.5
      vertex 16.8478 15.7654 -2.5
      vertex 16.6629 16.1111 2.5
    endloop
  endfacet
  facet normal 0.77301 0.634394 0
    outer loop
      vertex 16.6629 16.1111 -2.5
      vertex 16.4142 16.4142 -2.5
      vertex 16.4142 16.4142 2.5
    endloop
  endfacet
  facet normal 0.77301 0.634394 0
    outer loop
      vertex 16.6629 16.1111 2.5
      vertex 16.6629 16.1111 -2.5
      vertex 16.4142 16.4142 2.5
    endloop
  endfacet
  facet normal 0.634394 0.77301 0
    outer loop
      vertex 16.1111 16.6629 -2.5
      vertex 16.1111 16.6629 2.5
      vertex 16.4142 16.4142 -2.5
    endloop
  endfacet
  facet normal 0.634394 0.77301 0
    outer loop
      vertex 16.4142 16.4142 -2.5
      vertex 16.1111 16.6629 2.5
      vertex 16.4142 16.4142 2.5
    endloop
  endfacet
  facet normal 0.471397 0.881921 0
    outer loop
      vertex 15.7654 16.8478 -2.5
      vertex 15.7654 16.8478 2.5
      vertex 16.1111 16.6629 -2.5
    endloop
  endfacet
  facet normal 0.471397 0.881921 0
    outer loop
      vertex 16.1111 16.6629 -2.5
      vertex 15.7654 16.8478 2.5
      vertex 16.1111 16.6629 2.5
    endloop
  endfacet
  facet normal 0.290285 0.95694 0
    outer loop
      vertex 15.3902 16.9616 -2.5
      vertex 15.3902 16.9616 2.5
      vertex 15.7654 16.8478 -2.5
    endloop
  endfacet
  facet normal 0.290285 0.95694 0
    outer loop
      vertex 15.7654 16.8478 -2.5
      vertex 15.3902 16.9616 2.5
      vertex 15.7654 16.8478 2.5
    endloop
  endfacet
  facet normal 0.0980167 0.995185 0
    outer loop
      vertex 15 17 -2.5
      vertex 15 17 2.5
      vertex 15.3902 16.9616 -2.5
    endloop
  endfacet
  facet normal 0.0980167 0.995185 0
    outer loop
      vertex 15.3902 16.9616 -2.5
      vertex 15 17 2.5
      vertex 15.3902 16.9616 2.5
    endloop
  endfacet
  facet normal 0 1 0
    outer loop
      vertex 2.5 17 -2.5
      vertex 2.5 17 2.5
      vertex 15 17 -2.5
    endloop
  endfacet
  facet normal 0 1 0
    outer loop
      vertex 15 17 -2.5
      vertex 2.5 17 2.5
      vertex 15 17 2.5
    endloop
  endfacet
  facet normal 1 0 0
    outer loop
      vertex 2.5 17 2.5
      vertex 2.5 17 -2.5
      vertex 2.5 21.25 -2.5
    endloop
  endfacet
  facet normal 1 0 0
    outer loop
      vertex 2.5 21.25 0.0324764
      vertex 2.5 17 2.5
      vertex 2.5 21.25 -0.721834
    endloop
  endfacet
  facet normal 1 0 0
    outer loop
      vertex 2.5 21.25 -0.721834
      vertex 2.5 17 2.5
      vertex 2.5 21.25 -2.5
    endloop
  endfacet
  facet normal 1 0 0
    outer loop
      vertex 2.5 21.25 2.00358
      vertex 2.5 17 2.5
      vertex 2.5 21.25 0.0324764
    endloop
  endfacet
  facet normal 1 0 0
    outer loop
      vertex 2.5 21.25 2.5
      vertex 2.5 17 2.5
      vertex 2.5 21.25 2.00358
    endloop
  endfacet
  facet normal 0 1 0
    outer loop
      vertex 0.625 21.25 -2.5
      vertex 0.625 21.25 -0.721834
      vertex 2.5 21.25 -2.5
    endloop
  endfacet
  facet normal 0 1 0
    outer loop
      vertex 2.5 21.25 -2.5
      vertex 0.625 21.25 -0.721834
      vertex 2.5 21.25 -0.721834
    endloop
  endfacet
  facet normal -1 0 0
    outer loop
      vertex 0.625 25.8907 2.5
      vertex 0.625 26.25 2.41032
      vertex 0.625 12.4384 2.5
    endloop
  endfacet
  facet normal -1 0 0
    outer loop
      vertex 0.625 12.4384 2.5
      vertex 0.625 26.25 2.41032
      vertex 0.625 26.25 -2.41032
    endloop
  endfacet
  facet normal -1 0 0
    outer loop
      vertex 0.625 21.25 -0.721834
      vertex 0.625 26.25 -2.41032
      vertex 0.625 25.8907 -2.5
    endloop
  endfacet
  facet normal -1 0 0
    outer loop
      vertex 0.625 21.25 -2.01224
      vertex 0.625 25.8907 -2.5
      vertex 0.625 21.25 -2.5
    endloop
  endfacet
  facet normal -1 0 0
    outer loop
      vertex 0.625 12.4384 2.5
      vertex 0.625 26.25 -2.41032
      vertex 0.625 21.25 -0.721834
    endloop
  endfacet
  facet normal -1 0 0
    outer loop
      vertex 0.625 21.25 -2.5
      vertex 0.625 12.4384 2.5
      vertex 0.625 21.25 -0.721834
    endloop
  endfacet
  facet normal -1 0 0
    outer loop
      vertex 0.625 12.4384 2.5
      vertex 0.625 21.25 -2.5
      vertex 0.625 12.4384 -2.5
    endloop
  endfacet
  facet normal -1 0 0
    outer loop
      vertex 0.625 21.25 -0.721834
      vertex 0.625 25.8907 -2.5
      vertex 0.625 21.25 -2.01224
    endloop
  endfacet
  facet normal -0.0980171 -0.995185 0
    outer loop
      vertex 2.43863 12.2598 -2.5
      vertex 2.43863 12.2598 2.5
      vertex 0.625 12.4384 2.5
    endloop
  endfacet
  facet normal -0.0980171 -0.995185 0
    outer loop
      vertex 0.625 12.4384 -2.5
      vertex 2.43863 12.2598 -2.5
      vertex 0.625 12.4384 2.5
    endloop
  endfacet
  facet normal -0.290285 -0.95694 0
    outer loop
      vertex 4.78354 11.5485 -2.5
      vertex 4.78354 11.5485 2.5
      vertex 2.43863 12.2598 2.5
    endloop
  endfacet
  facet normal -0.290285 -0.95694 0
    outer loop
      vertex 2.43863 12.2598 -2.5
      vertex 4.78354 11.5485 -2.5
      vertex 2.43863 12.2598 2.5
    endloop
  endfacet
  facet normal -0.471397 -0.881921 0
    outer loop
      vertex 6.94463 10.3934 -2.5
      vertex 6.94463 10.3934 2.5
      vertex 4.78354 11.5485 2.5
    endloop
  endfacet
  facet normal -0.471397 -0.881921 0
    outer loop
      vertex 4.78354 11.5485 -2.5
      vertex 6.94463 10.3934 -2.5
      vertex 4.78354 11.5485 2.5
    endloop
  endfacet
  facet normal -0.634393 -0.77301 0
    outer loop
      vertex 8.83883 8.83883 -2.5
      vertex 8.83883 8.83883 2.5
      vertex 6.94463 10.3934 2.5
    endloop
  endfacet
  facet normal -0.634393 -0.77301 0
    outer loop
      vertex 6.94463 10.3934 -2.5
      vertex 8.83883 8.83883 -2.5
      vertex 6.94463 10.3934 2.5
    endloop
  endfacet
  facet normal -0.77301 -0.634393 0
    outer loop
      vertex 10.3934 6.94463 2.5
      vertex 8.83883 8.83883 2.5
      vertex 10.3934 6.94463 -2.5
    endloop
  endfacet
  facet normal -0.77301 -0.634393 0
    outer loop
      vertex 10.3934 6.94463 -2.5
      vertex 8.83883 8.83883 2.5
      vertex 8.83883 8.83883 -2.5
    endloop
  endfacet
  facet normal -0.881921 -0.471397 0
    outer loop
      vertex 11.5485 4.78354 2.5
      vertex 10.3934 6.94463 2.5
      vertex 11.5485 4.78354 -2.5
    endloop
  endfacet
  facet normal -0.881921 -0.471397 0
    outer loop
      vertex 11.5485 4.78354 -2.5
      vertex 10.3934 6.94463 2.5
      vertex 10.3934 6.94463 -2.5
    endloop
  endfacet
  facet normal -0.95694 -0.290285 0
    outer loop
      vertex 12.2598 2.43863 2.5
      vertex 11.5485 4.78354 2.5
      vertex 12.2598 2.43863 -2.5
    endloop
  endfacet
  facet normal -0.95694 -0.290285 0
    outer loop
      vertex 12.2598 2.43863 -2.5
      vertex 11.5485 4.78354 2.5
      vertex 11.5485 4.78354 -2.5
    endloop
  endfacet
  facet normal -0.995185 -0.0980171 0
    outer loop
      vertex 12.5 0 2.5
      vertex 12.2598 2.43863 2.5
      vertex 12.5 0 -2.5
    endloop
  endfacet
  facet normal -0.995185 -0.0980171 0
    outer loop
      vertex 12.5 0 -2.5
      vertex 12.2598 2.43863 2.5
      vertex 12.2598 2.43863 -2.5
    endloop
  endfacet
  facet normal -0.995185 0.0980171 0
    outer loop
      vertex 12.5 0 2.5
      vertex 12.5 0 -2.5
      vertex 12.2598 -2.43863 2.5
    endloop
  endfacet
  facet normal -0.995185 0.0980171 0
    outer loop
      vertex 12.2598 -2.43863 2.5
      vertex 12.5 0 -2.5
      vertex 12.2598 -2.43863 -2.5
    endloop
  endfacet
  facet normal -0.95694 0.290285 0
    outer loop
      vertex 12.2598 -2.43863 2.5
      vertex 12.2598 -2.43863 -2.5
      vertex 11.5485 -4.78354 2.5
    endloop
  endfacet
  facet normal -0.95694 0.290285 0
    outer loop
      vertex 11.5485 -4.78354 2.5
      vertex 12.2598 -2.43863 -2.5
      vertex 11.5485 -4.78354 -2.5
    endloop
  endfacet
  facet normal -0.881921 0.471397 0
    outer loop
      vertex 11.5485 -4.78354 2.5
      vertex 11.5485 -4.78354 -2.5
      vertex 10.3934 -6.94463 2.5
    endloop
  endfacet
  facet normal -0.881921 0.471397 0
    outer loop
      vertex 10.3934 -6.94463 2.5
      vertex 11.5485 -4.78354 -2.5
      vertex 10.3934 -6.94463 -2.5
    endloop
  endfacet
  facet normal -0.77301 0.634393 0
    outer loop
      vertex 10.3934 -6.94463 2.5
      vertex 10.3934 -6.94463 -2.5
      vertex 8.83883 -8.83883 2.5
    endloop
  endfacet
  facet normal -0.77301 0.634393 0
    outer loop
      vertex 8.83883 -8.83883 2.5
      vertex 10.3934 -6.94463 -2.5
      vertex 8.83883 -8.83883 -2.5
    endloop
  endfacet
  facet normal -0.634393 0.77301 0
    outer loop
      vertex 8.83883 -8.83883 2.5
      vertex 8.83883 -8.83883 -2.5
      vertex 6.94463 -10.3934 2.5
    endloop
  endfacet
  facet normal -0.634393 0.77301 0
    outer loop
      vertex 6.94463 -10.3934 2.5
      vertex 8.83883 -8.83883 -2.5
      vertex 6.94463 -10.3934 -2.5
    endloop
  endfacet
  facet normal -0.471397 0.881921 0
    outer loop
      vertex 6.94463 -10.3934 2.5
      vertex 6.94463 -10.3934 -2.5
      vertex 4.78354 -11.5485 2.5
    endloop
  endfacet
  facet normal -0.471397 0.881921 0
    outer loop
      vertex 4.78354 -11.5485 2.5
      vertex 6.94463 -10.3934 -2.5
      vertex 4.78354 -11.5485 -2.5
    endloop
  endfacet
  facet normal -0.290285 0.95694 0
    outer loop
      vertex 4.78354 -11.5485 2.5
      vertex 4.78354 -11.5485 -2.5
      vertex 2.43863 -12.2598 2.5
    endloop
  endfacet
  facet normal -0.290285 0.95694 0
    outer loop
      vertex 2.43863 -12.2598 2.5
      vertex 4.78354 -11.5485 -2.5
      vertex 2.43863 -12.2598 -2.5
    endloop
  endfacet
  facet normal -0.0980171 0.995185 0
    outer loop
      vertex 2.43863 -12.2598 2.5
      vertex 2.43863 -12.2598 -2.5
      vertex -2.29621e-15 -12.5 2.5
    endloop
  endfacet
  facet normal -0.0980171 0.995185 0
    outer loop
      vertex -2.29621e-15 -12.5 2.5
      vertex 2.43863 -12.2598 -2.5
      vertex -2.29621e-15 -12.5 -2.5
    endloop
  endfacet
  facet normal 0.0980171 0.995185 0
    outer loop
      vertex -2.29621e-15 -12.5 2.5
      vertex -2.29621e-15 -12.5 -2.5
      vertex -2.43863 -12.2598 2.5
    endloop
  endfacet
  facet normal 0.0980171 0.995185 0
    outer loop
      vertex -2.43863 -12.2598 2.5
      vertex -2.29621e-15 -12.5 -2.5
      vertex -2.43863 -12.2598 -2.5
    endloop
  endfacet
  facet normal 0.290285 0.95694 0
    outer loop
      vertex -2.43863 -12.2598 2.5
      vertex -2.43863 -12.2598 -2.5
      vertex -4.78354 -11.5485 2.5
    endloop
  endfacet
  facet normal 0.290285 0.95694 0
    outer loop
      vertex -4.78354 -11.5485 2.5
      vertex -2.43863 -12.2598 -2.5
      vertex -4.78354 -11.5485 -2.5
    endloop
  endfacet
  facet normal 0.471397 0.881921 0
    outer loop
      vertex -4.78354 -11.5485 2.5
      vertex -4.78354 -11.5485 -2.5
      vertex -6.94463 -10.3934 2.5
    endloop
  endfacet
  facet normal 0.471397 0.881921 0
    outer loop
      vertex -6.94463 -10.3934 2.5
      vertex -4.78354 -11.5485 -2.5
      vertex -6.94463 -10.3934 -2.5
    endloop
  endfacet
  facet normal 0.634393 0.77301 0
    outer loop
      vertex -6.94463 -10.3934 2.5
      vertex -6.94463 -10.3934 -2.5
      vertex -8.83883 -8.83883 2.5
    endloop
  endfacet
  facet normal 0.634393 0.77301 0
    outer loop
      vertex -8.83883 -8.83883 2.5
      vertex -6.94463 -10.3934 -2.5
      vertex -8.83883 -8.83883 -2.5
    endloop
  endfacet
  facet normal 0.77301 0.634393 0
    outer loop
      vertex -10.3934 -6.94463 2.5
      vertex -8.83883 -8.83883 2.5
      vertex -8.83883 -8.83883 -2.5
    endloop
  endfacet
  facet normal 0.77301 0.634393 0
    outer loop
      vertex -10.3934 -6.94463 -2.5
      vertex -10.3934 -6.94463 2.5
      vertex -8.83883 -8.83883 -2.5
    endloop
  endfacet
  facet normal 0.881921 0.471397 0
    outer loop
      vertex -11.5485 -4.78354 2.5
      vertex -10.3934 -6.94463 2.5
      vertex -10.3934 -6.94463 -2.5
    endloop
  endfacet
  facet normal 0.881921 0.471397 0
    outer loop
      vertex -11.5485 -4.78354 -2.5
      vertex -11.5485 -4.78354 2.5
      vertex -10.3934 -6.94463 -2.5
    endloop
  endfacet
  facet normal 0.95694 0.290285 0
    outer loop
      vertex -12.2598 -2.43863 2.5
      vertex -11.5485 -4.78354 2.5
      vertex -11.5485 -4.78354 -2.5
    endloop
  endfacet
  facet normal 0.95694 0.290285 0
    outer loop
      vertex -12.2598 -2.43863 -2.5
      vertex -12.2598 -2.43863 2.5
      vertex -11.5485 -4.78354 -2.5
    endloop
  endfacet
  facet normal 0.995185 0.0980171 0
    outer loop
      vertex -12.5 1.53081e-15 2.5
      vertex -12.2598 -2.43863 2.5
      vertex -12.2598 -2.43863 -2.5
    endloop
  endfacet
  facet normal 0.995185 0.0980171 0
    outer loop
      vertex -12.5 1.53081e-15 -2.5
      vertex -12.5 1.53081e-15 2.5
      vertex -12.2598 -2.43863 -2.5
    endloop
  endfacet
  facet normal 0.995185 -0.0980171 0
    outer loop
      vertex -12.2598 2.43863 -2.5
      vertex -12.2598 2.43863 2.5
      vertex -12.5 1.53081e-15 2.5
    endloop
  endfacet
  facet normal 0.995185 -0.0980171 0
    outer loop
      vertex -12.5 1.53081e-15 -2.5
      vertex -12.2598 2.43863 -2.5
      vertex -12.5 1.53081e-15 2.5
    endloop
  endfacet
  facet normal 0.95694 -0.290285 0
    outer loop
      vertex -11.5485 4.78354 -2.5
      vertex -11.5485 4.78354 2.5
      vertex -12.2598 2.43863 2.5
    endloop
  endfacet
  facet normal 0.95694 -0.290285 0
    outer loop
      vertex -12.2598 2.43863 -2.5
      vertex -11.5485 4.78354 -2.5
      vertex -12.2598 2.43863 2.5
    endloop
  endfacet
  facet normal 0.881921 -0.471397 0
    outer loop
      vertex -10.3934 6.94463 -2.5
      vertex -10.3934 6.94463 2.5
      vertex -11.5485 4.78354 2.5
    endloop
  endfacet
  facet normal 0.881921 -0.471397 0
    outer loop
      vertex -11.5485 4.78354 -2.5
      vertex -10.3934 6.94463 -2.5
      vertex -11.5485 4.78354 2.5
    endloop
  endfacet
  facet normal 0.77301 -0.634393 0
    outer loop
      vertex -8.83883 8.83883 -2.5
      vertex -8.83883 8.83883 2.5
      vertex -10.3934 6.94463 2.5
    endloop
  endfacet
  facet normal 0.77301 -0.634393 0
    outer loop
      vertex -10.3934 6.94463 -2.5
      vertex -8.83883 8.83883 -2.5
      vertex -10.3934 6.94463 2.5
    endloop
  endfacet
  facet normal 0.634393 -0.77301 0
    outer loop
      vertex -6.94463 10.3934 -2.5
      vertex -6.94463 10.3934 2.5
      vertex -8.83883 8.83883 2.5
    endloop
  endfacet
  facet normal 0.634393 -0.77301 0
    outer loop
      vertex -8.83883 8.83883 -2.5
      vertex -6.94463 10.3934 -2.5
      vertex -8.83883 8.83883 2.5
    endloop
  endfacet
  facet normal 0.471397 -0.881921 0
    outer loop
      vertex -4.78354 11.5485 -2.5
      vertex -4.78354 11.5485 2.5
      vertex -6.94463 10.3934 2.5
    endloop
  endfacet
  facet normal 0.471397 -0.881921 0
    outer loop
      vertex -6.94463 10.3934 -2.5
      vertex -4.78354 11.5485 -2.5
      vertex -6.94463 10.3934 2.5
    endloop
  endfacet
  facet normal 0.290285 -0.95694 0
    outer loop
      vertex -2.43863 12.2598 -2.5
      vertex -2.43863 12.2598 2.5
      vertex -4.78354 11.5485 2.5
    endloop
  endfacet
  facet normal 0.290285 -0.95694 0
    outer loop
      vertex -4.78354 11.5485 -2.5
      vertex -2.43863 12.2598 -2.5
      vertex -4.78354 11.5485 2.5
    endloop
  endfacet
  facet normal 0.0980171 -0.995185 0
    outer loop
      vertex -0.625 12.4384 -2.5
      vertex -0.625 12.4384 2.5
      vertex -2.43863 12.2598 2.5
    endloop
  endfacet
  facet normal 0.0980171 -0.995185 0
    outer loop
      vertex -2.43863 12.2598 -2.5
      vertex -0.625 12.4384 -2.5
      vertex -2.43863 12.2598 2.5
    endloop
  endfacet
  facet normal 1 0 0
    outer loop
      vertex -0.625 21.25 -2.5
      vertex -0.625 21.25 -0.721834
      vertex -0.625 21.25 -1.63306
    endloop
  endfacet
  facet normal 1 0 0
    outer loop
      vertex -0.625 21.25 -2.5
      vertex -0.625 21.25 -0.721834
      vertex -0.625 12.4384 2.5
    endloop
  endfacet
  facet normal 1 0 0
    outer loop
      vertex -0.625 21.25 -2.5
      vertex -0.625 25.8907 -2.5
      vertex -0.625 21.25 -0.721834
    endloop
  endfacet
  facet normal 1 0 0
    outer loop
      vertex -0.625 25.8907 -2.5
      vertex -0.625 26.25 -2.41032
      vertex -0.625 21.25 -0.721834
    endloop
  endfacet
  facet normal 1 0 0
    outer loop
      vertex -0.625 26.25 -2.41032
      vertex -0.625 26.25 2.41032
      vertex -0.625 21.25 -0.721834
    endloop
  endfacet
  facet normal 1 0 0
    outer loop
      vertex -0.625 26.25 2.41032
      vertex -0.625 25.8907 2.5
      vertex -0.625 21.25 -0.721834
    endloop
  endfacet
  facet normal 1 0 0
    outer loop
      vertex -0.625 25.8907 2.5
      vertex -0.625 12.4384 2.5
      vertex -0.625 21.25 -0.721834
    endloop
  endfacet
  facet normal 1 0 0
    outer loop
      vertex -0.625 12.4384 2.5
      vertex -0.625 12.4384 -2.5
      vertex -0.625 21.25 -2.5
    endloop
  endfacet
  facet normal 0 1 0
    outer loop
      vertex -2.5 21.25 -2.5
      vertex -2.5 21.25 -0.721834
      vertex -0.625 21.25 -2.5
    endloop
  endfacet
  facet normal 0 1 0
    outer loop
      vertex -0.625 21.25 -2.5
      vertex -2.5 21.25 -0.721834
      vertex -0.625 21.25 -0.721834
    endloop
  endfacet
  facet normal -1 0 0
    outer loop
      vertex -2.5 17 -2.5
      vertex -2.5 17 2.5
      vertex -2.5 21.25 -2.5
    endloop
  endfacet
  facet normal -1 0 0
    outer loop
      vertex -2.5 21.25 -2.5
      vertex -2.5 17 2.5
      vertex -2.5 21.25 2.5
    endloop
  endfacet
  facet normal -1 0 0
    outer loop
      vertex -2.5 21.25 -2.5
      vertex -2.5 21.25 2.5
      vertex -2.5 21.25 2.00358
    endloop
  endfacet
  facet normal -1 0 0
    outer loop
      vertex -2.5 21.25 -2.5
      vertex -2.5 21.25 2.00358
      vertex -2.5 21.25 -0.721834
    endloop
  endfacet
  facet normal 0 1 0
    outer loop
      vertex -15 17 -2.5
      vertex -15 17 2.5
      vertex -2.5 17 -2.5
    endloop
  endfacet
  facet normal 0 1 0
    outer loop
      vertex -2.5 17 -2.5
      vertex -15 17 2.5
      vertex -2.5 17 2.5
    endloop
  endfacet
  facet normal -0.0980167 0.995185 0
    outer loop
      vertex -15.3902 16.9616 -2.5
      vertex -15.3902 16.9616 2.5
      vertex -15 17 -2.5
    endloop
  endfacet
  facet normal -0.0980167 0.995185 0
    outer loop
      vertex -15 17 -2.5
      vertex -15.3902 16.9616 2.5
      vertex -15 17 2.5
    endloop
  endfacet
  facet normal -0.290285 0.95694 0
    outer loop
      vertex -15.7654 16.8478 -2.5
      vertex -15.7654 16.8478 2.5
      vertex -15.3902 16.9616 -2.5
    endloop
  endfacet
  facet normal -0.290285 0.95694 0
    outer loop
      vertex -15.3902 16.9616 -2.5
      vertex -15.7654 16.8478 2.5
      vertex -15.3902 16.9616 2.5
    endloop
  endfacet
  facet normal -0.471397 0.881921 0
    outer loop
      vertex -16.1111 16.6629 -2.5
      vertex -16.1111 16.6629 2.5
      vertex -15.7654 16.8478 -2.5
    endloop
  endfacet
  facet normal -0.471397 0.881921 0
    outer loop
      vertex -15.7654 16.8478 -2.5
      vertex -16.1111 16.6629 2.5
      vertex -15.7654 16.8478 2.5
    endloop
  endfacet
  facet normal -0.634394 0.77301 0
    outer loop
      vertex -16.4142 16.4142 -2.5
      vertex -16.4142 16.4142 2.5
      vertex -16.1111 16.6629 -2.5
    endloop
  endfacet
  facet normal -0.634394 0.77301 0
    outer loop
      vertex -16.1111 16.6629 -2.5
      vertex -16.4142 16.4142 2.5
      vertex -16.1111 16.6629 2.5
    endloop
  endfacet
  facet normal -0.77301 0.634394 0
    outer loop
      vertex -16.6629 16.1111 -2.5
      vertex -16.6629 16.1111 2.5
      vertex -16.4142 16.4142 -2.5
    endloop
  endfacet
  facet normal -0.77301 0.634394 0
    outer loop
      vertex -16.4142 16.4142 -2.5
      vertex -16.6629 16.1111 2.5
      vertex -16.4142 16.4142 2.5
    endloop
  endfacet
  facet normal -0.881921 0.471397 0
    outer loop
      vertex -16.8478 15.7654 -2.5
      vertex -16.8478 15.7654 2.5
      vertex -16.6629 16.1111 -2.5
    endloop
  endfacet
  facet normal -0.881921 0.471397 0
    outer loop
      vertex -16.6629 16.1111 -2.5
      vertex -16.8478 15.7654 2.5
      vertex -16.6629 16.1111 2.5
    endloop
  endfacet
  facet normal -0.95694 0.290285 0
    outer loop
      vertex -16.9616 15.3902 -2.5
      vertex -16.9616 15.3902 2.5
      vertex -16.8478 15.7654 -2.5
    endloop
  endfacet
  facet normal -0.95694 0.290285 0
    outer loop
      vertex -16.8478 15.7654 -2.5
      vertex -16.9616 15.3902 2.5
      vertex -16.8478 15.7654 2.5
    endloop
  endfacet
  facet normal -0.995185 0.0980167 0
    outer loop
      vertex -17 15 -2.5
      vertex -17 15 2.5
      vertex -16.9616 15.3902 -2.5
    endloop
  endfacet
  facet normal -0.995185 0.0980167 0
    outer loop
      vertex -16.9616 15.3902 -2.5
      vertex -17 15 2.5
      vertex -16.9616 15.3902 2.5
    endloop
  endfacet
  facet normal -8.2674e-17 -1 -1.99593e-16
    outer loop
      vertex -3.41835 21.25 1.41593
      vertex -3.62891 21.25 -0.721834
      vertex -2.5 21.25 2.00358
    endloop
  endfacet
  facet normal -8.2674e-17 -1 -1.99593e-16
    outer loop
      vertex -2.52868 21.25 2.5
      vertex -3.41835 21.25 1.41593
      vertex -2.5 21.25 2.5
    endloop
  endfacet
  facet normal -8.2674e-17 -1 -1.99593e-16
    outer loop
      vertex -2.5 21.25 2.5
      vertex -3.41835 21.25 1.41593
      vertex -2.5 21.25 2.00358
    endloop
  endfacet
  facet normal -9.34563e-16 -1 4.99534e-16
    outer loop
      vertex -3.07644 21.25 2.05561
      vertex -3.41835 21.25 1.41593
      vertex -2.52868 21.25 2.5
    endloop
  endfacet
  facet normal -9.34563e-16 -1 4.99534e-16
    outer loop
      vertex -2.63205 21.25 2.5
      vertex -3.07644 21.25 2.05561
      vertex -2.52868 21.25 2.5
    endloop
  endfacet
  facet normal -2.42597e-15 -1 1.99095e-15
    outer loop
      vertex -2.71174 21.25 2.5
      vertex -3.07644 21.25 2.05561
      vertex -2.63205 21.25 2.5
    endloop
  endfacet
  facet normal -0.751862 0.23231 0.617037
    outer loop
      vertex -3.07644 21.25 2.05561
      vertex -2.71174 21.25 2.5
      vertex -1.76777 26.25 1.76777
    endloop
  endfacet
  facet normal -0.751862 0.23231 0.617037
    outer loop
      vertex -1.76777 26.25 1.76777
      vertex -2.71174 21.25 2.5
      vertex -2.5 21.9353 2.5
    endloop
  endfacet
  facet normal -0.617037 0.23231 0.751862
    outer loop
      vertex -1.76777 26.25 1.76777
      vertex -2.5 21.9353 2.5
      vertex -1.92882 23.4524 2.5
    endloop
  endfacet
  facet normal -0.617037 0.23231 0.751862
    outer loop
      vertex -1.76777 26.25 1.76777
      vertex -1.92882 23.4524 2.5
      vertex -1.67045 24.1386 2.5
    endloop
  endfacet
  facet normal -0.617037 0.23231 0.751862
    outer loop
      vertex -1.38893 26.25 2.07867
      vertex -1.76777 26.25 1.76777
      vertex -1.67045 24.1386 2.5
    endloop
  endfacet
  facet normal -0.4585 0.23231 0.857793
    outer loop
      vertex -1.38893 26.25 2.07867
      vertex -1.67045 24.1386 2.5
      vertex -1.39742 24.6775 2.5
    endloop
  endfacet
  facet normal -0.4585 0.23231 0.857793
    outer loop
      vertex -1.38893 26.25 2.07867
      vertex -1.39742 24.6775 2.5
      vertex -1.03553 25.3917 2.5
    endloop
  endfacet
  facet normal -0.4585 0.23231 0.857793
    outer loop
      vertex -0.956709 26.25 2.3097
      vertex -1.38893 26.25 2.07867
      vertex -1.03553 25.3917 2.5
    endloop
  endfacet
  facet normal -0.282343 0.23231 0.93076
    outer loop
      vertex -0.956709 26.25 2.3097
      vertex -1.03553 25.3917 2.5
      vertex -0.625 25.8907 2.5
    endloop
  endfacet
  facet normal -0.282343 0.23231 0.93076
    outer loop
      vertex -0.625 26.25 2.41032
      vertex -0.956709 26.25 2.3097
      vertex -0.625 25.8907 2.5
    endloop
  endfacet
  facet normal 0.282343 0.23231 0.93076
    outer loop
      vertex 0.625 26.25 2.41032
      vertex 0.625 25.8907 2.5
      vertex 1.03553 25.3917 2.5
    endloop
  endfacet
  facet normal 0.282343 0.23231 0.93076
    outer loop
      vertex 0.956709 26.25 2.3097
      vertex 0.625 26.25 2.41032
      vertex 1.03553 25.3917 2.5
    endloop
  endfacet
  facet normal 0.4585 0.23231 0.857793
    outer loop
      vertex 1.38893 26.25 2.07867
      vertex 0.956709 26.25 2.3097
      vertex 1.03553 25.3917 2.5
    endloop
  endfacet
  facet normal 0.4585 0.23231 0.857793
    outer loop
      vertex 1.39742 24.6775 2.5
      vertex 1.38893 26.25 2.07867
      vertex 1.03553 25.3917 2.5
    endloop
  endfacet
  facet normal 0.4585 0.23231 0.857793
    outer loop
      vertex 1.67045 24.1386 2.5
      vertex 1.38893 26.25 2.07867
      vertex 1.39742 24.6775 2.5
    endloop
  endfacet
  facet normal 0.617037 0.23231 0.751862
    outer loop
      vertex 1.76777 26.25 1.76777
      vertex 1.38893 26.25 2.07867
      vertex 1.67045 24.1386 2.5
    endloop
  endfacet
  facet normal 0.617037 0.23231 0.751862
    outer loop
      vertex 1.92882 23.4524 2.5
      vertex 1.76777 26.25 1.76777
      vertex 1.67045 24.1386 2.5
    endloop
  endfacet
  facet normal 0.617037 0.23231 0.751862
    outer loop
      vertex 2.5 21.9353 2.5
      vertex 1.76777 26.25 1.76777
      vertex 1.92882 23.4524 2.5
    endloop
  endfacet
  facet normal 0.751862 0.23231 0.617037
    outer loop
      vertex 3.07644 21.25 2.05561
      vertex 1.76777 26.25 1.76777
      vertex 2.5 21.9353 2.5
    endloop
  endfacet
  facet normal 0.751862 0.23231 0.617037
    outer loop
      vertex 2.71174 21.25 2.5
      vertex 3.07644 21.25 2.05561
      vertex 2.5 21.9353 2.5
    endloop
  endfacet
  facet normal 2.42597e-15 -1 1.99095e-15
    outer loop
      vertex 2.71174 21.25 2.5
      vertex 2.63205 21.25 2.5
      vertex 3.07644 21.25 2.05561
    endloop
  endfacet
  facet normal 9.34563e-16 -1 4.99534e-16
    outer loop
      vertex 2.63205 21.25 2.5
      vertex 2.52868 21.25 2.5
      vertex 3.41835 21.25 1.41593
    endloop
  endfacet
  facet normal 9.34563e-16 -1 4.99534e-16
    outer loop
      vertex 3.07644 21.25 2.05561
      vertex 2.63205 21.25 2.5
      vertex 3.41835 21.25 1.41593
    endloop
  endfacet
  facet normal 8.2674e-17 -1 -1.99593e-16
    outer loop
      vertex 2.52868 21.25 2.5
      vertex 2.5 21.25 2.5
      vertex 2.5 21.25 2.00358
    endloop
  endfacet
  facet normal 8.2674e-17 -1 -1.99593e-16
    outer loop
      vertex 3.41835 21.25 1.41593
      vertex 2.52868 21.25 2.5
      vertex 3.62891 21.25 -0.721834
    endloop
  endfacet
  facet normal 8.2674e-17 -1 -1.99593e-16
    outer loop
      vertex 3.62891 21.25 -0.721834
      vertex 2.52868 21.25 2.5
      vertex 2.5 21.25 2.00358
    endloop
  endfacet
  facet normal 5.05177e-32 -1 -2.33838e-16
    outer loop
      vertex 3.62891 21.25 -0.721834
      vertex 2.5 21.25 2.00358
      vertex 2.5 21.25 0.0324764
    endloop
  endfacet
  facet normal 4.2924e-32 -1 -2.33838e-16
    outer loop
      vertex 3.62891 21.25 -0.721834
      vertex 2.5 21.25 0.0324764
      vertex 2.5 21.25 -0.721834
    endloop
  endfacet
  facet normal 4.30299e-32 -1 -2.34415e-16
    outer loop
      vertex 2.5 21.25 -0.721834
      vertex 0.625 21.25 -0.721834
      vertex 0.625 21.25 -2.01224
    endloop
  endfacet
  facet normal 4.30299e-32 -1 -2.34415e-16
    outer loop
      vertex 2.67846 21.25 -2.5
      vertex 2.5 21.25 -0.721834
      vertex 2.23292 21.25 -2.5
    endloop
  endfacet
  facet normal 4.30299e-32 -1 -2.34415e-16
    outer loop
      vertex 2.23292 21.25 -2.5
      vertex 2.5 21.25 -0.721834
      vertex 0.625 21.25 -2.01224
    endloop
  endfacet
  facet normal 4.30299e-32 -1 -2.34415e-16
    outer loop
      vertex 3.62891 21.25 -0.721834
      vertex 2.5 21.25 -0.721834
      vertex 2.67846 21.25 -2.5
    endloop
  endfacet
  facet normal 1.98947e-32 -1 -2.34415e-16
    outer loop
      vertex 2.23292 21.25 -2.5
      vertex 0.625 21.25 -2.01224
      vertex 0.625 21.25 -2.5
    endloop
  endfacet
  facet normal 0 0 -1
    outer loop
      vertex 0.625 21.25 -2.5
      vertex 0.625 25.8907 -2.5
      vertex 2.23292 21.25 -2.5
    endloop
  endfacet
  facet normal 0 0 -1
    outer loop
      vertex 2.23292 21.25 -2.5
      vertex 0.625 25.8907 -2.5
      vertex 1.03553 25.3917 -2.5
    endloop
  endfacet
  facet normal 0 0 -1
    outer loop
      vertex 2.23292 21.25 -2.5
      vertex 1.03553 25.3917 -2.5
      vertex 1.39742 24.6775 -2.5
    endloop
  endfacet
  facet normal 0 0 -1
    outer loop
      vertex 2.23292 21.25 -2.5
      vertex 1.39742 24.6775 -2.5
      vertex 1.67045 24.1386 -2.5
    endloop
  endfacet
  facet normal 0 0 -1
    outer loop
      vertex 2.23292 21.25 -2.5
      vertex 1.67045 24.1386 -2.5
      vertex 2.3508 22.3316 -2.5
    endloop
  endfacet
  facet normal 0 0 -1
    outer loop
      vertex 2.23292 21.25 -2.5
      vertex 2.3508 22.3316 -2.5
      vertex 2.5 21.9353 -2.5
    endloop
  endfacet
  facet normal 0 0 -1
    outer loop
      vertex 2.23292 21.25 -2.5
      vertex 2.5 21.9353 -2.5
      vertex 2.56535 21.7238 -2.5
    endloop
  endfacet
  facet normal 0 0 -1
    outer loop
      vertex 2.23292 21.25 -2.5
      vertex 2.56535 21.7238 -2.5
      vertex 2.71174 21.25 -2.5
    endloop
  endfacet
  facet normal 0 0 -1
    outer loop
      vertex 2.23292 21.25 -2.5
      vertex 2.71174 21.25 -2.5
      vertex 2.67846 21.25 -2.5
    endloop
  endfacet
  facet normal 0.282343 0.23231 -0.93076
    outer loop
      vertex 0.625 25.8907 -2.5
      vertex 0.625 26.25 -2.41032
      vertex 1.03553 25.3917 -2.5
    endloop
  endfacet
  facet normal 0.282343 0.23231 -0.93076
    outer loop
      vertex 1.03553 25.3917 -2.5
      vertex 0.625 26.25 -2.41032
      vertex 0.956709 26.25 -2.3097
    endloop
  endfacet
  facet normal 0 1 0
    outer loop
      vertex 0.625 26.25 -2.41032
      vertex 0.625 26.25 2.41032
      vertex 0.956709 26.25 -2.3097
    endloop
  endfacet
  facet normal 0 1 0
    outer loop
      vertex 0.956709 26.25 -2.3097
      vertex 0.625 26.25 2.41032
      vertex 0.956709 26.25 2.3097
    endloop
  endfacet
  facet normal 0 1 0
    outer loop
      vertex 0.956709 26.25 -2.3097
      vertex 0.956709 26.25 2.3097
      vertex 1.38893 26.25 2.07867
    endloop
  endfacet
  facet normal 0 1 0
    outer loop
      vertex 0.956709 26.25 -2.3097
      vertex 1.38893 26.25 2.07867
      vertex 1.76777 26.25 1.76777
    endloop
  endfacet
  facet normal 0 1 0
    outer loop
      vertex 0.956709 26.25 -2.3097
      vertex 1.76777 26.25 1.76777
      vertex 2.07867 26.25 1.38893
    endloop
  endfacet
  facet normal 0 1 0
    outer loop
      vertex 0.956709 26.25 -2.3097
      vertex 2.07867 26.25 1.38893
      vertex 2.3097 26.25 0.956709
    endloop
  endfacet
  facet normal 0 1 0
    outer loop
      vertex 0.956709 26.25 -2.3097
      vertex 2.3097 26.25 0.956709
      vertex 2.45196 26.25 0.487726
    endloop
  endfacet
  facet normal 0 1 0
    outer loop
      vertex 0.956709 26.25 -2.3097
      vertex 2.45196 26.25 0.487726
      vertex 2.5 26.25 5.55112e-16
    endloop
  endfacet
  facet normal 0 1 0
    outer loop
      vertex 0.956709 26.25 -2.3097
      vertex 2.5 26.25 5.55112e-16
      vertex 2.45196 26.25 -0.487726
    endloop
  endfacet
  facet normal 0 1 0
    outer loop
      vertex 0.956709 26.25 -2.3097
      vertex 2.45196 26.25 -0.487726
      vertex 2.3097 26.25 -0.956709
    endloop
  endfacet
  facet normal 0 1 0
    outer loop
      vertex 0.956709 26.25 -2.3097
      vertex 2.3097 26.25 -0.956709
      vertex 2.07867 26.25 -1.38893
    endloop
  endfacet
  facet normal 0 1 0
    outer loop
      vertex 0.956709 26.25 -2.3097
      vertex 2.07867 26.25 -1.38893
      vertex 1.76777 26.25 -1.76777
    endloop
  endfacet
  facet normal 0 1 0
    outer loop
      vertex 0.956709 26.25 -2.3097
      vertex 1.76777 26.25 -1.76777
      vertex 1.38893 26.25 -2.07867
    endloop
  endfacet
  facet normal 0 1 0
    outer loop
      vertex -2.5 26.25 2.4895e-16
      vertex -2.45196 26.25 0.487726
      vertex -2.45196 26.25 -0.487726
    endloop
  endfacet
  facet normal 0 1 0
    outer loop
      vertex -2.45196 26.25 -0.487726
      vertex -2.45196 26.25 0.487726
      vertex -2.3097 26.25 0.956709
    endloop
  endfacet
  facet normal 0 1 0
    outer loop
      vertex -2.45196 26.25 -0.487726
      vertex -2.3097 26.25 0.956709
      vertex -2.07867 26.25 1.38893
    endloop
  endfacet
  facet normal 0 1 0
    outer loop
      vertex -2.45196 26.25 -0.487726
      vertex -2.07867 26.25 1.38893
      vertex -1.76777 26.25 1.76777
    endloop
  endfacet
  facet normal 0 1 0
    outer loop
      vertex -2.45196 26.25 -0.487726
      vertex -1.76777 26.25 1.76777
      vertex -1.38893 26.25 2.07867
    endloop
  endfacet
  facet normal 0 1 0
    outer loop
      vertex -2.45196 26.25 -0.487726
      vertex -1.38893 26.25 2.07867
      vertex -0.956709 26.25 2.3097
    endloop
  endfacet
  facet normal 0 1 0
    outer loop
      vertex -2.45196 26.25 -0.487726
      vertex -0.956709 26.25 2.3097
      vertex -0.625 26.25 2.41032
    endloop
  endfacet
  facet normal 0 1 0
    outer loop
      vertex -2.45196 26.25 -0.487726
      vertex -0.625 26.25 2.41032
      vertex -0.625 26.25 -2.41032
    endloop
  endfacet
  facet normal 0 1 0
    outer loop
      vertex -2.45196 26.25 -0.487726
      vertex -0.625 26.25 -2.41032
      vertex -0.956709 26.25 -2.3097
    endloop
  endfacet
  facet normal 0 1 0
    outer loop
      vertex -2.45196 26.25 -0.487726
      vertex -0.956709 26.25 -2.3097
      vertex -1.38893 26.25 -2.07867
    endloop
  endfacet
  facet normal 0 1 0
    outer loop
      vertex -2.45196 26.25 -0.487726
      vertex -1.38893 26.25 -2.07867
      vertex -1.76777 26.25 -1.76777
    endloop
  endfacet
  facet normal 0 1 0
    outer loop
      vertex -2.45196 26.25 -0.487726
      vertex -1.76777 26.25 -1.76777
      vertex -2.07867 26.25 -1.38893
    endloop
  endfacet
  facet normal 0 1 0
    outer loop
      vertex -2.45196 26.25 -0.487726
      vertex -2.07867 26.25 -1.38893
      vertex -2.3097 26.25 -0.956709
    endloop
  endfacet
  facet normal -0.282343 0.23231 -0.93076
    outer loop
      vertex -1.03553 25.3917 -2.5
      vertex -0.956709 26.25 -2.3097
      vertex -0.625 25.8907 -2.5
    endloop
  endfacet
  facet normal -0.282343 0.23231 -0.93076
    outer loop
      vertex -0.625 25.8907 -2.5
      vertex -0.956709 26.25 -2.3097
      vertex -0.625 26.25 -2.41032
    endloop
  endfacet
  facet normal 0 0 -1
    outer loop
      vertex -2.71174 21.25 -2.5
      vertex -2.5 21.9353 -2.5
      vertex -2.67846 21.25 -2.5
    endloop
  endfacet
  facet normal 0 0 -1
    outer loop
      vertex -2.67846 21.25 -2.5
      vertex -2.5 21.9353 -2.5
      vertex -1.92882 23.4524 -2.5
    endloop
  endfacet
  facet normal 0 0 -1
    outer loop
      vertex -2.67846 21.25 -2.5
      vertex -1.92882 23.4524 -2.5
      vertex -1.67045 24.1386 -2.5
    endloop
  endfacet
  facet normal 0 0 -1
    outer loop
      vertex -2.67846 21.25 -2.5
      vertex -1.67045 24.1386 -2.5
      vertex -1.39742 24.6775 -2.5
    endloop
  endfacet
  facet normal 0 0 -1
    outer loop
      vertex -2.67846 21.25 -2.5
      vertex -1.39742 24.6775 -2.5
      vertex -1.03553 25.3917 -2.5
    endloop
  endfacet
  facet normal 0 0 -1
    outer loop
      vertex -2.67846 21.25 -2.5
      vertex -1.03553 25.3917 -2.5
      vertex -0.625 25.8907 -2.5
    endloop
  endfacet
  facet normal 0 0 -1
    outer loop
      vertex -2.67846 21.25 -2.5
      vertex -0.625 25.8907 -2.5
      vertex -0.625 21.25 -2.5
    endloop
  endfacet
  facet normal 1.98947e-32 -1 -2.34415e-16
    outer loop
      vertex -0.625 21.25 -1.63306
      vertex -3.62891 21.25 -0.721834
      vertex -2.67846 21.25 -2.5
    endloop
  endfacet
  facet normal 1.98947e-32 -1 -2.34415e-16
    outer loop
      vertex -0.625 21.25 -2.5
      vertex -0.625 21.25 -1.63306
      vertex -2.67846 21.25 -2.5
    endloop
  endfacet
  facet normal 4.30299e-32 -1 -2.34415e-16
    outer loop
      vertex -2.5 21.25 -0.721834
      vertex -3.62891 21.25 -0.721834
      vertex -0.625 21.25 -1.63306
    endloop
  endfacet
  facet normal 4.30299e-32 -1 -2.34415e-16
    outer loop
      vertex -0.625 21.25 -0.721834
      vertex -2.5 21.25 -0.721834
      vertex -0.625 21.25 -1.63306
    endloop
  endfacet
  facet normal 4.2924e-32 -1 -2.33838e-16
    outer loop
      vertex -2.5 21.25 2.00358
      vertex -3.62891 21.25 -0.721834
      vertex -2.5 21.25 -0.721834
    endloop
  endfacet
  facet normal -0.857793 0.23231 0.4585
    outer loop
      vertex -2.3097 26.25 0.956709
      vertex -3.41835 21.25 1.41593
      vertex -2.07867 26.25 1.38893
    endloop
  endfacet
  facet normal -0.857793 0.23231 0.4585
    outer loop
      vertex -2.07867 26.25 1.38893
      vertex -3.41835 21.25 1.41593
      vertex -3.07644 21.25 2.05561
    endloop
  endfacet
  facet normal -1.05459e-15 -1 -1.03868e-16
    outer loop
      vertex -3.41835 21.25 1.41593
      vertex -3.7 21.25 -1.00823e-15
      vertex -3.62891 21.25 -0.721834
    endloop
  endfacet
  facet normal -3.12323e-15 -1 3.07612e-16
    outer loop
      vertex -3.62891 21.25 0.721834
      vertex -3.7 21.25 -1.00823e-15
      vertex -3.41835 21.25 1.41593
    endloop
  endfacet
  facet normal -0.93076 0.23231 0.282343
    outer loop
      vertex -2.3097 26.25 0.956709
      vertex -3.62891 21.25 0.721834
      vertex -3.41835 21.25 1.41593
    endloop
  endfacet
  facet normal -8.19151e-16 -1 -6.7226e-16
    outer loop
      vertex -2.67846 21.25 -2.5
      vertex -3.62891 21.25 -0.721834
      vertex -3.07644 21.25 -2.05561
    endloop
  endfacet
  facet normal -8.19151e-16 -1 -6.7226e-16
    outer loop
      vertex -2.71174 21.25 -2.5
      vertex -2.67846 21.25 -2.5
      vertex -3.07644 21.25 -2.05561
    endloop
  endfacet
  facet normal -2.76777e-15 -1 -1.47941e-15
    outer loop
      vertex -3.07644 21.25 -2.05561
      vertex -3.62891 21.25 -0.721834
      vertex -3.41835 21.25 -1.41593
    endloop
  endfacet
  facet normal -0.93076 0.23231 -0.282343
    outer loop
      vertex -3.41835 21.25 -1.41593
      vertex -3.62891 21.25 -0.721834
      vertex -2.45196 26.25 -0.487726
    endloop
  endfacet
  facet normal -0.967958 0.23231 -0.0953356
    outer loop
      vertex -3.62891 21.25 -0.721834
      vertex -3.7 21.25 -1.00823e-15
      vertex -2.45196 26.25 -0.487726
    endloop
  endfacet
  facet normal -0.751862 0.23231 0.617037
    outer loop
      vertex -2.07867 26.25 1.38893
      vertex -3.07644 21.25 2.05561
      vertex -1.76777 26.25 1.76777
    endloop
  endfacet
  facet normal 0.751862 0.23231 0.617037
    outer loop
      vertex 2.07867 26.25 1.38893
      vertex 1.76777 26.25 1.76777
      vertex 3.07644 21.25 2.05561
    endloop
  endfacet
  facet normal 0.857793 0.23231 0.4585
    outer loop
      vertex 3.41835 21.25 1.41593
      vertex 2.07867 26.25 1.38893
      vertex 3.07644 21.25 2.05561
    endloop
  endfacet
  facet normal 0.857793 0.23231 0.4585
    outer loop
      vertex 2.3097 26.25 0.956709
      vertex 2.07867 26.25 1.38893
      vertex 3.41835 21.25 1.41593
    endloop
  endfacet
  facet normal 0.93076 0.23231 0.282343
    outer loop
      vertex 2.45196 26.25 0.487726
      vertex 2.3097 26.25 0.956709
      vertex 3.41835 21.25 1.41593
    endloop
  endfacet
  facet normal 0.93076 0.23231 0.282343
    outer loop
      vertex 3.62891 21.25 0.721834
      vertex 2.45196 26.25 0.487726
      vertex 3.41835 21.25 1.41593
    endloop
  endfacet
  facet normal 3.12323e-15 -1 3.07612e-16
    outer loop
      vertex 3.62891 21.25 0.721834
      vertex 3.41835 21.25 1.41593
      vertex 3.7 21.25 -5.55112e-16
    endloop
  endfacet
  facet normal 1.05459e-15 -1 -1.03868e-16
    outer loop
      vertex 3.7 21.25 -5.55112e-16
      vertex 3.41835 21.25 1.41593
      vertex 3.62891 21.25 -0.721834
    endloop
  endfacet
  facet normal 0.93076 0.23231 -0.282343
    outer loop
      vertex 3.41835 21.25 -1.41593
      vertex 2.45196 26.25 -0.487726
      vertex 3.62891 21.25 -0.721834
    endloop
  endfacet
  facet normal 2.76777e-15 -1 -1.47941e-15
    outer loop
      vertex 3.62891 21.25 -0.721834
      vertex 3.07644 21.25 -2.05561
      vertex 3.41835 21.25 -1.41593
    endloop
  endfacet
  facet normal 8.19151e-16 -1 -6.7226e-16
    outer loop
      vertex 3.62891 21.25 -0.721834
      vertex 2.67846 21.25 -2.5
      vertex 2.71174 21.25 -2.5
    endloop
  endfacet
  facet normal 8.19151e-16 -1 -6.7226e-16
    outer loop
      vertex 3.07644 21.25 -2.05561
      vertex 3.62891 21.25 -0.721834
      vertex 2.71174 21.25 -2.5
    endloop
  endfacet
  facet normal 0.967958 0.23231 -0.0953356
    outer loop
      vertex 3.62891 21.25 -0.721834
      vertex 2.5 26.25 5.55112e-16
      vertex 3.7 21.25 -5.55112e-16
    endloop
  endfacet
  facet normal 0.967958 0.23231 -0.0953356
    outer loop
      vertex 3.62891 21.25 -0.721834
      vertex 2.45196 26.25 -0.487726
      vertex 2.5 26.25 5.55112e-16
    endloop
  endfacet
  facet normal 0.751862 0.23231 -0.617037
    outer loop
      vertex 2.56535 21.7238 -2.5
      vertex 2.07867 26.25 -1.38893
      vertex 3.07644 21.25 -2.05561
    endloop
  endfacet
  facet normal 0.751862 0.23231 -0.617037
    outer loop
      vertex 2.71174 21.25 -2.5
      vertex 2.56535 21.7238 -2.5
      vertex 3.07644 21.25 -2.05561
    endloop
  endfacet
  facet normal 0.751862 0.23231 -0.617037
    outer loop
      vertex 2.5 21.9353 -2.5
      vertex 1.76777 26.25 -1.76777
      vertex 2.07867 26.25 -1.38893
    endloop
  endfacet
  facet normal 0.751862 0.23231 -0.617037
    outer loop
      vertex 2.56535 21.7238 -2.5
      vertex 2.5 21.9353 -2.5
      vertex 2.07867 26.25 -1.38893
    endloop
  endfacet
  facet normal 0.617037 0.23231 -0.751862
    outer loop
      vertex 1.38893 26.25 -2.07867
      vertex 1.76777 26.25 -1.76777
      vertex 2.3508 22.3316 -2.5
    endloop
  endfacet
  facet normal 0.617037 0.23231 -0.751862
    outer loop
      vertex 2.3508 22.3316 -2.5
      vertex 1.76777 26.25 -1.76777
      vertex 2.5 21.9353 -2.5
    endloop
  endfacet
  facet normal 0.617037 0.23231 -0.751862
    outer loop
      vertex 1.67045 24.1386 -2.5
      vertex 1.38893 26.25 -2.07867
      vertex 2.3508 22.3316 -2.5
    endloop
  endfacet
  facet normal 0.4585 0.23231 -0.857793
    outer loop
      vertex 1.39742 24.6775 -2.5
      vertex 1.38893 26.25 -2.07867
      vertex 1.67045 24.1386 -2.5
    endloop
  endfacet
  facet normal 0.4585 0.23231 -0.857793
    outer loop
      vertex 0.956709 26.25 -2.3097
      vertex 1.38893 26.25 -2.07867
      vertex 1.03553 25.3917 -2.5
    endloop
  endfacet
  facet normal 0.4585 0.23231 -0.857793
    outer loop
      vertex 1.03553 25.3917 -2.5
      vertex 1.38893 26.25 -2.07867
      vertex 1.39742 24.6775 -2.5
    endloop
  endfacet
  facet normal 0.857793 0.23231 -0.4585
    outer loop
      vertex 3.07644 21.25 -2.05561
      vertex 2.07867 26.25 -1.38893
      vertex 3.41835 21.25 -1.41593
    endloop
  endfacet
  facet normal 0.857793 0.23231 -0.4585
    outer loop
      vertex 3.41835 21.25 -1.41593
      vertex 2.07867 26.25 -1.38893
      vertex 2.3097 26.25 -0.956709
    endloop
  endfacet
  facet normal 0.93076 0.23231 -0.282343
    outer loop
      vertex 3.41835 21.25 -1.41593
      vertex 2.3097 26.25 -0.956709
      vertex 2.45196 26.25 -0.487726
    endloop
  endfacet
  facet normal 0.967958 0.23231 0.0953356
    outer loop
      vertex 3.7 21.25 -5.55112e-16
      vertex 2.5 26.25 5.55112e-16
      vertex 3.62891 21.25 0.721834
    endloop
  endfacet
  facet normal 0.967958 0.23231 0.0953356
    outer loop
      vertex 2.5 26.25 5.55112e-16
      vertex 2.45196 26.25 0.487726
      vertex 3.62891 21.25 0.721834
    endloop
  endfacet
  facet normal -0.967958 0.23231 -0.0953356
    outer loop
      vertex -2.45196 26.25 -0.487726
      vertex -3.7 21.25 -1.00823e-15
      vertex -2.5 26.25 2.4895e-16
    endloop
  endfacet
  facet normal -0.93076 0.23231 -0.282343
    outer loop
      vertex -2.3097 26.25 -0.956709
      vertex -3.41835 21.25 -1.41593
      vertex -2.45196 26.25 -0.487726
    endloop
  endfacet
  facet normal -0.857793 0.23231 -0.4585
    outer loop
      vertex -2.07867 26.25 -1.38893
      vertex -3.41835 21.25 -1.41593
      vertex -2.3097 26.25 -0.956709
    endloop
  endfacet
  facet normal -0.857793 0.23231 -0.4585
    outer loop
      vertex -3.07644 21.25 -2.05561
      vertex -3.41835 21.25 -1.41593
      vertex -2.07867 26.25 -1.38893
    endloop
  endfacet
  facet normal -0.751862 0.23231 -0.617037
    outer loop
      vertex -1.76777 26.25 -1.76777
      vertex -3.07644 21.25 -2.05561
      vertex -2.07867 26.25 -1.38893
    endloop
  endfacet
  facet normal -0.751862 0.23231 -0.617037
    outer loop
      vertex -3.07644 21.25 -2.05561
      vertex -1.76777 26.25 -1.76777
      vertex -2.71174 21.25 -2.5
    endloop
  endfacet
  facet normal -0.751862 0.23231 -0.617037
    outer loop
      vertex -2.71174 21.25 -2.5
      vertex -1.76777 26.25 -1.76777
      vertex -2.5 21.9353 -2.5
    endloop
  endfacet
  facet normal -0.617037 0.23231 -0.751862
    outer loop
      vertex -1.92882 23.4524 -2.5
      vertex -2.5 21.9353 -2.5
      vertex -1.76777 26.25 -1.76777
    endloop
  endfacet
  facet normal -0.617037 0.23231 -0.751862
    outer loop
      vertex -1.92882 23.4524 -2.5
      vertex -1.76777 26.25 -1.76777
      vertex -1.67045 24.1386 -2.5
    endloop
  endfacet
  facet normal -0.617037 0.23231 -0.751862
    outer loop
      vertex -1.67045 24.1386 -2.5
      vertex -1.76777 26.25 -1.76777
      vertex -1.38893 26.25 -2.07867
    endloop
  endfacet
  facet normal -0.4585 0.23231 -0.857793
    outer loop
      vertex -1.39742 24.6775 -2.5
      vertex -1.38893 26.25 -2.07867
      vertex -1.03553 25.3917 -2.5
    endloop
  endfacet
  facet normal -0.4585 0.23231 -0.857793
    outer loop
      vertex -1.03553 25.3917 -2.5
      vertex -1.38893 26.25 -2.07867
      vertex -0.956709 26.25 -2.3097
    endloop
  endfacet
  facet normal -0.4585 0.23231 -0.857793
    outer loop
      vertex -1.39742 24.6775 -2.5
      vertex -1.67045 24.1386 -2.5
      vertex -1.38893 26.25 -2.07867
    endloop
  endfacet
  facet normal -0.93076 0.23231 0.282343
    outer loop
      vertex -2.45196 26.25 0.487726
      vertex -3.62891 21.25 0.721834
      vertex -2.3097 26.25 0.956709
    endloop
  endfacet
  facet normal -0.967958 0.23231 0.0953356
    outer loop
      vertex -2.5 26.25 2.4895e-16
      vertex -3.62891 21.25 0.721834
      vertex -2.45196 26.25 0.487726
    endloop
  endfacet
  facet normal -0.967958 0.23231 0.0953356
    outer loop
      vertex -2.5 26.25 2.4895e-16
      vertex -3.7 21.25 -1.00823e-15
      vertex -3.62891 21.25 0.721834
    endloop
  endfacet
endsolid OpenSCAD_Model
