solid OpenSCAD_Model
  facet normal -0.995185 -0.0980167 0
    outer loop
      vertex -12 -10 -2.5
      vertex -11.9616 -10.3902 -2.5
      vertex -12 -10 2.5
    endloop
  endfacet
  facet normal -0.995185 -0.0980167 0
    outer loop
      vertex -12 -10 2.5
      vertex -11.9616 -10.3902 -2.5
      vertex -11.9616 -10.3902 2.5
    endloop
  endfacet
  facet normal 0 0 -1
    outer loop
      vertex -12 -10 -2.5
      vertex -12 10 -2.5
      vertex -11.9616 -10.3902 -2.5
    endloop
  endfacet
  facet normal 0 0 -1
    outer loop
      vertex -11.9616 -10.3902 -2.5
      vertex -12 10 -2.5
      vertex -11.9616 10.3902 -2.5
    endloop
  endfacet
  facet normal 0 0 -1
    outer loop
      vertex -11.9616 -10.3902 -2.5
      vertex -11.9616 10.3902 -2.5
      vertex -11.8478 10.7654 -2.5
    endloop
  endfacet
  facet normal 0 0 -1
    outer loop
      vertex -11.9616 -10.3902 -2.5
      vertex -11.8478 10.7654 -2.5
      vertex -11.6629 11.1111 -2.5
    endloop
  endfacet
  facet normal 0 0 -1
    outer loop
      vertex -11.9616 -10.3902 -2.5
      vertex -11.6629 11.1111 -2.5
      vertex -11.4142 11.4142 -2.5
    endloop
  endfacet
  facet normal 0 0 -1
    outer loop
      vertex -11.9616 -10.3902 -2.5
      vertex -11.4142 11.4142 -2.5
      vertex -11.1111 11.6629 -2.5
    endloop
  endfacet
  facet normal 0 0 -1
    outer loop
      vertex -11.9616 -10.3902 -2.5
      vertex -11.1111 11.6629 -2.5
      vertex -10.7654 11.8478 -2.5
    endloop
  endfacet
  facet normal 0 0 -1
    outer loop
      vertex -11.9616 -10.3902 -2.5
      vertex -10.7654 11.8478 -2.5
      vertex -10.3902 11.9616 -2.5
    endloop
  endfacet
  facet normal 0 0 -1
    outer loop
      vertex -11.9616 -10.3902 -2.5
      vertex -10.3902 11.9616 -2.5
      vertex -10 12 -2.5
    endloop
  endfacet
  facet normal 0 0 -1
    outer loop
      vertex -5.00013 7.48323 -2.5
      vertex -10 12 -2.5
      vertex -2.5 12 -2.5
    endloop
  endfacet
  facet normal 0 0 -1
    outer loop
      vertex -2.5 12 -2.5
      vertex -2.5 16.25 -2.5
      vertex -0.625 16.25 -2.5
    endloop
  endfacet
  facet normal 0 0 -1
    outer loop
      vertex -1.75581 8.82707 -2.5
      vertex -0.625 16.25 -2.5
      vertex -0.625 8.93844 -2.5
    endloop
  endfacet
  facet normal 0 0 -1
    outer loop
      vertex -3.44415 8.31492 -2.5
      vertex -0.625 16.25 -2.5
      vertex -1.75581 8.82707 -2.5
    endloop
  endfacet
  facet normal 0 0 -1
    outer loop
      vertex -6.36396 6.36396 -2.5
      vertex -10 12 -2.5
      vertex -5.00013 7.48323 -2.5
    endloop
  endfacet
  facet normal 0 0 -1
    outer loop
      vertex -9 1.10218e-15 -2.5
      vertex -11.9616 -10.3902 -2.5
      vertex -8.82707 1.75581 -2.5
    endloop
  endfacet
  facet normal 0 0 -1
    outer loop
      vertex -7.48323 5.00013 -2.5
      vertex -10 12 -2.5
      vertex -6.36396 6.36396 -2.5
    endloop
  endfacet
  facet normal 0 0 -1
    outer loop
      vertex -8.31492 3.44415 -2.5
      vertex -10 12 -2.5
      vertex -7.48323 5.00013 -2.5
    endloop
  endfacet
  facet normal 0 0 -1
    outer loop
      vertex -8.82707 1.75581 -2.5
      vertex -10 12 -2.5
      vertex -8.31492 3.44415 -2.5
    endloop
  endfacet
  facet normal 0 0 -1
    outer loop
      vertex -11.9616 -10.3902 -2.5
      vertex -10 12 -2.5
      vertex -8.82707 1.75581 -2.5
    endloop
  endfacet
  facet normal 0 0 -1
    outer loop
      vertex -8.82707 -1.75581 -2.5
      vertex -11.9616 -10.3902 -2.5
      vertex -9 1.10218e-15 -2.5
    endloop
  endfacet
  facet normal 0 0 -1
    outer loop
      vertex -8.31492 -3.44415 -2.5
      vertex -11.9616 -10.3902 -2.5
      vertex -8.82707 -1.75581 -2.5
    endloop
  endfacet
  facet normal 0 0 -1
    outer loop
      vertex -7.48323 -5.00013 -2.5
      vertex -11.9616 -10.3902 -2.5
      vertex -8.31492 -3.44415 -2.5
    endloop
  endfacet
  facet normal 0 0 -1
    outer loop
      vertex -11.9616 -10.3902 -2.5
      vertex -7.48323 -5.00013 -2.5
      vertex -6.36396 -6.36396 -2.5
    endloop
  endfacet
  facet normal 0 0 -1
    outer loop
      vertex -6.36396 -6.36396 -2.5
      vertex -5.00013 -7.48323 -2.5
      vertex -11.9616 -10.3902 -2.5
    endloop
  endfacet
  facet normal 0 0 -1
    outer loop
      vertex -5.00013 -7.48323 -2.5
      vertex -3.44415 -8.31492 -2.5
      vertex -11.9616 -10.3902 -2.5
    endloop
  endfacet
  facet normal 0 0 -1
    outer loop
      vertex -3.44415 -8.31492 -2.5
      vertex -1.75581 -8.82707 -2.5
      vertex -11.9616 -10.3902 -2.5
    endloop
  endfacet
  facet normal 0 0 -1
    outer loop
      vertex -1.75581 -8.82707 -2.5
      vertex -1.65327e-15 -9 -2.5
      vertex -11.9616 -10.3902 -2.5
    endloop
  endfacet
  facet normal 0 0 -1
    outer loop
      vertex -1.65327e-15 -9 -2.5
      vertex 1.75581 -8.82707 -2.5
      vertex -11.9616 -10.3902 -2.5
    endloop
  endfacet
  facet normal 0 0 -1
    outer loop
      vertex 1.75581 -8.82707 -2.5
      vertex 12 -10 -2.5
      vertex -11.9616 -10.3902 -2.5
    endloop
  endfacet
  facet normal 0 0 -1
    outer loop
      vertex 2.5 12 -2.5
      vertex 7.48323 5.00013 -2.5
      vertex 6.36396 6.36396 -2.5
    endloop
  endfacet
  facet normal 0 0 -1
    outer loop
      vertex 3.44415 -8.31492 -2.5
      vertex 12 -10 -2.5
      vertex 1.75581 -8.82707 -2.5
    endloop
  endfacet
  facet normal 0 0 -1
    outer loop
      vertex 2.5 12 -2.5
      vertex 6.36396 6.36396 -2.5
      vertex 5.00013 7.48323 -2.5
    endloop
  endfacet
  facet normal 0 0 -1
    outer loop
      vertex 5.00013 -7.48323 -2.5
      vertex 12 -10 -2.5
      vertex 3.44415 -8.31492 -2.5
    endloop
  endfacet
  facet normal 0 0 -1
    outer loop
      vertex 6.36396 -6.36396 -2.5
      vertex 12 -10 -2.5
      vertex 5.00013 -7.48323 -2.5
    endloop
  endfacet
  facet normal 0 0 -1
    outer loop
      vertex 7.48323 -5.00013 -2.5
      vertex 12 -10 -2.5
      vertex 6.36396 -6.36396 -2.5
    endloop
  endfacet
  facet normal 0 0 -1
    outer loop
      vertex 8.31492 -3.44415 -2.5
      vertex 12 -10 -2.5
      vertex 7.48323 -5.00013 -2.5
    endloop
  endfacet
  facet normal 0 0 -1
    outer loop
      vertex 8.82707 1.75581 -2.5
      vertex 10 12 -2.5
      vertex 9 0 -2.5
    endloop
  endfacet
  facet normal 0 0 -1
    outer loop
      vertex 2.5 12 -2.5
      vertex 5.00013 7.48323 -2.5
      vertex 3.44415 8.31492 -2.5
    endloop
  endfacet
  facet normal 0 0 -1
    outer loop
      vertex 2.5 12 -2.5
      vertex 0.625 16.25 -2.5
      vertex 2.5 16.25 -2.5
    endloop
  endfacet
  facet normal 0 0 -1
    outer loop
      vertex 10 12 -2.5
      vertex 7.48323 5.00013 -2.5
      vertex 2.5 12 -2.5
    endloop
  endfacet
  facet normal 0 0 -1
    outer loop
      vertex 10 12 -2.5
      vertex 8.31492 3.44415 -2.5
      vertex 7.48323 5.00013 -2.5
    endloop
  endfacet
  facet normal 0 0 -1
    outer loop
      vertex 8.31492 3.44415 -2.5
      vertex 10 12 -2.5
      vertex 8.82707 1.75581 -2.5
    endloop
  endfacet
  facet normal 0 0 -1
    outer loop
      vertex 9 0 -2.5
      vertex 10 12 -2.5
      vertex 10.3902 11.9616 -2.5
    endloop
  endfacet
  facet normal 0 0 -1
    outer loop
      vertex 9 0 -2.5
      vertex 10.3902 11.9616 -2.5
      vertex 8.82707 -1.75581 -2.5
    endloop
  endfacet
  facet normal 0 0 -1
    outer loop
      vertex 8.82707 -1.75581 -2.5
      vertex 10.3902 11.9616 -2.5
      vertex 10.7654 11.8478 -2.5
    endloop
  endfacet
  facet normal 0 0 -1
    outer loop
      vertex 8.82707 -1.75581 -2.5
      vertex 10.7654 11.8478 -2.5
      vertex 11.1111 11.6629 -2.5
    endloop
  endfacet
  facet normal 0 0 -1
    outer loop
      vertex 8.82707 -1.75581 -2.5
      vertex 11.1111 11.6629 -2.5
      vertex 11.4142 11.4142 -2.5
    endloop
  endfacet
  facet normal 0 0 -1
    outer loop
      vertex 8.82707 -1.75581 -2.5
      vertex 11.4142 11.4142 -2.5
      vertex 11.6629 11.1111 -2.5
    endloop
  endfacet
  facet normal 0 0 -1
    outer loop
      vertex 8.82707 -1.75581 -2.5
      vertex 11.6629 11.1111 -2.5
      vertex 11.8478 10.7654 -2.5
    endloop
  endfacet
  facet normal 0 0 -1
    outer loop
      vertex 8.82707 -1.75581 -2.5
      vertex 11.8478 10.7654 -2.5
      vertex 11.9616 10.3902 -2.5
    endloop
  endfacet
  facet normal 0 0 -1
    outer loop
      vertex 8.82707 -1.75581 -2.5
      vertex 11.9616 10.3902 -2.5
      vertex 12 10 -2.5
    endloop
  endfacet
  facet normal 0 0 -1
    outer loop
      vertex 8.82707 -1.75581 -2.5
      vertex 12 10 -2.5
      vertex 12 -10 -2.5
    endloop
  endfacet
  facet normal 0 0 -1
    outer loop
      vertex 8.82707 -1.75581 -2.5
      vertex 12 -10 -2.5
      vertex 8.31492 -3.44415 -2.5
    endloop
  endfacet
  facet normal 0 0 -1
    outer loop
      vertex -11.9616 -10.3902 -2.5
      vertex 12 -10 -2.5
      vertex 11.9616 -10.3902 -2.5
    endloop
  endfacet
  facet normal 0 0 -1
    outer loop
      vertex -11.9616 -10.3902 -2.5
      vertex 11.9616 -10.3902 -2.5
      vertex 11.8478 -10.7654 -2.5
    endloop
  endfacet
  facet normal 0 0 -1
    outer loop
      vertex -11.9616 -10.3902 -2.5
      vertex 11.8478 -10.7654 -2.5
      vertex 11.6629 -11.1111 -2.5
    endloop
  endfacet
  facet normal 0 0 -1
    outer loop
      vertex -11.9616 -10.3902 -2.5
      vertex 11.6629 -11.1111 -2.5
      vertex 11.4142 -11.4142 -2.5
    endloop
  endfacet
  facet normal 0 0 -1
    outer loop
      vertex -11.9616 -10.3902 -2.5
      vertex 11.4142 -11.4142 -2.5
      vertex 11.1111 -11.6629 -2.5
    endloop
  endfacet
  facet normal 0 0 -1
    outer loop
      vertex -11.9616 -10.3902 -2.5
      vertex 11.1111 -11.6629 -2.5
      vertex 10.7654 -11.8478 -2.5
    endloop
  endfacet
  facet normal 0 0 -1
    outer loop
      vertex -11.9616 -10.3902 -2.5
      vertex 10.7654 -11.8478 -2.5
      vertex 10.3902 -11.9616 -2.5
    endloop
  endfacet
  facet normal 0 0 -1
    outer loop
      vertex -11.9616 -10.3902 -2.5
      vertex 10.3902 -11.9616 -2.5
      vertex 10 -12 -2.5
    endloop
  endfacet
  facet normal 0 0 -1
    outer loop
      vertex -11.9616 -10.3902 -2.5
      vertex 10 -12 -2.5
      vertex -10 -12 -2.5
    endloop
  endfacet
  facet normal 0 0 -1
    outer loop
      vertex -11.9616 -10.3902 -2.5
      vertex -10 -12 -2.5
      vertex -10.3902 -11.9616 -2.5
    endloop
  endfacet
  facet normal 0 0 -1
    outer loop
      vertex -11.9616 -10.3902 -2.5
      vertex -10.3902 -11.9616 -2.5
      vertex -10.7654 -11.8478 -2.5
    endloop
  endfacet
  facet normal 0 0 -1
    outer loop
      vertex -11.9616 -10.3902 -2.5
      vertex -10.7654 -11.8478 -2.5
      vertex -11.1111 -11.6629 -2.5
    endloop
  endfacet
  facet normal 0 0 -1
    outer loop
      vertex -11.9616 -10.3902 -2.5
      vertex -11.1111 -11.6629 -2.5
      vertex -11.4142 -11.4142 -2.5
    endloop
  endfacet
  facet normal 0 0 -1
    outer loop
      vertex -11.9616 -10.3902 -2.5
      vertex -11.4142 -11.4142 -2.5
      vertex -11.6629 -11.1111 -2.5
    endloop
  endfacet
  facet normal 0 0 -1
    outer loop
      vertex -11.9616 -10.3902 -2.5
      vertex -11.6629 -11.1111 -2.5
      vertex -11.8478 -10.7654 -2.5
    endloop
  endfacet
  facet normal 0 0 -1
    outer loop
      vertex -2.5 12 -2.5
      vertex -0.625 16.25 -2.5
      vertex -3.44415 8.31492 -2.5
    endloop
  endfacet
  facet normal 0 0 -1
    outer loop
      vertex -5.00013 7.48323 -2.5
      vertex -2.5 12 -2.5
      vertex -3.44415 8.31492 -2.5
    endloop
  endfacet
  facet normal 0 0 -1
    outer loop
      vertex 0.625 16.25 -2.5
      vertex 2.5 12 -2.5
      vertex 3.44415 8.31492 -2.5
    endloop
  endfacet
  facet normal 0 0 -1
    outer loop
      vertex 0.625 16.25 -2.5
      vertex 3.44415 8.31492 -2.5
      vertex 1.75581 8.82707 -2.5
    endloop
  endfacet
  facet normal 0 0 -1
    outer loop
      vertex 0.625 16.25 -2.5
      vertex 1.75581 8.82707 -2.5
      vertex 0.625 8.93844 -2.5
    endloop
  endfacet
  facet normal -1 0 0
    outer loop
      vertex -12 -10 -2.5
      vertex -12 -10 2.5
      vertex -12 10 -2.5
    endloop
  endfacet
  facet normal -1 0 0
    outer loop
      vertex -12 10 -2.5
      vertex -12 -10 2.5
      vertex -12 10 2.5
    endloop
  endfacet
  facet normal 0 0 1
    outer loop
      vertex -12 10 2.5
      vertex -12 -10 2.5
      vertex -11.9616 -10.3902 2.5
    endloop
  endfacet
  facet normal 0 0 1
    outer loop
      vertex -11.6629 -11.1111 2.5
      vertex -12 10 2.5
      vertex -11.8478 -10.7654 2.5
    endloop
  endfacet
  facet normal 0 0 1
    outer loop
      vertex -11.8478 -10.7654 2.5
      vertex -12 10 2.5
      vertex -11.9616 -10.3902 2.5
    endloop
  endfacet
  facet normal 0 0 1
    outer loop
      vertex -11.4142 -11.4142 2.5
      vertex -12 10 2.5
      vertex -11.6629 -11.1111 2.5
    endloop
  endfacet
  facet normal 0 0 1
    outer loop
      vertex -11.1111 -11.6629 2.5
      vertex -12 10 2.5
      vertex -11.4142 -11.4142 2.5
    endloop
  endfacet
  facet normal 0 0 1
    outer loop
      vertex -10.7654 -11.8478 2.5
      vertex -12 10 2.5
      vertex -11.1111 -11.6629 2.5
    endloop
  endfacet
  facet normal 0 0 1
    outer loop
      vertex -10.3902 -11.9616 2.5
      vertex -12 10 2.5
      vertex -10.7654 -11.8478 2.5
    endloop
  endfacet
  facet normal 0 0 1
    outer loop
      vertex -10 -12 2.5
      vertex -12 10 2.5
      vertex -10.3902 -11.9616 2.5
    endloop
  endfacet
  facet normal 0 0 1
    outer loop
      vertex -8.82707 -1.75581 2.5
      vertex -12 10 2.5
      vertex -10 -12 2.5
    endloop
  endfacet
  facet normal 0 0 1
    outer loop
      vertex 1.75581 -8.82707 2.5
      vertex -1.65327e-15 -9 2.5
      vertex -10 -12 2.5
    endloop
  endfacet
  facet normal 0 0 1
    outer loop
      vertex -9 1.10218e-15 2.5
      vertex -8.82707 1.75581 2.5
      vertex -12 10 2.5
    endloop
  endfacet
  facet normal 0 0 1
    outer loop
      vertex -8.82707 1.75581 2.5
      vertex -8.31492 3.44415 2.5
      vertex -12 10 2.5
    endloop
  endfacet
  facet normal 0 0 1
    outer loop
      vertex -0.625 8.93844 2.5
      vertex -2.5 16.9353 2.5
      vertex -2.5 16.25 2.5
    endloop
  endfacet
  facet normal 0 0 1
    outer loop
      vertex -0.625 8.93844 2.5
      vertex -1.92882 18.4524 2.5
      vertex -2.5 16.9353 2.5
    endloop
  endfacet
  facet normal 0 0 1
    outer loop
      vertex 6.36396 -6.36396 2.5
      vertex 11.4142 -11.4142 2.5
      vertex 11.6629 -11.1111 2.5
    endloop
  endfacet
  facet normal 0 0 1
    outer loop
      vertex 6.36396 -6.36396 2.5
      vertex 11.1111 -11.6629 2.5
      vertex 11.4142 -11.4142 2.5
    endloop
  endfacet
  facet normal 0 0 1
    outer loop
      vertex 6.36396 -6.36396 2.5
      vertex 10.7654 -11.8478 2.5
      vertex 11.1111 -11.6629 2.5
    endloop
  endfacet
  facet normal 0 0 1
    outer loop
      vertex 8.82707 1.75581 2.5
      vertex 9 0 2.5
      vertex 12 -10 2.5
    endloop
  endfacet
  facet normal 0 0 1
    outer loop
      vertex 9 0 2.5
      vertex 8.82707 -1.75581 2.5
      vertex 12 -10 2.5
    endloop
  endfacet
  facet normal 0 0 1
    outer loop
      vertex 8.82707 -1.75581 2.5
      vertex 8.31492 -3.44415 2.5
      vertex 12 -10 2.5
    endloop
  endfacet
  facet normal 0 0 1
    outer loop
      vertex 6.36396 -6.36396 2.5
      vertex 10.3902 -11.9616 2.5
      vertex 10.7654 -11.8478 2.5
    endloop
  endfacet
  facet normal 0 0 1
    outer loop
      vertex 6.36396 -6.36396 2.5
      vertex 10 -12 2.5
      vertex 10.3902 -11.9616 2.5
    endloop
  endfacet
  facet normal 0 0 1
    outer loop
      vertex 6.36396 -6.36396 2.5
      vertex 5.00013 -7.48323 2.5
      vertex 10 -12 2.5
    endloop
  endfacet
  facet normal 0 0 1
    outer loop
      vertex -0.625 8.93844 2.5
      vertex -1.67045 19.1386 2.5
      vertex -1.92882 18.4524 2.5
    endloop
  endfacet
  facet normal 0 0 1
    outer loop
      vertex -0.625 8.93844 2.5
      vertex -1.39742 19.6775 2.5
      vertex -1.67045 19.1386 2.5
    endloop
  endfacet
  facet normal 0 0 1
    outer loop
      vertex -0.625 8.93844 2.5
      vertex -1.03553 20.3917 2.5
      vertex -1.39742 19.6775 2.5
    endloop
  endfacet
  facet normal 0 0 1
    outer loop
      vertex -0.625 8.93844 2.5
      vertex -0.625 20.8907 2.5
      vertex -1.03553 20.3917 2.5
    endloop
  endfacet
  facet normal 0 0 1
    outer loop
      vertex 2.63205 16.25 2.5
      vertex 2.5 16.25 2.5
      vertex 2.52868 16.25 2.5
    endloop
  endfacet
  facet normal 0 0 1
    outer loop
      vertex 2.71174 16.25 2.5
      vertex 2.5 16.25 2.5
      vertex 2.63205 16.25 2.5
    endloop
  endfacet
  facet normal 0 0 1
    outer loop
      vertex 2.5 16.9353 2.5
      vertex 2.5 16.25 2.5
      vertex 2.71174 16.25 2.5
    endloop
  endfacet
  facet normal 0 0 1
    outer loop
      vertex 7.48323 -5.00013 2.5
      vertex 11.9616 -10.3902 2.5
      vertex 12 -10 2.5
    endloop
  endfacet
  facet normal 0 0 1
    outer loop
      vertex 8.31492 -3.44415 2.5
      vertex 7.48323 -5.00013 2.5
      vertex 12 -10 2.5
    endloop
  endfacet
  facet normal 0 0 1
    outer loop
      vertex 12 10 2.5
      vertex 0.625 8.93844 2.5
      vertex 1.75581 8.82707 2.5
    endloop
  endfacet
  facet normal 0 0 1
    outer loop
      vertex 7.48323 -5.00013 2.5
      vertex 11.8478 -10.7654 2.5
      vertex 11.9616 -10.3902 2.5
    endloop
  endfacet
  facet normal 0 0 1
    outer loop
      vertex 12 10 2.5
      vertex 1.75581 8.82707 2.5
      vertex 3.44415 8.31492 2.5
    endloop
  endfacet
  facet normal 0 0 1
    outer loop
      vertex 7.48323 -5.00013 2.5
      vertex 6.36396 -6.36396 2.5
      vertex 11.8478 -10.7654 2.5
    endloop
  endfacet
  facet normal 0 0 1
    outer loop
      vertex 12 10 2.5
      vertex 3.44415 8.31492 2.5
      vertex 5.00013 7.48323 2.5
    endloop
  endfacet
  facet normal 0 0 1
    outer loop
      vertex 12 10 2.5
      vertex 5.00013 7.48323 2.5
      vertex 6.36396 6.36396 2.5
    endloop
  endfacet
  facet normal 0 0 1
    outer loop
      vertex 12 10 2.5
      vertex 6.36396 6.36396 2.5
      vertex 7.48323 5.00013 2.5
    endloop
  endfacet
  facet normal 0 0 1
    outer loop
      vertex 12 10 2.5
      vertex 7.48323 5.00013 2.5
      vertex 8.31492 3.44415 2.5
    endloop
  endfacet
  facet normal 0 0 1
    outer loop
      vertex 12 10 2.5
      vertex 8.82707 1.75581 2.5
      vertex 12 -10 2.5
    endloop
  endfacet
  facet normal 0 0 1
    outer loop
      vertex 12 10 2.5
      vertex 8.31492 3.44415 2.5
      vertex 8.82707 1.75581 2.5
    endloop
  endfacet
  facet normal 0 0 1
    outer loop
      vertex 11.8478 -10.7654 2.5
      vertex 6.36396 -6.36396 2.5
      vertex 11.6629 -11.1111 2.5
    endloop
  endfacet
  facet normal 0 0 1
    outer loop
      vertex -0.625 8.93844 2.5
      vertex -2.5 12 2.5
      vertex -12 10 2.5
    endloop
  endfacet
  facet normal 0 0 1
    outer loop
      vertex -8.82707 -1.75581 2.5
      vertex -9 1.10218e-15 2.5
      vertex -12 10 2.5
    endloop
  endfacet
  facet normal 0 0 1
    outer loop
      vertex -1.65327e-15 -9 2.5
      vertex -1.75581 -8.82707 2.5
      vertex -10 -12 2.5
    endloop
  endfacet
  facet normal 0 0 1
    outer loop
      vertex 10 -12 2.5
      vertex 5.00013 -7.48323 2.5
      vertex 3.44415 -8.31492 2.5
    endloop
  endfacet
  facet normal 0 0 1
    outer loop
      vertex 10 -12 2.5
      vertex 1.75581 -8.82707 2.5
      vertex -10 -12 2.5
    endloop
  endfacet
  facet normal 0 0 1
    outer loop
      vertex 10 -12 2.5
      vertex 3.44415 -8.31492 2.5
      vertex 1.75581 -8.82707 2.5
    endloop
  endfacet
  facet normal 0 0 1
    outer loop
      vertex -1.75581 -8.82707 2.5
      vertex -3.44415 -8.31492 2.5
      vertex -10 -12 2.5
    endloop
  endfacet
  facet normal 0 0 1
    outer loop
      vertex -3.44415 -8.31492 2.5
      vertex -5.00013 -7.48323 2.5
      vertex -10 -12 2.5
    endloop
  endfacet
  facet normal 0 0 1
    outer loop
      vertex -5.00013 -7.48323 2.5
      vertex -6.36396 -6.36396 2.5
      vertex -10 -12 2.5
    endloop
  endfacet
  facet normal 0 0 1
    outer loop
      vertex -6.36396 -6.36396 2.5
      vertex -7.48323 -5.00013 2.5
      vertex -10 -12 2.5
    endloop
  endfacet
  facet normal 0 0 1
    outer loop
      vertex -7.48323 -5.00013 2.5
      vertex -8.31492 -3.44415 2.5
      vertex -10 -12 2.5
    endloop
  endfacet
  facet normal 0 0 1
    outer loop
      vertex -8.31492 -3.44415 2.5
      vertex -8.82707 -1.75581 2.5
      vertex -10 -12 2.5
    endloop
  endfacet
  facet normal 0 0 1
    outer loop
      vertex -7.48323 5.00013 2.5
      vertex -6.36396 6.36396 2.5
      vertex -12 10 2.5
    endloop
  endfacet
  facet normal 0 0 1
    outer loop
      vertex -7.48323 5.00013 2.5
      vertex -12 10 2.5
      vertex -8.31492 3.44415 2.5
    endloop
  endfacet
  facet normal 0 0 1
    outer loop
      vertex -0.625 8.93844 2.5
      vertex -2.5 16.25 2.5
      vertex -2.5 12 2.5
    endloop
  endfacet
  facet normal 0 0 1
    outer loop
      vertex -5.00013 7.48323 2.5
      vertex -12 10 2.5
      vertex -6.36396 6.36396 2.5
    endloop
  endfacet
  facet normal 0 0 1
    outer loop
      vertex -3.44415 8.31492 2.5
      vertex -12 10 2.5
      vertex -5.00013 7.48323 2.5
    endloop
  endfacet
  facet normal 0 0 1
    outer loop
      vertex -1.75581 8.82707 2.5
      vertex -12 10 2.5
      vertex -3.44415 8.31492 2.5
    endloop
  endfacet
  facet normal 0 0 1
    outer loop
      vertex -0.625 8.93844 2.5
      vertex -12 10 2.5
      vertex -1.75581 8.82707 2.5
    endloop
  endfacet
  facet normal 0 0 1
    outer loop
      vertex -2.5 12 2.5
      vertex -10 12 2.5
      vertex -12 10 2.5
    endloop
  endfacet
  facet normal 0 0 1
    outer loop
      vertex -10.3902 11.9616 2.5
      vertex -12 10 2.5
      vertex -10 12 2.5
    endloop
  endfacet
  facet normal 0 0 1
    outer loop
      vertex -10.7654 11.8478 2.5
      vertex -12 10 2.5
      vertex -10.3902 11.9616 2.5
    endloop
  endfacet
  facet normal 0 0 1
    outer loop
      vertex -11.1111 11.6629 2.5
      vertex -12 10 2.5
      vertex -10.7654 11.8478 2.5
    endloop
  endfacet
  facet normal 0 0 1
    outer loop
      vertex -11.4142 11.4142 2.5
      vertex -12 10 2.5
      vertex -11.1111 11.6629 2.5
    endloop
  endfacet
  facet normal 0 0 1
    outer loop
      vertex -11.6629 11.1111 2.5
      vertex -12 10 2.5
      vertex -11.4142 11.4142 2.5
    endloop
  endfacet
  facet normal 0 0 1
    outer loop
      vertex -11.8478 10.7654 2.5
      vertex -12 10 2.5
      vertex -11.6629 11.1111 2.5
    endloop
  endfacet
  facet normal 0 0 1
    outer loop
      vertex -11.9616 10.3902 2.5
      vertex -12 10 2.5
      vertex -11.8478 10.7654 2.5
    endloop
  endfacet
  facet normal 0 0 1
    outer loop
      vertex -2.5 16.25 2.5
      vertex -2.63205 16.25 2.5
      vertex -2.52868 16.25 2.5
    endloop
  endfacet
  facet normal 0 0 1
    outer loop
      vertex -2.5 16.25 2.5
      vertex -2.71174 16.25 2.5
      vertex -2.63205 16.25 2.5
    endloop
  endfacet
  facet normal 0 0 1
    outer loop
      vertex -2.5 16.25 2.5
      vertex -2.5 16.9353 2.5
      vertex -2.71174 16.25 2.5
    endloop
  endfacet
  facet normal 0 0 1
    outer loop
      vertex 0.625 20.8907 2.5
      vertex 1.39742 19.6775 2.5
      vertex 1.03553 20.3917 2.5
    endloop
  endfacet
  facet normal 0 0 1
    outer loop
      vertex 0.625 20.8907 2.5
      vertex 1.67045 19.1386 2.5
      vertex 1.39742 19.6775 2.5
    endloop
  endfacet
  facet normal 0 0 1
    outer loop
      vertex 0.625 20.8907 2.5
      vertex 1.92882 18.4524 2.5
      vertex 1.67045 19.1386 2.5
    endloop
  endfacet
  facet normal 0 0 1
    outer loop
      vertex 0.625 20.8907 2.5
      vertex 2.5 16.9353 2.5
      vertex 1.92882 18.4524 2.5
    endloop
  endfacet
  facet normal 0 0 1
    outer loop
      vertex 0.625 20.8907 2.5
      vertex 2.5 16.25 2.5
      vertex 2.5 16.9353 2.5
    endloop
  endfacet
  facet normal 0 0 1
    outer loop
      vertex 0.625 20.8907 2.5
      vertex 2.5 12 2.5
      vertex 2.5 16.25 2.5
    endloop
  endfacet
  facet normal 0 0 1
    outer loop
      vertex 2.5 12 2.5
      vertex 10.3902 11.9616 2.5
      vertex 10 12 2.5
    endloop
  endfacet
  facet normal 0 0 1
    outer loop
      vertex 2.5 12 2.5
      vertex 10.7654 11.8478 2.5
      vertex 10.3902 11.9616 2.5
    endloop
  endfacet
  facet normal 0 0 1
    outer loop
      vertex 2.5 12 2.5
      vertex 11.1111 11.6629 2.5
      vertex 10.7654 11.8478 2.5
    endloop
  endfacet
  facet normal 0 0 1
    outer loop
      vertex 2.5 12 2.5
      vertex 11.4142 11.4142 2.5
      vertex 11.1111 11.6629 2.5
    endloop
  endfacet
  facet normal 0 0 1
    outer loop
      vertex 2.5 12 2.5
      vertex 11.6629 11.1111 2.5
      vertex 11.4142 11.4142 2.5
    endloop
  endfacet
  facet normal 0 0 1
    outer loop
      vertex 2.5 12 2.5
      vertex 11.8478 10.7654 2.5
      vertex 11.6629 11.1111 2.5
    endloop
  endfacet
  facet normal 0 0 1
    outer loop
      vertex 2.5 12 2.5
      vertex 11.9616 10.3902 2.5
      vertex 11.8478 10.7654 2.5
    endloop
  endfacet
  facet normal 0 0 1
    outer loop
      vertex 2.5 12 2.5
      vertex 12 10 2.5
      vertex 11.9616 10.3902 2.5
    endloop
  endfacet
  facet normal 0 0 1
    outer loop
      vertex 2.5 12 2.5
      vertex 0.625 8.93844 2.5
      vertex 12 10 2.5
    endloop
  endfacet
  facet normal 0 0 1
    outer loop
      vertex 0.625 20.8907 2.5
      vertex 0.625 8.93844 2.5
      vertex 2.5 12 2.5
    endloop
  endfacet
  facet normal -0.95694 -0.290285 0
    outer loop
      vertex -11.9616 -10.3902 -2.5
      vertex -11.8478 -10.7654 -2.5
      vertex -11.9616 -10.3902 2.5
    endloop
  endfacet
  facet normal -0.95694 -0.290285 0
    outer loop
      vertex -11.9616 -10.3902 2.5
      vertex -11.8478 -10.7654 -2.5
      vertex -11.8478 -10.7654 2.5
    endloop
  endfacet
  facet normal -0.881921 -0.471397 0
    outer loop
      vertex -11.8478 -10.7654 -2.5
      vertex -11.6629 -11.1111 -2.5
      vertex -11.8478 -10.7654 2.5
    endloop
  endfacet
  facet normal -0.881921 -0.471397 0
    outer loop
      vertex -11.8478 -10.7654 2.5
      vertex -11.6629 -11.1111 -2.5
      vertex -11.6629 -11.1111 2.5
    endloop
  endfacet
  facet normal -0.77301 -0.634394 0
    outer loop
      vertex -11.6629 -11.1111 -2.5
      vertex -11.4142 -11.4142 -2.5
      vertex -11.6629 -11.1111 2.5
    endloop
  endfacet
  facet normal -0.77301 -0.634394 0
    outer loop
      vertex -11.6629 -11.1111 2.5
      vertex -11.4142 -11.4142 -2.5
      vertex -11.4142 -11.4142 2.5
    endloop
  endfacet
  facet normal -0.634394 -0.77301 0
    outer loop
      vertex -11.4142 -11.4142 2.5
      vertex -11.4142 -11.4142 -2.5
      vertex -11.1111 -11.6629 -2.5
    endloop
  endfacet
  facet normal -0.634394 -0.77301 0
    outer loop
      vertex -11.1111 -11.6629 2.5
      vertex -11.4142 -11.4142 2.5
      vertex -11.1111 -11.6629 -2.5
    endloop
  endfacet
  facet normal -0.471397 -0.881921 0
    outer loop
      vertex -11.1111 -11.6629 2.5
      vertex -11.1111 -11.6629 -2.5
      vertex -10.7654 -11.8478 -2.5
    endloop
  endfacet
  facet normal -0.471397 -0.881921 0
    outer loop
      vertex -10.7654 -11.8478 2.5
      vertex -11.1111 -11.6629 2.5
      vertex -10.7654 -11.8478 -2.5
    endloop
  endfacet
  facet normal -0.290285 -0.95694 0
    outer loop
      vertex -10.7654 -11.8478 2.5
      vertex -10.7654 -11.8478 -2.5
      vertex -10.3902 -11.9616 -2.5
    endloop
  endfacet
  facet normal -0.290285 -0.95694 0
    outer loop
      vertex -10.3902 -11.9616 2.5
      vertex -10.7654 -11.8478 2.5
      vertex -10.3902 -11.9616 -2.5
    endloop
  endfacet
  facet normal -0.0980167 -0.995185 0
    outer loop
      vertex -10.3902 -11.9616 2.5
      vertex -10.3902 -11.9616 -2.5
      vertex -10 -12 -2.5
    endloop
  endfacet
  facet normal -0.0980167 -0.995185 0
    outer loop
      vertex -10 -12 2.5
      vertex -10.3902 -11.9616 2.5
      vertex -10 -12 -2.5
    endloop
  endfacet
  facet normal 0 -1 0
    outer loop
      vertex -10 -12 2.5
      vertex -10 -12 -2.5
      vertex 10 -12 -2.5
    endloop
  endfacet
  facet normal 0 -1 0
    outer loop
      vertex 10 -12 2.5
      vertex -10 -12 2.5
      vertex 10 -12 -2.5
    endloop
  endfacet
  facet normal 0.0980167 -0.995185 0
    outer loop
      vertex 10 -12 2.5
      vertex 10 -12 -2.5
      vertex 10.3902 -11.9616 -2.5
    endloop
  endfacet
  facet normal 0.0980167 -0.995185 0
    outer loop
      vertex 10.3902 -11.9616 2.5
      vertex 10 -12 2.5
      vertex 10.3902 -11.9616 -2.5
    endloop
  endfacet
  facet normal 0.290285 -0.95694 0
    outer loop
      vertex 10.3902 -11.9616 2.5
      vertex 10.3902 -11.9616 -2.5
      vertex 10.7654 -11.8478 -2.5
    endloop
  endfacet
  facet normal 0.290285 -0.95694 0
    outer loop
      vertex 10.7654 -11.8478 2.5
      vertex 10.3902 -11.9616 2.5
      vertex 10.7654 -11.8478 -2.5
    endloop
  endfacet
  facet normal 0.471397 -0.881921 0
    outer loop
      vertex 10.7654 -11.8478 2.5
      vertex 10.7654 -11.8478 -2.5
      vertex 11.1111 -11.6629 -2.5
    endloop
  endfacet
  facet normal 0.471397 -0.881921 0
    outer loop
      vertex 11.1111 -11.6629 2.5
      vertex 10.7654 -11.8478 2.5
      vertex 11.1111 -11.6629 -2.5
    endloop
  endfacet
  facet normal 0.634394 -0.77301 0
    outer loop
      vertex 11.1111 -11.6629 2.5
      vertex 11.1111 -11.6629 -2.5
      vertex 11.4142 -11.4142 -2.5
    endloop
  endfacet
  facet normal 0.634394 -0.77301 0
    outer loop
      vertex 11.4142 -11.4142 2.5
      vertex 11.1111 -11.6629 2.5
      vertex 11.4142 -11.4142 -2.5
    endloop
  endfacet
  facet normal 0.77301 -0.634394 0
    outer loop
      vertex 11.4142 -11.4142 2.5
      vertex 11.4142 -11.4142 -2.5
      vertex 11.6629 -11.1111 -2.5
    endloop
  endfacet
  facet normal 0.77301 -0.634394 0
    outer loop
      vertex 11.6629 -11.1111 2.5
      vertex 11.4142 -11.4142 2.5
      vertex 11.6629 -11.1111 -2.5
    endloop
  endfacet
  facet normal 0.881921 -0.471397 0
    outer loop
      vertex 11.6629 -11.1111 2.5
      vertex 11.6629 -11.1111 -2.5
      vertex 11.8478 -10.7654 -2.5
    endloop
  endfacet
  facet normal 0.881921 -0.471397 0
    outer loop
      vertex 11.8478 -10.7654 2.5
      vertex 11.6629 -11.1111 2.5
      vertex 11.8478 -10.7654 -2.5
    endloop
  endfacet
  facet normal 0.95694 -0.290285 0
    outer loop
      vertex 11.8478 -10.7654 2.5
      vertex 11.8478 -10.7654 -2.5
      vertex 11.9616 -10.3902 -2.5
    endloop
  endfacet
  facet normal 0.95694 -0.290285 0
    outer loop
      vertex 11.9616 -10.3902 2.5
      vertex 11.8478 -10.7654 2.5
      vertex 11.9616 -10.3902 -2.5
    endloop
  endfacet
  facet normal 0.995185 -0.0980167 0
    outer loop
      vertex 11.9616 -10.3902 2.5
      vertex 11.9616 -10.3902 -2.5
      vertex 12 -10 -2.5
    endloop
  endfacet
  facet normal 0.995185 -0.0980167 0
    outer loop
      vertex 12 -10 2.5
      vertex 11.9616 -10.3902 2.5
      vertex 12 -10 -2.5
    endloop
  endfacet
  facet normal 1 0 0
    outer loop
      vertex 12 -10 2.5
      vertex 12 -10 -2.5
      vertex 12 10 -2.5
    endloop
  endfacet
  facet normal 1 0 0
    outer loop
      vertex 12 10 2.5
      vertex 12 -10 2.5
      vertex 12 10 -2.5
    endloop
  endfacet
  facet normal 0.995185 0.0980167 0
    outer loop
      vertex 12 10 -2.5
      vertex 11.9616 10.3902 -2.5
      vertex 11.9616 10.3902 2.5
    endloop
  endfacet
  facet normal 0.995185 0.0980167 0
    outer loop
      vertex 12 10 2.5
      vertex 12 10 -2.5
      vertex 11.9616 10.3902 2.5
    endloop
  endfacet
  facet normal 0.95694 0.290285 0
    outer loop
      vertex 11.9616 10.3902 -2.5
      vertex 11.8478 10.7654 -2.5
      vertex 11.8478 10.7654 2.5
    endloop
  endfacet
  facet normal 0.95694 0.290285 0
    outer loop
      vertex 11.9616 10.3902 2.5
      vertex 11.9616 10.3902 -2.5
      vertex 11.8478 10.7654 2.5
    endloop
  endfacet
  facet normal 0.881921 0.471397 0
    outer loop
      vertex 11.8478 10.7654 -2.5
      vertex 11.6629 11.1111 -2.5
      vertex 11.6629 11.1111 2.5
    endloop
  endfacet
  facet normal 0.881921 0.471397 0
    outer loop
      vertex 11.8478 10.7654 2.5
      vertex 11.8478 10.7654 -2.5
      vertex 11.6629 11.1111 2.5
    endloop
  endfacet
  facet normal 0.77301 0.634394 0
    outer loop
      vertex 11.6629 11.1111 -2.5
      vertex 11.4142 11.4142 -2.5
      vertex 11.4142 11.4142 2.5
    endloop
  endfacet
  facet normal 0.77301 0.634394 0
    outer loop
      vertex 11.6629 11.1111 2.5
      vertex 11.6629 11.1111 -2.5
      vertex 11.4142 11.4142 2.5
    endloop
  endfacet
  facet normal 0.634394 0.77301 0
    outer loop
      vertex 11.1111 11.6629 -2.5
      vertex 11.1111 11.6629 2.5
      vertex 11.4142 11.4142 -2.5
    endloop
  endfacet
  facet normal 0.634394 0.77301 0
    outer loop
      vertex 11.4142 11.4142 -2.5
      vertex 11.1111 11.6629 2.5
      vertex 11.4142 11.4142 2.5
    endloop
  endfacet
  facet normal 0.471397 0.881921 0
    outer loop
      vertex 10.7654 11.8478 -2.5
      vertex 10.7654 11.8478 2.5
      vertex 11.1111 11.6629 -2.5
    endloop
  endfacet
  facet normal 0.471397 0.881921 0
    outer loop
      vertex 11.1111 11.6629 -2.5
      vertex 10.7654 11.8478 2.5
      vertex 11.1111 11.6629 2.5
    endloop
  endfacet
  facet normal 0.290285 0.95694 0
    outer loop
      vertex 10.3902 11.9616 -2.5
      vertex 10.3902 11.9616 2.5
      vertex 10.7654 11.8478 -2.5
    endloop
  endfacet
  facet normal 0.290285 0.95694 0
    outer loop
      vertex 10.7654 11.8478 -2.5
      vertex 10.3902 11.9616 2.5
      vertex 10.7654 11.8478 2.5
    endloop
  endfacet
  facet normal 0.0980167 0.995185 0
    outer loop
      vertex 10 12 -2.5
      vertex 10 12 2.5
      vertex 10.3902 11.9616 -2.5
    endloop
  endfacet
  facet normal 0.0980167 0.995185 0
    outer loop
      vertex 10.3902 11.9616 -2.5
      vertex 10 12 2.5
      vertex 10.3902 11.9616 2.5
    endloop
  endfacet
  facet normal 0 1 0
    outer loop
      vertex 2.5 12 -2.5
      vertex 2.5 12 2.5
      vertex 10 12 -2.5
    endloop
  endfacet
  facet normal 0 1 0
    outer loop
      vertex 10 12 -2.5
      vertex 2.5 12 2.5
      vertex 10 12 2.5
    endloop
  endfacet
  facet normal 1 0 0
    outer loop
      vertex 2.5 12 2.5
      vertex 2.5 12 -2.5
      vertex 2.5 16.25 -2.5
    endloop
  endfacet
  facet normal 1 0 0
    outer loop
      vertex 2.5 16.25 0.0324764
      vertex 2.5 12 2.5
      vertex 2.5 16.25 -0.721834
    endloop
  endfacet
  facet normal 1 0 0
    outer loop
      vertex 2.5 16.25 -0.721834
      vertex 2.5 12 2.5
      vertex 2.5 16.25 -2.5
    endloop
  endfacet
  facet normal 1 0 0
    outer loop
      vertex 2.5 16.25 2.00358
      vertex 2.5 12 2.5
      vertex 2.5 16.25 0.0324764
    endloop
  endfacet
  facet normal 1 0 0
    outer loop
      vertex 2.5 16.25 2.5
      vertex 2.5 12 2.5
      vertex 2.5 16.25 2.00358
    endloop
  endfacet
  facet normal 0 1 0
    outer loop
      vertex 0.625 16.25 -2.5
      vertex 0.625 16.25 -0.721834
      vertex 2.5 16.25 -2.5
    endloop
  endfacet
  facet normal 0 1 0
    outer loop
      vertex 2.5 16.25 -2.5
      vertex 0.625 16.25 -0.721834
      vertex 2.5 16.25 -0.721834
    endloop
  endfacet
  facet normal -1 0 0
    outer loop
      vertex 0.625 20.8907 2.5
      vertex 0.625 21.25 2.41032
      vertex 0.625 8.93844 2.5
    endloop
  endfacet
  facet normal -1 0 0
    outer loop
      vertex 0.625 8.93844 2.5
      vertex 0.625 21.25 2.41032
      vertex 0.625 21.25 -2.41032
    endloop
  endfacet
  facet normal -1 0 0
    outer loop
      vertex 0.625 8.93844 2.5
      vertex 0.625 21.25 -2.41032
      vertex 0.625 20.8907 -2.5
    endloop
  endfacet
  facet normal -1 0 0
    outer loop
      vertex 0.625 16.25 -2.01224
      vertex 0.625 20.8907 -2.5
      vertex 0.625 16.25 -2.5
    endloop
  endfacet
  facet normal -1 0 0
    outer loop
      vertex 0.625 16.25 -0.721834
      vertex 0.625 20.8907 -2.5
      vertex 0.625 16.25 -2.01224
    endloop
  endfacet
  facet normal -1 0 0
    outer loop
      vertex 0.625 8.93844 2.5
      vertex 0.625 20.8907 -2.5
      vertex 0.625 16.25 -0.721834
    endloop
  endfacet
  facet normal -1 0 0
    outer loop
      vertex 0.625 8.93844 2.5
      vertex 0.625 16.25 -2.5
      vertex 0.625 8.93844 -2.5
    endloop
  endfacet
  facet normal -1 0 0
    outer loop
      vertex 0.625 16.25 -2.5
      vertex 0.625 8.93844 2.5
      vertex 0.625 16.25 -0.721834
    endloop
  endfacet
  facet normal -0.0980171 -0.995185 0
    outer loop
      vertex 1.75581 8.82707 -2.5
      vertex 1.75581 8.82707 2.5
      vertex 0.625 8.93844 2.5
    endloop
  endfacet
  facet normal -0.0980171 -0.995185 0
    outer loop
      vertex 0.625 8.93844 -2.5
      vertex 1.75581 8.82707 -2.5
      vertex 0.625 8.93844 2.5
    endloop
  endfacet
  facet normal -0.290285 -0.95694 0
    outer loop
      vertex 3.44415 8.31492 -2.5
      vertex 3.44415 8.31492 2.5
      vertex 1.75581 8.82707 2.5
    endloop
  endfacet
  facet normal -0.290285 -0.95694 0
    outer loop
      vertex 1.75581 8.82707 -2.5
      vertex 3.44415 8.31492 -2.5
      vertex 1.75581 8.82707 2.5
    endloop
  endfacet
  facet normal -0.471397 -0.881921 0
    outer loop
      vertex 5.00013 7.48323 -2.5
      vertex 5.00013 7.48323 2.5
      vertex 3.44415 8.31492 2.5
    endloop
  endfacet
  facet normal -0.471397 -0.881921 0
    outer loop
      vertex 3.44415 8.31492 -2.5
      vertex 5.00013 7.48323 -2.5
      vertex 3.44415 8.31492 2.5
    endloop
  endfacet
  facet normal -0.634393 -0.77301 0
    outer loop
      vertex 6.36396 6.36396 -2.5
      vertex 6.36396 6.36396 2.5
      vertex 5.00013 7.48323 2.5
    endloop
  endfacet
  facet normal -0.634393 -0.77301 0
    outer loop
      vertex 5.00013 7.48323 -2.5
      vertex 6.36396 6.36396 -2.5
      vertex 5.00013 7.48323 2.5
    endloop
  endfacet
  facet normal -0.77301 -0.634393 0
    outer loop
      vertex 7.48323 5.00013 2.5
      vertex 6.36396 6.36396 2.5
      vertex 7.48323 5.00013 -2.5
    endloop
  endfacet
  facet normal -0.77301 -0.634393 0
    outer loop
      vertex 7.48323 5.00013 -2.5
      vertex 6.36396 6.36396 2.5
      vertex 6.36396 6.36396 -2.5
    endloop
  endfacet
  facet normal -0.881921 -0.471397 0
    outer loop
      vertex 8.31492 3.44415 2.5
      vertex 7.48323 5.00013 2.5
      vertex 8.31492 3.44415 -2.5
    endloop
  endfacet
  facet normal -0.881921 -0.471397 0
    outer loop
      vertex 8.31492 3.44415 -2.5
      vertex 7.48323 5.00013 2.5
      vertex 7.48323 5.00013 -2.5
    endloop
  endfacet
  facet normal -0.95694 -0.290285 0
    outer loop
      vertex 8.82707 1.75581 2.5
      vertex 8.31492 3.44415 2.5
      vertex 8.82707 1.75581 -2.5
    endloop
  endfacet
  facet normal -0.95694 -0.290285 0
    outer loop
      vertex 8.82707 1.75581 -2.5
      vertex 8.31492 3.44415 2.5
      vertex 8.31492 3.44415 -2.5
    endloop
  endfacet
  facet normal -0.995185 -0.0980171 0
    outer loop
      vertex 9 0 2.5
      vertex 8.82707 1.75581 2.5
      vertex 9 0 -2.5
    endloop
  endfacet
  facet normal -0.995185 -0.0980171 0
    outer loop
      vertex 9 0 -2.5
      vertex 8.82707 1.75581 2.5
      vertex 8.82707 1.75581 -2.5
    endloop
  endfacet
  facet normal -0.995185 0.0980171 0
    outer loop
      vertex 9 0 2.5
      vertex 9 0 -2.5
      vertex 8.82707 -1.75581 2.5
    endloop
  endfacet
  facet normal -0.995185 0.0980171 0
    outer loop
      vertex 8.82707 -1.75581 2.5
      vertex 9 0 -2.5
      vertex 8.82707 -1.75581 -2.5
    endloop
  endfacet
  facet normal -0.95694 0.290285 0
    outer loop
      vertex 8.82707 -1.75581 2.5
      vertex 8.82707 -1.75581 -2.5
      vertex 8.31492 -3.44415 2.5
    endloop
  endfacet
  facet normal -0.95694 0.290285 0
    outer loop
      vertex 8.31492 -3.44415 2.5
      vertex 8.82707 -1.75581 -2.5
      vertex 8.31492 -3.44415 -2.5
    endloop
  endfacet
  facet normal -0.881921 0.471397 0
    outer loop
      vertex 8.31492 -3.44415 2.5
      vertex 8.31492 -3.44415 -2.5
      vertex 7.48323 -5.00013 2.5
    endloop
  endfacet
  facet normal -0.881921 0.471397 0
    outer loop
      vertex 7.48323 -5.00013 2.5
      vertex 8.31492 -3.44415 -2.5
      vertex 7.48323 -5.00013 -2.5
    endloop
  endfacet
  facet normal -0.77301 0.634393 0
    outer loop
      vertex 7.48323 -5.00013 2.5
      vertex 7.48323 -5.00013 -2.5
      vertex 6.36396 -6.36396 2.5
    endloop
  endfacet
  facet normal -0.77301 0.634393 0
    outer loop
      vertex 6.36396 -6.36396 2.5
      vertex 7.48323 -5.00013 -2.5
      vertex 6.36396 -6.36396 -2.5
    endloop
  endfacet
  facet normal -0.634393 0.77301 0
    outer loop
      vertex 6.36396 -6.36396 2.5
      vertex 6.36396 -6.36396 -2.5
      vertex 5.00013 -7.48323 2.5
    endloop
  endfacet
  facet normal -0.634393 0.77301 0
    outer loop
      vertex 5.00013 -7.48323 2.5
      vertex 6.36396 -6.36396 -2.5
      vertex 5.00013 -7.48323 -2.5
    endloop
  endfacet
  facet normal -0.471397 0.881921 0
    outer loop
      vertex 5.00013 -7.48323 2.5
      vertex 5.00013 -7.48323 -2.5
      vertex 3.44415 -8.31492 2.5
    endloop
  endfacet
  facet normal -0.471397 0.881921 0
    outer loop
      vertex 3.44415 -8.31492 2.5
      vertex 5.00013 -7.48323 -2.5
      vertex 3.44415 -8.31492 -2.5
    endloop
  endfacet
  facet normal -0.290285 0.95694 0
    outer loop
      vertex 3.44415 -8.31492 2.5
      vertex 3.44415 -8.31492 -2.5
      vertex 1.75581 -8.82707 2.5
    endloop
  endfacet
  facet normal -0.290285 0.95694 0
    outer loop
      vertex 1.75581 -8.82707 2.5
      vertex 3.44415 -8.31492 -2.5
      vertex 1.75581 -8.82707 -2.5
    endloop
  endfacet
  facet normal -0.0980171 0.995185 0
    outer loop
      vertex 1.75581 -8.82707 2.5
      vertex 1.75581 -8.82707 -2.5
      vertex -1.65327e-15 -9 2.5
    endloop
  endfacet
  facet normal -0.0980171 0.995185 0
    outer loop
      vertex -1.65327e-15 -9 2.5
      vertex 1.75581 -8.82707 -2.5
      vertex -1.65327e-15 -9 -2.5
    endloop
  endfacet
  facet normal 0.0980171 0.995185 0
    outer loop
      vertex -1.65327e-15 -9 2.5
      vertex -1.65327e-15 -9 -2.5
      vertex -1.75581 -8.82707 2.5
    endloop
  endfacet
  facet normal 0.0980171 0.995185 0
    outer loop
      vertex -1.75581 -8.82707 2.5
      vertex -1.65327e-15 -9 -2.5
      vertex -1.75581 -8.82707 -2.5
    endloop
  endfacet
  facet normal 0.290285 0.95694 0
    outer loop
      vertex -1.75581 -8.82707 2.5
      vertex -1.75581 -8.82707 -2.5
      vertex -3.44415 -8.31492 2.5
    endloop
  endfacet
  facet normal 0.290285 0.95694 0
    outer loop
      vertex -3.44415 -8.31492 2.5
      vertex -1.75581 -8.82707 -2.5
      vertex -3.44415 -8.31492 -2.5
    endloop
  endfacet
  facet normal 0.471397 0.881921 0
    outer loop
      vertex -3.44415 -8.31492 2.5
      vertex -3.44415 -8.31492 -2.5
      vertex -5.00013 -7.48323 2.5
    endloop
  endfacet
  facet normal 0.471397 0.881921 0
    outer loop
      vertex -5.00013 -7.48323 2.5
      vertex -3.44415 -8.31492 -2.5
      vertex -5.00013 -7.48323 -2.5
    endloop
  endfacet
  facet normal 0.634393 0.77301 0
    outer loop
      vertex -5.00013 -7.48323 2.5
      vertex -5.00013 -7.48323 -2.5
      vertex -6.36396 -6.36396 2.5
    endloop
  endfacet
  facet normal 0.634393 0.77301 0
    outer loop
      vertex -6.36396 -6.36396 2.5
      vertex -5.00013 -7.48323 -2.5
      vertex -6.36396 -6.36396 -2.5
    endloop
  endfacet
  facet normal 0.77301 0.634393 0
    outer loop
      vertex -7.48323 -5.00013 2.5
      vertex -6.36396 -6.36396 2.5
      vertex -6.36396 -6.36396 -2.5
    endloop
  endfacet
  facet normal 0.77301 0.634393 0
    outer loop
      vertex -7.48323 -5.00013 -2.5
      vertex -7.48323 -5.00013 2.5
      vertex -6.36396 -6.36396 -2.5
    endloop
  endfacet
  facet normal 0.881921 0.471397 0
    outer loop
      vertex -8.31492 -3.44415 2.5
      vertex -7.48323 -5.00013 2.5
      vertex -7.48323 -5.00013 -2.5
    endloop
  endfacet
  facet normal 0.881921 0.471397 0
    outer loop
      vertex -8.31492 -3.44415 -2.5
      vertex -8.31492 -3.44415 2.5
      vertex -7.48323 -5.00013 -2.5
    endloop
  endfacet
  facet normal 0.95694 0.290285 0
    outer loop
      vertex -8.82707 -1.75581 2.5
      vertex -8.31492 -3.44415 2.5
      vertex -8.31492 -3.44415 -2.5
    endloop
  endfacet
  facet normal 0.95694 0.290285 0
    outer loop
      vertex -8.82707 -1.75581 -2.5
      vertex -8.82707 -1.75581 2.5
      vertex -8.31492 -3.44415 -2.5
    endloop
  endfacet
  facet normal 0.995185 0.0980171 0
    outer loop
      vertex -9 1.10218e-15 2.5
      vertex -8.82707 -1.75581 2.5
      vertex -8.82707 -1.75581 -2.5
    endloop
  endfacet
  facet normal 0.995185 0.0980171 0
    outer loop
      vertex -9 1.10218e-15 -2.5
      vertex -9 1.10218e-15 2.5
      vertex -8.82707 -1.75581 -2.5
    endloop
  endfacet
  facet normal 0.995185 -0.0980171 0
    outer loop
      vertex -8.82707 1.75581 -2.5
      vertex -8.82707 1.75581 2.5
      vertex -9 1.10218e-15 2.5
    endloop
  endfacet
  facet normal 0.995185 -0.0980171 0
    outer loop
      vertex -9 1.10218e-15 -2.5
      vertex -8.82707 1.75581 -2.5
      vertex -9 1.10218e-15 2.5
    endloop
  endfacet
  facet normal 0.95694 -0.290285 0
    outer loop
      vertex -8.31492 3.44415 -2.5
      vertex -8.31492 3.44415 2.5
      vertex -8.82707 1.75581 2.5
    endloop
  endfacet
  facet normal 0.95694 -0.290285 0
    outer loop
      vertex -8.82707 1.75581 -2.5
      vertex -8.31492 3.44415 -2.5
      vertex -8.82707 1.75581 2.5
    endloop
  endfacet
  facet normal 0.881921 -0.471397 0
    outer loop
      vertex -7.48323 5.00013 -2.5
      vertex -7.48323 5.00013 2.5
      vertex -8.31492 3.44415 2.5
    endloop
  endfacet
  facet normal 0.881921 -0.471397 0
    outer loop
      vertex -8.31492 3.44415 -2.5
      vertex -7.48323 5.00013 -2.5
      vertex -8.31492 3.44415 2.5
    endloop
  endfacet
  facet normal 0.77301 -0.634393 0
    outer loop
      vertex -6.36396 6.36396 -2.5
      vertex -6.36396 6.36396 2.5
      vertex -7.48323 5.00013 2.5
    endloop
  endfacet
  facet normal 0.77301 -0.634393 0
    outer loop
      vertex -7.48323 5.00013 -2.5
      vertex -6.36396 6.36396 -2.5
      vertex -7.48323 5.00013 2.5
    endloop
  endfacet
  facet normal 0.634393 -0.77301 0
    outer loop
      vertex -5.00013 7.48323 -2.5
      vertex -5.00013 7.48323 2.5
      vertex -6.36396 6.36396 2.5
    endloop
  endfacet
  facet normal 0.634393 -0.77301 0
    outer loop
      vertex -6.36396 6.36396 -2.5
      vertex -5.00013 7.48323 -2.5
      vertex -6.36396 6.36396 2.5
    endloop
  endfacet
  facet normal 0.471397 -0.881921 0
    outer loop
      vertex -3.44415 8.31492 -2.5
      vertex -3.44415 8.31492 2.5
      vertex -5.00013 7.48323 2.5
    endloop
  endfacet
  facet normal 0.471397 -0.881921 0
    outer loop
      vertex -5.00013 7.48323 -2.5
      vertex -3.44415 8.31492 -2.5
      vertex -5.00013 7.48323 2.5
    endloop
  endfacet
  facet normal 0.290285 -0.95694 0
    outer loop
      vertex -1.75581 8.82707 -2.5
      vertex -1.75581 8.82707 2.5
      vertex -3.44415 8.31492 2.5
    endloop
  endfacet
  facet normal 0.290285 -0.95694 0
    outer loop
      vertex -3.44415 8.31492 -2.5
      vertex -1.75581 8.82707 -2.5
      vertex -3.44415 8.31492 2.5
    endloop
  endfacet
  facet normal 0.0980171 -0.995185 0
    outer loop
      vertex -0.625 8.93844 -2.5
      vertex -0.625 8.93844 2.5
      vertex -1.75581 8.82707 2.5
    endloop
  endfacet
  facet normal 0.0980171 -0.995185 0
    outer loop
      vertex -1.75581 8.82707 -2.5
      vertex -0.625 8.93844 -2.5
      vertex -1.75581 8.82707 2.5
    endloop
  endfacet
  facet normal 1 0 0
    outer loop
      vertex -0.625 16.25 -2.5
      vertex -0.625 16.25 -0.721834
      vertex -0.625 16.25 -1.63306
    endloop
  endfacet
  facet normal 1 0 0
    outer loop
      vertex -0.625 16.25 -2.5
      vertex -0.625 16.25 -0.721834
      vertex -0.625 8.93844 2.5
    endloop
  endfacet
  facet normal 1 0 0
    outer loop
      vertex -0.625 16.25 -2.5
      vertex -0.625 20.8907 -2.5
      vertex -0.625 16.25 -0.721834
    endloop
  endfacet
  facet normal 1 0 0
    outer loop
      vertex -0.625 20.8907 -2.5
      vertex -0.625 21.25 -2.41032
      vertex -0.625 16.25 -0.721834
    endloop
  endfacet
  facet normal 1 0 0
    outer loop
      vertex -0.625 21.25 -2.41032
      vertex -0.625 21.25 2.41032
      vertex -0.625 16.25 -0.721834
    endloop
  endfacet
  facet normal 1 0 0
    outer loop
      vertex -0.625 21.25 2.41032
      vertex -0.625 20.8907 2.5
      vertex -0.625 16.25 -0.721834
    endloop
  endfacet
  facet normal 1 0 0
    outer loop
      vertex -0.625 20.8907 2.5
      vertex -0.625 8.93844 2.5
      vertex -0.625 16.25 -0.721834
    endloop
  endfacet
  facet normal 1 0 0
    outer loop
      vertex -0.625 8.93844 2.5
      vertex -0.625 8.93844 -2.5
      vertex -0.625 16.25 -2.5
    endloop
  endfacet
  facet normal 0 1 0
    outer loop
      vertex -2.5 16.25 -2.5
      vertex -2.5 16.25 -0.721834
      vertex -0.625 16.25 -2.5
    endloop
  endfacet
  facet normal 0 1 0
    outer loop
      vertex -0.625 16.25 -2.5
      vertex -2.5 16.25 -0.721834
      vertex -0.625 16.25 -0.721834
    endloop
  endfacet
  facet normal -1 0 0
    outer loop
      vertex -2.5 12 -2.5
      vertex -2.5 12 2.5
      vertex -2.5 16.25 -2.5
    endloop
  endfacet
  facet normal -1 0 0
    outer loop
      vertex -2.5 16.25 -2.5
      vertex -2.5 12 2.5
      vertex -2.5 16.25 2.5
    endloop
  endfacet
  facet normal -1 0 0
    outer loop
      vertex -2.5 16.25 -2.5
      vertex -2.5 16.25 2.5
      vertex -2.5 16.25 2.00358
    endloop
  endfacet
  facet normal -1 0 0
    outer loop
      vertex -2.5 16.25 -2.5
      vertex -2.5 16.25 2.00358
      vertex -2.5 16.25 -0.721834
    endloop
  endfacet
  facet normal 0 1 0
    outer loop
      vertex -10 12 -2.5
      vertex -10 12 2.5
      vertex -2.5 12 -2.5
    endloop
  endfacet
  facet normal 0 1 0
    outer loop
      vertex -2.5 12 -2.5
      vertex -10 12 2.5
      vertex -2.5 12 2.5
    endloop
  endfacet
  facet normal -0.0980167 0.995185 0
    outer loop
      vertex -10.3902 11.9616 -2.5
      vertex -10.3902 11.9616 2.5
      vertex -10 12 -2.5
    endloop
  endfacet
  facet normal -0.0980167 0.995185 0
    outer loop
      vertex -10 12 -2.5
      vertex -10.3902 11.9616 2.5
      vertex -10 12 2.5
    endloop
  endfacet
  facet normal -0.290285 0.95694 0
    outer loop
      vertex -10.7654 11.8478 -2.5
      vertex -10.7654 11.8478 2.5
      vertex -10.3902 11.9616 -2.5
    endloop
  endfacet
  facet normal -0.290285 0.95694 0
    outer loop
      vertex -10.3902 11.9616 -2.5
      vertex -10.7654 11.8478 2.5
      vertex -10.3902 11.9616 2.5
    endloop
  endfacet
  facet normal -0.471397 0.881921 0
    outer loop
      vertex -11.1111 11.6629 -2.5
      vertex -11.1111 11.6629 2.5
      vertex -10.7654 11.8478 -2.5
    endloop
  endfacet
  facet normal -0.471397 0.881921 0
    outer loop
      vertex -10.7654 11.8478 -2.5
      vertex -11.1111 11.6629 2.5
      vertex -10.7654 11.8478 2.5
    endloop
  endfacet
  facet normal -0.634394 0.77301 0
    outer loop
      vertex -11.4142 11.4142 -2.5
      vertex -11.4142 11.4142 2.5
      vertex -11.1111 11.6629 -2.5
    endloop
  endfacet
  facet normal -0.634394 0.77301 0
    outer loop
      vertex -11.1111 11.6629 -2.5
      vertex -11.4142 11.4142 2.5
      vertex -11.1111 11.6629 2.5
    endloop
  endfacet
  facet normal -0.77301 0.634394 0
    outer loop
      vertex -11.6629 11.1111 -2.5
      vertex -11.6629 11.1111 2.5
      vertex -11.4142 11.4142 -2.5
    endloop
  endfacet
  facet normal -0.77301 0.634394 0
    outer loop
      vertex -11.4142 11.4142 -2.5
      vertex -11.6629 11.1111 2.5
      vertex -11.4142 11.4142 2.5
    endloop
  endfacet
  facet normal -0.881921 0.471397 0
    outer loop
      vertex -11.8478 10.7654 -2.5
      vertex -11.8478 10.7654 2.5
      vertex -11.6629 11.1111 -2.5
    endloop
  endfacet
  facet normal -0.881921 0.471397 0
    outer loop
      vertex -11.6629 11.1111 -2.5
      vertex -11.8478 10.7654 2.5
      vertex -11.6629 11.1111 2.5
    endloop
  endfacet
  facet normal -0.95694 0.290285 0
    outer loop
      vertex -11.9616 10.3902 -2.5
      vertex -11.9616 10.3902 2.5
      vertex -11.8478 10.7654 -2.5
    endloop
  endfacet
  facet normal -0.95694 0.290285 0
    outer loop
      vertex -11.8478 10.7654 -2.5
      vertex -11.9616 10.3902 2.5
      vertex -11.8478 10.7654 2.5
    endloop
  endfacet
  facet normal -0.995185 0.0980167 0
    outer loop
      vertex -12 10 -2.5
      vertex -12 10 2.5
      vertex -11.9616 10.3902 -2.5
    endloop
  endfacet
  facet normal -0.995185 0.0980167 0
    outer loop
      vertex -11.9616 10.3902 -2.5
      vertex -12 10 2.5
      vertex -11.9616 10.3902 2.5
    endloop
  endfacet
  facet normal -8.2674e-17 -1 -1.99593e-16
    outer loop
      vertex -3.41835 16.25 1.41593
      vertex -3.62891 16.25 -0.721834
      vertex -2.5 16.25 2.00358
    endloop
  endfacet
  facet normal -8.2674e-17 -1 -1.99593e-16
    outer loop
      vertex -2.52868 16.25 2.5
      vertex -3.41835 16.25 1.41593
      vertex -2.5 16.25 2.5
    endloop
  endfacet
  facet normal -8.2674e-17 -1 -1.99593e-16
    outer loop
      vertex -2.5 16.25 2.5
      vertex -3.41835 16.25 1.41593
      vertex -2.5 16.25 2.00358
    endloop
  endfacet
  facet normal -9.34563e-16 -1 4.99534e-16
    outer loop
      vertex -3.07644 16.25 2.05561
      vertex -3.41835 16.25 1.41593
      vertex -2.52868 16.25 2.5
    endloop
  endfacet
  facet normal -9.34563e-16 -1 4.99534e-16
    outer loop
      vertex -2.63205 16.25 2.5
      vertex -3.07644 16.25 2.05561
      vertex -2.52868 16.25 2.5
    endloop
  endfacet
  facet normal -2.42597e-15 -1 1.99095e-15
    outer loop
      vertex -2.71174 16.25 2.5
      vertex -3.07644 16.25 2.05561
      vertex -2.63205 16.25 2.5
    endloop
  endfacet
  facet normal -0.751862 0.23231 0.617037
    outer loop
      vertex -3.07644 16.25 2.05561
      vertex -2.71174 16.25 2.5
      vertex -1.76777 21.25 1.76777
    endloop
  endfacet
  facet normal -0.751862 0.23231 0.617037
    outer loop
      vertex -1.76777 21.25 1.76777
      vertex -2.71174 16.25 2.5
      vertex -2.5 16.9353 2.5
    endloop
  endfacet
  facet normal -0.617037 0.23231 0.751862
    outer loop
      vertex -1.76777 21.25 1.76777
      vertex -2.5 16.9353 2.5
      vertex -1.92882 18.4524 2.5
    endloop
  endfacet
  facet normal -0.617037 0.23231 0.751862
    outer loop
      vertex -1.76777 21.25 1.76777
      vertex -1.92882 18.4524 2.5
      vertex -1.67045 19.1386 2.5
    endloop
  endfacet
  facet normal -0.617037 0.23231 0.751862
    outer loop
      vertex -1.38893 21.25 2.07867
      vertex -1.76777 21.25 1.76777
      vertex -1.67045 19.1386 2.5
    endloop
  endfacet
  facet normal -0.4585 0.23231 0.857793
    outer loop
      vertex -1.38893 21.25 2.07867
      vertex -1.67045 19.1386 2.5
      vertex -1.39742 19.6775 2.5
    endloop
  endfacet
  facet normal -0.4585 0.23231 0.857793
    outer loop
      vertex -1.38893 21.25 2.07867
      vertex -1.39742 19.6775 2.5
      vertex -1.03553 20.3917 2.5
    endloop
  endfacet
  facet normal -0.4585 0.23231 0.857793
    outer loop
      vertex -0.956709 21.25 2.3097
      vertex -1.38893 21.25 2.07867
      vertex -1.03553 20.3917 2.5
    endloop
  endfacet
  facet normal -0.282343 0.23231 0.93076
    outer loop
      vertex -0.956709 21.25 2.3097
      vertex -1.03553 20.3917 2.5
      vertex -0.625 20.8907 2.5
    endloop
  endfacet
  facet normal -0.282343 0.23231 0.93076
    outer loop
      vertex -0.625 21.25 2.41032
      vertex -0.956709 21.25 2.3097
      vertex -0.625 20.8907 2.5
    endloop
  endfacet
  facet normal 0.282343 0.23231 0.93076
    outer loop
      vertex 0.625 21.25 2.41032
      vertex 0.625 20.8907 2.5
      vertex 1.03553 20.3917 2.5
    endloop
  endfacet
  facet normal 0.282343 0.23231 0.93076
    outer loop
      vertex 0.956709 21.25 2.3097
      vertex 0.625 21.25 2.41032
      vertex 1.03553 20.3917 2.5
    endloop
  endfacet
  facet normal 0.4585 0.23231 0.857793
    outer loop
      vertex 1.38893 21.25 2.07867
      vertex 0.956709 21.25 2.3097
      vertex 1.03553 20.3917 2.5
    endloop
  endfacet
  facet normal 0.4585 0.23231 0.857793
    outer loop
      vertex 1.39742 19.6775 2.5
      vertex 1.38893 21.25 2.07867
      vertex 1.03553 20.3917 2.5
    endloop
  endfacet
  facet normal 0.4585 0.23231 0.857793
    outer loop
      vertex 1.67045 19.1386 2.5
      vertex 1.38893 21.25 2.07867
      vertex 1.39742 19.6775 2.5
    endloop
  endfacet
  facet normal 0.617037 0.23231 0.751862
    outer loop
      vertex 1.76777 21.25 1.76777
      vertex 1.38893 21.25 2.07867
      vertex 1.67045 19.1386 2.5
    endloop
  endfacet
  facet normal 0.617037 0.23231 0.751862
    outer loop
      vertex 1.92882 18.4524 2.5
      vertex 1.76777 21.25 1.76777
      vertex 1.67045 19.1386 2.5
    endloop
  endfacet
  facet normal 0.617037 0.23231 0.751862
    outer loop
      vertex 2.5 16.9353 2.5
      vertex 1.76777 21.25 1.76777
      vertex 1.92882 18.4524 2.5
    endloop
  endfacet
  facet normal 0.751862 0.23231 0.617037
    outer loop
      vertex 3.07644 16.25 2.05561
      vertex 1.76777 21.25 1.76777
      vertex 2.5 16.9353 2.5
    endloop
  endfacet
  facet normal 0.751862 0.23231 0.617037
    outer loop
      vertex 2.71174 16.25 2.5
      vertex 3.07644 16.25 2.05561
      vertex 2.5 16.9353 2.5
    endloop
  endfacet
  facet normal 2.42597e-15 -1 1.99095e-15
    outer loop
      vertex 2.71174 16.25 2.5
      vertex 2.63205 16.25 2.5
      vertex 3.07644 16.25 2.05561
    endloop
  endfacet
  facet normal 9.34563e-16 -1 4.99534e-16
    outer loop
      vertex 2.63205 16.25 2.5
      vertex 2.52868 16.25 2.5
      vertex 3.41835 16.25 1.41593
    endloop
  endfacet
  facet normal 9.34563e-16 -1 4.99534e-16
    outer loop
      vertex 3.07644 16.25 2.05561
      vertex 2.63205 16.25 2.5
      vertex 3.41835 16.25 1.41593
    endloop
  endfacet
  facet normal 8.2674e-17 -1 -1.99593e-16
    outer loop
      vertex 2.52868 16.25 2.5
      vertex 2.5 16.25 2.5
      vertex 2.5 16.25 2.00358
    endloop
  endfacet
  facet normal 8.2674e-17 -1 -1.99593e-16
    outer loop
      vertex 3.41835 16.25 1.41593
      vertex 2.52868 16.25 2.5
      vertex 3.62891 16.25 -0.721834
    endloop
  endfacet
  facet normal 8.2674e-17 -1 -1.99593e-16
    outer loop
      vertex 3.62891 16.25 -0.721834
      vertex 2.52868 16.25 2.5
      vertex 2.5 16.25 2.00358
    endloop
  endfacet
  facet normal 5.05177e-32 -1 -2.33838e-16
    outer loop
      vertex 3.62891 16.25 -0.721834
      vertex 2.5 16.25 2.00358
      vertex 2.5 16.25 0.0324764
    endloop
  endfacet
  facet normal 4.2924e-32 -1 -2.33838e-16
    outer loop
      vertex 3.62891 16.25 -0.721834
      vertex 2.5 16.25 0.0324764
      vertex 2.5 16.25 -0.721834
    endloop
  endfacet
  facet normal 4.30299e-32 -1 -2.34415e-16
    outer loop
      vertex 2.5 16.25 -0.721834
      vertex 0.625 16.25 -0.721834
      vertex 0.625 16.25 -2.01224
    endloop
  endfacet
  facet normal 4.30299e-32 -1 -2.34415e-16
    outer loop
      vertex 2.67846 16.25 -2.5
      vertex 2.5 16.25 -0.721834
      vertex 2.23292 16.25 -2.5
    endloop
  endfacet
  facet normal 4.30299e-32 -1 -2.34415e-16
    outer loop
      vertex 2.23292 16.25 -2.5
      vertex 2.5 16.25 -0.721834
      vertex 0.625 16.25 -2.01224
    endloop
  endfacet
  facet normal 4.30299e-32 -1 -2.34415e-16
    outer loop
      vertex 3.62891 16.25 -0.721834
      vertex 2.5 16.25 -0.721834
      vertex 2.67846 16.25 -2.5
    endloop
  endfacet
  facet normal 1.98947e-32 -1 -2.34415e-16
    outer loop
      vertex 2.23292 16.25 -2.5
      vertex 0.625 16.25 -2.01224
      vertex 0.625 16.25 -2.5
    endloop
  endfacet
  facet normal 0 0 -1
    outer loop
      vertex 0.625 16.25 -2.5
      vertex 0.625 20.8907 -2.5
      vertex 2.23292 16.25 -2.5
    endloop
  endfacet
  facet normal 0 0 -1
    outer loop
      vertex 2.23292 16.25 -2.5
      vertex 0.625 20.8907 -2.5
      vertex 1.03553 20.3917 -2.5
    endloop
  endfacet
  facet normal 0 0 -1
    outer loop
      vertex 2.23292 16.25 -2.5
      vertex 1.03553 20.3917 -2.5
      vertex 1.39742 19.6775 -2.5
    endloop
  endfacet
  facet normal 0 0 -1
    outer loop
      vertex 2.23292 16.25 -2.5
      vertex 1.39742 19.6775 -2.5
      vertex 1.67045 19.1386 -2.5
    endloop
  endfacet
  facet normal 0 0 -1
    outer loop
      vertex 2.23292 16.25 -2.5
      vertex 1.67045 19.1386 -2.5
      vertex 2.3508 17.3316 -2.5
    endloop
  endfacet
  facet normal 0 0 -1
    outer loop
      vertex 2.23292 16.25 -2.5
      vertex 2.3508 17.3316 -2.5
      vertex 2.5 16.9353 -2.5
    endloop
  endfacet
  facet normal 0 0 -1
    outer loop
      vertex 2.23292 16.25 -2.5
      vertex 2.5 16.9353 -2.5
      vertex 2.56535 16.7238 -2.5
    endloop
  endfacet
  facet normal 0 0 -1
    outer loop
      vertex 2.23292 16.25 -2.5
      vertex 2.56535 16.7238 -2.5
      vertex 2.71174 16.25 -2.5
    endloop
  endfacet
  facet normal 0 0 -1
    outer loop
      vertex 2.23292 16.25 -2.5
      vertex 2.71174 16.25 -2.5
      vertex 2.67846 16.25 -2.5
    endloop
  endfacet
  facet normal 0.282343 0.23231 -0.93076
    outer loop
      vertex 0.625 20.8907 -2.5
      vertex 0.625 21.25 -2.41032
      vertex 1.03553 20.3917 -2.5
    endloop
  endfacet
  facet normal 0.282343 0.23231 -0.93076
    outer loop
      vertex 1.03553 20.3917 -2.5
      vertex 0.625 21.25 -2.41032
      vertex 0.956709 21.25 -2.3097
    endloop
  endfacet
  facet normal 0 1 0
    outer loop
      vertex 0.625 21.25 -2.41032
      vertex 0.625 21.25 2.41032
      vertex 0.956709 21.25 -2.3097
    endloop
  endfacet
  facet normal 0 1 0
    outer loop
      vertex 0.956709 21.25 -2.3097
      vertex 0.625 21.25 2.41032
      vertex 0.956709 21.25 2.3097
    endloop
  endfacet
  facet normal 0 1 0
    outer loop
      vertex 0.956709 21.25 -2.3097
      vertex 0.956709 21.25 2.3097
      vertex 1.38893 21.25 2.07867
    endloop
  endfacet
  facet normal 0 1 0
    outer loop
      vertex 0.956709 21.25 -2.3097
      vertex 1.38893 21.25 2.07867
      vertex 1.76777 21.25 1.76777
    endloop
  endfacet
  facet normal 0 1 0
    outer loop
      vertex 0.956709 21.25 -2.3097
      vertex 1.76777 21.25 1.76777
      vertex 2.07867 21.25 1.38893
    endloop
  endfacet
  facet normal 0 1 0
    outer loop
      vertex 0.956709 21.25 -2.3097
      vertex 2.07867 21.25 1.38893
      vertex 2.3097 21.25 0.956709
    endloop
  endfacet
  facet normal 0 1 0
    outer loop
      vertex 0.956709 21.25 -2.3097
      vertex 2.3097 21.25 0.956709
      vertex 2.45196 21.25 0.487726
    endloop
  endfacet
  facet normal 0 1 0
    outer loop
      vertex 0.956709 21.25 -2.3097
      vertex 2.45196 21.25 0.487726
      vertex 2.5 21.25 5.55112e-16
    endloop
  endfacet
  facet normal 0 1 0
    outer loop
      vertex 0.956709 21.25 -2.3097
      vertex 2.5 21.25 5.55112e-16
      vertex 2.45196 21.25 -0.487726
    endloop
  endfacet
  facet normal 0 1 0
    outer loop
      vertex 0.956709 21.25 -2.3097
      vertex 2.45196 21.25 -0.487726
      vertex 2.3097 21.25 -0.956709
    endloop
  endfacet
  facet normal 0 1 0
    outer loop
      vertex 0.956709 21.25 -2.3097
      vertex 2.3097 21.25 -0.956709
      vertex 2.07867 21.25 -1.38893
    endloop
  endfacet
  facet normal 0 1 0
    outer loop
      vertex 0.956709 21.25 -2.3097
      vertex 2.07867 21.25 -1.38893
      vertex 1.76777 21.25 -1.76777
    endloop
  endfacet
  facet normal 0 1 0
    outer loop
      vertex 0.956709 21.25 -2.3097
      vertex 1.76777 21.25 -1.76777
      vertex 1.38893 21.25 -2.07867
    endloop
  endfacet
  facet normal 0 1 0
    outer loop
      vertex -2.5 21.25 2.4895e-16
      vertex -2.45196 21.25 0.487726
      vertex -2.45196 21.25 -0.487726
    endloop
  endfacet
  facet normal 0 1 0
    outer loop
      vertex -2.45196 21.25 -0.487726
      vertex -2.45196 21.25 0.487726
      vertex -2.3097 21.25 0.956709
    endloop
  endfacet
  facet normal 0 1 0
    outer loop
      vertex -2.45196 21.25 -0.487726
      vertex -2.3097 21.25 0.956709
      vertex -2.07867 21.25 1.38893
    endloop
  endfacet
  facet normal 0 1 0
    outer loop
      vertex -2.45196 21.25 -0.487726
      vertex -2.07867 21.25 1.38893
      vertex -1.76777 21.25 1.76777
    endloop
  endfacet
  facet normal 0 1 0
    outer loop
      vertex -2.45196 21.25 -0.487726
      vertex -1.76777 21.25 1.76777
      vertex -1.38893 21.25 2.07867
    endloop
  endfacet
  facet normal 0 1 0
    outer loop
      vertex -2.45196 21.25 -0.487726
      vertex -1.38893 21.25 2.07867
      vertex -0.956709 21.25 2.3097
    endloop
  endfacet
  facet normal 0 1 0
    outer loop
      vertex -2.45196 21.25 -0.487726
      vertex -0.956709 21.25 2.3097
      vertex -0.625 21.25 2.41032
    endloop
  endfacet
  facet normal 0 1 0
    outer loop
      vertex -2.45196 21.25 -0.487726
      vertex -0.625 21.25 2.41032
      vertex -0.625 21.25 -2.41032
    endloop
  endfacet
  facet normal 0 1 0
    outer loop
      vertex -2.45196 21.25 -0.487726
      vertex -0.625 21.25 -2.41032
      vertex -0.956709 21.25 -2.3097
    endloop
  endfacet
  facet normal 0 1 0
    outer loop
      vertex -2.45196 21.25 -0.487726
      vertex -0.956709 21.25 -2.3097
      vertex -1.38893 21.25 -2.07867
    endloop
  endfacet
  facet normal 0 1 0
    outer loop
      vertex -2.45196 21.25 -0.487726
      vertex -1.38893 21.25 -2.07867
      vertex -1.76777 21.25 -1.76777
    endloop
  endfacet
  facet normal 0 1 0
    outer loop
      vertex -2.45196 21.25 -0.487726
      vertex -1.76777 21.25 -1.76777
      vertex -2.07867 21.25 -1.38893
    endloop
  endfacet
  facet normal 0 1 0
    outer loop
      vertex -2.45196 21.25 -0.487726
      vertex -2.07867 21.25 -1.38893
      vertex -2.3097 21.25 -0.956709
    endloop
  endfacet
  facet normal -0.282343 0.23231 -0.93076
    outer loop
      vertex -1.03553 20.3917 -2.5
      vertex -0.956709 21.25 -2.3097
      vertex -0.625 20.8907 -2.5
    endloop
  endfacet
  facet normal -0.282343 0.23231 -0.93076
    outer loop
      vertex -0.625 20.8907 -2.5
      vertex -0.956709 21.25 -2.3097
      vertex -0.625 21.25 -2.41032
    endloop
  endfacet
  facet normal 0 0 -1
    outer loop
      vertex -2.71174 16.25 -2.5
      vertex -2.5 16.9353 -2.5
      vertex -2.67846 16.25 -2.5
    endloop
  endfacet
  facet normal 0 0 -1
    outer loop
      vertex -2.67846 16.25 -2.5
      vertex -2.5 16.9353 -2.5
      vertex -1.92882 18.4524 -2.5
    endloop
  endfacet
  facet normal 0 0 -1
    outer loop
      vertex -2.67846 16.25 -2.5
      vertex -1.92882 18.4524 -2.5
      vertex -1.67045 19.1386 -2.5
    endloop
  endfacet
  facet normal 0 0 -1
    outer loop
      vertex -2.67846 16.25 -2.5
      vertex -1.67045 19.1386 -2.5
      vertex -1.39742 19.6775 -2.5
    endloop
  endfacet
  facet normal 0 0 -1
    outer loop
      vertex -2.67846 16.25 -2.5
      vertex -1.39742 19.6775 -2.5
      vertex -1.03553 20.3917 -2.5
    endloop
  endfacet
  facet normal 0 0 -1
    outer loop
      vertex -2.67846 16.25 -2.5
      vertex -1.03553 20.3917 -2.5
      vertex -0.625 20.8907 -2.5
    endloop
  endfacet
  facet normal 0 0 -1
    outer loop
      vertex -2.67846 16.25 -2.5
      vertex -0.625 20.8907 -2.5
      vertex -0.625 16.25 -2.5
    endloop
  endfacet
  facet normal 1.98947e-32 -1 -2.34415e-16
    outer loop
      vertex -0.625 16.25 -1.63306
      vertex -3.62891 16.25 -0.721834
      vertex -2.67846 16.25 -2.5
    endloop
  endfacet
  facet normal 1.98947e-32 -1 -2.34415e-16
    outer loop
      vertex -0.625 16.25 -2.5
      vertex -0.625 16.25 -1.63306
      vertex -2.67846 16.25 -2.5
    endloop
  endfacet
  facet normal 4.30299e-32 -1 -2.34415e-16
    outer loop
      vertex -2.5 16.25 -0.721834
      vertex -3.62891 16.25 -0.721834
      vertex -0.625 16.25 -1.63306
    endloop
  endfacet
  facet normal 4.30299e-32 -1 -2.34415e-16
    outer loop
      vertex -0.625 16.25 -0.721834
      vertex -2.5 16.25 -0.721834
      vertex -0.625 16.25 -1.63306
    endloop
  endfacet
  facet normal 4.2924e-32 -1 -2.33838e-16
    outer loop
      vertex -2.5 16.25 2.00358
      vertex -3.62891 16.25 -0.721834
      vertex -2.5 16.25 -0.721834
    endloop
  endfacet
  facet normal -1.05459e-15 -1 -1.03868e-16
    outer loop
      vertex -3.41835 16.25 1.41593
      vertex -3.7 16.25 -1.00823e-15
      vertex -3.62891 16.25 -0.721834
    endloop
  endfacet
  facet normal -3.12323e-15 -1 3.07612e-16
    outer loop
      vertex -3.62891 16.25 0.721834
      vertex -3.7 16.25 -1.00823e-15
      vertex -3.41835 16.25 1.41593
    endloop
  endfacet
  facet normal -0.93076 0.23231 0.282343
    outer loop
      vertex -2.3097 21.25 0.956709
      vertex -3.62891 16.25 0.721834
      vertex -3.41835 16.25 1.41593
    endloop
  endfacet
  facet normal -0.857793 0.23231 0.4585
    outer loop
      vertex -2.3097 21.25 0.956709
      vertex -3.41835 16.25 1.41593
      vertex -2.07867 21.25 1.38893
    endloop
  endfacet
  facet normal -0.857793 0.23231 0.4585
    outer loop
      vertex -2.07867 21.25 1.38893
      vertex -3.41835 16.25 1.41593
      vertex -3.07644 16.25 2.05561
    endloop
  endfacet
  facet normal -8.19151e-16 -1 -6.7226e-16
    outer loop
      vertex -2.67846 16.25 -2.5
      vertex -3.62891 16.25 -0.721834
      vertex -3.07644 16.25 -2.05561
    endloop
  endfacet
  facet normal -8.19151e-16 -1 -6.7226e-16
    outer loop
      vertex -2.71174 16.25 -2.5
      vertex -2.67846 16.25 -2.5
      vertex -3.07644 16.25 -2.05561
    endloop
  endfacet
  facet normal -2.76777e-15 -1 -1.47941e-15
    outer loop
      vertex -3.07644 16.25 -2.05561
      vertex -3.62891 16.25 -0.721834
      vertex -3.41835 16.25 -1.41593
    endloop
  endfacet
  facet normal -0.93076 0.23231 -0.282343
    outer loop
      vertex -3.41835 16.25 -1.41593
      vertex -3.62891 16.25 -0.721834
      vertex -2.45196 21.25 -0.487726
    endloop
  endfacet
  facet normal -0.967958 0.23231 -0.0953356
    outer loop
      vertex -3.62891 16.25 -0.721834
      vertex -3.7 16.25 -1.00823e-15
      vertex -2.45196 21.25 -0.487726
    endloop
  endfacet
  facet normal -0.751862 0.23231 0.617037
    outer loop
      vertex -2.07867 21.25 1.38893
      vertex -3.07644 16.25 2.05561
      vertex -1.76777 21.25 1.76777
    endloop
  endfacet
  facet normal 0.751862 0.23231 0.617037
    outer loop
      vertex 2.07867 21.25 1.38893
      vertex 1.76777 21.25 1.76777
      vertex 3.07644 16.25 2.05561
    endloop
  endfacet
  facet normal 0.857793 0.23231 0.4585
    outer loop
      vertex 3.41835 16.25 1.41593
      vertex 2.07867 21.25 1.38893
      vertex 3.07644 16.25 2.05561
    endloop
  endfacet
  facet normal 0.93076 0.23231 0.282343
    outer loop
      vertex 2.45196 21.25 0.487726
      vertex 2.3097 21.25 0.956709
      vertex 3.41835 16.25 1.41593
    endloop
  endfacet
  facet normal 0.93076 0.23231 0.282343
    outer loop
      vertex 3.62891 16.25 0.721834
      vertex 2.45196 21.25 0.487726
      vertex 3.41835 16.25 1.41593
    endloop
  endfacet
  facet normal 3.12323e-15 -1 3.07612e-16
    outer loop
      vertex 3.62891 16.25 0.721834
      vertex 3.41835 16.25 1.41593
      vertex 3.7 16.25 -5.55112e-16
    endloop
  endfacet
  facet normal 1.05459e-15 -1 -1.03868e-16
    outer loop
      vertex 3.7 16.25 -5.55112e-16
      vertex 3.41835 16.25 1.41593
      vertex 3.62891 16.25 -0.721834
    endloop
  endfacet
  facet normal 0.857793 0.23231 0.4585
    outer loop
      vertex 2.3097 21.25 0.956709
      vertex 2.07867 21.25 1.38893
      vertex 3.41835 16.25 1.41593
    endloop
  endfacet
  facet normal 0.93076 0.23231 -0.282343
    outer loop
      vertex 3.41835 16.25 -1.41593
      vertex 2.45196 21.25 -0.487726
      vertex 3.62891 16.25 -0.721834
    endloop
  endfacet
  facet normal 2.76777e-15 -1 -1.47941e-15
    outer loop
      vertex 3.62891 16.25 -0.721834
      vertex 3.07644 16.25 -2.05561
      vertex 3.41835 16.25 -1.41593
    endloop
  endfacet
  facet normal 8.19151e-16 -1 -6.7226e-16
    outer loop
      vertex 3.62891 16.25 -0.721834
      vertex 2.67846 16.25 -2.5
      vertex 2.71174 16.25 -2.5
    endloop
  endfacet
  facet normal 8.19151e-16 -1 -6.7226e-16
    outer loop
      vertex 3.07644 16.25 -2.05561
      vertex 3.62891 16.25 -0.721834
      vertex 2.71174 16.25 -2.5
    endloop
  endfacet
  facet normal 0.967958 0.23231 -0.0953356
    outer loop
      vertex 3.62891 16.25 -0.721834
      vertex 2.5 21.25 5.55112e-16
      vertex 3.7 16.25 -5.55112e-16
    endloop
  endfacet
  facet normal 0.967958 0.23231 -0.0953356
    outer loop
      vertex 3.62891 16.25 -0.721834
      vertex 2.45196 21.25 -0.487726
      vertex 2.5 21.25 5.55112e-16
    endloop
  endfacet
  facet normal 0.751862 0.23231 -0.617037
    outer loop
      vertex 2.56535 16.7238 -2.5
      vertex 2.07867 21.25 -1.38893
      vertex 3.07644 16.25 -2.05561
    endloop
  endfacet
  facet normal 0.751862 0.23231 -0.617037
    outer loop
      vertex 2.71174 16.25 -2.5
      vertex 2.56535 16.7238 -2.5
      vertex 3.07644 16.25 -2.05561
    endloop
  endfacet
  facet normal 0.751862 0.23231 -0.617037
    outer loop
      vertex 2.5 16.9353 -2.5
      vertex 1.76777 21.25 -1.76777
      vertex 2.07867 21.25 -1.38893
    endloop
  endfacet
  facet normal 0.751862 0.23231 -0.617037
    outer loop
      vertex 2.56535 16.7238 -2.5
      vertex 2.5 16.9353 -2.5
      vertex 2.07867 21.25 -1.38893
    endloop
  endfacet
  facet normal 0.617037 0.23231 -0.751862
    outer loop
      vertex 1.38893 21.25 -2.07867
      vertex 1.76777 21.25 -1.76777
      vertex 2.3508 17.3316 -2.5
    endloop
  endfacet
  facet normal 0.617037 0.23231 -0.751862
    outer loop
      vertex 2.3508 17.3316 -2.5
      vertex 1.76777 21.25 -1.76777
      vertex 2.5 16.9353 -2.5
    endloop
  endfacet
  facet normal 0.617037 0.23231 -0.751862
    outer loop
      vertex 1.67045 19.1386 -2.5
      vertex 1.38893 21.25 -2.07867
      vertex 2.3508 17.3316 -2.5
    endloop
  endfacet
  facet normal 0.4585 0.23231 -0.857793
    outer loop
      vertex 1.39742 19.6775 -2.5
      vertex 1.38893 21.25 -2.07867
      vertex 1.67045 19.1386 -2.5
    endloop
  endfacet
  facet normal 0.4585 0.23231 -0.857793
    outer loop
      vertex 0.956709 21.25 -2.3097
      vertex 1.38893 21.25 -2.07867
      vertex 1.03553 20.3917 -2.5
    endloop
  endfacet
  facet normal 0.4585 0.23231 -0.857793
    outer loop
      vertex 1.03553 20.3917 -2.5
      vertex 1.38893 21.25 -2.07867
      vertex 1.39742 19.6775 -2.5
    endloop
  endfacet
  facet normal 0.857793 0.23231 -0.4585
    outer loop
      vertex 3.07644 16.25 -2.05561
      vertex 2.07867 21.25 -1.38893
      vertex 3.41835 16.25 -1.41593
    endloop
  endfacet
  facet normal 0.857793 0.23231 -0.4585
    outer loop
      vertex 3.41835 16.25 -1.41593
      vertex 2.07867 21.25 -1.38893
      vertex 2.3097 21.25 -0.956709
    endloop
  endfacet
  facet normal 0.93076 0.23231 -0.282343
    outer loop
      vertex 3.41835 16.25 -1.41593
      vertex 2.3097 21.25 -0.956709
      vertex 2.45196 21.25 -0.487726
    endloop
  endfacet
  facet normal 0.967958 0.23231 0.0953356
    outer loop
      vertex 3.7 16.25 -5.55112e-16
      vertex 2.5 21.25 5.55112e-16
      vertex 3.62891 16.25 0.721834
    endloop
  endfacet
  facet normal 0.967958 0.23231 0.0953356
    outer loop
      vertex 2.5 21.25 5.55112e-16
      vertex 2.45196 21.25 0.487726
      vertex 3.62891 16.25 0.721834
    endloop
  endfacet
  facet normal -0.93076 0.23231 -0.282343
    outer loop
      vertex -2.3097 21.25 -0.956709
      vertex -3.41835 16.25 -1.41593
      vertex -2.45196 21.25 -0.487726
    endloop
  endfacet
  facet normal -0.967958 0.23231 -0.0953356
    outer loop
      vertex -2.45196 21.25 -0.487726
      vertex -3.7 16.25 -1.00823e-15
      vertex -2.5 21.25 2.4895e-16
    endloop
  endfacet
  facet normal -0.857793 0.23231 -0.4585
    outer loop
      vertex -2.07867 21.25 -1.38893
      vertex -3.41835 16.25 -1.41593
      vertex -2.3097 21.25 -0.956709
    endloop
  endfacet
  facet normal -0.857793 0.23231 -0.4585
    outer loop
      vertex -3.07644 16.25 -2.05561
      vertex -3.41835 16.25 -1.41593
      vertex -2.07867 21.25 -1.38893
    endloop
  endfacet
  facet normal -0.751862 0.23231 -0.617037
    outer loop
      vertex -1.76777 21.25 -1.76777
      vertex -3.07644 16.25 -2.05561
      vertex -2.07867 21.25 -1.38893
    endloop
  endfacet
  facet normal -0.751862 0.23231 -0.617037
    outer loop
      vertex -3.07644 16.25 -2.05561
      vertex -1.76777 21.25 -1.76777
      vertex -2.71174 16.25 -2.5
    endloop
  endfacet
  facet normal -0.751862 0.23231 -0.617037
    outer loop
      vertex -2.71174 16.25 -2.5
      vertex -1.76777 21.25 -1.76777
      vertex -2.5 16.9353 -2.5
    endloop
  endfacet
  facet normal -0.617037 0.23231 -0.751862
    outer loop
      vertex -1.92882 18.4524 -2.5
      vertex -2.5 16.9353 -2.5
      vertex -1.76777 21.25 -1.76777
    endloop
  endfacet
  facet normal -0.617037 0.23231 -0.751862
    outer loop
      vertex -1.92882 18.4524 -2.5
      vertex -1.76777 21.25 -1.76777
      vertex -1.67045 19.1386 -2.5
    endloop
  endfacet
  facet normal -0.617037 0.23231 -0.751862
    outer loop
      vertex -1.67045 19.1386 -2.5
      vertex -1.76777 21.25 -1.76777
      vertex -1.38893 21.25 -2.07867
    endloop
  endfacet
  facet normal -0.4585 0.23231 -0.857793
    outer loop
      vertex -1.39742 19.6775 -2.5
      vertex -1.38893 21.25 -2.07867
      vertex -1.03553 20.3917 -2.5
    endloop
  endfacet
  facet normal -0.4585 0.23231 -0.857793
    outer loop
      vertex -1.03553 20.3917 -2.5
      vertex -1.38893 21.25 -2.07867
      vertex -0.956709 21.25 -2.3097
    endloop
  endfacet
  facet normal -0.4585 0.23231 -0.857793
    outer loop
      vertex -1.39742 19.6775 -2.5
      vertex -1.67045 19.1386 -2.5
      vertex -1.38893 21.25 -2.07867
    endloop
  endfacet
  facet normal -0.93076 0.23231 0.282343
    outer loop
      vertex -2.45196 21.25 0.487726
      vertex -3.62891 16.25 0.721834
      vertex -2.3097 21.25 0.956709
    endloop
  endfacet
  facet normal -0.967958 0.23231 0.0953356
    outer loop
      vertex -2.5 21.25 2.4895e-16
      vertex -3.62891 16.25 0.721834
      vertex -2.45196 21.25 0.487726
    endloop
  endfacet
  facet normal -0.967958 0.23231 0.0953356
    outer loop
      vertex -2.5 21.25 2.4895e-16
      vertex -3.7 16.25 -1.00823e-15
      vertex -3.62891 16.25 0.721834
    endloop
  endfacet
endsolid OpenSCAD_Model
