solid OpenSCAD_Model
  facet normal -0.995185 -0.0980167 0
    outer loop
      vertex -12 -10 -2.5
      vertex -11.9616 -10.3902 -2.5
      vertex -12 -10 2.5
    endloop
  endfacet
  facet normal -0.995185 -0.0980167 0
    outer loop
      vertex -12 -10 2.5
      vertex -11.9616 -10.3902 -2.5
      vertex -11.9616 -10.3902 2.5
    endloop
  endfacet
  facet normal 0 0 -1
    outer loop
      vertex -12 -10 -2.5
      vertex -12 10 -2.5
      vertex -11.9616 -10.3902 -2.5
    endloop
  endfacet
  facet normal 0 0 -1
    outer loop
      vertex -11.9616 -10.3902 -2.5
      vertex -12 10 -2.5
      vertex -11.9616 10.3902 -2.5
    endloop
  endfacet
  facet normal 0 0 -1
    outer loop
      vertex -11.9616 -10.3902 -2.5
      vertex -11.9616 10.3902 -2.5
      vertex -11.8478 10.7654 -2.5
    endloop
  endfacet
  facet normal 0 0 -1
    outer loop
      vertex -11.9616 -10.3902 -2.5
      vertex -11.8478 10.7654 -2.5
      vertex -11.6629 11.1111 -2.5
    endloop
  endfacet
  facet normal 0 0 -1
    outer loop
      vertex -11.9616 -10.3902 -2.5
      vertex -11.6629 11.1111 -2.5
      vertex -11.4142 11.4142 -2.5
    endloop
  endfacet
  facet normal 0 0 -1
    outer loop
      vertex -11.9616 -10.3902 -2.5
      vertex -11.4142 11.4142 -2.5
      vertex -11.1111 11.6629 -2.5
    endloop
  endfacet
  facet normal 0 0 -1
    outer loop
      vertex -11.9616 -10.3902 -2.5
      vertex -11.1111 11.6629 -2.5
      vertex -10.7654 11.8478 -2.5
    endloop
  endfacet
  facet normal 0 0 -1
    outer loop
      vertex -11.9616 -10.3902 -2.5
      vertex -10.7654 11.8478 -2.5
      vertex -10.3902 11.9616 -2.5
    endloop
  endfacet
  facet normal 0 0 -1
    outer loop
      vertex -11.9616 -10.3902 -2.5
      vertex -10.3902 11.9616 -2.5
      vertex -10 12 -2.5
    endloop
  endfacet
  facet normal 0 0 -1
    outer loop
      vertex -5.00013 7.48323 -2.5
      vertex -10 12 -2.5
      vertex -2.5 12 -2.5
    endloop
  endfacet
  facet normal 0 0 -1
    outer loop
      vertex -2.5 12 -2.5
      vertex -2.5 17 -2.5
      vertex -0.625 17 -2.5
    endloop
  endfacet
  facet normal 0 0 -1
    outer loop
      vertex -2.5 12 -2.5
      vertex -0.625 17 -2.5
      vertex -0.625 8.93844 -2.5
    endloop
  endfacet
  facet normal 0 0 -1
    outer loop
      vertex -2.5 12 -2.5
      vertex -0.625 8.93844 -2.5
      vertex -1.75581 8.82707 -2.5
    endloop
  endfacet
  facet normal 0 0 -1
    outer loop
      vertex -2.5 12 -2.5
      vertex -1.75581 8.82707 -2.5
      vertex -3.44415 8.31492 -2.5
    endloop
  endfacet
  facet normal 0 0 -1
    outer loop
      vertex -6.36396 6.36396 -2.5
      vertex -10 12 -2.5
      vertex -5.00013 7.48323 -2.5
    endloop
  endfacet
  facet normal 0 0 -1
    outer loop
      vertex -9 1.10218e-15 -2.5
      vertex -11.9616 -10.3902 -2.5
      vertex -8.82707 1.75581 -2.5
    endloop
  endfacet
  facet normal 0 0 -1
    outer loop
      vertex -7.48323 5.00013 -2.5
      vertex -10 12 -2.5
      vertex -6.36396 6.36396 -2.5
    endloop
  endfacet
  facet normal 0 0 -1
    outer loop
      vertex -8.31492 3.44415 -2.5
      vertex -10 12 -2.5
      vertex -7.48323 5.00013 -2.5
    endloop
  endfacet
  facet normal 0 0 -1
    outer loop
      vertex -8.82707 1.75581 -2.5
      vertex -10 12 -2.5
      vertex -8.31492 3.44415 -2.5
    endloop
  endfacet
  facet normal 0 0 -1
    outer loop
      vertex -11.9616 -10.3902 -2.5
      vertex -10 12 -2.5
      vertex -8.82707 1.75581 -2.5
    endloop
  endfacet
  facet normal 0 0 -1
    outer loop
      vertex -8.82707 -1.75581 -2.5
      vertex -11.9616 -10.3902 -2.5
      vertex -9 1.10218e-15 -2.5
    endloop
  endfacet
  facet normal 0 0 -1
    outer loop
      vertex -8.31492 -3.44415 -2.5
      vertex -11.9616 -10.3902 -2.5
      vertex -8.82707 -1.75581 -2.5
    endloop
  endfacet
  facet normal 0 0 -1
    outer loop
      vertex -7.48323 -5.00013 -2.5
      vertex -11.9616 -10.3902 -2.5
      vertex -8.31492 -3.44415 -2.5
    endloop
  endfacet
  facet normal 0 0 -1
    outer loop
      vertex -11.9616 -10.3902 -2.5
      vertex -7.48323 -5.00013 -2.5
      vertex -6.36396 -6.36396 -2.5
    endloop
  endfacet
  facet normal 0 0 -1
    outer loop
      vertex -6.36396 -6.36396 -2.5
      vertex -5.00013 -7.48323 -2.5
      vertex -11.9616 -10.3902 -2.5
    endloop
  endfacet
  facet normal 0 0 -1
    outer loop
      vertex -5.00013 -7.48323 -2.5
      vertex -3.44415 -8.31492 -2.5
      vertex -11.9616 -10.3902 -2.5
    endloop
  endfacet
  facet normal 0 0 -1
    outer loop
      vertex -3.44415 -8.31492 -2.5
      vertex -1.75581 -8.82707 -2.5
      vertex -11.9616 -10.3902 -2.5
    endloop
  endfacet
  facet normal 0 0 -1
    outer loop
      vertex -1.75581 -8.82707 -2.5
      vertex -1.65327e-15 -9 -2.5
      vertex -11.9616 -10.3902 -2.5
    endloop
  endfacet
  facet normal 0 0 -1
    outer loop
      vertex -1.65327e-15 -9 -2.5
      vertex 1.75581 -8.82707 -2.5
      vertex -11.9616 -10.3902 -2.5
    endloop
  endfacet
  facet normal 0 0 -1
    outer loop
      vertex 10 12 -2.5
      vertex 7.48323 5.00013 -2.5
      vertex 6.36396 6.36396 -2.5
    endloop
  endfacet
  facet normal 0 0 -1
    outer loop
      vertex 1.75581 -8.82707 -2.5
      vertex 12 -10 -2.5
      vertex -11.9616 -10.3902 -2.5
    endloop
  endfacet
  facet normal 0 0 -1
    outer loop
      vertex 10 12 -2.5
      vertex 8.31492 3.44415 -2.5
      vertex 7.48323 5.00013 -2.5
    endloop
  endfacet
  facet normal 0 0 -1
    outer loop
      vertex 3.44415 -8.31492 -2.5
      vertex 12 -10 -2.5
      vertex 1.75581 -8.82707 -2.5
    endloop
  endfacet
  facet normal 0 0 -1
    outer loop
      vertex 5.00013 -7.48323 -2.5
      vertex 12 -10 -2.5
      vertex 3.44415 -8.31492 -2.5
    endloop
  endfacet
  facet normal 0 0 -1
    outer loop
      vertex 6.36396 -6.36396 -2.5
      vertex 12 -10 -2.5
      vertex 5.00013 -7.48323 -2.5
    endloop
  endfacet
  facet normal 0 0 -1
    outer loop
      vertex 7.48323 -5.00013 -2.5
      vertex 12 -10 -2.5
      vertex 6.36396 -6.36396 -2.5
    endloop
  endfacet
  facet normal 0 0 -1
    outer loop
      vertex 8.31492 -3.44415 -2.5
      vertex 12 -10 -2.5
      vertex 7.48323 -5.00013 -2.5
    endloop
  endfacet
  facet normal 0 0 -1
    outer loop
      vertex 8.82707 1.75581 -2.5
      vertex 10 12 -2.5
      vertex 9 0 -2.5
    endloop
  endfacet
  facet normal 0 0 -1
    outer loop
      vertex 5.00013 7.48323 -2.5
      vertex 2.5 12 -2.5
      vertex 6.36396 6.36396 -2.5
    endloop
  endfacet
  facet normal 0 0 -1
    outer loop
      vertex 0.625 17 -2.5
      vertex 2.5 12 -2.5
      vertex 3.44415 8.31492 -2.5
    endloop
  endfacet
  facet normal 0 0 -1
    outer loop
      vertex 2.5 12 -2.5
      vertex 5.00013 7.48323 -2.5
      vertex 3.44415 8.31492 -2.5
    endloop
  endfacet
  facet normal 0 0 -1
    outer loop
      vertex 2.5 12 -2.5
      vertex 0.625 17 -2.5
      vertex 2.5 17 -2.5
    endloop
  endfacet
  facet normal 0 0 -1
    outer loop
      vertex 10 12 -2.5
      vertex 6.36396 6.36396 -2.5
      vertex 2.5 12 -2.5
    endloop
  endfacet
  facet normal 0 0 -1
    outer loop
      vertex 8.31492 3.44415 -2.5
      vertex 10 12 -2.5
      vertex 8.82707 1.75581 -2.5
    endloop
  endfacet
  facet normal 0 0 -1
    outer loop
      vertex 9 0 -2.5
      vertex 10 12 -2.5
      vertex 10.3902 11.9616 -2.5
    endloop
  endfacet
  facet normal 0 0 -1
    outer loop
      vertex 9 0 -2.5
      vertex 10.3902 11.9616 -2.5
      vertex 8.82707 -1.75581 -2.5
    endloop
  endfacet
  facet normal 0 0 -1
    outer loop
      vertex 8.82707 -1.75581 -2.5
      vertex 10.3902 11.9616 -2.5
      vertex 10.7654 11.8478 -2.5
    endloop
  endfacet
  facet normal 0 0 -1
    outer loop
      vertex 8.82707 -1.75581 -2.5
      vertex 10.7654 11.8478 -2.5
      vertex 11.1111 11.6629 -2.5
    endloop
  endfacet
  facet normal 0 0 -1
    outer loop
      vertex 8.82707 -1.75581 -2.5
      vertex 11.1111 11.6629 -2.5
      vertex 11.4142 11.4142 -2.5
    endloop
  endfacet
  facet normal 0 0 -1
    outer loop
      vertex 8.82707 -1.75581 -2.5
      vertex 11.4142 11.4142 -2.5
      vertex 11.6629 11.1111 -2.5
    endloop
  endfacet
  facet normal 0 0 -1
    outer loop
      vertex 8.82707 -1.75581 -2.5
      vertex 11.6629 11.1111 -2.5
      vertex 11.8478 10.7654 -2.5
    endloop
  endfacet
  facet normal 0 0 -1
    outer loop
      vertex 8.82707 -1.75581 -2.5
      vertex 11.8478 10.7654 -2.5
      vertex 11.9616 10.3902 -2.5
    endloop
  endfacet
  facet normal 0 0 -1
    outer loop
      vertex 8.82707 -1.75581 -2.5
      vertex 11.9616 10.3902 -2.5
      vertex 12 10 -2.5
    endloop
  endfacet
  facet normal 0 0 -1
    outer loop
      vertex 8.82707 -1.75581 -2.5
      vertex 12 10 -2.5
      vertex 12 -10 -2.5
    endloop
  endfacet
  facet normal 0 0 -1
    outer loop
      vertex 8.82707 -1.75581 -2.5
      vertex 12 -10 -2.5
      vertex 8.31492 -3.44415 -2.5
    endloop
  endfacet
  facet normal 0 0 -1
    outer loop
      vertex -11.9616 -10.3902 -2.5
      vertex 12 -10 -2.5
      vertex 11.9616 -10.3902 -2.5
    endloop
  endfacet
  facet normal 0 0 -1
    outer loop
      vertex -11.9616 -10.3902 -2.5
      vertex 11.9616 -10.3902 -2.5
      vertex 11.8478 -10.7654 -2.5
    endloop
  endfacet
  facet normal 0 0 -1
    outer loop
      vertex -11.9616 -10.3902 -2.5
      vertex 11.8478 -10.7654 -2.5
      vertex 11.6629 -11.1111 -2.5
    endloop
  endfacet
  facet normal 0 0 -1
    outer loop
      vertex -11.9616 -10.3902 -2.5
      vertex 11.6629 -11.1111 -2.5
      vertex 11.4142 -11.4142 -2.5
    endloop
  endfacet
  facet normal 0 0 -1
    outer loop
      vertex -11.9616 -10.3902 -2.5
      vertex 11.4142 -11.4142 -2.5
      vertex 11.1111 -11.6629 -2.5
    endloop
  endfacet
  facet normal 0 0 -1
    outer loop
      vertex -11.9616 -10.3902 -2.5
      vertex 11.1111 -11.6629 -2.5
      vertex 10.7654 -11.8478 -2.5
    endloop
  endfacet
  facet normal 0 0 -1
    outer loop
      vertex -11.9616 -10.3902 -2.5
      vertex 10.7654 -11.8478 -2.5
      vertex 10.3902 -11.9616 -2.5
    endloop
  endfacet
  facet normal 0 0 -1
    outer loop
      vertex -11.9616 -10.3902 -2.5
      vertex 10.3902 -11.9616 -2.5
      vertex 10 -12 -2.5
    endloop
  endfacet
  facet normal 0 0 -1
    outer loop
      vertex -11.9616 -10.3902 -2.5
      vertex 10 -12 -2.5
      vertex -10 -12 -2.5
    endloop
  endfacet
  facet normal 0 0 -1
    outer loop
      vertex -11.9616 -10.3902 -2.5
      vertex -10 -12 -2.5
      vertex -10.3902 -11.9616 -2.5
    endloop
  endfacet
  facet normal 0 0 -1
    outer loop
      vertex -11.9616 -10.3902 -2.5
      vertex -10.3902 -11.9616 -2.5
      vertex -10.7654 -11.8478 -2.5
    endloop
  endfacet
  facet normal 0 0 -1
    outer loop
      vertex -11.9616 -10.3902 -2.5
      vertex -10.7654 -11.8478 -2.5
      vertex -11.1111 -11.6629 -2.5
    endloop
  endfacet
  facet normal 0 0 -1
    outer loop
      vertex -11.9616 -10.3902 -2.5
      vertex -11.1111 -11.6629 -2.5
      vertex -11.4142 -11.4142 -2.5
    endloop
  endfacet
  facet normal 0 0 -1
    outer loop
      vertex -11.9616 -10.3902 -2.5
      vertex -11.4142 -11.4142 -2.5
      vertex -11.6629 -11.1111 -2.5
    endloop
  endfacet
  facet normal 0 0 -1
    outer loop
      vertex -11.9616 -10.3902 -2.5
      vertex -11.6629 -11.1111 -2.5
      vertex -11.8478 -10.7654 -2.5
    endloop
  endfacet
  facet normal 0 0 -1
    outer loop
      vertex -5.00013 7.48323 -2.5
      vertex -2.5 12 -2.5
      vertex -3.44415 8.31492 -2.5
    endloop
  endfacet
  facet normal 0 0 -1
    outer loop
      vertex 0.625 17 -2.5
      vertex 3.44415 8.31492 -2.5
      vertex 1.75581 8.82707 -2.5
    endloop
  endfacet
  facet normal 0 0 -1
    outer loop
      vertex 0.625 17 -2.5
      vertex 1.75581 8.82707 -2.5
      vertex 0.625 8.93844 -2.5
    endloop
  endfacet
  facet normal -1 0 0
    outer loop
      vertex -12 -10 -2.5
      vertex -12 -10 2.5
      vertex -12 10 -2.5
    endloop
  endfacet
  facet normal -1 0 0
    outer loop
      vertex -12 10 -2.5
      vertex -12 -10 2.5
      vertex -12 10 2.5
    endloop
  endfacet
  facet normal 0 0 1
    outer loop
      vertex -12 10 2.5
      vertex -12 -10 2.5
      vertex -11.9616 -10.3902 2.5
    endloop
  endfacet
  facet normal 0 0 1
    outer loop
      vertex -11.6629 -11.1111 2.5
      vertex -12 10 2.5
      vertex -11.8478 -10.7654 2.5
    endloop
  endfacet
  facet normal 0 0 1
    outer loop
      vertex -11.8478 -10.7654 2.5
      vertex -12 10 2.5
      vertex -11.9616 -10.3902 2.5
    endloop
  endfacet
  facet normal 0 0 1
    outer loop
      vertex -11.4142 -11.4142 2.5
      vertex -12 10 2.5
      vertex -11.6629 -11.1111 2.5
    endloop
  endfacet
  facet normal 0 0 1
    outer loop
      vertex -11.1111 -11.6629 2.5
      vertex -12 10 2.5
      vertex -11.4142 -11.4142 2.5
    endloop
  endfacet
  facet normal 0 0 1
    outer loop
      vertex -10.7654 -11.8478 2.5
      vertex -12 10 2.5
      vertex -11.1111 -11.6629 2.5
    endloop
  endfacet
  facet normal 0 0 1
    outer loop
      vertex -10.3902 -11.9616 2.5
      vertex -12 10 2.5
      vertex -10.7654 -11.8478 2.5
    endloop
  endfacet
  facet normal 0 0 1
    outer loop
      vertex -10 -12 2.5
      vertex -12 10 2.5
      vertex -10.3902 -11.9616 2.5
    endloop
  endfacet
  facet normal 0 0 1
    outer loop
      vertex -8.82707 -1.75581 2.5
      vertex -12 10 2.5
      vertex -10 -12 2.5
    endloop
  endfacet
  facet normal 0 0 1
    outer loop
      vertex 1.75581 -8.82707 2.5
      vertex -1.65327e-15 -9 2.5
      vertex -10 -12 2.5
    endloop
  endfacet
  facet normal 0 0 1
    outer loop
      vertex -9 1.10218e-15 2.5
      vertex -8.82707 1.75581 2.5
      vertex -12 10 2.5
    endloop
  endfacet
  facet normal 0 0 1
    outer loop
      vertex -8.82707 1.75581 2.5
      vertex -8.31492 3.44415 2.5
      vertex -12 10 2.5
    endloop
  endfacet
  facet normal 0 0 1
    outer loop
      vertex -0.625 8.93844 2.5
      vertex -2.5 17.8579 2.5
      vertex -2.5 17 2.5
    endloop
  endfacet
  facet normal 0 0 1
    outer loop
      vertex -0.625 8.93844 2.5
      vertex -1.93893 19.2885 2.5
      vertex -2.5 17.8579 2.5
    endloop
  endfacet
  facet normal 0 0 1
    outer loop
      vertex 6.36396 -6.36396 2.5
      vertex 11.4142 -11.4142 2.5
      vertex 11.6629 -11.1111 2.5
    endloop
  endfacet
  facet normal 0 0 1
    outer loop
      vertex 6.36396 -6.36396 2.5
      vertex 11.1111 -11.6629 2.5
      vertex 11.4142 -11.4142 2.5
    endloop
  endfacet
  facet normal 0 0 1
    outer loop
      vertex 6.36396 -6.36396 2.5
      vertex 10.7654 -11.8478 2.5
      vertex 11.1111 -11.6629 2.5
    endloop
  endfacet
  facet normal 0 0 1
    outer loop
      vertex 8.82707 1.75581 2.5
      vertex 9 0 2.5
      vertex 12 -10 2.5
    endloop
  endfacet
  facet normal 0 0 1
    outer loop
      vertex 9 0 2.5
      vertex 8.82707 -1.75581 2.5
      vertex 12 -10 2.5
    endloop
  endfacet
  facet normal 0 0 1
    outer loop
      vertex 8.82707 -1.75581 2.5
      vertex 8.31492 -3.44415 2.5
      vertex 12 -10 2.5
    endloop
  endfacet
  facet normal 0 0 1
    outer loop
      vertex 6.36396 -6.36396 2.5
      vertex 10.3902 -11.9616 2.5
      vertex 10.7654 -11.8478 2.5
    endloop
  endfacet
  facet normal 0 0 1
    outer loop
      vertex 6.36396 -6.36396 2.5
      vertex 10 -12 2.5
      vertex 10.3902 -11.9616 2.5
    endloop
  endfacet
  facet normal 0 0 1
    outer loop
      vertex 6.36396 -6.36396 2.5
      vertex 5.00013 -7.48323 2.5
      vertex 10 -12 2.5
    endloop
  endfacet
  facet normal 0 0 1
    outer loop
      vertex -0.625 8.93844 2.5
      vertex -1.67045 19.9731 2.5
      vertex -1.93893 19.2885 2.5
    endloop
  endfacet
  facet normal 0 0 1
    outer loop
      vertex -0.625 8.93844 2.5
      vertex -1.40295 20.4799 2.5
      vertex -1.67045 19.9731 2.5
    endloop
  endfacet
  facet normal 0 0 1
    outer loop
      vertex -0.625 8.93844 2.5
      vertex -1.03553 21.1761 2.5
      vertex -1.40295 20.4799 2.5
    endloop
  endfacet
  facet normal 0 0 1
    outer loop
      vertex -0.625 8.93844 2.5
      vertex -0.625 21.6551 2.5
      vertex -1.03553 21.1761 2.5
    endloop
  endfacet
  facet normal 0 0 1
    outer loop
      vertex 2.7014 17 2.5
      vertex 2.5 17 2.5
      vertex 2.59058 17 2.5
    endloop
  endfacet
  facet normal 0 0 1
    outer loop
      vertex 2.77611 17 2.5
      vertex 2.5 17 2.5
      vertex 2.7014 17 2.5
    endloop
  endfacet
  facet normal 0 0 1
    outer loop
      vertex 2.5 17.8579 2.5
      vertex 2.5 17 2.5
      vertex 2.77611 17 2.5
    endloop
  endfacet
  facet normal 0 0 1
    outer loop
      vertex 7.48323 -5.00013 2.5
      vertex 11.9616 -10.3902 2.5
      vertex 12 -10 2.5
    endloop
  endfacet
  facet normal 0 0 1
    outer loop
      vertex 8.31492 -3.44415 2.5
      vertex 7.48323 -5.00013 2.5
      vertex 12 -10 2.5
    endloop
  endfacet
  facet normal 0 0 1
    outer loop
      vertex 12 10 2.5
      vertex 0.625 8.93844 2.5
      vertex 1.75581 8.82707 2.5
    endloop
  endfacet
  facet normal 0 0 1
    outer loop
      vertex 7.48323 -5.00013 2.5
      vertex 11.8478 -10.7654 2.5
      vertex 11.9616 -10.3902 2.5
    endloop
  endfacet
  facet normal 0 0 1
    outer loop
      vertex 12 10 2.5
      vertex 1.75581 8.82707 2.5
      vertex 3.44415 8.31492 2.5
    endloop
  endfacet
  facet normal 0 0 1
    outer loop
      vertex 7.48323 -5.00013 2.5
      vertex 6.36396 -6.36396 2.5
      vertex 11.8478 -10.7654 2.5
    endloop
  endfacet
  facet normal 0 0 1
    outer loop
      vertex 12 10 2.5
      vertex 3.44415 8.31492 2.5
      vertex 5.00013 7.48323 2.5
    endloop
  endfacet
  facet normal 0 0 1
    outer loop
      vertex 12 10 2.5
      vertex 5.00013 7.48323 2.5
      vertex 6.36396 6.36396 2.5
    endloop
  endfacet
  facet normal 0 0 1
    outer loop
      vertex 12 10 2.5
      vertex 6.36396 6.36396 2.5
      vertex 7.48323 5.00013 2.5
    endloop
  endfacet
  facet normal 0 0 1
    outer loop
      vertex 12 10 2.5
      vertex 7.48323 5.00013 2.5
      vertex 8.31492 3.44415 2.5
    endloop
  endfacet
  facet normal 0 0 1
    outer loop
      vertex 12 10 2.5
      vertex 8.82707 1.75581 2.5
      vertex 12 -10 2.5
    endloop
  endfacet
  facet normal 0 0 1
    outer loop
      vertex 12 10 2.5
      vertex 8.31492 3.44415 2.5
      vertex 8.82707 1.75581 2.5
    endloop
  endfacet
  facet normal 0 0 1
    outer loop
      vertex 11.8478 -10.7654 2.5
      vertex 6.36396 -6.36396 2.5
      vertex 11.6629 -11.1111 2.5
    endloop
  endfacet
  facet normal 0 0 1
    outer loop
      vertex -0.625 8.93844 2.5
      vertex -2.5 12 2.5
      vertex -12 10 2.5
    endloop
  endfacet
  facet normal 0 0 1
    outer loop
      vertex -8.82707 -1.75581 2.5
      vertex -9 1.10218e-15 2.5
      vertex -12 10 2.5
    endloop
  endfacet
  facet normal 0 0 1
    outer loop
      vertex -1.65327e-15 -9 2.5
      vertex -1.75581 -8.82707 2.5
      vertex -10 -12 2.5
    endloop
  endfacet
  facet normal 0 0 1
    outer loop
      vertex 10 -12 2.5
      vertex 5.00013 -7.48323 2.5
      vertex 3.44415 -8.31492 2.5
    endloop
  endfacet
  facet normal 0 0 1
    outer loop
      vertex 10 -12 2.5
      vertex 1.75581 -8.82707 2.5
      vertex -10 -12 2.5
    endloop
  endfacet
  facet normal 0 0 1
    outer loop
      vertex 10 -12 2.5
      vertex 3.44415 -8.31492 2.5
      vertex 1.75581 -8.82707 2.5
    endloop
  endfacet
  facet normal 0 0 1
    outer loop
      vertex -1.75581 -8.82707 2.5
      vertex -3.44415 -8.31492 2.5
      vertex -10 -12 2.5
    endloop
  endfacet
  facet normal 0 0 1
    outer loop
      vertex -3.44415 -8.31492 2.5
      vertex -5.00013 -7.48323 2.5
      vertex -10 -12 2.5
    endloop
  endfacet
  facet normal 0 0 1
    outer loop
      vertex -5.00013 -7.48323 2.5
      vertex -6.36396 -6.36396 2.5
      vertex -10 -12 2.5
    endloop
  endfacet
  facet normal 0 0 1
    outer loop
      vertex -6.36396 -6.36396 2.5
      vertex -7.48323 -5.00013 2.5
      vertex -10 -12 2.5
    endloop
  endfacet
  facet normal 0 0 1
    outer loop
      vertex -7.48323 -5.00013 2.5
      vertex -8.31492 -3.44415 2.5
      vertex -10 -12 2.5
    endloop
  endfacet
  facet normal 0 0 1
    outer loop
      vertex -8.31492 -3.44415 2.5
      vertex -8.82707 -1.75581 2.5
      vertex -10 -12 2.5
    endloop
  endfacet
  facet normal 0 0 1
    outer loop
      vertex -7.48323 5.00013 2.5
      vertex -6.36396 6.36396 2.5
      vertex -12 10 2.5
    endloop
  endfacet
  facet normal 0 0 1
    outer loop
      vertex -7.48323 5.00013 2.5
      vertex -12 10 2.5
      vertex -8.31492 3.44415 2.5
    endloop
  endfacet
  facet normal 0 0 1
    outer loop
      vertex -0.625 8.93844 2.5
      vertex -2.5 17 2.5
      vertex -2.5 12 2.5
    endloop
  endfacet
  facet normal 0 0 1
    outer loop
      vertex -5.00013 7.48323 2.5
      vertex -12 10 2.5
      vertex -6.36396 6.36396 2.5
    endloop
  endfacet
  facet normal 0 0 1
    outer loop
      vertex -3.44415 8.31492 2.5
      vertex -12 10 2.5
      vertex -5.00013 7.48323 2.5
    endloop
  endfacet
  facet normal 0 0 1
    outer loop
      vertex -1.75581 8.82707 2.5
      vertex -12 10 2.5
      vertex -3.44415 8.31492 2.5
    endloop
  endfacet
  facet normal 0 0 1
    outer loop
      vertex -0.625 8.93844 2.5
      vertex -12 10 2.5
      vertex -1.75581 8.82707 2.5
    endloop
  endfacet
  facet normal 0 0 1
    outer loop
      vertex -10 12 2.5
      vertex -10.3902 11.9616 2.5
      vertex -12 10 2.5
    endloop
  endfacet
  facet normal 0 0 1
    outer loop
      vertex -10.7654 11.8478 2.5
      vertex -12 10 2.5
      vertex -10.3902 11.9616 2.5
    endloop
  endfacet
  facet normal 0 0 1
    outer loop
      vertex -11.1111 11.6629 2.5
      vertex -12 10 2.5
      vertex -10.7654 11.8478 2.5
    endloop
  endfacet
  facet normal 0 0 1
    outer loop
      vertex -11.4142 11.4142 2.5
      vertex -12 10 2.5
      vertex -11.1111 11.6629 2.5
    endloop
  endfacet
  facet normal 0 0 1
    outer loop
      vertex -11.6629 11.1111 2.5
      vertex -12 10 2.5
      vertex -11.4142 11.4142 2.5
    endloop
  endfacet
  facet normal 0 0 1
    outer loop
      vertex -11.8478 10.7654 2.5
      vertex -12 10 2.5
      vertex -11.6629 11.1111 2.5
    endloop
  endfacet
  facet normal 0 0 1
    outer loop
      vertex -11.9616 10.3902 2.5
      vertex -12 10 2.5
      vertex -11.8478 10.7654 2.5
    endloop
  endfacet
  facet normal 0 0 1
    outer loop
      vertex -2.5 12 2.5
      vertex -10 12 2.5
      vertex -12 10 2.5
    endloop
  endfacet
  facet normal 0 0 1
    outer loop
      vertex -2.5 17 2.5
      vertex -2.7014 17 2.5
      vertex -2.59058 17 2.5
    endloop
  endfacet
  facet normal 0 0 1
    outer loop
      vertex -2.5 17 2.5
      vertex -2.77611 17 2.5
      vertex -2.7014 17 2.5
    endloop
  endfacet
  facet normal 0 0 1
    outer loop
      vertex -2.5 17 2.5
      vertex -2.5 17.8579 2.5
      vertex -2.77611 17 2.5
    endloop
  endfacet
  facet normal 0 0 1
    outer loop
      vertex 0.625 21.6551 2.5
      vertex 1.22196 20.8228 2.5
      vertex 1.03553 21.1761 2.5
    endloop
  endfacet
  facet normal 0 0 1
    outer loop
      vertex 0.625 21.6551 2.5
      vertex 1.67045 19.9731 2.5
      vertex 1.22196 20.8228 2.5
    endloop
  endfacet
  facet normal 0 0 1
    outer loop
      vertex 0.625 21.6551 2.5
      vertex 1.93893 19.2885 2.5
      vertex 1.67045 19.9731 2.5
    endloop
  endfacet
  facet normal 0 0 1
    outer loop
      vertex 0.625 21.6551 2.5
      vertex 2.5 17.8579 2.5
      vertex 1.93893 19.2885 2.5
    endloop
  endfacet
  facet normal 0 0 1
    outer loop
      vertex 0.625 21.6551 2.5
      vertex 2.5 17 2.5
      vertex 2.5 17.8579 2.5
    endloop
  endfacet
  facet normal 0 0 1
    outer loop
      vertex 0.625 21.6551 2.5
      vertex 2.5 12 2.5
      vertex 2.5 17 2.5
    endloop
  endfacet
  facet normal 0 0 1
    outer loop
      vertex 2.5 12 2.5
      vertex 10.3902 11.9616 2.5
      vertex 10 12 2.5
    endloop
  endfacet
  facet normal 0 0 1
    outer loop
      vertex 2.5 12 2.5
      vertex 10.7654 11.8478 2.5
      vertex 10.3902 11.9616 2.5
    endloop
  endfacet
  facet normal 0 0 1
    outer loop
      vertex 2.5 12 2.5
      vertex 11.1111 11.6629 2.5
      vertex 10.7654 11.8478 2.5
    endloop
  endfacet
  facet normal 0 0 1
    outer loop
      vertex 2.5 12 2.5
      vertex 11.4142 11.4142 2.5
      vertex 11.1111 11.6629 2.5
    endloop
  endfacet
  facet normal 0 0 1
    outer loop
      vertex 2.5 12 2.5
      vertex 11.6629 11.1111 2.5
      vertex 11.4142 11.4142 2.5
    endloop
  endfacet
  facet normal 0 0 1
    outer loop
      vertex 2.5 12 2.5
      vertex 11.8478 10.7654 2.5
      vertex 11.6629 11.1111 2.5
    endloop
  endfacet
  facet normal 0 0 1
    outer loop
      vertex 2.5 12 2.5
      vertex 11.9616 10.3902 2.5
      vertex 11.8478 10.7654 2.5
    endloop
  endfacet
  facet normal 0 0 1
    outer loop
      vertex 2.5 12 2.5
      vertex 12 10 2.5
      vertex 11.9616 10.3902 2.5
    endloop
  endfacet
  facet normal 0 0 1
    outer loop
      vertex 2.5 12 2.5
      vertex 0.625 8.93844 2.5
      vertex 12 10 2.5
    endloop
  endfacet
  facet normal 0 0 1
    outer loop
      vertex 0.625 21.6551 2.5
      vertex 0.625 8.93844 2.5
      vertex 2.5 12 2.5
    endloop
  endfacet
  facet normal -0.95694 -0.290285 0
    outer loop
      vertex -11.9616 -10.3902 -2.5
      vertex -11.8478 -10.7654 -2.5
      vertex -11.9616 -10.3902 2.5
    endloop
  endfacet
  facet normal -0.95694 -0.290285 0
    outer loop
      vertex -11.9616 -10.3902 2.5
      vertex -11.8478 -10.7654 -2.5
      vertex -11.8478 -10.7654 2.5
    endloop
  endfacet
  facet normal -0.881921 -0.471397 0
    outer loop
      vertex -11.8478 -10.7654 -2.5
      vertex -11.6629 -11.1111 -2.5
      vertex -11.8478 -10.7654 2.5
    endloop
  endfacet
  facet normal -0.881921 -0.471397 0
    outer loop
      vertex -11.8478 -10.7654 2.5
      vertex -11.6629 -11.1111 -2.5
      vertex -11.6629 -11.1111 2.5
    endloop
  endfacet
  facet normal -0.77301 -0.634394 0
    outer loop
      vertex -11.6629 -11.1111 -2.5
      vertex -11.4142 -11.4142 -2.5
      vertex -11.6629 -11.1111 2.5
    endloop
  endfacet
  facet normal -0.77301 -0.634394 0
    outer loop
      vertex -11.6629 -11.1111 2.5
      vertex -11.4142 -11.4142 -2.5
      vertex -11.4142 -11.4142 2.5
    endloop
  endfacet
  facet normal -0.634394 -0.77301 0
    outer loop
      vertex -11.4142 -11.4142 2.5
      vertex -11.4142 -11.4142 -2.5
      vertex -11.1111 -11.6629 -2.5
    endloop
  endfacet
  facet normal -0.634394 -0.77301 0
    outer loop
      vertex -11.1111 -11.6629 2.5
      vertex -11.4142 -11.4142 2.5
      vertex -11.1111 -11.6629 -2.5
    endloop
  endfacet
  facet normal -0.471397 -0.881921 0
    outer loop
      vertex -11.1111 -11.6629 2.5
      vertex -11.1111 -11.6629 -2.5
      vertex -10.7654 -11.8478 -2.5
    endloop
  endfacet
  facet normal -0.471397 -0.881921 0
    outer loop
      vertex -10.7654 -11.8478 2.5
      vertex -11.1111 -11.6629 2.5
      vertex -10.7654 -11.8478 -2.5
    endloop
  endfacet
  facet normal -0.290285 -0.95694 0
    outer loop
      vertex -10.7654 -11.8478 2.5
      vertex -10.7654 -11.8478 -2.5
      vertex -10.3902 -11.9616 -2.5
    endloop
  endfacet
  facet normal -0.290285 -0.95694 0
    outer loop
      vertex -10.3902 -11.9616 2.5
      vertex -10.7654 -11.8478 2.5
      vertex -10.3902 -11.9616 -2.5
    endloop
  endfacet
  facet normal -0.0980167 -0.995185 0
    outer loop
      vertex -10.3902 -11.9616 2.5
      vertex -10.3902 -11.9616 -2.5
      vertex -10 -12 -2.5
    endloop
  endfacet
  facet normal -0.0980167 -0.995185 0
    outer loop
      vertex -10 -12 2.5
      vertex -10.3902 -11.9616 2.5
      vertex -10 -12 -2.5
    endloop
  endfacet
  facet normal 0 -1 0
    outer loop
      vertex -10 -12 2.5
      vertex -10 -12 -2.5
      vertex 10 -12 -2.5
    endloop
  endfacet
  facet normal 0 -1 0
    outer loop
      vertex 10 -12 2.5
      vertex -10 -12 2.5
      vertex 10 -12 -2.5
    endloop
  endfacet
  facet normal 0.0980167 -0.995185 0
    outer loop
      vertex 10 -12 2.5
      vertex 10 -12 -2.5
      vertex 10.3902 -11.9616 -2.5
    endloop
  endfacet
  facet normal 0.0980167 -0.995185 0
    outer loop
      vertex 10.3902 -11.9616 2.5
      vertex 10 -12 2.5
      vertex 10.3902 -11.9616 -2.5
    endloop
  endfacet
  facet normal 0.290285 -0.95694 0
    outer loop
      vertex 10.3902 -11.9616 2.5
      vertex 10.3902 -11.9616 -2.5
      vertex 10.7654 -11.8478 -2.5
    endloop
  endfacet
  facet normal 0.290285 -0.95694 0
    outer loop
      vertex 10.7654 -11.8478 2.5
      vertex 10.3902 -11.9616 2.5
      vertex 10.7654 -11.8478 -2.5
    endloop
  endfacet
  facet normal 0.471397 -0.881921 0
    outer loop
      vertex 10.7654 -11.8478 2.5
      vertex 10.7654 -11.8478 -2.5
      vertex 11.1111 -11.6629 -2.5
    endloop
  endfacet
  facet normal 0.471397 -0.881921 0
    outer loop
      vertex 11.1111 -11.6629 2.5
      vertex 10.7654 -11.8478 2.5
      vertex 11.1111 -11.6629 -2.5
    endloop
  endfacet
  facet normal 0.634394 -0.77301 0
    outer loop
      vertex 11.1111 -11.6629 2.5
      vertex 11.1111 -11.6629 -2.5
      vertex 11.4142 -11.4142 -2.5
    endloop
  endfacet
  facet normal 0.634394 -0.77301 0
    outer loop
      vertex 11.4142 -11.4142 2.5
      vertex 11.1111 -11.6629 2.5
      vertex 11.4142 -11.4142 -2.5
    endloop
  endfacet
  facet normal 0.77301 -0.634394 0
    outer loop
      vertex 11.4142 -11.4142 2.5
      vertex 11.4142 -11.4142 -2.5
      vertex 11.6629 -11.1111 -2.5
    endloop
  endfacet
  facet normal 0.77301 -0.634394 0
    outer loop
      vertex 11.6629 -11.1111 2.5
      vertex 11.4142 -11.4142 2.5
      vertex 11.6629 -11.1111 -2.5
    endloop
  endfacet
  facet normal 0.881921 -0.471397 0
    outer loop
      vertex 11.6629 -11.1111 2.5
      vertex 11.6629 -11.1111 -2.5
      vertex 11.8478 -10.7654 -2.5
    endloop
  endfacet
  facet normal 0.881921 -0.471397 0
    outer loop
      vertex 11.8478 -10.7654 2.5
      vertex 11.6629 -11.1111 2.5
      vertex 11.8478 -10.7654 -2.5
    endloop
  endfacet
  facet normal 0.95694 -0.290285 0
    outer loop
      vertex 11.8478 -10.7654 2.5
      vertex 11.8478 -10.7654 -2.5
      vertex 11.9616 -10.3902 -2.5
    endloop
  endfacet
  facet normal 0.95694 -0.290285 0
    outer loop
      vertex 11.9616 -10.3902 2.5
      vertex 11.8478 -10.7654 2.5
      vertex 11.9616 -10.3902 -2.5
    endloop
  endfacet
  facet normal 0.995185 -0.0980167 0
    outer loop
      vertex 11.9616 -10.3902 2.5
      vertex 11.9616 -10.3902 -2.5
      vertex 12 -10 -2.5
    endloop
  endfacet
  facet normal 0.995185 -0.0980167 0
    outer loop
      vertex 12 -10 2.5
      vertex 11.9616 -10.3902 2.5
      vertex 12 -10 -2.5
    endloop
  endfacet
  facet normal 1 0 0
    outer loop
      vertex 12 -10 2.5
      vertex 12 -10 -2.5
      vertex 12 10 -2.5
    endloop
  endfacet
  facet normal 1 0 0
    outer loop
      vertex 12 10 2.5
      vertex 12 -10 2.5
      vertex 12 10 -2.5
    endloop
  endfacet
  facet normal 0.995185 0.0980167 0
    outer loop
      vertex 12 10 -2.5
      vertex 11.9616 10.3902 -2.5
      vertex 11.9616 10.3902 2.5
    endloop
  endfacet
  facet normal 0.995185 0.0980167 0
    outer loop
      vertex 12 10 2.5
      vertex 12 10 -2.5
      vertex 11.9616 10.3902 2.5
    endloop
  endfacet
  facet normal 0.95694 0.290285 0
    outer loop
      vertex 11.9616 10.3902 -2.5
      vertex 11.8478 10.7654 -2.5
      vertex 11.8478 10.7654 2.5
    endloop
  endfacet
  facet normal 0.95694 0.290285 0
    outer loop
      vertex 11.9616 10.3902 2.5
      vertex 11.9616 10.3902 -2.5
      vertex 11.8478 10.7654 2.5
    endloop
  endfacet
  facet normal 0.881921 0.471397 0
    outer loop
      vertex 11.8478 10.7654 -2.5
      vertex 11.6629 11.1111 -2.5
      vertex 11.6629 11.1111 2.5
    endloop
  endfacet
  facet normal 0.881921 0.471397 0
    outer loop
      vertex 11.8478 10.7654 2.5
      vertex 11.8478 10.7654 -2.5
      vertex 11.6629 11.1111 2.5
    endloop
  endfacet
  facet normal 0.77301 0.634394 0
    outer loop
      vertex 11.6629 11.1111 -2.5
      vertex 11.4142 11.4142 -2.5
      vertex 11.4142 11.4142 2.5
    endloop
  endfacet
  facet normal 0.77301 0.634394 0
    outer loop
      vertex 11.6629 11.1111 2.5
      vertex 11.6629 11.1111 -2.5
      vertex 11.4142 11.4142 2.5
    endloop
  endfacet
  facet normal 0.634394 0.77301 0
    outer loop
      vertex 11.1111 11.6629 -2.5
      vertex 11.1111 11.6629 2.5
      vertex 11.4142 11.4142 -2.5
    endloop
  endfacet
  facet normal 0.634394 0.77301 0
    outer loop
      vertex 11.4142 11.4142 -2.5
      vertex 11.1111 11.6629 2.5
      vertex 11.4142 11.4142 2.5
    endloop
  endfacet
  facet normal 0.471397 0.881921 0
    outer loop
      vertex 10.7654 11.8478 -2.5
      vertex 10.7654 11.8478 2.5
      vertex 11.1111 11.6629 -2.5
    endloop
  endfacet
  facet normal 0.471397 0.881921 0
    outer loop
      vertex 11.1111 11.6629 -2.5
      vertex 10.7654 11.8478 2.5
      vertex 11.1111 11.6629 2.5
    endloop
  endfacet
  facet normal 0.290285 0.95694 0
    outer loop
      vertex 10.3902 11.9616 -2.5
      vertex 10.3902 11.9616 2.5
      vertex 10.7654 11.8478 -2.5
    endloop
  endfacet
  facet normal 0.290285 0.95694 0
    outer loop
      vertex 10.7654 11.8478 -2.5
      vertex 10.3902 11.9616 2.5
      vertex 10.7654 11.8478 2.5
    endloop
  endfacet
  facet normal 0.0980167 0.995185 0
    outer loop
      vertex 10 12 -2.5
      vertex 10 12 2.5
      vertex 10.3902 11.9616 -2.5
    endloop
  endfacet
  facet normal 0.0980167 0.995185 0
    outer loop
      vertex 10.3902 11.9616 -2.5
      vertex 10 12 2.5
      vertex 10.3902 11.9616 2.5
    endloop
  endfacet
  facet normal 0 1 0
    outer loop
      vertex 2.5 12 -2.5
      vertex 2.5 12 2.5
      vertex 10 12 -2.5
    endloop
  endfacet
  facet normal 0 1 0
    outer loop
      vertex 10 12 -2.5
      vertex 2.5 12 2.5
      vertex 10 12 2.5
    endloop
  endfacet
  facet normal 1 0 0
    outer loop
      vertex 2.5 12 2.5
      vertex 2.5 12 -2.5
      vertex 2.5 17 -2.5
    endloop
  endfacet
  facet normal 1 0 0
    outer loop
      vertex 2.5 17 0.0554888
      vertex 2.5 12 2.5
      vertex 2.5 17 -0.731589
    endloop
  endfacet
  facet normal 1 0 0
    outer loop
      vertex 2.5 17 -0.731589
      vertex 2.5 12 2.5
      vertex 2.5 17 -2.5
    endloop
  endfacet
  facet normal 1 0 0
    outer loop
      vertex 2.5 17 2.11222
      vertex 2.5 12 2.5
      vertex 2.5 17 0.0554888
    endloop
  endfacet
  facet normal 1 0 0
    outer loop
      vertex 2.5 17 2.5
      vertex 2.5 12 2.5
      vertex 2.5 17 2.11222
    endloop
  endfacet
  facet normal 0 1 0
    outer loop
      vertex 0.625 17 -2.5
      vertex 0.625 17 -0.731589
      vertex 2.5 17 -2.5
    endloop
  endfacet
  facet normal 0 1 0
    outer loop
      vertex 2.5 17 -2.5
      vertex 0.625 17 -0.731589
      vertex 2.5 17 -0.731589
    endloop
  endfacet
  facet normal -1 0 0
    outer loop
      vertex 0.625 21.6551 2.5
      vertex 0.625 22 2.41032
      vertex 0.625 8.93844 2.5
    endloop
  endfacet
  facet normal -1 0 0
    outer loop
      vertex 0.625 8.93844 2.5
      vertex 0.625 22 2.41032
      vertex 0.625 22 -2.41032
    endloop
  endfacet
  facet normal -1 0 0
    outer loop
      vertex 0.625 8.93844 2.5
      vertex 0.625 22 -2.41032
      vertex 0.625 21.6551 -2.5
    endloop
  endfacet
  facet normal -1 0 0
    outer loop
      vertex 0.625 17 -2.03687
      vertex 0.625 21.6551 -2.5
      vertex 0.625 17 -2.5
    endloop
  endfacet
  facet normal -1 0 0
    outer loop
      vertex 0.625 17 -0.731589
      vertex 0.625 21.6551 -2.5
      vertex 0.625 17 -2.03687
    endloop
  endfacet
  facet normal -1 0 0
    outer loop
      vertex 0.625 8.93844 2.5
      vertex 0.625 21.6551 -2.5
      vertex 0.625 17 -0.731589
    endloop
  endfacet
  facet normal -1 0 0
    outer loop
      vertex 0.625 8.93844 2.5
      vertex 0.625 17 -2.5
      vertex 0.625 8.93844 -2.5
    endloop
  endfacet
  facet normal -1 0 0
    outer loop
      vertex 0.625 17 -2.5
      vertex 0.625 8.93844 2.5
      vertex 0.625 17 -0.731589
    endloop
  endfacet
  facet normal -0.0980171 -0.995185 0
    outer loop
      vertex 1.75581 8.82707 -2.5
      vertex 1.75581 8.82707 2.5
      vertex 0.625 8.93844 2.5
    endloop
  endfacet
  facet normal -0.0980171 -0.995185 0
    outer loop
      vertex 0.625 8.93844 -2.5
      vertex 1.75581 8.82707 -2.5
      vertex 0.625 8.93844 2.5
    endloop
  endfacet
  facet normal -0.290285 -0.95694 0
    outer loop
      vertex 3.44415 8.31492 -2.5
      vertex 3.44415 8.31492 2.5
      vertex 1.75581 8.82707 2.5
    endloop
  endfacet
  facet normal -0.290285 -0.95694 0
    outer loop
      vertex 1.75581 8.82707 -2.5
      vertex 3.44415 8.31492 -2.5
      vertex 1.75581 8.82707 2.5
    endloop
  endfacet
  facet normal -0.471397 -0.881921 0
    outer loop
      vertex 5.00013 7.48323 -2.5
      vertex 5.00013 7.48323 2.5
      vertex 3.44415 8.31492 2.5
    endloop
  endfacet
  facet normal -0.471397 -0.881921 0
    outer loop
      vertex 3.44415 8.31492 -2.5
      vertex 5.00013 7.48323 -2.5
      vertex 3.44415 8.31492 2.5
    endloop
  endfacet
  facet normal -0.634393 -0.77301 0
    outer loop
      vertex 6.36396 6.36396 -2.5
      vertex 6.36396 6.36396 2.5
      vertex 5.00013 7.48323 2.5
    endloop
  endfacet
  facet normal -0.634393 -0.77301 0
    outer loop
      vertex 5.00013 7.48323 -2.5
      vertex 6.36396 6.36396 -2.5
      vertex 5.00013 7.48323 2.5
    endloop
  endfacet
  facet normal -0.77301 -0.634393 0
    outer loop
      vertex 7.48323 5.00013 2.5
      vertex 6.36396 6.36396 2.5
      vertex 7.48323 5.00013 -2.5
    endloop
  endfacet
  facet normal -0.77301 -0.634393 0
    outer loop
      vertex 7.48323 5.00013 -2.5
      vertex 6.36396 6.36396 2.5
      vertex 6.36396 6.36396 -2.5
    endloop
  endfacet
  facet normal -0.881921 -0.471397 0
    outer loop
      vertex 8.31492 3.44415 2.5
      vertex 7.48323 5.00013 2.5
      vertex 8.31492 3.44415 -2.5
    endloop
  endfacet
  facet normal -0.881921 -0.471397 0
    outer loop
      vertex 8.31492 3.44415 -2.5
      vertex 7.48323 5.00013 2.5
      vertex 7.48323 5.00013 -2.5
    endloop
  endfacet
  facet normal -0.95694 -0.290285 0
    outer loop
      vertex 8.82707 1.75581 2.5
      vertex 8.31492 3.44415 2.5
      vertex 8.82707 1.75581 -2.5
    endloop
  endfacet
  facet normal -0.95694 -0.290285 0
    outer loop
      vertex 8.82707 1.75581 -2.5
      vertex 8.31492 3.44415 2.5
      vertex 8.31492 3.44415 -2.5
    endloop
  endfacet
  facet normal -0.995185 -0.0980171 0
    outer loop
      vertex 9 0 2.5
      vertex 8.82707 1.75581 2.5
      vertex 9 0 -2.5
    endloop
  endfacet
  facet normal -0.995185 -0.0980171 0
    outer loop
      vertex 9 0 -2.5
      vertex 8.82707 1.75581 2.5
      vertex 8.82707 1.75581 -2.5
    endloop
  endfacet
  facet normal -0.995185 0.0980171 0
    outer loop
      vertex 9 0 2.5
      vertex 9 0 -2.5
      vertex 8.82707 -1.75581 2.5
    endloop
  endfacet
  facet normal -0.995185 0.0980171 0
    outer loop
      vertex 8.82707 -1.75581 2.5
      vertex 9 0 -2.5
      vertex 8.82707 -1.75581 -2.5
    endloop
  endfacet
  facet normal -0.95694 0.290285 0
    outer loop
      vertex 8.82707 -1.75581 2.5
      vertex 8.82707 -1.75581 -2.5
      vertex 8.31492 -3.44415 2.5
    endloop
  endfacet
  facet normal -0.95694 0.290285 0
    outer loop
      vertex 8.31492 -3.44415 2.5
      vertex 8.82707 -1.75581 -2.5
      vertex 8.31492 -3.44415 -2.5
    endloop
  endfacet
  facet normal -0.881921 0.471397 0
    outer loop
      vertex 8.31492 -3.44415 2.5
      vertex 8.31492 -3.44415 -2.5
      vertex 7.48323 -5.00013 2.5
    endloop
  endfacet
  facet normal -0.881921 0.471397 0
    outer loop
      vertex 7.48323 -5.00013 2.5
      vertex 8.31492 -3.44415 -2.5
      vertex 7.48323 -5.00013 -2.5
    endloop
  endfacet
  facet normal -0.77301 0.634393 0
    outer loop
      vertex 7.48323 -5.00013 2.5
      vertex 7.48323 -5.00013 -2.5
      vertex 6.36396 -6.36396 2.5
    endloop
  endfacet
  facet normal -0.77301 0.634393 0
    outer loop
      vertex 6.36396 -6.36396 2.5
      vertex 7.48323 -5.00013 -2.5
      vertex 6.36396 -6.36396 -2.5
    endloop
  endfacet
  facet normal -0.634393 0.77301 0
    outer loop
      vertex 6.36396 -6.36396 2.5
      vertex 6.36396 -6.36396 -2.5
      vertex 5.00013 -7.48323 2.5
    endloop
  endfacet
  facet normal -0.634393 0.77301 0
    outer loop
      vertex 5.00013 -7.48323 2.5
      vertex 6.36396 -6.36396 -2.5
      vertex 5.00013 -7.48323 -2.5
    endloop
  endfacet
  facet normal -0.471397 0.881921 0
    outer loop
      vertex 5.00013 -7.48323 2.5
      vertex 5.00013 -7.48323 -2.5
      vertex 3.44415 -8.31492 2.5
    endloop
  endfacet
  facet normal -0.471397 0.881921 0
    outer loop
      vertex 3.44415 -8.31492 2.5
      vertex 5.00013 -7.48323 -2.5
      vertex 3.44415 -8.31492 -2.5
    endloop
  endfacet
  facet normal -0.290285 0.95694 0
    outer loop
      vertex 3.44415 -8.31492 2.5
      vertex 3.44415 -8.31492 -2.5
      vertex 1.75581 -8.82707 2.5
    endloop
  endfacet
  facet normal -0.290285 0.95694 0
    outer loop
      vertex 1.75581 -8.82707 2.5
      vertex 3.44415 -8.31492 -2.5
      vertex 1.75581 -8.82707 -2.5
    endloop
  endfacet
  facet normal -0.0980171 0.995185 0
    outer loop
      vertex 1.75581 -8.82707 2.5
      vertex 1.75581 -8.82707 -2.5
      vertex -1.65327e-15 -9 2.5
    endloop
  endfacet
  facet normal -0.0980171 0.995185 0
    outer loop
      vertex -1.65327e-15 -9 2.5
      vertex 1.75581 -8.82707 -2.5
      vertex -1.65327e-15 -9 -2.5
    endloop
  endfacet
  facet normal 0.0980171 0.995185 0
    outer loop
      vertex -1.65327e-15 -9 2.5
      vertex -1.65327e-15 -9 -2.5
      vertex -1.75581 -8.82707 2.5
    endloop
  endfacet
  facet normal 0.0980171 0.995185 0
    outer loop
      vertex -1.75581 -8.82707 2.5
      vertex -1.65327e-15 -9 -2.5
      vertex -1.75581 -8.82707 -2.5
    endloop
  endfacet
  facet normal 0.290285 0.95694 0
    outer loop
      vertex -1.75581 -8.82707 2.5
      vertex -1.75581 -8.82707 -2.5
      vertex -3.44415 -8.31492 2.5
    endloop
  endfacet
  facet normal 0.290285 0.95694 0
    outer loop
      vertex -3.44415 -8.31492 2.5
      vertex -1.75581 -8.82707 -2.5
      vertex -3.44415 -8.31492 -2.5
    endloop
  endfacet
  facet normal 0.471397 0.881921 0
    outer loop
      vertex -3.44415 -8.31492 2.5
      vertex -3.44415 -8.31492 -2.5
      vertex -5.00013 -7.48323 2.5
    endloop
  endfacet
  facet normal 0.471397 0.881921 0
    outer loop
      vertex -5.00013 -7.48323 2.5
      vertex -3.44415 -8.31492 -2.5
      vertex -5.00013 -7.48323 -2.5
    endloop
  endfacet
  facet normal 0.634393 0.77301 0
    outer loop
      vertex -5.00013 -7.48323 2.5
      vertex -5.00013 -7.48323 -2.5
      vertex -6.36396 -6.36396 2.5
    endloop
  endfacet
  facet normal 0.634393 0.77301 0
    outer loop
      vertex -6.36396 -6.36396 2.5
      vertex -5.00013 -7.48323 -2.5
      vertex -6.36396 -6.36396 -2.5
    endloop
  endfacet
  facet normal 0.77301 0.634393 0
    outer loop
      vertex -7.48323 -5.00013 2.5
      vertex -6.36396 -6.36396 2.5
      vertex -6.36396 -6.36396 -2.5
    endloop
  endfacet
  facet normal 0.77301 0.634393 0
    outer loop
      vertex -7.48323 -5.00013 -2.5
      vertex -7.48323 -5.00013 2.5
      vertex -6.36396 -6.36396 -2.5
    endloop
  endfacet
  facet normal 0.881921 0.471397 0
    outer loop
      vertex -8.31492 -3.44415 2.5
      vertex -7.48323 -5.00013 2.5
      vertex -7.48323 -5.00013 -2.5
    endloop
  endfacet
  facet normal 0.881921 0.471397 0
    outer loop
      vertex -8.31492 -3.44415 -2.5
      vertex -8.31492 -3.44415 2.5
      vertex -7.48323 -5.00013 -2.5
    endloop
  endfacet
  facet normal 0.95694 0.290285 0
    outer loop
      vertex -8.82707 -1.75581 2.5
      vertex -8.31492 -3.44415 2.5
      vertex -8.31492 -3.44415 -2.5
    endloop
  endfacet
  facet normal 0.95694 0.290285 0
    outer loop
      vertex -8.82707 -1.75581 -2.5
      vertex -8.82707 -1.75581 2.5
      vertex -8.31492 -3.44415 -2.5
    endloop
  endfacet
  facet normal 0.995185 0.0980171 0
    outer loop
      vertex -9 1.10218e-15 2.5
      vertex -8.82707 -1.75581 2.5
      vertex -8.82707 -1.75581 -2.5
    endloop
  endfacet
  facet normal 0.995185 0.0980171 0
    outer loop
      vertex -9 1.10218e-15 -2.5
      vertex -9 1.10218e-15 2.5
      vertex -8.82707 -1.75581 -2.5
    endloop
  endfacet
  facet normal 0.995185 -0.0980171 0
    outer loop
      vertex -8.82707 1.75581 -2.5
      vertex -8.82707 1.75581 2.5
      vertex -9 1.10218e-15 2.5
    endloop
  endfacet
  facet normal 0.995185 -0.0980171 0
    outer loop
      vertex -9 1.10218e-15 -2.5
      vertex -8.82707 1.75581 -2.5
      vertex -9 1.10218e-15 2.5
    endloop
  endfacet
  facet normal 0.95694 -0.290285 0
    outer loop
      vertex -8.31492 3.44415 -2.5
      vertex -8.31492 3.44415 2.5
      vertex -8.82707 1.75581 2.5
    endloop
  endfacet
  facet normal 0.95694 -0.290285 0
    outer loop
      vertex -8.82707 1.75581 -2.5
      vertex -8.31492 3.44415 -2.5
      vertex -8.82707 1.75581 2.5
    endloop
  endfacet
  facet normal 0.881921 -0.471397 0
    outer loop
      vertex -7.48323 5.00013 -2.5
      vertex -7.48323 5.00013 2.5
      vertex -8.31492 3.44415 2.5
    endloop
  endfacet
  facet normal 0.881921 -0.471397 0
    outer loop
      vertex -8.31492 3.44415 -2.5
      vertex -7.48323 5.00013 -2.5
      vertex -8.31492 3.44415 2.5
    endloop
  endfacet
  facet normal 0.77301 -0.634393 0
    outer loop
      vertex -6.36396 6.36396 -2.5
      vertex -6.36396 6.36396 2.5
      vertex -7.48323 5.00013 2.5
    endloop
  endfacet
  facet normal 0.77301 -0.634393 0
    outer loop
      vertex -7.48323 5.00013 -2.5
      vertex -6.36396 6.36396 -2.5
      vertex -7.48323 5.00013 2.5
    endloop
  endfacet
  facet normal 0.634393 -0.77301 0
    outer loop
      vertex -5.00013 7.48323 -2.5
      vertex -5.00013 7.48323 2.5
      vertex -6.36396 6.36396 2.5
    endloop
  endfacet
  facet normal 0.634393 -0.77301 0
    outer loop
      vertex -6.36396 6.36396 -2.5
      vertex -5.00013 7.48323 -2.5
      vertex -6.36396 6.36396 2.5
    endloop
  endfacet
  facet normal 0.471397 -0.881921 0
    outer loop
      vertex -3.44415 8.31492 -2.5
      vertex -3.44415 8.31492 2.5
      vertex -5.00013 7.48323 2.5
    endloop
  endfacet
  facet normal 0.471397 -0.881921 0
    outer loop
      vertex -5.00013 7.48323 -2.5
      vertex -3.44415 8.31492 -2.5
      vertex -5.00013 7.48323 2.5
    endloop
  endfacet
  facet normal 0.290285 -0.95694 0
    outer loop
      vertex -1.75581 8.82707 -2.5
      vertex -1.75581 8.82707 2.5
      vertex -3.44415 8.31492 2.5
    endloop
  endfacet
  facet normal 0.290285 -0.95694 0
    outer loop
      vertex -3.44415 8.31492 -2.5
      vertex -1.75581 8.82707 -2.5
      vertex -3.44415 8.31492 2.5
    endloop
  endfacet
  facet normal 0.0980171 -0.995185 0
    outer loop
      vertex -0.625 8.93844 -2.5
      vertex -0.625 8.93844 2.5
      vertex -1.75581 8.82707 2.5
    endloop
  endfacet
  facet normal 0.0980171 -0.995185 0
    outer loop
      vertex -1.75581 8.82707 -2.5
      vertex -0.625 8.93844 -2.5
      vertex -1.75581 8.82707 2.5
    endloop
  endfacet
  facet normal 1 0 0
    outer loop
      vertex -0.625 17 -2.5
      vertex -0.625 17 -0.731589
      vertex -0.625 17 -1.65769
    endloop
  endfacet
  facet normal 1 0 0
    outer loop
      vertex -0.625 17 -2.5
      vertex -0.625 17 -0.731589
      vertex -0.625 8.93844 2.5
    endloop
  endfacet
  facet normal 1 0 0
    outer loop
      vertex -0.625 17 -2.5
      vertex -0.625 21.6551 -2.5
      vertex -0.625 17 -0.731589
    endloop
  endfacet
  facet normal 1 0 0
    outer loop
      vertex -0.625 21.6551 -2.5
      vertex -0.625 22 -2.41032
      vertex -0.625 17 -0.731589
    endloop
  endfacet
  facet normal 1 0 0
    outer loop
      vertex -0.625 22 -2.41032
      vertex -0.625 22 2.41032
      vertex -0.625 17 -0.731589
    endloop
  endfacet
  facet normal 1 0 0
    outer loop
      vertex -0.625 22 2.41032
      vertex -0.625 21.6551 2.5
      vertex -0.625 17 -0.731589
    endloop
  endfacet
  facet normal 1 0 0
    outer loop
      vertex -0.625 21.6551 2.5
      vertex -0.625 8.93844 2.5
      vertex -0.625 17 -0.731589
    endloop
  endfacet
  facet normal 1 0 0
    outer loop
      vertex -0.625 8.93844 2.5
      vertex -0.625 8.93844 -2.5
      vertex -0.625 17 -2.5
    endloop
  endfacet
  facet normal 0 1 0
    outer loop
      vertex -2.5 17 -2.5
      vertex -2.5 17 -0.731589
      vertex -0.625 17 -2.5
    endloop
  endfacet
  facet normal 0 1 0
    outer loop
      vertex -0.625 17 -2.5
      vertex -2.5 17 -0.731589
      vertex -0.625 17 -0.731589
    endloop
  endfacet
  facet normal -1 0 0
    outer loop
      vertex -2.5 12 -2.5
      vertex -2.5 12 2.5
      vertex -2.5 17 -2.5
    endloop
  endfacet
  facet normal -1 0 0
    outer loop
      vertex -2.5 17 -2.5
      vertex -2.5 12 2.5
      vertex -2.5 17 2.5
    endloop
  endfacet
  facet normal -1 0 0
    outer loop
      vertex -2.5 17 -2.5
      vertex -2.5 17 2.5
      vertex -2.5 17 2.11222
    endloop
  endfacet
  facet normal -1 0 0
    outer loop
      vertex -2.5 17 -2.5
      vertex -2.5 17 2.11222
      vertex -2.5 17 -0.731589
    endloop
  endfacet
  facet normal 0 1 0
    outer loop
      vertex -10 12 -2.5
      vertex -10 12 2.5
      vertex -2.5 12 -2.5
    endloop
  endfacet
  facet normal 0 1 0
    outer loop
      vertex -2.5 12 -2.5
      vertex -10 12 2.5
      vertex -2.5 12 2.5
    endloop
  endfacet
  facet normal -0.0980167 0.995185 0
    outer loop
      vertex -10.3902 11.9616 -2.5
      vertex -10.3902 11.9616 2.5
      vertex -10 12 -2.5
    endloop
  endfacet
  facet normal -0.0980167 0.995185 0
    outer loop
      vertex -10 12 -2.5
      vertex -10.3902 11.9616 2.5
      vertex -10 12 2.5
    endloop
  endfacet
  facet normal -0.290285 0.95694 0
    outer loop
      vertex -10.7654 11.8478 -2.5
      vertex -10.7654 11.8478 2.5
      vertex -10.3902 11.9616 -2.5
    endloop
  endfacet
  facet normal -0.290285 0.95694 0
    outer loop
      vertex -10.3902 11.9616 -2.5
      vertex -10.7654 11.8478 2.5
      vertex -10.3902 11.9616 2.5
    endloop
  endfacet
  facet normal -0.471397 0.881921 0
    outer loop
      vertex -11.1111 11.6629 -2.5
      vertex -11.1111 11.6629 2.5
      vertex -10.7654 11.8478 -2.5
    endloop
  endfacet
  facet normal -0.471397 0.881921 0
    outer loop
      vertex -10.7654 11.8478 -2.5
      vertex -11.1111 11.6629 2.5
      vertex -10.7654 11.8478 2.5
    endloop
  endfacet
  facet normal -0.634394 0.77301 0
    outer loop
      vertex -11.4142 11.4142 -2.5
      vertex -11.4142 11.4142 2.5
      vertex -11.1111 11.6629 -2.5
    endloop
  endfacet
  facet normal -0.634394 0.77301 0
    outer loop
      vertex -11.1111 11.6629 -2.5
      vertex -11.4142 11.4142 2.5
      vertex -11.1111 11.6629 2.5
    endloop
  endfacet
  facet normal -0.77301 0.634394 0
    outer loop
      vertex -11.6629 11.1111 -2.5
      vertex -11.6629 11.1111 2.5
      vertex -11.4142 11.4142 -2.5
    endloop
  endfacet
  facet normal -0.77301 0.634394 0
    outer loop
      vertex -11.4142 11.4142 -2.5
      vertex -11.6629 11.1111 2.5
      vertex -11.4142 11.4142 2.5
    endloop
  endfacet
  facet normal -0.881921 0.471397 0
    outer loop
      vertex -11.8478 10.7654 -2.5
      vertex -11.8478 10.7654 2.5
      vertex -11.6629 11.1111 -2.5
    endloop
  endfacet
  facet normal -0.881921 0.471397 0
    outer loop
      vertex -11.6629 11.1111 -2.5
      vertex -11.8478 10.7654 2.5
      vertex -11.6629 11.1111 2.5
    endloop
  endfacet
  facet normal -0.95694 0.290285 0
    outer loop
      vertex -11.9616 10.3902 -2.5
      vertex -11.9616 10.3902 2.5
      vertex -11.8478 10.7654 -2.5
    endloop
  endfacet
  facet normal -0.95694 0.290285 0
    outer loop
      vertex -11.8478 10.7654 -2.5
      vertex -11.9616 10.3902 2.5
      vertex -11.8478 10.7654 2.5
    endloop
  endfacet
  facet normal -0.995185 0.0980167 0
    outer loop
      vertex -12 10 -2.5
      vertex -12 10 2.5
      vertex -11.9616 10.3902 -2.5
    endloop
  endfacet
  facet normal -0.995185 0.0980167 0
    outer loop
      vertex -11.9616 10.3902 -2.5
      vertex -12 10 2.5
      vertex -11.9616 10.3902 2.5
    endloop
  endfacet
  facet normal -8.15717e-17 -1 -1.96932e-16
    outer loop
      vertex -3.46455 17 1.43506
      vertex -3.67794 17 -0.731589
      vertex -2.5 17 2.11222
    endloop
  endfacet
  facet normal -8.15717e-17 -1 -1.96932e-16
    outer loop
      vertex -2.59058 17 2.5
      vertex -3.46455 17 1.43506
      vertex -2.5 17 2.5
    endloop
  endfacet
  facet normal -8.15717e-17 -1 -1.96932e-16
    outer loop
      vertex -2.5 17 2.5
      vertex -3.46455 17 1.43506
      vertex -2.5 17 2.11222
    endloop
  endfacet
  facet normal -9.22102e-16 -1 4.92874e-16
    outer loop
      vertex -3.11801 17 2.08339
      vertex -3.46455 17 1.43506
      vertex -2.59058 17 2.5
    endloop
  endfacet
  facet normal -9.22102e-16 -1 4.92874e-16
    outer loop
      vertex -2.7014 17 2.5
      vertex -3.11801 17 2.08339
      vertex -2.59058 17 2.5
    endloop
  endfacet
  facet normal -2.39363e-15 -1 1.9644e-15
    outer loop
      vertex -2.77611 17 2.5
      vertex -3.11801 17 2.08339
      vertex -2.7014 17 2.5
    endloop
  endfacet
  facet normal -0.750142 0.241436 0.615626
    outer loop
      vertex -3.11801 17 2.08339
      vertex -2.77611 17 2.5
      vertex -1.76777 22 1.76777
    endloop
  endfacet
  facet normal -0.750142 0.241436 0.615626
    outer loop
      vertex -1.76777 22 1.76777
      vertex -2.77611 17 2.5
      vertex -2.5 17.8579 2.5
    endloop
  endfacet
  facet normal -0.615626 0.241436 0.750142
    outer loop
      vertex -1.76777 22 1.76777
      vertex -2.5 17.8579 2.5
      vertex -1.93893 19.2885 2.5
    endloop
  endfacet
  facet normal -0.615626 0.241436 0.750142
    outer loop
      vertex -1.76777 22 1.76777
      vertex -1.93893 19.2885 2.5
      vertex -1.67045 19.9731 2.5
    endloop
  endfacet
  facet normal -0.615626 0.241436 0.750142
    outer loop
      vertex -1.38893 22 2.07867
      vertex -1.76777 22 1.76777
      vertex -1.67045 19.9731 2.5
    endloop
  endfacet
  facet normal -0.457451 0.241436 0.855831
    outer loop
      vertex -1.38893 22 2.07867
      vertex -1.67045 19.9731 2.5
      vertex -1.40295 20.4799 2.5
    endloop
  endfacet
  facet normal -0.457451 0.241436 0.855831
    outer loop
      vertex -1.38893 22 2.07867
      vertex -1.40295 20.4799 2.5
      vertex -1.03553 21.1761 2.5
    endloop
  endfacet
  facet normal -0.457451 0.241436 0.855831
    outer loop
      vertex -0.956709 22 2.3097
      vertex -1.38893 22 2.07867
      vertex -1.03553 21.1761 2.5
    endloop
  endfacet
  facet normal -0.281697 0.241436 0.928631
    outer loop
      vertex -0.956709 22 2.3097
      vertex -1.03553 21.1761 2.5
      vertex -0.625 21.6551 2.5
    endloop
  endfacet
  facet normal -0.281697 0.241436 0.928631
    outer loop
      vertex -0.625 22 2.41032
      vertex -0.956709 22 2.3097
      vertex -0.625 21.6551 2.5
    endloop
  endfacet
  facet normal 0.281697 0.241436 0.928631
    outer loop
      vertex 0.625 22 2.41032
      vertex 0.625 21.6551 2.5
      vertex 1.03553 21.1761 2.5
    endloop
  endfacet
  facet normal 0.281697 0.241436 0.928631
    outer loop
      vertex 0.956709 22 2.3097
      vertex 0.625 22 2.41032
      vertex 1.03553 21.1761 2.5
    endloop
  endfacet
  facet normal 0.457451 0.241436 0.855831
    outer loop
      vertex 1.22196 20.8228 2.5
      vertex 0.956709 22 2.3097
      vertex 1.03553 21.1761 2.5
    endloop
  endfacet
  facet normal 0.457451 0.241436 0.855831
    outer loop
      vertex 1.38893 22 2.07867
      vertex 0.956709 22 2.3097
      vertex 1.22196 20.8228 2.5
    endloop
  endfacet
  facet normal 0.457451 0.241436 0.855831
    outer loop
      vertex 1.67045 19.9731 2.5
      vertex 1.38893 22 2.07867
      vertex 1.22196 20.8228 2.5
    endloop
  endfacet
  facet normal 0.615626 0.241436 0.750142
    outer loop
      vertex 1.76777 22 1.76777
      vertex 1.38893 22 2.07867
      vertex 1.67045 19.9731 2.5
    endloop
  endfacet
  facet normal 0.615626 0.241436 0.750142
    outer loop
      vertex 1.93893 19.2885 2.5
      vertex 1.76777 22 1.76777
      vertex 1.67045 19.9731 2.5
    endloop
  endfacet
  facet normal 0.615626 0.241436 0.750142
    outer loop
      vertex 2.5 17.8579 2.5
      vertex 1.76777 22 1.76777
      vertex 1.93893 19.2885 2.5
    endloop
  endfacet
  facet normal 0.750142 0.241436 0.615626
    outer loop
      vertex 3.11801 17 2.08339
      vertex 1.76777 22 1.76777
      vertex 2.5 17.8579 2.5
    endloop
  endfacet
  facet normal 0.750142 0.241436 0.615626
    outer loop
      vertex 2.77611 17 2.5
      vertex 3.11801 17 2.08339
      vertex 2.5 17.8579 2.5
    endloop
  endfacet
  facet normal 2.39363e-15 -1 1.9644e-15
    outer loop
      vertex 2.77611 17 2.5
      vertex 2.7014 17 2.5
      vertex 3.11801 17 2.08339
    endloop
  endfacet
  facet normal 9.22102e-16 -1 4.92874e-16
    outer loop
      vertex 2.7014 17 2.5
      vertex 2.59058 17 2.5
      vertex 3.46455 17 1.43506
    endloop
  endfacet
  facet normal 9.22102e-16 -1 4.92874e-16
    outer loop
      vertex 3.11801 17 2.08339
      vertex 2.7014 17 2.5
      vertex 3.46455 17 1.43506
    endloop
  endfacet
  facet normal 8.15717e-17 -1 -1.96932e-16
    outer loop
      vertex 2.59058 17 2.5
      vertex 2.5 17 2.5
      vertex 2.5 17 2.11222
    endloop
  endfacet
  facet normal 8.15717e-17 -1 -1.96932e-16
    outer loop
      vertex 3.46455 17 1.43506
      vertex 2.59058 17 2.5
      vertex 3.67794 17 -0.731589
    endloop
  endfacet
  facet normal 8.15717e-17 -1 -1.96932e-16
    outer loop
      vertex 3.67794 17 -0.731589
      vertex 2.59058 17 2.5
      vertex 2.5 17 2.11222
    endloop
  endfacet
  facet normal 4.91796e-32 -1 -2.3072e-16
    outer loop
      vertex 3.67794 17 -0.731589
      vertex 2.5 17 2.11222
      vertex 2.5 17 0.0554888
    endloop
  endfacet
  facet normal 4.52692e-32 -1 -2.3072e-16
    outer loop
      vertex 3.67794 17 -0.731589
      vertex 2.5 17 0.0554888
      vertex 2.5 17 -0.731589
    endloop
  endfacet
  facet normal 4.53809e-32 -1 -2.31289e-16
    outer loop
      vertex 2.5 17 -0.731589
      vertex 0.625 17 -0.731589
      vertex 0.625 17 -2.03687
    endloop
  endfacet
  facet normal 4.53809e-32 -1 -2.31289e-16
    outer loop
      vertex 2.73271 17 -2.5
      vertex 2.5 17 -0.731589
      vertex 2.15173 17 -2.5
    endloop
  endfacet
  facet normal 4.53809e-32 -1 -2.31289e-16
    outer loop
      vertex 2.15173 17 -2.5
      vertex 2.5 17 -0.731589
      vertex 0.625 17 -2.03687
    endloop
  endfacet
  facet normal 4.53809e-32 -1 -2.31289e-16
    outer loop
      vertex 3.67794 17 -0.731589
      vertex 2.5 17 -0.731589
      vertex 2.73271 17 -2.5
    endloop
  endfacet
  facet normal 1.93677e-32 -1 -2.31289e-16
    outer loop
      vertex 2.15173 17 -2.5
      vertex 0.625 17 -2.03687
      vertex 0.625 17 -2.5
    endloop
  endfacet
  facet normal 0 0 -1
    outer loop
      vertex 0.625 17 -2.5
      vertex 0.625 21.6551 -2.5
      vertex 2.15173 17 -2.5
    endloop
  endfacet
  facet normal 0 0 -1
    outer loop
      vertex 2.15173 17 -2.5
      vertex 0.625 21.6551 -2.5
      vertex 1.03553 21.1761 -2.5
    endloop
  endfacet
  facet normal 0 0 -1
    outer loop
      vertex 2.15173 17 -2.5
      vertex 1.03553 21.1761 -2.5
      vertex 1.40295 20.4799 -2.5
    endloop
  endfacet
  facet normal 0 0 -1
    outer loop
      vertex 2.15173 17 -2.5
      vertex 1.40295 20.4799 -2.5
      vertex 1.67045 19.9731 -2.5
    endloop
  endfacet
  facet normal 0 0 -1
    outer loop
      vertex 2.15173 17 -2.5
      vertex 1.67045 19.9731 -2.5
      vertex 2.31744 18.3234 -2.5
    endloop
  endfacet
  facet normal 0 0 -1
    outer loop
      vertex 2.15173 17 -2.5
      vertex 2.31744 18.3234 -2.5
      vertex 2.5 17.8579 -2.5
    endloop
  endfacet
  facet normal 0 0 -1
    outer loop
      vertex 2.15173 17 -2.5
      vertex 2.5 17.8579 -2.5
      vertex 2.77611 17 -2.5
    endloop
  endfacet
  facet normal 0 0 -1
    outer loop
      vertex 2.15173 17 -2.5
      vertex 2.77611 17 -2.5
      vertex 2.73271 17 -2.5
    endloop
  endfacet
  facet normal 0.281697 0.241436 -0.928631
    outer loop
      vertex 0.625 21.6551 -2.5
      vertex 0.625 22 -2.41032
      vertex 1.03553 21.1761 -2.5
    endloop
  endfacet
  facet normal 0.281697 0.241436 -0.928631
    outer loop
      vertex 1.03553 21.1761 -2.5
      vertex 0.625 22 -2.41032
      vertex 0.956709 22 -2.3097
    endloop
  endfacet
  facet normal 0 1 0
    outer loop
      vertex 0.625 22 -2.41032
      vertex 0.625 22 2.41032
      vertex 0.956709 22 -2.3097
    endloop
  endfacet
  facet normal 0 1 0
    outer loop
      vertex 0.956709 22 -2.3097
      vertex 0.625 22 2.41032
      vertex 0.956709 22 2.3097
    endloop
  endfacet
  facet normal 0 1 0
    outer loop
      vertex 0.956709 22 -2.3097
      vertex 0.956709 22 2.3097
      vertex 1.38893 22 2.07867
    endloop
  endfacet
  facet normal 0 1 0
    outer loop
      vertex 0.956709 22 -2.3097
      vertex 1.38893 22 2.07867
      vertex 1.76777 22 1.76777
    endloop
  endfacet
  facet normal 0 1 0
    outer loop
      vertex 0.956709 22 -2.3097
      vertex 1.76777 22 1.76777
      vertex 2.07867 22 1.38893
    endloop
  endfacet
  facet normal 0 1 0
    outer loop
      vertex 0.956709 22 -2.3097
      vertex 2.07867 22 1.38893
      vertex 2.3097 22 0.956709
    endloop
  endfacet
  facet normal 0 1 0
    outer loop
      vertex 0.956709 22 -2.3097
      vertex 2.3097 22 0.956709
      vertex 2.45196 22 0.487726
    endloop
  endfacet
  facet normal 0 1 0
    outer loop
      vertex 0.956709 22 -2.3097
      vertex 2.45196 22 0.487726
      vertex 2.5 22 5.55112e-16
    endloop
  endfacet
  facet normal 0 1 0
    outer loop
      vertex 0.956709 22 -2.3097
      vertex 2.5 22 5.55112e-16
      vertex 2.45196 22 -0.487726
    endloop
  endfacet
  facet normal 0 1 0
    outer loop
      vertex 0.956709 22 -2.3097
      vertex 2.45196 22 -0.487726
      vertex 2.3097 22 -0.956709
    endloop
  endfacet
  facet normal 0 1 0
    outer loop
      vertex 0.956709 22 -2.3097
      vertex 2.3097 22 -0.956709
      vertex 2.07867 22 -1.38893
    endloop
  endfacet
  facet normal 0 1 0
    outer loop
      vertex 0.956709 22 -2.3097
      vertex 2.07867 22 -1.38893
      vertex 1.76777 22 -1.76777
    endloop
  endfacet
  facet normal 0 1 0
    outer loop
      vertex 0.956709 22 -2.3097
      vertex 1.76777 22 -1.76777
      vertex 1.38893 22 -2.07867
    endloop
  endfacet
  facet normal 0 1 0
    outer loop
      vertex -2.5 22 2.4895e-16
      vertex -2.45196 22 0.487726
      vertex -2.45196 22 -0.487726
    endloop
  endfacet
  facet normal 0 1 0
    outer loop
      vertex -2.45196 22 -0.487726
      vertex -2.45196 22 0.487726
      vertex -2.3097 22 0.956709
    endloop
  endfacet
  facet normal 0 1 0
    outer loop
      vertex -2.45196 22 -0.487726
      vertex -2.3097 22 0.956709
      vertex -2.07867 22 1.38893
    endloop
  endfacet
  facet normal 0 1 0
    outer loop
      vertex -2.45196 22 -0.487726
      vertex -2.07867 22 1.38893
      vertex -1.76777 22 1.76777
    endloop
  endfacet
  facet normal 0 1 0
    outer loop
      vertex -2.45196 22 -0.487726
      vertex -1.76777 22 1.76777
      vertex -1.38893 22 2.07867
    endloop
  endfacet
  facet normal 0 1 0
    outer loop
      vertex -2.45196 22 -0.487726
      vertex -1.38893 22 2.07867
      vertex -0.956709 22 2.3097
    endloop
  endfacet
  facet normal 0 1 0
    outer loop
      vertex -2.45196 22 -0.487726
      vertex -0.956709 22 2.3097
      vertex -0.625 22 2.41032
    endloop
  endfacet
  facet normal 0 1 0
    outer loop
      vertex -2.45196 22 -0.487726
      vertex -0.625 22 2.41032
      vertex -0.625 22 -2.41032
    endloop
  endfacet
  facet normal 0 1 0
    outer loop
      vertex -2.45196 22 -0.487726
      vertex -0.625 22 -2.41032
      vertex -0.956709 22 -2.3097
    endloop
  endfacet
  facet normal 0 1 0
    outer loop
      vertex -2.45196 22 -0.487726
      vertex -0.956709 22 -2.3097
      vertex -1.38893 22 -2.07867
    endloop
  endfacet
  facet normal 0 1 0
    outer loop
      vertex -2.45196 22 -0.487726
      vertex -1.38893 22 -2.07867
      vertex -1.76777 22 -1.76777
    endloop
  endfacet
  facet normal 0 1 0
    outer loop
      vertex -2.45196 22 -0.487726
      vertex -1.76777 22 -1.76777
      vertex -2.07867 22 -1.38893
    endloop
  endfacet
  facet normal 0 1 0
    outer loop
      vertex -2.45196 22 -0.487726
      vertex -2.07867 22 -1.38893
      vertex -2.3097 22 -0.956709
    endloop
  endfacet
  facet normal -0.281697 0.241436 -0.928631
    outer loop
      vertex -1.03553 21.1761 -2.5
      vertex -0.956709 22 -2.3097
      vertex -0.625 21.6551 -2.5
    endloop
  endfacet
  facet normal -0.281697 0.241436 -0.928631
    outer loop
      vertex -0.625 21.6551 -2.5
      vertex -0.956709 22 -2.3097
      vertex -0.625 22 -2.41032
    endloop
  endfacet
  facet normal 0 0 -1
    outer loop
      vertex -2.77611 17 -2.5
      vertex -2.5 17.8579 -2.5
      vertex -2.73271 17 -2.5
    endloop
  endfacet
  facet normal 0 0 -1
    outer loop
      vertex -2.73271 17 -2.5
      vertex -2.5 17.8579 -2.5
      vertex -1.93893 19.2885 -2.5
    endloop
  endfacet
  facet normal 0 0 -1
    outer loop
      vertex -2.73271 17 -2.5
      vertex -1.93893 19.2885 -2.5
      vertex -1.67045 19.9731 -2.5
    endloop
  endfacet
  facet normal 0 0 -1
    outer loop
      vertex -2.73271 17 -2.5
      vertex -1.67045 19.9731 -2.5
      vertex -1.22196 20.8228 -2.5
    endloop
  endfacet
  facet normal 0 0 -1
    outer loop
      vertex -2.73271 17 -2.5
      vertex -1.22196 20.8228 -2.5
      vertex -1.03553 21.1761 -2.5
    endloop
  endfacet
  facet normal 0 0 -1
    outer loop
      vertex -2.73271 17 -2.5
      vertex -1.03553 21.1761 -2.5
      vertex -0.625 21.6551 -2.5
    endloop
  endfacet
  facet normal 0 0 -1
    outer loop
      vertex -2.73271 17 -2.5
      vertex -0.625 21.6551 -2.5
      vertex -0.625 17 -2.5
    endloop
  endfacet
  facet normal 1.93677e-32 -1 -2.31289e-16
    outer loop
      vertex -0.625 17 -1.65769
      vertex -3.67794 17 -0.731589
      vertex -2.73271 17 -2.5
    endloop
  endfacet
  facet normal 1.93677e-32 -1 -2.31289e-16
    outer loop
      vertex -0.625 17 -2.5
      vertex -0.625 17 -1.65769
      vertex -2.73271 17 -2.5
    endloop
  endfacet
  facet normal 4.53809e-32 -1 -2.31289e-16
    outer loop
      vertex -2.5 17 -0.731589
      vertex -3.67794 17 -0.731589
      vertex -0.625 17 -1.65769
    endloop
  endfacet
  facet normal 4.53809e-32 -1 -2.31289e-16
    outer loop
      vertex -0.625 17 -0.731589
      vertex -2.5 17 -0.731589
      vertex -0.625 17 -1.65769
    endloop
  endfacet
  facet normal 4.52692e-32 -1 -2.3072e-16
    outer loop
      vertex -2.5 17 2.11222
      vertex -3.67794 17 -0.731589
      vertex -2.5 17 -0.731589
    endloop
  endfacet
  facet normal -0.855831 0.241436 0.457451
    outer loop
      vertex -2.3097 22 0.956709
      vertex -3.46455 17 1.43506
      vertex -2.07867 22 1.38893
    endloop
  endfacet
  facet normal -0.855831 0.241436 0.457451
    outer loop
      vertex -2.07867 22 1.38893
      vertex -3.46455 17 1.43506
      vertex -3.11801 17 2.08339
    endloop
  endfacet
  facet normal -1.04053e-15 -1 -1.02483e-16
    outer loop
      vertex -3.46455 17 1.43506
      vertex -3.75 17 -1.01435e-15
      vertex -3.67794 17 -0.731589
    endloop
  endfacet
  facet normal -3.08159e-15 -1 3.0351e-16
    outer loop
      vertex -3.67794 17 0.731589
      vertex -3.75 17 -1.01435e-15
      vertex -3.46455 17 1.43506
    endloop
  endfacet
  facet normal -0.928631 0.241436 0.281697
    outer loop
      vertex -2.45196 22 0.487726
      vertex -3.67794 17 0.731589
      vertex -3.46455 17 1.43506
    endloop
  endfacet
  facet normal -0.928631 0.241436 0.281697
    outer loop
      vertex -2.45196 22 0.487726
      vertex -3.46455 17 1.43506
      vertex -2.3097 22 0.956709
    endloop
  endfacet
  facet normal -8.08229e-16 -1 -6.63296e-16
    outer loop
      vertex -2.73271 17 -2.5
      vertex -3.67794 17 -0.731589
      vertex -3.11801 17 -2.08339
    endloop
  endfacet
  facet normal -8.08229e-16 -1 -6.63296e-16
    outer loop
      vertex -2.77611 17 -2.5
      vertex -2.73271 17 -2.5
      vertex -3.11801 17 -2.08339
    endloop
  endfacet
  facet normal -2.73087e-15 -1 -1.45968e-15
    outer loop
      vertex -3.11801 17 -2.08339
      vertex -3.67794 17 -0.731589
      vertex -3.46455 17 -1.43506
    endloop
  endfacet
  facet normal -0.928631 0.241436 -0.281697
    outer loop
      vertex -3.46455 17 -1.43506
      vertex -3.67794 17 -0.731589
      vertex -2.45196 22 -0.487726
    endloop
  endfacet
  facet normal -0.965744 0.241436 -0.0951175
    outer loop
      vertex -2.45196 22 -0.487726
      vertex -3.67794 17 -0.731589
      vertex -2.5 22 2.4895e-16
    endloop
  endfacet
  facet normal -0.965744 0.241436 -0.0951175
    outer loop
      vertex -3.67794 17 -0.731589
      vertex -3.75 17 -1.01435e-15
      vertex -2.5 22 2.4895e-16
    endloop
  endfacet
  facet normal -0.750142 0.241436 0.615626
    outer loop
      vertex -2.07867 22 1.38893
      vertex -3.11801 17 2.08339
      vertex -1.76777 22 1.76777
    endloop
  endfacet
  facet normal 0.750142 0.241436 0.615626
    outer loop
      vertex 2.07867 22 1.38893
      vertex 1.76777 22 1.76777
      vertex 3.11801 17 2.08339
    endloop
  endfacet
  facet normal 0.855831 0.241436 0.457451
    outer loop
      vertex 3.46455 17 1.43506
      vertex 2.07867 22 1.38893
      vertex 3.11801 17 2.08339
    endloop
  endfacet
  facet normal 0.928631 0.241436 0.281697
    outer loop
      vertex 3.67794 17 0.731589
      vertex 2.45196 22 0.487726
      vertex 3.46455 17 1.43506
    endloop
  endfacet
  facet normal 3.08159e-15 -1 3.0351e-16
    outer loop
      vertex 3.67794 17 0.731589
      vertex 3.46455 17 1.43506
      vertex 3.75 17 -5.55112e-16
    endloop
  endfacet
  facet normal 1.04053e-15 -1 -1.02483e-16
    outer loop
      vertex 3.75 17 -5.55112e-16
      vertex 3.46455 17 1.43506
      vertex 3.67794 17 -0.731589
    endloop
  endfacet
  facet normal 0.855831 0.241436 0.457451
    outer loop
      vertex 2.3097 22 0.956709
      vertex 2.07867 22 1.38893
      vertex 3.46455 17 1.43506
    endloop
  endfacet
  facet normal 0.928631 0.241436 0.281697
    outer loop
      vertex 2.45196 22 0.487726
      vertex 2.3097 22 0.956709
      vertex 3.46455 17 1.43506
    endloop
  endfacet
  facet normal 0.965744 0.241436 -0.0951175
    outer loop
      vertex 3.67794 17 -0.731589
      vertex 2.45196 22 -0.487726
      vertex 2.5 22 5.55112e-16
    endloop
  endfacet
  facet normal 0.965744 0.241436 -0.0951175
    outer loop
      vertex 3.75 17 -5.55112e-16
      vertex 3.67794 17 -0.731589
      vertex 2.5 22 5.55112e-16
    endloop
  endfacet
  facet normal 0.928631 0.241436 -0.281697
    outer loop
      vertex 3.46455 17 -1.43506
      vertex 2.45196 22 -0.487726
      vertex 3.67794 17 -0.731589
    endloop
  endfacet
  facet normal 2.73087e-15 -1 -1.45968e-15
    outer loop
      vertex 3.67794 17 -0.731589
      vertex 3.11801 17 -2.08339
      vertex 3.46455 17 -1.43506
    endloop
  endfacet
  facet normal 8.08229e-16 -1 -6.63296e-16
    outer loop
      vertex 3.67794 17 -0.731589
      vertex 2.73271 17 -2.5
      vertex 2.77611 17 -2.5
    endloop
  endfacet
  facet normal 8.08229e-16 -1 -6.63296e-16
    outer loop
      vertex 3.11801 17 -2.08339
      vertex 3.67794 17 -0.731589
      vertex 2.77611 17 -2.5
    endloop
  endfacet
  facet normal 0.750142 0.241436 -0.615626
    outer loop
      vertex 2.5 17.8579 -2.5
      vertex 1.76777 22 -1.76777
      vertex 2.07867 22 -1.38893
    endloop
  endfacet
  facet normal 0.750142 0.241436 -0.615626
    outer loop
      vertex 2.77611 17 -2.5
      vertex 2.5 17.8579 -2.5
      vertex 3.11801 17 -2.08339
    endloop
  endfacet
  facet normal 0.750142 0.241436 -0.615626
    outer loop
      vertex 3.11801 17 -2.08339
      vertex 2.5 17.8579 -2.5
      vertex 2.07867 22 -1.38893
    endloop
  endfacet
  facet normal 0.615626 0.241436 -0.750142
    outer loop
      vertex 1.38893 22 -2.07867
      vertex 1.76777 22 -1.76777
      vertex 2.31744 18.3234 -2.5
    endloop
  endfacet
  facet normal 0.615626 0.241436 -0.750142
    outer loop
      vertex 2.31744 18.3234 -2.5
      vertex 1.76777 22 -1.76777
      vertex 2.5 17.8579 -2.5
    endloop
  endfacet
  facet normal 0.615626 0.241436 -0.750142
    outer loop
      vertex 1.67045 19.9731 -2.5
      vertex 1.38893 22 -2.07867
      vertex 2.31744 18.3234 -2.5
    endloop
  endfacet
  facet normal 0.457451 0.241436 -0.855831
    outer loop
      vertex 1.40295 20.4799 -2.5
      vertex 1.38893 22 -2.07867
      vertex 1.67045 19.9731 -2.5
    endloop
  endfacet
  facet normal 0.457451 0.241436 -0.855831
    outer loop
      vertex 0.956709 22 -2.3097
      vertex 1.38893 22 -2.07867
      vertex 1.03553 21.1761 -2.5
    endloop
  endfacet
  facet normal 0.457451 0.241436 -0.855831
    outer loop
      vertex 1.03553 21.1761 -2.5
      vertex 1.38893 22 -2.07867
      vertex 1.40295 20.4799 -2.5
    endloop
  endfacet
  facet normal 0.855831 0.241436 -0.457451
    outer loop
      vertex 3.11801 17 -2.08339
      vertex 2.07867 22 -1.38893
      vertex 3.46455 17 -1.43506
    endloop
  endfacet
  facet normal 0.855831 0.241436 -0.457451
    outer loop
      vertex 3.46455 17 -1.43506
      vertex 2.07867 22 -1.38893
      vertex 2.3097 22 -0.956709
    endloop
  endfacet
  facet normal 0.928631 0.241436 -0.281697
    outer loop
      vertex 3.46455 17 -1.43506
      vertex 2.3097 22 -0.956709
      vertex 2.45196 22 -0.487726
    endloop
  endfacet
  facet normal 0.965744 0.241436 0.0951175
    outer loop
      vertex 2.5 22 5.55112e-16
      vertex 2.45196 22 0.487726
      vertex 3.67794 17 0.731589
    endloop
  endfacet
  facet normal 0.965744 0.241436 0.0951175
    outer loop
      vertex 3.75 17 -5.55112e-16
      vertex 2.5 22 5.55112e-16
      vertex 3.67794 17 0.731589
    endloop
  endfacet
  facet normal -0.928631 0.241436 -0.281697
    outer loop
      vertex -2.3097 22 -0.956709
      vertex -3.46455 17 -1.43506
      vertex -2.45196 22 -0.487726
    endloop
  endfacet
  facet normal -0.855831 0.241436 -0.457451
    outer loop
      vertex -2.07867 22 -1.38893
      vertex -3.11801 17 -2.08339
      vertex -2.3097 22 -0.956709
    endloop
  endfacet
  facet normal -0.855831 0.241436 -0.457451
    outer loop
      vertex -3.11801 17 -2.08339
      vertex -3.46455 17 -1.43506
      vertex -2.3097 22 -0.956709
    endloop
  endfacet
  facet normal -0.750142 0.241436 -0.615626
    outer loop
      vertex -1.76777 22 -1.76777
      vertex -3.11801 17 -2.08339
      vertex -2.07867 22 -1.38893
    endloop
  endfacet
  facet normal -0.750142 0.241436 -0.615626
    outer loop
      vertex -3.11801 17 -2.08339
      vertex -1.76777 22 -1.76777
      vertex -2.77611 17 -2.5
    endloop
  endfacet
  facet normal -0.750142 0.241436 -0.615626
    outer loop
      vertex -2.77611 17 -2.5
      vertex -1.76777 22 -1.76777
      vertex -2.5 17.8579 -2.5
    endloop
  endfacet
  facet normal -0.615626 0.241436 -0.750142
    outer loop
      vertex -1.93893 19.2885 -2.5
      vertex -2.5 17.8579 -2.5
      vertex -1.76777 22 -1.76777
    endloop
  endfacet
  facet normal -0.615626 0.241436 -0.750142
    outer loop
      vertex -1.93893 19.2885 -2.5
      vertex -1.76777 22 -1.76777
      vertex -1.67045 19.9731 -2.5
    endloop
  endfacet
  facet normal -0.615626 0.241436 -0.750142
    outer loop
      vertex -1.67045 19.9731 -2.5
      vertex -1.76777 22 -1.76777
      vertex -1.38893 22 -2.07867
    endloop
  endfacet
  facet normal -0.457451 0.241436 -0.855831
    outer loop
      vertex -1.67045 19.9731 -2.5
      vertex -1.38893 22 -2.07867
      vertex -1.22196 20.8228 -2.5
    endloop
  endfacet
  facet normal -0.457451 0.241436 -0.855831
    outer loop
      vertex -1.22196 20.8228 -2.5
      vertex -1.38893 22 -2.07867
      vertex -0.956709 22 -2.3097
    endloop
  endfacet
  facet normal -0.457451 0.241436 -0.855831
    outer loop
      vertex -1.03553 21.1761 -2.5
      vertex -1.22196 20.8228 -2.5
      vertex -0.956709 22 -2.3097
    endloop
  endfacet
  facet normal -0.965744 0.241436 0.0951175
    outer loop
      vertex -2.5 22 2.4895e-16
      vertex -3.75 17 -1.01435e-15
      vertex -2.45196 22 0.487726
    endloop
  endfacet
  facet normal -0.965744 0.241436 0.0951175
    outer loop
      vertex -2.45196 22 0.487726
      vertex -3.75 17 -1.01435e-15
      vertex -3.67794 17 0.731589
    endloop
  endfacet
endsolid OpenSCAD_Model
