solid OpenSCAD_Model
  facet normal -0.995185 -0.0980167 0
    outer loop
      vertex -9.5 -7.5 -2.5
      vertex -9.46157 -7.89018 -2.5
      vertex -9.5 -7.5 2.5
    endloop
  endfacet
  facet normal -0.995185 -0.0980167 0
    outer loop
      vertex -9.5 -7.5 2.5
      vertex -9.46157 -7.89018 -2.5
      vertex -9.46157 -7.89018 2.5
    endloop
  endfacet
  facet normal 0 0 -1
    outer loop
      vertex -9.5 -7.5 -2.5
      vertex -9.5 7.5 -2.5
      vertex -9.46157 -7.89018 -2.5
    endloop
  endfacet
  facet normal 0 0 -1
    outer loop
      vertex -9.46157 -7.89018 -2.5
      vertex -9.5 7.5 -2.5
      vertex -9.46157 7.89018 -2.5
    endloop
  endfacet
  facet normal 0 0 -1
    outer loop
      vertex -9.46157 -7.89018 -2.5
      vertex -9.46157 7.89018 -2.5
      vertex -9.34776 8.26537 -2.5
    endloop
  endfacet
  facet normal 0 0 -1
    outer loop
      vertex -9.46157 -7.89018 -2.5
      vertex -9.34776 8.26537 -2.5
      vertex -9.16294 8.61114 -2.5
    endloop
  endfacet
  facet normal 0 0 -1
    outer loop
      vertex -9.46157 -7.89018 -2.5
      vertex -9.16294 8.61114 -2.5
      vertex -8.91421 8.91421 -2.5
    endloop
  endfacet
  facet normal 0 0 -1
    outer loop
      vertex -9.46157 -7.89018 -2.5
      vertex -8.91421 8.91421 -2.5
      vertex -8.61114 9.16294 -2.5
    endloop
  endfacet
  facet normal 0 0 -1
    outer loop
      vertex -9.46157 -7.89018 -2.5
      vertex -8.61114 9.16294 -2.5
      vertex -8.26537 9.34776 -2.5
    endloop
  endfacet
  facet normal 0 0 -1
    outer loop
      vertex -9.46157 -7.89018 -2.5
      vertex -8.26537 9.34776 -2.5
      vertex -7.89018 9.46157 -2.5
    endloop
  endfacet
  facet normal 0 0 -1
    outer loop
      vertex -9.46157 -7.89018 -2.5
      vertex -7.89018 9.46157 -2.5
      vertex -7.5 9.5 -2.5
    endloop
  endfacet
  facet normal 0 0 -1
    outer loop
      vertex -9.46157 -7.89018 -2.5
      vertex -7.5 9.5 -2.5
      vertex -2.5 9.5 -2.5
    endloop
  endfacet
  facet normal 0 0 -1
    outer loop
      vertex -2.5 9.5 -2.5
      vertex -2.5 13.75 -2.5
      vertex -0.75 13.75 -2.5
    endloop
  endfacet
  facet normal 0 0 -1
    outer loop
      vertex -2.5 9.5 -2.5
      vertex -0.75 13.75 -2.5
      vertex -9.46157 -7.89018 -2.5
    endloop
  endfacet
  facet normal 0 0 -1
    outer loop
      vertex -1.14805 2.77164 -2.5
      vertex -0.75 13.75 -2.5
      vertex -0.75 2.89239 -2.5
    endloop
  endfacet
  facet normal 0 0 -1
    outer loop
      vertex -1.66671 2.49441 -2.5
      vertex -0.75 13.75 -2.5
      vertex -1.14805 2.77164 -2.5
    endloop
  endfacet
  facet normal 0 0 -1
    outer loop
      vertex -2.12132 2.12132 -2.5
      vertex -0.75 13.75 -2.5
      vertex -1.66671 2.49441 -2.5
    endloop
  endfacet
  facet normal 0 0 -1
    outer loop
      vertex -2.49441 1.66671 -2.5
      vertex -0.75 13.75 -2.5
      vertex -2.12132 2.12132 -2.5
    endloop
  endfacet
  facet normal 0 0 -1
    outer loop
      vertex -9.46157 -7.89018 -2.5
      vertex -0.75 13.75 -2.5
      vertex -2.49441 1.66671 -2.5
    endloop
  endfacet
  facet normal 0 0 -1
    outer loop
      vertex -2.94236 0.585271 -2.5
      vertex -9.46157 -7.89018 -2.5
      vertex -2.77164 1.14805 -2.5
    endloop
  endfacet
  facet normal 0 0 -1
    outer loop
      vertex -3 3.67394e-16 -2.5
      vertex -9.46157 -7.89018 -2.5
      vertex -2.94236 0.585271 -2.5
    endloop
  endfacet
  facet normal 0 0 -1
    outer loop
      vertex -9.46157 -7.89018 -2.5
      vertex -3 3.67394e-16 -2.5
      vertex -2.94236 -0.585271 -2.5
    endloop
  endfacet
  facet normal 0 0 -1
    outer loop
      vertex -2.94236 -0.585271 -2.5
      vertex -2.77164 -1.14805 -2.5
      vertex -9.46157 -7.89018 -2.5
    endloop
  endfacet
  facet normal 0 0 -1
    outer loop
      vertex -2.77164 -1.14805 -2.5
      vertex -2.49441 -1.66671 -2.5
      vertex -9.46157 -7.89018 -2.5
    endloop
  endfacet
  facet normal 0 0 -1
    outer loop
      vertex -2.49441 -1.66671 -2.5
      vertex -2.12132 -2.12132 -2.5
      vertex -9.46157 -7.89018 -2.5
    endloop
  endfacet
  facet normal 0 0 -1
    outer loop
      vertex -2.12132 -2.12132 -2.5
      vertex -1.66671 -2.49441 -2.5
      vertex -9.46157 -7.89018 -2.5
    endloop
  endfacet
  facet normal 0 0 -1
    outer loop
      vertex -1.66671 -2.49441 -2.5
      vertex -1.14805 -2.77164 -2.5
      vertex -9.46157 -7.89018 -2.5
    endloop
  endfacet
  facet normal 0 0 -1
    outer loop
      vertex -1.14805 -2.77164 -2.5
      vertex -0.585271 -2.94236 -2.5
      vertex -9.46157 -7.89018 -2.5
    endloop
  endfacet
  facet normal 0 0 -1
    outer loop
      vertex -0.585271 -2.94236 -2.5
      vertex -5.51091e-16 -3 -2.5
      vertex -9.46157 -7.89018 -2.5
    endloop
  endfacet
  facet normal 0 0 -1
    outer loop
      vertex -5.51091e-16 -3 -2.5
      vertex 0.585271 -2.94236 -2.5
      vertex -9.46157 -7.89018 -2.5
    endloop
  endfacet
  facet normal 0 0 -1
    outer loop
      vertex 0.585271 -2.94236 -2.5
      vertex 1.14805 -2.77164 -2.5
      vertex -9.46157 -7.89018 -2.5
    endloop
  endfacet
  facet normal 0 0 -1
    outer loop
      vertex 0.75 13.75 -2.5
      vertex 2.94236 0.585271 -2.5
      vertex 2.77164 1.14805 -2.5
    endloop
  endfacet
  facet normal 0 0 -1
    outer loop
      vertex 1.14805 -2.77164 -2.5
      vertex 9.5 -7.5 -2.5
      vertex -9.46157 -7.89018 -2.5
    endloop
  endfacet
  facet normal 0 0 -1
    outer loop
      vertex 1.66671 -2.49441 -2.5
      vertex 9.5 -7.5 -2.5
      vertex 1.14805 -2.77164 -2.5
    endloop
  endfacet
  facet normal 0 0 -1
    outer loop
      vertex 2.12132 -2.12132 -2.5
      vertex 9.5 -7.5 -2.5
      vertex 1.66671 -2.49441 -2.5
    endloop
  endfacet
  facet normal 0 0 -1
    outer loop
      vertex 2.94236 -0.585271 -2.5
      vertex 7.5 9.5 -2.5
      vertex 2.77164 -1.14805 -2.5
    endloop
  endfacet
  facet normal 0 0 -1
    outer loop
      vertex 7.5 9.5 -2.5
      vertex 2.94236 0.585271 -2.5
      vertex 2.5 9.5 -2.5
    endloop
  endfacet
  facet normal 0 0 -1
    outer loop
      vertex 0.75 13.75 -2.5
      vertex 2.49441 1.66671 -2.5
      vertex 2.12132 2.12132 -2.5
    endloop
  endfacet
  facet normal 0 0 -1
    outer loop
      vertex 0.75 13.75 -2.5
      vertex 2.77164 1.14805 -2.5
      vertex 2.49441 1.66671 -2.5
    endloop
  endfacet
  facet normal 0 0 -1
    outer loop
      vertex 7.5 9.5 -2.5
      vertex 3 0 -2.5
      vertex 2.94236 0.585271 -2.5
    endloop
  endfacet
  facet normal 0 0 -1
    outer loop
      vertex 2.5 9.5 -2.5
      vertex 0.75 13.75 -2.5
      vertex 2.5 13.75 -2.5
    endloop
  endfacet
  facet normal 0 0 -1
    outer loop
      vertex 2.94236 0.585271 -2.5
      vertex 0.75 13.75 -2.5
      vertex 2.5 9.5 -2.5
    endloop
  endfacet
  facet normal 0 0 -1
    outer loop
      vertex 3 0 -2.5
      vertex 7.5 9.5 -2.5
      vertex 2.94236 -0.585271 -2.5
    endloop
  endfacet
  facet normal 0 0 -1
    outer loop
      vertex 2.77164 -1.14805 -2.5
      vertex 7.5 9.5 -2.5
      vertex 7.89018 9.46157 -2.5
    endloop
  endfacet
  facet normal 0 0 -1
    outer loop
      vertex 2.77164 -1.14805 -2.5
      vertex 7.89018 9.46157 -2.5
      vertex 8.26537 9.34776 -2.5
    endloop
  endfacet
  facet normal 0 0 -1
    outer loop
      vertex 2.77164 -1.14805 -2.5
      vertex 8.26537 9.34776 -2.5
      vertex 8.61114 9.16294 -2.5
    endloop
  endfacet
  facet normal 0 0 -1
    outer loop
      vertex 2.77164 -1.14805 -2.5
      vertex 8.61114 9.16294 -2.5
      vertex 2.49441 -1.66671 -2.5
    endloop
  endfacet
  facet normal 0 0 -1
    outer loop
      vertex 2.49441 -1.66671 -2.5
      vertex 8.61114 9.16294 -2.5
      vertex 8.91421 8.91421 -2.5
    endloop
  endfacet
  facet normal 0 0 -1
    outer loop
      vertex 2.49441 -1.66671 -2.5
      vertex 8.91421 8.91421 -2.5
      vertex 9.16294 8.61114 -2.5
    endloop
  endfacet
  facet normal 0 0 -1
    outer loop
      vertex 2.49441 -1.66671 -2.5
      vertex 9.16294 8.61114 -2.5
      vertex 9.34776 8.26537 -2.5
    endloop
  endfacet
  facet normal 0 0 -1
    outer loop
      vertex 2.49441 -1.66671 -2.5
      vertex 9.34776 8.26537 -2.5
      vertex 9.46157 7.89018 -2.5
    endloop
  endfacet
  facet normal 0 0 -1
    outer loop
      vertex 2.49441 -1.66671 -2.5
      vertex 9.46157 7.89018 -2.5
      vertex 9.5 7.5 -2.5
    endloop
  endfacet
  facet normal 0 0 -1
    outer loop
      vertex 2.49441 -1.66671 -2.5
      vertex 9.5 7.5 -2.5
      vertex 9.5 -7.5 -2.5
    endloop
  endfacet
  facet normal 0 0 -1
    outer loop
      vertex 2.49441 -1.66671 -2.5
      vertex 9.5 -7.5 -2.5
      vertex 2.12132 -2.12132 -2.5
    endloop
  endfacet
  facet normal 0 0 -1
    outer loop
      vertex -9.46157 -7.89018 -2.5
      vertex 9.5 -7.5 -2.5
      vertex 9.46157 -7.89018 -2.5
    endloop
  endfacet
  facet normal 0 0 -1
    outer loop
      vertex -9.46157 -7.89018 -2.5
      vertex 9.46157 -7.89018 -2.5
      vertex 9.34776 -8.26537 -2.5
    endloop
  endfacet
  facet normal 0 0 -1
    outer loop
      vertex -9.46157 -7.89018 -2.5
      vertex 9.34776 -8.26537 -2.5
      vertex 9.16294 -8.61114 -2.5
    endloop
  endfacet
  facet normal 0 0 -1
    outer loop
      vertex -9.46157 -7.89018 -2.5
      vertex 9.16294 -8.61114 -2.5
      vertex 8.91421 -8.91421 -2.5
    endloop
  endfacet
  facet normal 0 0 -1
    outer loop
      vertex -9.46157 -7.89018 -2.5
      vertex 8.91421 -8.91421 -2.5
      vertex 8.61114 -9.16294 -2.5
    endloop
  endfacet
  facet normal 0 0 -1
    outer loop
      vertex -9.46157 -7.89018 -2.5
      vertex 8.61114 -9.16294 -2.5
      vertex 8.26537 -9.34776 -2.5
    endloop
  endfacet
  facet normal 0 0 -1
    outer loop
      vertex -9.46157 -7.89018 -2.5
      vertex 8.26537 -9.34776 -2.5
      vertex 7.89018 -9.46157 -2.5
    endloop
  endfacet
  facet normal 0 0 -1
    outer loop
      vertex -9.46157 -7.89018 -2.5
      vertex 7.89018 -9.46157 -2.5
      vertex 7.5 -9.5 -2.5
    endloop
  endfacet
  facet normal 0 0 -1
    outer loop
      vertex -9.46157 -7.89018 -2.5
      vertex 7.5 -9.5 -2.5
      vertex -7.5 -9.5 -2.5
    endloop
  endfacet
  facet normal 0 0 -1
    outer loop
      vertex -9.46157 -7.89018 -2.5
      vertex -7.5 -9.5 -2.5
      vertex -7.89018 -9.46157 -2.5
    endloop
  endfacet
  facet normal 0 0 -1
    outer loop
      vertex -9.46157 -7.89018 -2.5
      vertex -7.89018 -9.46157 -2.5
      vertex -8.26537 -9.34776 -2.5
    endloop
  endfacet
  facet normal 0 0 -1
    outer loop
      vertex -9.46157 -7.89018 -2.5
      vertex -8.26537 -9.34776 -2.5
      vertex -8.61114 -9.16294 -2.5
    endloop
  endfacet
  facet normal 0 0 -1
    outer loop
      vertex -9.46157 -7.89018 -2.5
      vertex -8.61114 -9.16294 -2.5
      vertex -8.91421 -8.91421 -2.5
    endloop
  endfacet
  facet normal 0 0 -1
    outer loop
      vertex -9.46157 -7.89018 -2.5
      vertex -8.91421 -8.91421 -2.5
      vertex -9.16294 -8.61114 -2.5
    endloop
  endfacet
  facet normal 0 0 -1
    outer loop
      vertex -9.46157 -7.89018 -2.5
      vertex -9.16294 -8.61114 -2.5
      vertex -9.34776 -8.26537 -2.5
    endloop
  endfacet
  facet normal 0 0 -1
    outer loop
      vertex -2.77164 1.14805 -2.5
      vertex -9.46157 -7.89018 -2.5
      vertex -2.49441 1.66671 -2.5
    endloop
  endfacet
  facet normal 0 0 -1
    outer loop
      vertex 0.75 13.75 -2.5
      vertex 2.12132 2.12132 -2.5
      vertex 1.66671 2.49441 -2.5
    endloop
  endfacet
  facet normal 0 0 -1
    outer loop
      vertex 0.75 13.75 -2.5
      vertex 1.66671 2.49441 -2.5
      vertex 1.14805 2.77164 -2.5
    endloop
  endfacet
  facet normal 0 0 -1
    outer loop
      vertex 0.75 13.75 -2.5
      vertex 1.14805 2.77164 -2.5
      vertex 0.75 2.89239 -2.5
    endloop
  endfacet
  facet normal -1 0 0
    outer loop
      vertex -9.5 -7.5 -2.5
      vertex -9.5 -7.5 2.5
      vertex -9.5 7.5 -2.5
    endloop
  endfacet
  facet normal -1 0 0
    outer loop
      vertex -9.5 7.5 -2.5
      vertex -9.5 -7.5 2.5
      vertex -9.5 7.5 2.5
    endloop
  endfacet
  facet normal 0 0 1
    outer loop
      vertex -9.5 7.5 2.5
      vertex -9.5 -7.5 2.5
      vertex -9.46157 -7.89018 2.5
    endloop
  endfacet
  facet normal 0 0 1
    outer loop
      vertex -9.16294 -8.61114 2.5
      vertex -9.5 7.5 2.5
      vertex -9.34776 -8.26537 2.5
    endloop
  endfacet
  facet normal 0 0 1
    outer loop
      vertex -9.34776 -8.26537 2.5
      vertex -9.5 7.5 2.5
      vertex -9.46157 -7.89018 2.5
    endloop
  endfacet
  facet normal 0 0 1
    outer loop
      vertex -8.91421 -8.91421 2.5
      vertex -9.5 7.5 2.5
      vertex -9.16294 -8.61114 2.5
    endloop
  endfacet
  facet normal 0 0 1
    outer loop
      vertex -8.61114 -9.16294 2.5
      vertex -9.5 7.5 2.5
      vertex -8.91421 -8.91421 2.5
    endloop
  endfacet
  facet normal 0 0 1
    outer loop
      vertex -8.26537 -9.34776 2.5
      vertex -9.5 7.5 2.5
      vertex -8.61114 -9.16294 2.5
    endloop
  endfacet
  facet normal 0 0 1
    outer loop
      vertex -7.89018 -9.46157 2.5
      vertex -9.5 7.5 2.5
      vertex -8.26537 -9.34776 2.5
    endloop
  endfacet
  facet normal 0 0 1
    outer loop
      vertex -7.5 -9.5 2.5
      vertex -9.5 7.5 2.5
      vertex -7.89018 -9.46157 2.5
    endloop
  endfacet
  facet normal 0 0 1
    outer loop
      vertex -2.49441 -1.66671 2.5
      vertex -9.5 7.5 2.5
      vertex -7.5 -9.5 2.5
    endloop
  endfacet
  facet normal 0 0 1
    outer loop
      vertex -2.49441 -1.66671 2.5
      vertex -2.77164 -1.14805 2.5
      vertex -9.5 7.5 2.5
    endloop
  endfacet
  facet normal 0 0 1
    outer loop
      vertex -2.94236 -0.585271 2.5
      vertex -3 3.67394e-16 2.5
      vertex -9.5 7.5 2.5
    endloop
  endfacet
  facet normal 0 0 1
    outer loop
      vertex 1.14805 -2.77164 2.5
      vertex 7.5 -9.5 2.5
      vertex 7.89018 -9.46157 2.5
    endloop
  endfacet
  facet normal 0 0 1
    outer loop
      vertex -0.75 2.89239 2.5
      vertex -2.5 14.4353 2.5
      vertex -2.5 13.75 2.5
    endloop
  endfacet
  facet normal 0 0 1
    outer loop
      vertex 1.66671 -2.49441 2.5
      vertex 8.26537 -9.34776 2.5
      vertex 8.61114 -9.16294 2.5
    endloop
  endfacet
  facet normal 0 0 1
    outer loop
      vertex 2.12132 -2.12132 2.5
      vertex 9.16294 -8.61114 2.5
      vertex 9.34776 -8.26537 2.5
    endloop
  endfacet
  facet normal 0 0 1
    outer loop
      vertex 2.49441 1.66671 2.5
      vertex 2.77164 1.14805 2.5
      vertex 9.5 -7.5 2.5
    endloop
  endfacet
  facet normal 0 0 1
    outer loop
      vertex 2.94236 0.585271 2.5
      vertex 3 0 2.5
      vertex 9.5 -7.5 2.5
    endloop
  endfacet
  facet normal 0 0 1
    outer loop
      vertex 2.12132 -2.12132 2.5
      vertex 8.91421 -8.91421 2.5
      vertex 9.16294 -8.61114 2.5
    endloop
  endfacet
  facet normal 0 0 1
    outer loop
      vertex 2.12132 -2.12132 2.5
      vertex 1.66671 -2.49441 2.5
      vertex 8.91421 -8.91421 2.5
    endloop
  endfacet
  facet normal 0 0 1
    outer loop
      vertex -0.75 2.89239 2.5
      vertex -1.92882 15.9524 2.5
      vertex -2.5 14.4353 2.5
    endloop
  endfacet
  facet normal 0 0 1
    outer loop
      vertex -0.75 2.89239 2.5
      vertex -1.67045 16.6386 2.5
      vertex -1.92882 15.9524 2.5
    endloop
  endfacet
  facet normal 0 0 1
    outer loop
      vertex -0.75 2.89239 2.5
      vertex -1.39742 17.1775 2.5
      vertex -1.67045 16.6386 2.5
    endloop
  endfacet
  facet normal 0 0 1
    outer loop
      vertex -0.75 2.89239 2.5
      vertex -0.75 18.2388 2.5
      vertex -1.39742 17.1775 2.5
    endloop
  endfacet
  facet normal 0 0 1
    outer loop
      vertex 2.63205 13.75 2.5
      vertex 2.5 13.75 2.5
      vertex 2.52868 13.75 2.5
    endloop
  endfacet
  facet normal 0 0 1
    outer loop
      vertex 2.71174 13.75 2.5
      vertex 2.5 13.75 2.5
      vertex 2.63205 13.75 2.5
    endloop
  endfacet
  facet normal 0 0 1
    outer loop
      vertex 2.5 14.4353 2.5
      vertex 2.5 13.75 2.5
      vertex 2.71174 13.75 2.5
    endloop
  endfacet
  facet normal 0 0 1
    outer loop
      vertex 2.49441 -1.66671 2.5
      vertex 9.46157 -7.89018 2.5
      vertex 9.5 -7.5 2.5
    endloop
  endfacet
  facet normal 0 0 1
    outer loop
      vertex 2.49441 -1.66671 2.5
      vertex 2.12132 -2.12132 2.5
      vertex 9.46157 -7.89018 2.5
    endloop
  endfacet
  facet normal 0 0 1
    outer loop
      vertex 9.5 7.5 2.5
      vertex 0.75 2.89239 2.5
      vertex 1.14805 2.77164 2.5
    endloop
  endfacet
  facet normal 0 0 1
    outer loop
      vertex 9.5 7.5 2.5
      vertex 1.14805 2.77164 2.5
      vertex 1.66671 2.49441 2.5
    endloop
  endfacet
  facet normal 0 0 1
    outer loop
      vertex 2.77164 1.14805 2.5
      vertex 2.94236 0.585271 2.5
      vertex 9.5 -7.5 2.5
    endloop
  endfacet
  facet normal 0 0 1
    outer loop
      vertex 9.5 7.5 2.5
      vertex 1.66671 2.49441 2.5
      vertex 2.12132 2.12132 2.5
    endloop
  endfacet
  facet normal 0 0 1
    outer loop
      vertex 9.5 7.5 2.5
      vertex 2.49441 1.66671 2.5
      vertex 9.5 -7.5 2.5
    endloop
  endfacet
  facet normal 0 0 1
    outer loop
      vertex 9.5 7.5 2.5
      vertex 2.12132 2.12132 2.5
      vertex 2.49441 1.66671 2.5
    endloop
  endfacet
  facet normal 0 0 1
    outer loop
      vertex 3 0 2.5
      vertex 2.94236 -0.585271 2.5
      vertex 9.5 -7.5 2.5
    endloop
  endfacet
  facet normal 0 0 1
    outer loop
      vertex 2.94236 -0.585271 2.5
      vertex 2.77164 -1.14805 2.5
      vertex 9.5 -7.5 2.5
    endloop
  endfacet
  facet normal 0 0 1
    outer loop
      vertex -1.66671 2.49441 2.5
      vertex -1.14805 2.77164 2.5
      vertex -9.5 7.5 2.5
    endloop
  endfacet
  facet normal 0 0 1
    outer loop
      vertex 2.77164 -1.14805 2.5
      vertex 2.49441 -1.66671 2.5
      vertex 9.5 -7.5 2.5
    endloop
  endfacet
  facet normal 0 0 1
    outer loop
      vertex 9.46157 -7.89018 2.5
      vertex 2.12132 -2.12132 2.5
      vertex 9.34776 -8.26537 2.5
    endloop
  endfacet
  facet normal 0 0 1
    outer loop
      vertex 8.91421 -8.91421 2.5
      vertex 1.66671 -2.49441 2.5
      vertex 8.61114 -9.16294 2.5
    endloop
  endfacet
  facet normal 0 0 1
    outer loop
      vertex 8.26537 -9.34776 2.5
      vertex 1.14805 -2.77164 2.5
      vertex 7.89018 -9.46157 2.5
    endloop
  endfacet
  facet normal 0 0 1
    outer loop
      vertex -2.77164 1.14805 2.5
      vertex -2.49441 1.66671 2.5
      vertex -9.5 7.5 2.5
    endloop
  endfacet
  facet normal 0 0 1
    outer loop
      vertex 7.5 -9.5 2.5
      vertex 0.585271 -2.94236 2.5
      vertex -7.5 -9.5 2.5
    endloop
  endfacet
  facet normal 0 0 1
    outer loop
      vertex 0.585271 -2.94236 2.5
      vertex -5.51091e-16 -3 2.5
      vertex -7.5 -9.5 2.5
    endloop
  endfacet
  facet normal 0 0 1
    outer loop
      vertex -5.51091e-16 -3 2.5
      vertex -0.585271 -2.94236 2.5
      vertex -7.5 -9.5 2.5
    endloop
  endfacet
  facet normal 0 0 1
    outer loop
      vertex -0.585271 -2.94236 2.5
      vertex -1.14805 -2.77164 2.5
      vertex -7.5 -9.5 2.5
    endloop
  endfacet
  facet normal 0 0 1
    outer loop
      vertex -3 3.67394e-16 2.5
      vertex -2.94236 0.585271 2.5
      vertex -9.5 7.5 2.5
    endloop
  endfacet
  facet normal 0 0 1
    outer loop
      vertex -1.14805 -2.77164 2.5
      vertex -1.66671 -2.49441 2.5
      vertex -7.5 -9.5 2.5
    endloop
  endfacet
  facet normal 0 0 1
    outer loop
      vertex -1.66671 -2.49441 2.5
      vertex -2.12132 -2.12132 2.5
      vertex -7.5 -9.5 2.5
    endloop
  endfacet
  facet normal 0 0 1
    outer loop
      vertex -2.12132 -2.12132 2.5
      vertex -2.49441 -1.66671 2.5
      vertex -7.5 -9.5 2.5
    endloop
  endfacet
  facet normal 0 0 1
    outer loop
      vertex -2.77164 -1.14805 2.5
      vertex -2.94236 -0.585271 2.5
      vertex -9.5 7.5 2.5
    endloop
  endfacet
  facet normal 0 0 1
    outer loop
      vertex -2.94236 0.585271 2.5
      vertex -2.77164 1.14805 2.5
      vertex -9.5 7.5 2.5
    endloop
  endfacet
  facet normal 0 0 1
    outer loop
      vertex -2.49441 1.66671 2.5
      vertex -2.12132 2.12132 2.5
      vertex -9.5 7.5 2.5
    endloop
  endfacet
  facet normal 0 0 1
    outer loop
      vertex 1.14805 -2.77164 2.5
      vertex 0.585271 -2.94236 2.5
      vertex 7.5 -9.5 2.5
    endloop
  endfacet
  facet normal 0 0 1
    outer loop
      vertex -0.75 2.89239 2.5
      vertex -2.5 13.75 2.5
      vertex -2.5 9.5 2.5
    endloop
  endfacet
  facet normal 0 0 1
    outer loop
      vertex 1.66671 -2.49441 2.5
      vertex 1.14805 -2.77164 2.5
      vertex 8.26537 -9.34776 2.5
    endloop
  endfacet
  facet normal 0 0 1
    outer loop
      vertex -2.12132 2.12132 2.5
      vertex -1.66671 2.49441 2.5
      vertex -9.5 7.5 2.5
    endloop
  endfacet
  facet normal 0 0 1
    outer loop
      vertex -0.75 2.89239 2.5
      vertex -2.5 9.5 2.5
      vertex -9.5 7.5 2.5
    endloop
  endfacet
  facet normal 0 0 1
    outer loop
      vertex -0.75 2.89239 2.5
      vertex -9.5 7.5 2.5
      vertex -1.14805 2.77164 2.5
    endloop
  endfacet
  facet normal 0 0 1
    outer loop
      vertex -7.89018 9.46157 2.5
      vertex -8.26537 9.34776 2.5
      vertex -9.5 7.5 2.5
    endloop
  endfacet
  facet normal 0 0 1
    outer loop
      vertex -1.03553 17.8917 2.5
      vertex -1.39742 17.1775 2.5
      vertex -0.75 18.2388 2.5
    endloop
  endfacet
  facet normal 0 0 1
    outer loop
      vertex -7.5 9.5 2.5
      vertex -7.89018 9.46157 2.5
      vertex -9.5 7.5 2.5
    endloop
  endfacet
  facet normal 0 0 1
    outer loop
      vertex -2.5 9.5 2.5
      vertex -7.5 9.5 2.5
      vertex -9.5 7.5 2.5
    endloop
  endfacet
  facet normal 0 0 1
    outer loop
      vertex -8.61114 9.16294 2.5
      vertex -9.5 7.5 2.5
      vertex -8.26537 9.34776 2.5
    endloop
  endfacet
  facet normal 0 0 1
    outer loop
      vertex -8.91421 8.91421 2.5
      vertex -9.5 7.5 2.5
      vertex -8.61114 9.16294 2.5
    endloop
  endfacet
  facet normal 0 0 1
    outer loop
      vertex -9.16294 8.61114 2.5
      vertex -9.5 7.5 2.5
      vertex -8.91421 8.91421 2.5
    endloop
  endfacet
  facet normal 0 0 1
    outer loop
      vertex -9.34776 8.26537 2.5
      vertex -9.5 7.5 2.5
      vertex -9.16294 8.61114 2.5
    endloop
  endfacet
  facet normal 0 0 1
    outer loop
      vertex -9.46157 7.89018 2.5
      vertex -9.5 7.5 2.5
      vertex -9.34776 8.26537 2.5
    endloop
  endfacet
  facet normal 0 0 1
    outer loop
      vertex -2.5 13.75 2.5
      vertex -2.63205 13.75 2.5
      vertex -2.52868 13.75 2.5
    endloop
  endfacet
  facet normal 0 0 1
    outer loop
      vertex -2.5 13.75 2.5
      vertex -2.71174 13.75 2.5
      vertex -2.63205 13.75 2.5
    endloop
  endfacet
  facet normal 0 0 1
    outer loop
      vertex -2.5 13.75 2.5
      vertex -2.5 14.4353 2.5
      vertex -2.71174 13.75 2.5
    endloop
  endfacet
  facet normal 0 0 1
    outer loop
      vertex 0.75 18.2388 2.5
      vertex 1.39742 17.1775 2.5
      vertex 1.03553 17.8917 2.5
    endloop
  endfacet
  facet normal 0 0 1
    outer loop
      vertex 0.75 18.2388 2.5
      vertex 1.67045 16.6386 2.5
      vertex 1.39742 17.1775 2.5
    endloop
  endfacet
  facet normal 0 0 1
    outer loop
      vertex 0.75 18.2388 2.5
      vertex 1.92882 15.9524 2.5
      vertex 1.67045 16.6386 2.5
    endloop
  endfacet
  facet normal 0 0 1
    outer loop
      vertex 0.75 18.2388 2.5
      vertex 2.5 14.4353 2.5
      vertex 1.92882 15.9524 2.5
    endloop
  endfacet
  facet normal 0 0 1
    outer loop
      vertex 0.75 18.2388 2.5
      vertex 2.5 13.75 2.5
      vertex 2.5 14.4353 2.5
    endloop
  endfacet
  facet normal 0 0 1
    outer loop
      vertex 0.75 18.2388 2.5
      vertex 2.5 9.5 2.5
      vertex 2.5 13.75 2.5
    endloop
  endfacet
  facet normal 0 0 1
    outer loop
      vertex 2.5 9.5 2.5
      vertex 7.89018 9.46157 2.5
      vertex 7.5 9.5 2.5
    endloop
  endfacet
  facet normal 0 0 1
    outer loop
      vertex 2.5 9.5 2.5
      vertex 8.26537 9.34776 2.5
      vertex 7.89018 9.46157 2.5
    endloop
  endfacet
  facet normal 0 0 1
    outer loop
      vertex 2.5 9.5 2.5
      vertex 8.61114 9.16294 2.5
      vertex 8.26537 9.34776 2.5
    endloop
  endfacet
  facet normal 0 0 1
    outer loop
      vertex 2.5 9.5 2.5
      vertex 8.91421 8.91421 2.5
      vertex 8.61114 9.16294 2.5
    endloop
  endfacet
  facet normal 0 0 1
    outer loop
      vertex 2.5 9.5 2.5
      vertex 9.16294 8.61114 2.5
      vertex 8.91421 8.91421 2.5
    endloop
  endfacet
  facet normal 0 0 1
    outer loop
      vertex 2.5 9.5 2.5
      vertex 9.34776 8.26537 2.5
      vertex 9.16294 8.61114 2.5
    endloop
  endfacet
  facet normal 0 0 1
    outer loop
      vertex 2.5 9.5 2.5
      vertex 9.46157 7.89018 2.5
      vertex 9.34776 8.26537 2.5
    endloop
  endfacet
  facet normal 0 0 1
    outer loop
      vertex 2.5 9.5 2.5
      vertex 9.5 7.5 2.5
      vertex 9.46157 7.89018 2.5
    endloop
  endfacet
  facet normal 0 0 1
    outer loop
      vertex 2.5 9.5 2.5
      vertex 0.75 2.89239 2.5
      vertex 9.5 7.5 2.5
    endloop
  endfacet
  facet normal 0 0 1
    outer loop
      vertex 0.75 18.2388 2.5
      vertex 0.75 2.89239 2.5
      vertex 2.5 9.5 2.5
    endloop
  endfacet
  facet normal -0.95694 -0.290285 0
    outer loop
      vertex -9.46157 -7.89018 -2.5
      vertex -9.34776 -8.26537 -2.5
      vertex -9.46157 -7.89018 2.5
    endloop
  endfacet
  facet normal -0.95694 -0.290285 0
    outer loop
      vertex -9.46157 -7.89018 2.5
      vertex -9.34776 -8.26537 -2.5
      vertex -9.34776 -8.26537 2.5
    endloop
  endfacet
  facet normal -0.881921 -0.471397 0
    outer loop
      vertex -9.34776 -8.26537 -2.5
      vertex -9.16294 -8.61114 -2.5
      vertex -9.34776 -8.26537 2.5
    endloop
  endfacet
  facet normal -0.881921 -0.471397 0
    outer loop
      vertex -9.34776 -8.26537 2.5
      vertex -9.16294 -8.61114 -2.5
      vertex -9.16294 -8.61114 2.5
    endloop
  endfacet
  facet normal -0.77301 -0.634394 0
    outer loop
      vertex -9.16294 -8.61114 -2.5
      vertex -8.91421 -8.91421 -2.5
      vertex -9.16294 -8.61114 2.5
    endloop
  endfacet
  facet normal -0.77301 -0.634394 0
    outer loop
      vertex -9.16294 -8.61114 2.5
      vertex -8.91421 -8.91421 -2.5
      vertex -8.91421 -8.91421 2.5
    endloop
  endfacet
  facet normal -0.634394 -0.77301 0
    outer loop
      vertex -8.91421 -8.91421 2.5
      vertex -8.91421 -8.91421 -2.5
      vertex -8.61114 -9.16294 -2.5
    endloop
  endfacet
  facet normal -0.634394 -0.77301 0
    outer loop
      vertex -8.61114 -9.16294 2.5
      vertex -8.91421 -8.91421 2.5
      vertex -8.61114 -9.16294 -2.5
    endloop
  endfacet
  facet normal -0.471397 -0.881921 0
    outer loop
      vertex -8.61114 -9.16294 2.5
      vertex -8.61114 -9.16294 -2.5
      vertex -8.26537 -9.34776 -2.5
    endloop
  endfacet
  facet normal -0.471397 -0.881921 0
    outer loop
      vertex -8.26537 -9.34776 2.5
      vertex -8.61114 -9.16294 2.5
      vertex -8.26537 -9.34776 -2.5
    endloop
  endfacet
  facet normal -0.290285 -0.95694 0
    outer loop
      vertex -8.26537 -9.34776 2.5
      vertex -8.26537 -9.34776 -2.5
      vertex -7.89018 -9.46157 -2.5
    endloop
  endfacet
  facet normal -0.290285 -0.95694 0
    outer loop
      vertex -7.89018 -9.46157 2.5
      vertex -8.26537 -9.34776 2.5
      vertex -7.89018 -9.46157 -2.5
    endloop
  endfacet
  facet normal -0.0980167 -0.995185 0
    outer loop
      vertex -7.89018 -9.46157 2.5
      vertex -7.89018 -9.46157 -2.5
      vertex -7.5 -9.5 -2.5
    endloop
  endfacet
  facet normal -0.0980167 -0.995185 0
    outer loop
      vertex -7.5 -9.5 2.5
      vertex -7.89018 -9.46157 2.5
      vertex -7.5 -9.5 -2.5
    endloop
  endfacet
  facet normal 0 -1 0
    outer loop
      vertex -7.5 -9.5 2.5
      vertex -7.5 -9.5 -2.5
      vertex 7.5 -9.5 -2.5
    endloop
  endfacet
  facet normal 0 -1 0
    outer loop
      vertex 7.5 -9.5 2.5
      vertex -7.5 -9.5 2.5
      vertex 7.5 -9.5 -2.5
    endloop
  endfacet
  facet normal 0.0980167 -0.995185 0
    outer loop
      vertex 7.5 -9.5 2.5
      vertex 7.5 -9.5 -2.5
      vertex 7.89018 -9.46157 -2.5
    endloop
  endfacet
  facet normal 0.0980167 -0.995185 0
    outer loop
      vertex 7.89018 -9.46157 2.5
      vertex 7.5 -9.5 2.5
      vertex 7.89018 -9.46157 -2.5
    endloop
  endfacet
  facet normal 0.290285 -0.95694 0
    outer loop
      vertex 7.89018 -9.46157 2.5
      vertex 7.89018 -9.46157 -2.5
      vertex 8.26537 -9.34776 -2.5
    endloop
  endfacet
  facet normal 0.290285 -0.95694 0
    outer loop
      vertex 8.26537 -9.34776 2.5
      vertex 7.89018 -9.46157 2.5
      vertex 8.26537 -9.34776 -2.5
    endloop
  endfacet
  facet normal 0.471397 -0.881921 0
    outer loop
      vertex 8.26537 -9.34776 2.5
      vertex 8.26537 -9.34776 -2.5
      vertex 8.61114 -9.16294 -2.5
    endloop
  endfacet
  facet normal 0.471397 -0.881921 0
    outer loop
      vertex 8.61114 -9.16294 2.5
      vertex 8.26537 -9.34776 2.5
      vertex 8.61114 -9.16294 -2.5
    endloop
  endfacet
  facet normal 0.634394 -0.77301 0
    outer loop
      vertex 8.61114 -9.16294 2.5
      vertex 8.61114 -9.16294 -2.5
      vertex 8.91421 -8.91421 -2.5
    endloop
  endfacet
  facet normal 0.634394 -0.77301 0
    outer loop
      vertex 8.91421 -8.91421 2.5
      vertex 8.61114 -9.16294 2.5
      vertex 8.91421 -8.91421 -2.5
    endloop
  endfacet
  facet normal 0.77301 -0.634394 0
    outer loop
      vertex 8.91421 -8.91421 2.5
      vertex 8.91421 -8.91421 -2.5
      vertex 9.16294 -8.61114 -2.5
    endloop
  endfacet
  facet normal 0.77301 -0.634394 0
    outer loop
      vertex 9.16294 -8.61114 2.5
      vertex 8.91421 -8.91421 2.5
      vertex 9.16294 -8.61114 -2.5
    endloop
  endfacet
  facet normal 0.881921 -0.471397 0
    outer loop
      vertex 9.16294 -8.61114 2.5
      vertex 9.16294 -8.61114 -2.5
      vertex 9.34776 -8.26537 -2.5
    endloop
  endfacet
  facet normal 0.881921 -0.471397 0
    outer loop
      vertex 9.34776 -8.26537 2.5
      vertex 9.16294 -8.61114 2.5
      vertex 9.34776 -8.26537 -2.5
    endloop
  endfacet
  facet normal 0.95694 -0.290285 0
    outer loop
      vertex 9.34776 -8.26537 2.5
      vertex 9.34776 -8.26537 -2.5
      vertex 9.46157 -7.89018 -2.5
    endloop
  endfacet
  facet normal 0.95694 -0.290285 0
    outer loop
      vertex 9.46157 -7.89018 2.5
      vertex 9.34776 -8.26537 2.5
      vertex 9.46157 -7.89018 -2.5
    endloop
  endfacet
  facet normal 0.995185 -0.0980167 0
    outer loop
      vertex 9.46157 -7.89018 2.5
      vertex 9.46157 -7.89018 -2.5
      vertex 9.5 -7.5 -2.5
    endloop
  endfacet
  facet normal 0.995185 -0.0980167 0
    outer loop
      vertex 9.5 -7.5 2.5
      vertex 9.46157 -7.89018 2.5
      vertex 9.5 -7.5 -2.5
    endloop
  endfacet
  facet normal 1 0 0
    outer loop
      vertex 9.5 -7.5 2.5
      vertex 9.5 -7.5 -2.5
      vertex 9.5 7.5 -2.5
    endloop
  endfacet
  facet normal 1 0 0
    outer loop
      vertex 9.5 7.5 2.5
      vertex 9.5 -7.5 2.5
      vertex 9.5 7.5 -2.5
    endloop
  endfacet
  facet normal 0.995185 0.0980167 0
    outer loop
      vertex 9.5 7.5 -2.5
      vertex 9.46157 7.89018 -2.5
      vertex 9.46157 7.89018 2.5
    endloop
  endfacet
  facet normal 0.995185 0.0980167 0
    outer loop
      vertex 9.5 7.5 2.5
      vertex 9.5 7.5 -2.5
      vertex 9.46157 7.89018 2.5
    endloop
  endfacet
  facet normal 0.95694 0.290285 0
    outer loop
      vertex 9.46157 7.89018 -2.5
      vertex 9.34776 8.26537 -2.5
      vertex 9.34776 8.26537 2.5
    endloop
  endfacet
  facet normal 0.95694 0.290285 0
    outer loop
      vertex 9.46157 7.89018 2.5
      vertex 9.46157 7.89018 -2.5
      vertex 9.34776 8.26537 2.5
    endloop
  endfacet
  facet normal 0.881921 0.471397 0
    outer loop
      vertex 9.34776 8.26537 -2.5
      vertex 9.16294 8.61114 -2.5
      vertex 9.16294 8.61114 2.5
    endloop
  endfacet
  facet normal 0.881921 0.471397 0
    outer loop
      vertex 9.34776 8.26537 2.5
      vertex 9.34776 8.26537 -2.5
      vertex 9.16294 8.61114 2.5
    endloop
  endfacet
  facet normal 0.77301 0.634394 0
    outer loop
      vertex 9.16294 8.61114 -2.5
      vertex 8.91421 8.91421 -2.5
      vertex 8.91421 8.91421 2.5
    endloop
  endfacet
  facet normal 0.77301 0.634394 0
    outer loop
      vertex 9.16294 8.61114 2.5
      vertex 9.16294 8.61114 -2.5
      vertex 8.91421 8.91421 2.5
    endloop
  endfacet
  facet normal 0.634394 0.77301 0
    outer loop
      vertex 8.61114 9.16294 -2.5
      vertex 8.61114 9.16294 2.5
      vertex 8.91421 8.91421 -2.5
    endloop
  endfacet
  facet normal 0.634394 0.77301 0
    outer loop
      vertex 8.91421 8.91421 -2.5
      vertex 8.61114 9.16294 2.5
      vertex 8.91421 8.91421 2.5
    endloop
  endfacet
  facet normal 0.471397 0.881921 0
    outer loop
      vertex 8.26537 9.34776 -2.5
      vertex 8.26537 9.34776 2.5
      vertex 8.61114 9.16294 -2.5
    endloop
  endfacet
  facet normal 0.471397 0.881921 0
    outer loop
      vertex 8.61114 9.16294 -2.5
      vertex 8.26537 9.34776 2.5
      vertex 8.61114 9.16294 2.5
    endloop
  endfacet
  facet normal 0.290285 0.95694 0
    outer loop
      vertex 7.89018 9.46157 -2.5
      vertex 7.89018 9.46157 2.5
      vertex 8.26537 9.34776 -2.5
    endloop
  endfacet
  facet normal 0.290285 0.95694 0
    outer loop
      vertex 8.26537 9.34776 -2.5
      vertex 7.89018 9.46157 2.5
      vertex 8.26537 9.34776 2.5
    endloop
  endfacet
  facet normal 0.0980167 0.995185 0
    outer loop
      vertex 7.5 9.5 -2.5
      vertex 7.5 9.5 2.5
      vertex 7.89018 9.46157 -2.5
    endloop
  endfacet
  facet normal 0.0980167 0.995185 0
    outer loop
      vertex 7.89018 9.46157 -2.5
      vertex 7.5 9.5 2.5
      vertex 7.89018 9.46157 2.5
    endloop
  endfacet
  facet normal 0 1 0
    outer loop
      vertex 2.5 9.5 -2.5
      vertex 2.5 9.5 2.5
      vertex 7.5 9.5 -2.5
    endloop
  endfacet
  facet normal 0 1 0
    outer loop
      vertex 7.5 9.5 -2.5
      vertex 2.5 9.5 2.5
      vertex 7.5 9.5 2.5
    endloop
  endfacet
  facet normal 1 0 0
    outer loop
      vertex 2.5 9.5 2.5
      vertex 2.5 9.5 -2.5
      vertex 2.5 13.75 -2.5
    endloop
  endfacet
  facet normal 1 0 0
    outer loop
      vertex 2.5 13.75 0.0324764
      vertex 2.5 9.5 2.5
      vertex 2.5 13.75 -0.721834
    endloop
  endfacet
  facet normal 1 0 0
    outer loop
      vertex 2.5 13.75 -0.721834
      vertex 2.5 9.5 2.5
      vertex 2.5 13.75 -2.5
    endloop
  endfacet
  facet normal 1 0 0
    outer loop
      vertex 2.5 13.75 2.00358
      vertex 2.5 9.5 2.5
      vertex 2.5 13.75 0.0324764
    endloop
  endfacet
  facet normal 1 0 0
    outer loop
      vertex 2.5 13.75 2.5
      vertex 2.5 9.5 2.5
      vertex 2.5 13.75 2.00358
    endloop
  endfacet
  facet normal 0 1 0
    outer loop
      vertex 0.75 13.75 -2.5
      vertex 0.75 13.75 -0.721834
      vertex 2.5 13.75 -2.5
    endloop
  endfacet
  facet normal 0 1 0
    outer loop
      vertex 2.5 13.75 -2.5
      vertex 0.75 13.75 -0.721834
      vertex 2.5 13.75 -0.721834
    endloop
  endfacet
  facet normal -1 0 0
    outer loop
      vertex 0.75 18.2388 2.5
      vertex 0.75 18.75 2.3724
      vertex 0.75 2.89239 2.5
    endloop
  endfacet
  facet normal -1 0 0
    outer loop
      vertex 0.75 13.75 -0.721834
      vertex 0.75 18.75 2.3724
      vertex 0.75 18.75 -2.3724
    endloop
  endfacet
  facet normal -1 0 0
    outer loop
      vertex 0.75 13.75 -2.05016
      vertex 0.75 18.2388 -2.5
      vertex 0.75 13.75 -2.5
    endloop
  endfacet
  facet normal -1 0 0
    outer loop
      vertex 0.75 2.89239 2.5
      vertex 0.75 18.75 2.3724
      vertex 0.75 13.75 -0.721834
    endloop
  endfacet
  facet normal -1 0 0
    outer loop
      vertex 0.75 13.75 -2.5
      vertex 0.75 2.89239 2.5
      vertex 0.75 13.75 -0.721834
    endloop
  endfacet
  facet normal -1 0 0
    outer loop
      vertex 0.75 2.89239 2.5
      vertex 0.75 13.75 -2.5
      vertex 0.75 2.89239 -2.5
    endloop
  endfacet
  facet normal -1 0 0
    outer loop
      vertex 0.75 13.75 -0.721834
      vertex 0.75 18.75 -2.3724
      vertex 0.75 18.2388 -2.5
    endloop
  endfacet
  facet normal -1 0 0
    outer loop
      vertex 0.75 13.75 -0.721834
      vertex 0.75 18.2388 -2.5
      vertex 0.75 13.75 -2.05016
    endloop
  endfacet
  facet normal -0.290285 -0.95694 0
    outer loop
      vertex 1.14805 2.77164 -2.5
      vertex 1.14805 2.77164 2.5
      vertex 0.75 2.89239 2.5
    endloop
  endfacet
  facet normal -0.290285 -0.95694 0
    outer loop
      vertex 0.75 2.89239 -2.5
      vertex 1.14805 2.77164 -2.5
      vertex 0.75 2.89239 2.5
    endloop
  endfacet
  facet normal -0.471397 -0.881921 0
    outer loop
      vertex 1.66671 2.49441 -2.5
      vertex 1.66671 2.49441 2.5
      vertex 1.14805 2.77164 2.5
    endloop
  endfacet
  facet normal -0.471397 -0.881921 0
    outer loop
      vertex 1.14805 2.77164 -2.5
      vertex 1.66671 2.49441 -2.5
      vertex 1.14805 2.77164 2.5
    endloop
  endfacet
  facet normal -0.634393 -0.77301 0
    outer loop
      vertex 2.12132 2.12132 -2.5
      vertex 2.12132 2.12132 2.5
      vertex 1.66671 2.49441 2.5
    endloop
  endfacet
  facet normal -0.634393 -0.77301 0
    outer loop
      vertex 1.66671 2.49441 -2.5
      vertex 2.12132 2.12132 -2.5
      vertex 1.66671 2.49441 2.5
    endloop
  endfacet
  facet normal -0.77301 -0.634393 0
    outer loop
      vertex 2.49441 1.66671 2.5
      vertex 2.12132 2.12132 2.5
      vertex 2.49441 1.66671 -2.5
    endloop
  endfacet
  facet normal -0.77301 -0.634393 0
    outer loop
      vertex 2.49441 1.66671 -2.5
      vertex 2.12132 2.12132 2.5
      vertex 2.12132 2.12132 -2.5
    endloop
  endfacet
  facet normal -0.881921 -0.471397 0
    outer loop
      vertex 2.77164 1.14805 2.5
      vertex 2.49441 1.66671 2.5
      vertex 2.77164 1.14805 -2.5
    endloop
  endfacet
  facet normal -0.881921 -0.471397 0
    outer loop
      vertex 2.77164 1.14805 -2.5
      vertex 2.49441 1.66671 2.5
      vertex 2.49441 1.66671 -2.5
    endloop
  endfacet
  facet normal -0.95694 -0.290285 0
    outer loop
      vertex 2.94236 0.585271 2.5
      vertex 2.77164 1.14805 2.5
      vertex 2.94236 0.585271 -2.5
    endloop
  endfacet
  facet normal -0.95694 -0.290285 0
    outer loop
      vertex 2.94236 0.585271 -2.5
      vertex 2.77164 1.14805 2.5
      vertex 2.77164 1.14805 -2.5
    endloop
  endfacet
  facet normal -0.995185 -0.0980171 0
    outer loop
      vertex 3 0 2.5
      vertex 2.94236 0.585271 2.5
      vertex 3 0 -2.5
    endloop
  endfacet
  facet normal -0.995185 -0.0980171 0
    outer loop
      vertex 3 0 -2.5
      vertex 2.94236 0.585271 2.5
      vertex 2.94236 0.585271 -2.5
    endloop
  endfacet
  facet normal -0.995185 0.0980171 0
    outer loop
      vertex 3 0 2.5
      vertex 3 0 -2.5
      vertex 2.94236 -0.585271 2.5
    endloop
  endfacet
  facet normal -0.995185 0.0980171 0
    outer loop
      vertex 2.94236 -0.585271 2.5
      vertex 3 0 -2.5
      vertex 2.94236 -0.585271 -2.5
    endloop
  endfacet
  facet normal -0.95694 0.290285 0
    outer loop
      vertex 2.94236 -0.585271 2.5
      vertex 2.94236 -0.585271 -2.5
      vertex 2.77164 -1.14805 2.5
    endloop
  endfacet
  facet normal -0.95694 0.290285 0
    outer loop
      vertex 2.77164 -1.14805 2.5
      vertex 2.94236 -0.585271 -2.5
      vertex 2.77164 -1.14805 -2.5
    endloop
  endfacet
  facet normal -0.881921 0.471397 0
    outer loop
      vertex 2.77164 -1.14805 2.5
      vertex 2.77164 -1.14805 -2.5
      vertex 2.49441 -1.66671 2.5
    endloop
  endfacet
  facet normal -0.881921 0.471397 0
    outer loop
      vertex 2.49441 -1.66671 2.5
      vertex 2.77164 -1.14805 -2.5
      vertex 2.49441 -1.66671 -2.5
    endloop
  endfacet
  facet normal -0.77301 0.634393 0
    outer loop
      vertex 2.49441 -1.66671 2.5
      vertex 2.49441 -1.66671 -2.5
      vertex 2.12132 -2.12132 2.5
    endloop
  endfacet
  facet normal -0.77301 0.634393 0
    outer loop
      vertex 2.12132 -2.12132 2.5
      vertex 2.49441 -1.66671 -2.5
      vertex 2.12132 -2.12132 -2.5
    endloop
  endfacet
  facet normal -0.634393 0.77301 0
    outer loop
      vertex 2.12132 -2.12132 2.5
      vertex 2.12132 -2.12132 -2.5
      vertex 1.66671 -2.49441 2.5
    endloop
  endfacet
  facet normal -0.634393 0.77301 0
    outer loop
      vertex 1.66671 -2.49441 2.5
      vertex 2.12132 -2.12132 -2.5
      vertex 1.66671 -2.49441 -2.5
    endloop
  endfacet
  facet normal -0.471397 0.881921 0
    outer loop
      vertex 1.66671 -2.49441 2.5
      vertex 1.66671 -2.49441 -2.5
      vertex 1.14805 -2.77164 2.5
    endloop
  endfacet
  facet normal -0.471397 0.881921 0
    outer loop
      vertex 1.14805 -2.77164 2.5
      vertex 1.66671 -2.49441 -2.5
      vertex 1.14805 -2.77164 -2.5
    endloop
  endfacet
  facet normal -0.290285 0.95694 0
    outer loop
      vertex 1.14805 -2.77164 2.5
      vertex 1.14805 -2.77164 -2.5
      vertex 0.585271 -2.94236 2.5
    endloop
  endfacet
  facet normal -0.290285 0.95694 0
    outer loop
      vertex 0.585271 -2.94236 2.5
      vertex 1.14805 -2.77164 -2.5
      vertex 0.585271 -2.94236 -2.5
    endloop
  endfacet
  facet normal -0.0980171 0.995185 0
    outer loop
      vertex 0.585271 -2.94236 2.5
      vertex 0.585271 -2.94236 -2.5
      vertex -5.51091e-16 -3 2.5
    endloop
  endfacet
  facet normal -0.0980171 0.995185 0
    outer loop
      vertex -5.51091e-16 -3 2.5
      vertex 0.585271 -2.94236 -2.5
      vertex -5.51091e-16 -3 -2.5
    endloop
  endfacet
  facet normal 0.0980171 0.995185 0
    outer loop
      vertex -5.51091e-16 -3 2.5
      vertex -5.51091e-16 -3 -2.5
      vertex -0.585271 -2.94236 2.5
    endloop
  endfacet
  facet normal 0.0980171 0.995185 0
    outer loop
      vertex -0.585271 -2.94236 2.5
      vertex -5.51091e-16 -3 -2.5
      vertex -0.585271 -2.94236 -2.5
    endloop
  endfacet
  facet normal 0.290285 0.95694 0
    outer loop
      vertex -0.585271 -2.94236 2.5
      vertex -0.585271 -2.94236 -2.5
      vertex -1.14805 -2.77164 2.5
    endloop
  endfacet
  facet normal 0.290285 0.95694 0
    outer loop
      vertex -1.14805 -2.77164 2.5
      vertex -0.585271 -2.94236 -2.5
      vertex -1.14805 -2.77164 -2.5
    endloop
  endfacet
  facet normal 0.471397 0.881921 0
    outer loop
      vertex -1.14805 -2.77164 2.5
      vertex -1.14805 -2.77164 -2.5
      vertex -1.66671 -2.49441 2.5
    endloop
  endfacet
  facet normal 0.471397 0.881921 0
    outer loop
      vertex -1.66671 -2.49441 2.5
      vertex -1.14805 -2.77164 -2.5
      vertex -1.66671 -2.49441 -2.5
    endloop
  endfacet
  facet normal 0.634393 0.77301 0
    outer loop
      vertex -1.66671 -2.49441 2.5
      vertex -1.66671 -2.49441 -2.5
      vertex -2.12132 -2.12132 2.5
    endloop
  endfacet
  facet normal 0.634393 0.77301 0
    outer loop
      vertex -2.12132 -2.12132 2.5
      vertex -1.66671 -2.49441 -2.5
      vertex -2.12132 -2.12132 -2.5
    endloop
  endfacet
  facet normal 0.77301 0.634393 0
    outer loop
      vertex -2.49441 -1.66671 2.5
      vertex -2.12132 -2.12132 2.5
      vertex -2.12132 -2.12132 -2.5
    endloop
  endfacet
  facet normal 0.77301 0.634393 0
    outer loop
      vertex -2.49441 -1.66671 -2.5
      vertex -2.49441 -1.66671 2.5
      vertex -2.12132 -2.12132 -2.5
    endloop
  endfacet
  facet normal 0.881921 0.471397 0
    outer loop
      vertex -2.77164 -1.14805 2.5
      vertex -2.49441 -1.66671 2.5
      vertex -2.49441 -1.66671 -2.5
    endloop
  endfacet
  facet normal 0.881921 0.471397 0
    outer loop
      vertex -2.77164 -1.14805 -2.5
      vertex -2.77164 -1.14805 2.5
      vertex -2.49441 -1.66671 -2.5
    endloop
  endfacet
  facet normal 0.95694 0.290285 0
    outer loop
      vertex -2.94236 -0.585271 2.5
      vertex -2.77164 -1.14805 2.5
      vertex -2.77164 -1.14805 -2.5
    endloop
  endfacet
  facet normal 0.95694 0.290285 0
    outer loop
      vertex -2.94236 -0.585271 -2.5
      vertex -2.94236 -0.585271 2.5
      vertex -2.77164 -1.14805 -2.5
    endloop
  endfacet
  facet normal 0.995185 0.0980171 0
    outer loop
      vertex -3 3.67394e-16 2.5
      vertex -2.94236 -0.585271 2.5
      vertex -2.94236 -0.585271 -2.5
    endloop
  endfacet
  facet normal 0.995185 0.0980171 0
    outer loop
      vertex -3 3.67394e-16 -2.5
      vertex -3 3.67394e-16 2.5
      vertex -2.94236 -0.585271 -2.5
    endloop
  endfacet
  facet normal 0.995185 -0.0980171 0
    outer loop
      vertex -2.94236 0.585271 -2.5
      vertex -2.94236 0.585271 2.5
      vertex -3 3.67394e-16 2.5
    endloop
  endfacet
  facet normal 0.995185 -0.0980171 0
    outer loop
      vertex -3 3.67394e-16 -2.5
      vertex -2.94236 0.585271 -2.5
      vertex -3 3.67394e-16 2.5
    endloop
  endfacet
  facet normal 0.95694 -0.290285 0
    outer loop
      vertex -2.77164 1.14805 -2.5
      vertex -2.77164 1.14805 2.5
      vertex -2.94236 0.585271 2.5
    endloop
  endfacet
  facet normal 0.95694 -0.290285 0
    outer loop
      vertex -2.94236 0.585271 -2.5
      vertex -2.77164 1.14805 -2.5
      vertex -2.94236 0.585271 2.5
    endloop
  endfacet
  facet normal 0.881921 -0.471397 0
    outer loop
      vertex -2.49441 1.66671 -2.5
      vertex -2.49441 1.66671 2.5
      vertex -2.77164 1.14805 2.5
    endloop
  endfacet
  facet normal 0.881921 -0.471397 0
    outer loop
      vertex -2.77164 1.14805 -2.5
      vertex -2.49441 1.66671 -2.5
      vertex -2.77164 1.14805 2.5
    endloop
  endfacet
  facet normal 0.77301 -0.634393 0
    outer loop
      vertex -2.12132 2.12132 -2.5
      vertex -2.12132 2.12132 2.5
      vertex -2.49441 1.66671 2.5
    endloop
  endfacet
  facet normal 0.77301 -0.634393 0
    outer loop
      vertex -2.49441 1.66671 -2.5
      vertex -2.12132 2.12132 -2.5
      vertex -2.49441 1.66671 2.5
    endloop
  endfacet
  facet normal 0.634393 -0.77301 0
    outer loop
      vertex -1.66671 2.49441 -2.5
      vertex -1.66671 2.49441 2.5
      vertex -2.12132 2.12132 2.5
    endloop
  endfacet
  facet normal 0.634393 -0.77301 0
    outer loop
      vertex -2.12132 2.12132 -2.5
      vertex -1.66671 2.49441 -2.5
      vertex -2.12132 2.12132 2.5
    endloop
  endfacet
  facet normal 0.471397 -0.881921 0
    outer loop
      vertex -1.14805 2.77164 -2.5
      vertex -1.14805 2.77164 2.5
      vertex -1.66671 2.49441 2.5
    endloop
  endfacet
  facet normal 0.471397 -0.881921 0
    outer loop
      vertex -1.66671 2.49441 -2.5
      vertex -1.14805 2.77164 -2.5
      vertex -1.66671 2.49441 2.5
    endloop
  endfacet
  facet normal 0.290285 -0.95694 0
    outer loop
      vertex -0.75 2.89239 -2.5
      vertex -0.75 2.89239 2.5
      vertex -1.14805 2.77164 2.5
    endloop
  endfacet
  facet normal 0.290285 -0.95694 0
    outer loop
      vertex -1.14805 2.77164 -2.5
      vertex -0.75 2.89239 -2.5
      vertex -1.14805 2.77164 2.5
    endloop
  endfacet
  facet normal 1 0 0
    outer loop
      vertex -0.75 13.75 -2.5
      vertex -0.75 13.75 -0.721834
      vertex -0.75 13.75 -1.59514
    endloop
  endfacet
  facet normal 1 0 0
    outer loop
      vertex -0.75 13.75 -2.5
      vertex -0.75 13.75 -0.721834
      vertex -0.75 2.89239 2.5
    endloop
  endfacet
  facet normal 1 0 0
    outer loop
      vertex -0.75 13.75 -2.5
      vertex -0.75 18.2388 -2.5
      vertex -0.75 13.75 -0.721834
    endloop
  endfacet
  facet normal 1 0 0
    outer loop
      vertex -0.75 18.2388 -2.5
      vertex -0.75 18.75 -2.3724
      vertex -0.75 13.75 -0.721834
    endloop
  endfacet
  facet normal 1 0 0
    outer loop
      vertex -0.75 18.75 -2.3724
      vertex -0.75 18.75 2.3724
      vertex -0.75 13.75 -0.721834
    endloop
  endfacet
  facet normal 1 0 0
    outer loop
      vertex -0.75 18.75 2.3724
      vertex -0.75 18.2388 2.5
      vertex -0.75 13.75 -0.721834
    endloop
  endfacet
  facet normal 1 0 0
    outer loop
      vertex -0.75 18.2388 2.5
      vertex -0.75 2.89239 2.5
      vertex -0.75 13.75 -0.721834
    endloop
  endfacet
  facet normal 1 0 0
    outer loop
      vertex -0.75 2.89239 2.5
      vertex -0.75 2.89239 -2.5
      vertex -0.75 13.75 -2.5
    endloop
  endfacet
  facet normal 0 1 0
    outer loop
      vertex -2.5 13.75 -2.5
      vertex -2.5 13.75 -0.721834
      vertex -0.75 13.75 -2.5
    endloop
  endfacet
  facet normal 0 1 0
    outer loop
      vertex -0.75 13.75 -2.5
      vertex -2.5 13.75 -0.721834
      vertex -0.75 13.75 -0.721834
    endloop
  endfacet
  facet normal -1 0 0
    outer loop
      vertex -2.5 9.5 -2.5
      vertex -2.5 9.5 2.5
      vertex -2.5 13.75 -2.5
    endloop
  endfacet
  facet normal -1 0 0
    outer loop
      vertex -2.5 13.75 -2.5
      vertex -2.5 9.5 2.5
      vertex -2.5 13.75 2.5
    endloop
  endfacet
  facet normal -1 0 0
    outer loop
      vertex -2.5 13.75 -2.5
      vertex -2.5 13.75 2.5
      vertex -2.5 13.75 2.00358
    endloop
  endfacet
  facet normal -1 0 0
    outer loop
      vertex -2.5 13.75 -2.5
      vertex -2.5 13.75 2.00358
      vertex -2.5 13.75 -0.721834
    endloop
  endfacet
  facet normal 0 1 0
    outer loop
      vertex -7.5 9.5 -2.5
      vertex -7.5 9.5 2.5
      vertex -2.5 9.5 -2.5
    endloop
  endfacet
  facet normal 0 1 0
    outer loop
      vertex -2.5 9.5 -2.5
      vertex -7.5 9.5 2.5
      vertex -2.5 9.5 2.5
    endloop
  endfacet
  facet normal -0.0980167 0.995185 0
    outer loop
      vertex -7.89018 9.46157 -2.5
      vertex -7.89018 9.46157 2.5
      vertex -7.5 9.5 -2.5
    endloop
  endfacet
  facet normal -0.0980167 0.995185 0
    outer loop
      vertex -7.5 9.5 -2.5
      vertex -7.89018 9.46157 2.5
      vertex -7.5 9.5 2.5
    endloop
  endfacet
  facet normal -0.290285 0.95694 0
    outer loop
      vertex -8.26537 9.34776 -2.5
      vertex -8.26537 9.34776 2.5
      vertex -7.89018 9.46157 -2.5
    endloop
  endfacet
  facet normal -0.290285 0.95694 0
    outer loop
      vertex -7.89018 9.46157 -2.5
      vertex -8.26537 9.34776 2.5
      vertex -7.89018 9.46157 2.5
    endloop
  endfacet
  facet normal -0.471397 0.881921 0
    outer loop
      vertex -8.61114 9.16294 -2.5
      vertex -8.61114 9.16294 2.5
      vertex -8.26537 9.34776 -2.5
    endloop
  endfacet
  facet normal -0.471397 0.881921 0
    outer loop
      vertex -8.26537 9.34776 -2.5
      vertex -8.61114 9.16294 2.5
      vertex -8.26537 9.34776 2.5
    endloop
  endfacet
  facet normal -0.634394 0.77301 0
    outer loop
      vertex -8.91421 8.91421 -2.5
      vertex -8.91421 8.91421 2.5
      vertex -8.61114 9.16294 -2.5
    endloop
  endfacet
  facet normal -0.634394 0.77301 0
    outer loop
      vertex -8.61114 9.16294 -2.5
      vertex -8.91421 8.91421 2.5
      vertex -8.61114 9.16294 2.5
    endloop
  endfacet
  facet normal -0.77301 0.634394 0
    outer loop
      vertex -9.16294 8.61114 -2.5
      vertex -9.16294 8.61114 2.5
      vertex -8.91421 8.91421 -2.5
    endloop
  endfacet
  facet normal -0.77301 0.634394 0
    outer loop
      vertex -8.91421 8.91421 -2.5
      vertex -9.16294 8.61114 2.5
      vertex -8.91421 8.91421 2.5
    endloop
  endfacet
  facet normal -0.881921 0.471397 0
    outer loop
      vertex -9.34776 8.26537 -2.5
      vertex -9.34776 8.26537 2.5
      vertex -9.16294 8.61114 -2.5
    endloop
  endfacet
  facet normal -0.881921 0.471397 0
    outer loop
      vertex -9.16294 8.61114 -2.5
      vertex -9.34776 8.26537 2.5
      vertex -9.16294 8.61114 2.5
    endloop
  endfacet
  facet normal -0.95694 0.290285 0
    outer loop
      vertex -9.46157 7.89018 -2.5
      vertex -9.46157 7.89018 2.5
      vertex -9.34776 8.26537 -2.5
    endloop
  endfacet
  facet normal -0.95694 0.290285 0
    outer loop
      vertex -9.34776 8.26537 -2.5
      vertex -9.46157 7.89018 2.5
      vertex -9.34776 8.26537 2.5
    endloop
  endfacet
  facet normal -0.995185 0.0980167 0
    outer loop
      vertex -9.5 7.5 -2.5
      vertex -9.5 7.5 2.5
      vertex -9.46157 7.89018 -2.5
    endloop
  endfacet
  facet normal -0.995185 0.0980167 0
    outer loop
      vertex -9.46157 7.89018 -2.5
      vertex -9.5 7.5 2.5
      vertex -9.46157 7.89018 2.5
    endloop
  endfacet
  facet normal -8.2674e-17 -1 -1.99593e-16
    outer loop
      vertex -3.41835 13.75 1.41593
      vertex -3.62891 13.75 -0.721834
      vertex -2.5 13.75 2.00358
    endloop
  endfacet
  facet normal -8.2674e-17 -1 -1.99593e-16
    outer loop
      vertex -2.52868 13.75 2.5
      vertex -3.41835 13.75 1.41593
      vertex -2.5 13.75 2.5
    endloop
  endfacet
  facet normal -8.2674e-17 -1 -1.99593e-16
    outer loop
      vertex -2.5 13.75 2.5
      vertex -3.41835 13.75 1.41593
      vertex -2.5 13.75 2.00358
    endloop
  endfacet
  facet normal -9.34563e-16 -1 4.99534e-16
    outer loop
      vertex -3.07644 13.75 2.05561
      vertex -3.41835 13.75 1.41593
      vertex -2.52868 13.75 2.5
    endloop
  endfacet
  facet normal -9.34563e-16 -1 4.99534e-16
    outer loop
      vertex -2.63205 13.75 2.5
      vertex -3.07644 13.75 2.05561
      vertex -2.52868 13.75 2.5
    endloop
  endfacet
  facet normal -2.42597e-15 -1 1.99095e-15
    outer loop
      vertex -2.71174 13.75 2.5
      vertex -3.07644 13.75 2.05561
      vertex -2.63205 13.75 2.5
    endloop
  endfacet
  facet normal -0.751862 0.23231 0.617037
    outer loop
      vertex -3.07644 13.75 2.05561
      vertex -2.71174 13.75 2.5
      vertex -1.76777 18.75 1.76777
    endloop
  endfacet
  facet normal -0.751862 0.23231 0.617037
    outer loop
      vertex -1.76777 18.75 1.76777
      vertex -2.71174 13.75 2.5
      vertex -2.5 14.4353 2.5
    endloop
  endfacet
  facet normal -0.617037 0.23231 0.751862
    outer loop
      vertex -1.76777 18.75 1.76777
      vertex -2.5 14.4353 2.5
      vertex -1.92882 15.9524 2.5
    endloop
  endfacet
  facet normal -0.617037 0.23231 0.751862
    outer loop
      vertex -1.76777 18.75 1.76777
      vertex -1.92882 15.9524 2.5
      vertex -1.67045 16.6386 2.5
    endloop
  endfacet
  facet normal -0.617037 0.23231 0.751862
    outer loop
      vertex -1.38893 18.75 2.07867
      vertex -1.76777 18.75 1.76777
      vertex -1.67045 16.6386 2.5
    endloop
  endfacet
  facet normal -0.4585 0.23231 0.857793
    outer loop
      vertex -1.38893 18.75 2.07867
      vertex -1.67045 16.6386 2.5
      vertex -1.39742 17.1775 2.5
    endloop
  endfacet
  facet normal -0.4585 0.23231 0.857793
    outer loop
      vertex -1.38893 18.75 2.07867
      vertex -1.39742 17.1775 2.5
      vertex -1.03553 17.8917 2.5
    endloop
  endfacet
  facet normal -0.4585 0.23231 0.857793
    outer loop
      vertex -0.956709 18.75 2.3097
      vertex -1.38893 18.75 2.07867
      vertex -1.03553 17.8917 2.5
    endloop
  endfacet
  facet normal -0.282343 0.23231 0.93076
    outer loop
      vertex -0.956709 18.75 2.3097
      vertex -1.03553 17.8917 2.5
      vertex -0.75 18.2388 2.5
    endloop
  endfacet
  facet normal -0.282343 0.23231 0.93076
    outer loop
      vertex -0.75 18.75 2.3724
      vertex -0.956709 18.75 2.3097
      vertex -0.75 18.2388 2.5
    endloop
  endfacet
  facet normal 0.282343 0.23231 0.93076
    outer loop
      vertex 0.75 18.75 2.3724
      vertex 0.75 18.2388 2.5
      vertex 1.03553 17.8917 2.5
    endloop
  endfacet
  facet normal 0.282343 0.23231 0.93076
    outer loop
      vertex 0.956709 18.75 2.3097
      vertex 0.75 18.75 2.3724
      vertex 1.03553 17.8917 2.5
    endloop
  endfacet
  facet normal 0.4585 0.23231 0.857793
    outer loop
      vertex 1.38893 18.75 2.07867
      vertex 0.956709 18.75 2.3097
      vertex 1.03553 17.8917 2.5
    endloop
  endfacet
  facet normal 0.4585 0.23231 0.857793
    outer loop
      vertex 1.39742 17.1775 2.5
      vertex 1.38893 18.75 2.07867
      vertex 1.03553 17.8917 2.5
    endloop
  endfacet
  facet normal 0.4585 0.23231 0.857793
    outer loop
      vertex 1.67045 16.6386 2.5
      vertex 1.38893 18.75 2.07867
      vertex 1.39742 17.1775 2.5
    endloop
  endfacet
  facet normal 0.617037 0.23231 0.751862
    outer loop
      vertex 1.76777 18.75 1.76777
      vertex 1.38893 18.75 2.07867
      vertex 1.67045 16.6386 2.5
    endloop
  endfacet
  facet normal 0.617037 0.23231 0.751862
    outer loop
      vertex 1.92882 15.9524 2.5
      vertex 1.76777 18.75 1.76777
      vertex 1.67045 16.6386 2.5
    endloop
  endfacet
  facet normal 0.617037 0.23231 0.751862
    outer loop
      vertex 2.5 14.4353 2.5
      vertex 1.76777 18.75 1.76777
      vertex 1.92882 15.9524 2.5
    endloop
  endfacet
  facet normal 0.751862 0.23231 0.617037
    outer loop
      vertex 3.07644 13.75 2.05561
      vertex 1.76777 18.75 1.76777
      vertex 2.5 14.4353 2.5
    endloop
  endfacet
  facet normal 0.751862 0.23231 0.617037
    outer loop
      vertex 2.71174 13.75 2.5
      vertex 3.07644 13.75 2.05561
      vertex 2.5 14.4353 2.5
    endloop
  endfacet
  facet normal 2.42597e-15 -1 1.99095e-15
    outer loop
      vertex 2.71174 13.75 2.5
      vertex 2.63205 13.75 2.5
      vertex 3.07644 13.75 2.05561
    endloop
  endfacet
  facet normal 9.34563e-16 -1 4.99534e-16
    outer loop
      vertex 2.63205 13.75 2.5
      vertex 2.52868 13.75 2.5
      vertex 3.41835 13.75 1.41593
    endloop
  endfacet
  facet normal 9.34563e-16 -1 4.99534e-16
    outer loop
      vertex 3.07644 13.75 2.05561
      vertex 2.63205 13.75 2.5
      vertex 3.41835 13.75 1.41593
    endloop
  endfacet
  facet normal 8.2674e-17 -1 -1.99593e-16
    outer loop
      vertex 2.52868 13.75 2.5
      vertex 2.5 13.75 2.5
      vertex 2.5 13.75 2.00358
    endloop
  endfacet
  facet normal 8.2674e-17 -1 -1.99593e-16
    outer loop
      vertex 3.41835 13.75 1.41593
      vertex 2.52868 13.75 2.5
      vertex 3.62891 13.75 -0.721834
    endloop
  endfacet
  facet normal 8.2674e-17 -1 -1.99593e-16
    outer loop
      vertex 3.62891 13.75 -0.721834
      vertex 2.52868 13.75 2.5
      vertex 2.5 13.75 2.00358
    endloop
  endfacet
  facet normal 5.05177e-32 -1 -2.33838e-16
    outer loop
      vertex 3.62891 13.75 -0.721834
      vertex 2.5 13.75 2.00358
      vertex 2.5 13.75 0.0324764
    endloop
  endfacet
  facet normal 4.2924e-32 -1 -2.33838e-16
    outer loop
      vertex 3.62891 13.75 -0.721834
      vertex 2.5 13.75 0.0324764
      vertex 2.5 13.75 -0.721834
    endloop
  endfacet
  facet normal 4.30299e-32 -1 -2.34415e-16
    outer loop
      vertex 2.5 13.75 -0.721834
      vertex 0.75 13.75 -0.721834
      vertex 0.75 13.75 -2.05016
    endloop
  endfacet
  facet normal 4.30299e-32 -1 -2.34415e-16
    outer loop
      vertex 2.67846 13.75 -2.5
      vertex 2.5 13.75 -0.721834
      vertex 2.23292 13.75 -2.5
    endloop
  endfacet
  facet normal 4.30299e-32 -1 -2.34415e-16
    outer loop
      vertex 2.23292 13.75 -2.5
      vertex 2.5 13.75 -0.721834
      vertex 0.75 13.75 -2.05016
    endloop
  endfacet
  facet normal 4.30299e-32 -1 -2.34415e-16
    outer loop
      vertex 3.62891 13.75 -0.721834
      vertex 2.5 13.75 -0.721834
      vertex 2.67846 13.75 -2.5
    endloop
  endfacet
  facet normal 1.98947e-32 -1 -2.34415e-16
    outer loop
      vertex 2.23292 13.75 -2.5
      vertex 0.75 13.75 -2.05016
      vertex 0.75 13.75 -2.5
    endloop
  endfacet
  facet normal 0 0 -1
    outer loop
      vertex 0.75 13.75 -2.5
      vertex 0.75 18.2388 -2.5
      vertex 2.23292 13.75 -2.5
    endloop
  endfacet
  facet normal 0 0 -1
    outer loop
      vertex 2.23292 13.75 -2.5
      vertex 0.75 18.2388 -2.5
      vertex 1.03553 17.8917 -2.5
    endloop
  endfacet
  facet normal 0 0 -1
    outer loop
      vertex 2.23292 13.75 -2.5
      vertex 1.03553 17.8917 -2.5
      vertex 1.39742 17.1775 -2.5
    endloop
  endfacet
  facet normal 0 0 -1
    outer loop
      vertex 2.23292 13.75 -2.5
      vertex 1.39742 17.1775 -2.5
      vertex 1.67045 16.6386 -2.5
    endloop
  endfacet
  facet normal 0 0 -1
    outer loop
      vertex 2.23292 13.75 -2.5
      vertex 1.67045 16.6386 -2.5
      vertex 2.3508 14.8316 -2.5
    endloop
  endfacet
  facet normal 0 0 -1
    outer loop
      vertex 2.23292 13.75 -2.5
      vertex 2.3508 14.8316 -2.5
      vertex 2.5 14.4353 -2.5
    endloop
  endfacet
  facet normal 0 0 -1
    outer loop
      vertex 2.23292 13.75 -2.5
      vertex 2.5 14.4353 -2.5
      vertex 2.56535 14.2238 -2.5
    endloop
  endfacet
  facet normal 0 0 -1
    outer loop
      vertex 2.23292 13.75 -2.5
      vertex 2.56535 14.2238 -2.5
      vertex 2.71174 13.75 -2.5
    endloop
  endfacet
  facet normal 0 0 -1
    outer loop
      vertex 2.23292 13.75 -2.5
      vertex 2.71174 13.75 -2.5
      vertex 2.67846 13.75 -2.5
    endloop
  endfacet
  facet normal 0.282343 0.23231 -0.93076
    outer loop
      vertex 0.75 18.2388 -2.5
      vertex 0.75 18.75 -2.3724
      vertex 1.03553 17.8917 -2.5
    endloop
  endfacet
  facet normal 0.282343 0.23231 -0.93076
    outer loop
      vertex 1.03553 17.8917 -2.5
      vertex 0.75 18.75 -2.3724
      vertex 0.956709 18.75 -2.3097
    endloop
  endfacet
  facet normal 0 1 0
    outer loop
      vertex 0.75 18.75 -2.3724
      vertex 0.75 18.75 2.3724
      vertex 0.956709 18.75 -2.3097
    endloop
  endfacet
  facet normal 0 1 0
    outer loop
      vertex 0.956709 18.75 -2.3097
      vertex 0.75 18.75 2.3724
      vertex 0.956709 18.75 2.3097
    endloop
  endfacet
  facet normal 0 1 0
    outer loop
      vertex 0.956709 18.75 -2.3097
      vertex 0.956709 18.75 2.3097
      vertex 1.38893 18.75 2.07867
    endloop
  endfacet
  facet normal 0 1 0
    outer loop
      vertex 0.956709 18.75 -2.3097
      vertex 1.38893 18.75 2.07867
      vertex 1.76777 18.75 1.76777
    endloop
  endfacet
  facet normal 0 1 0
    outer loop
      vertex 0.956709 18.75 -2.3097
      vertex 1.76777 18.75 1.76777
      vertex 2.07867 18.75 1.38893
    endloop
  endfacet
  facet normal 0 1 0
    outer loop
      vertex 0.956709 18.75 -2.3097
      vertex 2.07867 18.75 1.38893
      vertex 2.3097 18.75 0.956709
    endloop
  endfacet
  facet normal 0 1 0
    outer loop
      vertex 0.956709 18.75 -2.3097
      vertex 2.3097 18.75 0.956709
      vertex 2.45196 18.75 0.487726
    endloop
  endfacet
  facet normal 0 1 0
    outer loop
      vertex 0.956709 18.75 -2.3097
      vertex 2.45196 18.75 0.487726
      vertex 2.5 18.75 5.55112e-16
    endloop
  endfacet
  facet normal 0 1 0
    outer loop
      vertex 0.956709 18.75 -2.3097
      vertex 2.5 18.75 5.55112e-16
      vertex 2.45196 18.75 -0.487726
    endloop
  endfacet
  facet normal 0 1 0
    outer loop
      vertex 0.956709 18.75 -2.3097
      vertex 2.45196 18.75 -0.487726
      vertex 2.3097 18.75 -0.956709
    endloop
  endfacet
  facet normal 0 1 0
    outer loop
      vertex 0.956709 18.75 -2.3097
      vertex 2.3097 18.75 -0.956709
      vertex 2.07867 18.75 -1.38893
    endloop
  endfacet
  facet normal 0 1 0
    outer loop
      vertex 0.956709 18.75 -2.3097
      vertex 2.07867 18.75 -1.38893
      vertex 1.76777 18.75 -1.76777
    endloop
  endfacet
  facet normal 0 1 0
    outer loop
      vertex 0.956709 18.75 -2.3097
      vertex 1.76777 18.75 -1.76777
      vertex 1.38893 18.75 -2.07867
    endloop
  endfacet
  facet normal 0 1 0
    outer loop
      vertex -2.5 18.75 2.4895e-16
      vertex -2.45196 18.75 0.487726
      vertex -2.45196 18.75 -0.487726
    endloop
  endfacet
  facet normal 0 1 0
    outer loop
      vertex -2.45196 18.75 -0.487726
      vertex -2.45196 18.75 0.487726
      vertex -2.3097 18.75 0.956709
    endloop
  endfacet
  facet normal 0 1 0
    outer loop
      vertex -2.45196 18.75 -0.487726
      vertex -2.3097 18.75 0.956709
      vertex -2.07867 18.75 1.38893
    endloop
  endfacet
  facet normal 0 1 0
    outer loop
      vertex -2.45196 18.75 -0.487726
      vertex -2.07867 18.75 1.38893
      vertex -1.76777 18.75 1.76777
    endloop
  endfacet
  facet normal 0 1 0
    outer loop
      vertex -2.45196 18.75 -0.487726
      vertex -1.76777 18.75 1.76777
      vertex -1.38893 18.75 2.07867
    endloop
  endfacet
  facet normal 0 1 0
    outer loop
      vertex -2.45196 18.75 -0.487726
      vertex -1.38893 18.75 2.07867
      vertex -0.956709 18.75 2.3097
    endloop
  endfacet
  facet normal 0 1 0
    outer loop
      vertex -2.45196 18.75 -0.487726
      vertex -0.956709 18.75 2.3097
      vertex -0.75 18.75 2.3724
    endloop
  endfacet
  facet normal 0 1 0
    outer loop
      vertex -2.45196 18.75 -0.487726
      vertex -0.75 18.75 2.3724
      vertex -0.75 18.75 -2.3724
    endloop
  endfacet
  facet normal 0 1 0
    outer loop
      vertex -2.45196 18.75 -0.487726
      vertex -0.75 18.75 -2.3724
      vertex -0.956709 18.75 -2.3097
    endloop
  endfacet
  facet normal 0 1 0
    outer loop
      vertex -2.45196 18.75 -0.487726
      vertex -0.956709 18.75 -2.3097
      vertex -1.38893 18.75 -2.07867
    endloop
  endfacet
  facet normal 0 1 0
    outer loop
      vertex -2.45196 18.75 -0.487726
      vertex -1.38893 18.75 -2.07867
      vertex -1.76777 18.75 -1.76777
    endloop
  endfacet
  facet normal 0 1 0
    outer loop
      vertex -2.45196 18.75 -0.487726
      vertex -1.76777 18.75 -1.76777
      vertex -2.07867 18.75 -1.38893
    endloop
  endfacet
  facet normal 0 1 0
    outer loop
      vertex -2.45196 18.75 -0.487726
      vertex -2.07867 18.75 -1.38893
      vertex -2.3097 18.75 -0.956709
    endloop
  endfacet
  facet normal -0.282343 0.23231 -0.93076
    outer loop
      vertex -1.03553 17.8917 -2.5
      vertex -0.956709 18.75 -2.3097
      vertex -0.75 18.2388 -2.5
    endloop
  endfacet
  facet normal -0.282343 0.23231 -0.93076
    outer loop
      vertex -0.75 18.2388 -2.5
      vertex -0.956709 18.75 -2.3097
      vertex -0.75 18.75 -2.3724
    endloop
  endfacet
  facet normal 0 0 -1
    outer loop
      vertex -2.71174 13.75 -2.5
      vertex -2.5 14.4353 -2.5
      vertex -2.67846 13.75 -2.5
    endloop
  endfacet
  facet normal 0 0 -1
    outer loop
      vertex -2.67846 13.75 -2.5
      vertex -2.5 14.4353 -2.5
      vertex -1.92882 15.9524 -2.5
    endloop
  endfacet
  facet normal 0 0 -1
    outer loop
      vertex -2.67846 13.75 -2.5
      vertex -1.92882 15.9524 -2.5
      vertex -1.67045 16.6386 -2.5
    endloop
  endfacet
  facet normal 0 0 -1
    outer loop
      vertex -2.67846 13.75 -2.5
      vertex -1.67045 16.6386 -2.5
      vertex -1.39742 17.1775 -2.5
    endloop
  endfacet
  facet normal 0 0 -1
    outer loop
      vertex -2.67846 13.75 -2.5
      vertex -1.39742 17.1775 -2.5
      vertex -1.03553 17.8917 -2.5
    endloop
  endfacet
  facet normal 0 0 -1
    outer loop
      vertex -2.67846 13.75 -2.5
      vertex -1.03553 17.8917 -2.5
      vertex -0.75 18.2388 -2.5
    endloop
  endfacet
  facet normal 0 0 -1
    outer loop
      vertex -2.67846 13.75 -2.5
      vertex -0.75 18.2388 -2.5
      vertex -0.75 13.75 -2.5
    endloop
  endfacet
  facet normal 1.98947e-32 -1 -2.34415e-16
    outer loop
      vertex -0.75 13.75 -1.59514
      vertex -3.62891 13.75 -0.721834
      vertex -2.67846 13.75 -2.5
    endloop
  endfacet
  facet normal 1.98947e-32 -1 -2.34415e-16
    outer loop
      vertex -0.75 13.75 -2.5
      vertex -0.75 13.75 -1.59514
      vertex -2.67846 13.75 -2.5
    endloop
  endfacet
  facet normal 4.30299e-32 -1 -2.34415e-16
    outer loop
      vertex -2.5 13.75 -0.721834
      vertex -3.62891 13.75 -0.721834
      vertex -0.75 13.75 -1.59514
    endloop
  endfacet
  facet normal 4.30299e-32 -1 -2.34415e-16
    outer loop
      vertex -0.75 13.75 -0.721834
      vertex -2.5 13.75 -0.721834
      vertex -0.75 13.75 -1.59514
    endloop
  endfacet
  facet normal 4.2924e-32 -1 -2.33838e-16
    outer loop
      vertex -2.5 13.75 2.00358
      vertex -3.62891 13.75 -0.721834
      vertex -2.5 13.75 -0.721834
    endloop
  endfacet
  facet normal -0.857793 0.23231 0.4585
    outer loop
      vertex -2.3097 18.75 0.956709
      vertex -3.41835 13.75 1.41593
      vertex -2.07867 18.75 1.38893
    endloop
  endfacet
  facet normal -0.857793 0.23231 0.4585
    outer loop
      vertex -2.07867 18.75 1.38893
      vertex -3.41835 13.75 1.41593
      vertex -3.07644 13.75 2.05561
    endloop
  endfacet
  facet normal -1.05459e-15 -1 -1.03868e-16
    outer loop
      vertex -3.41835 13.75 1.41593
      vertex -3.7 13.75 -1.00823e-15
      vertex -3.62891 13.75 -0.721834
    endloop
  endfacet
  facet normal -3.12323e-15 -1 3.07612e-16
    outer loop
      vertex -3.62891 13.75 0.721834
      vertex -3.7 13.75 -1.00823e-15
      vertex -3.41835 13.75 1.41593
    endloop
  endfacet
  facet normal -0.93076 0.23231 0.282343
    outer loop
      vertex -2.3097 18.75 0.956709
      vertex -3.62891 13.75 0.721834
      vertex -3.41835 13.75 1.41593
    endloop
  endfacet
  facet normal -8.19151e-16 -1 -6.7226e-16
    outer loop
      vertex -2.67846 13.75 -2.5
      vertex -3.62891 13.75 -0.721834
      vertex -3.07644 13.75 -2.05561
    endloop
  endfacet
  facet normal -8.19151e-16 -1 -6.7226e-16
    outer loop
      vertex -2.71174 13.75 -2.5
      vertex -2.67846 13.75 -2.5
      vertex -3.07644 13.75 -2.05561
    endloop
  endfacet
  facet normal -2.76777e-15 -1 -1.47941e-15
    outer loop
      vertex -3.07644 13.75 -2.05561
      vertex -3.62891 13.75 -0.721834
      vertex -3.41835 13.75 -1.41593
    endloop
  endfacet
  facet normal -0.93076 0.23231 -0.282343
    outer loop
      vertex -3.41835 13.75 -1.41593
      vertex -3.62891 13.75 -0.721834
      vertex -2.45196 18.75 -0.487726
    endloop
  endfacet
  facet normal -0.967958 0.23231 -0.0953356
    outer loop
      vertex -3.62891 13.75 -0.721834
      vertex -3.7 13.75 -1.00823e-15
      vertex -2.45196 18.75 -0.487726
    endloop
  endfacet
  facet normal -0.751862 0.23231 0.617037
    outer loop
      vertex -2.07867 18.75 1.38893
      vertex -3.07644 13.75 2.05561
      vertex -1.76777 18.75 1.76777
    endloop
  endfacet
  facet normal 0.751862 0.23231 0.617037
    outer loop
      vertex 2.07867 18.75 1.38893
      vertex 1.76777 18.75 1.76777
      vertex 3.07644 13.75 2.05561
    endloop
  endfacet
  facet normal 0.857793 0.23231 0.4585
    outer loop
      vertex 3.41835 13.75 1.41593
      vertex 2.07867 18.75 1.38893
      vertex 3.07644 13.75 2.05561
    endloop
  endfacet
  facet normal 0.857793 0.23231 0.4585
    outer loop
      vertex 2.3097 18.75 0.956709
      vertex 2.07867 18.75 1.38893
      vertex 3.41835 13.75 1.41593
    endloop
  endfacet
  facet normal 0.93076 0.23231 0.282343
    outer loop
      vertex 2.45196 18.75 0.487726
      vertex 2.3097 18.75 0.956709
      vertex 3.41835 13.75 1.41593
    endloop
  endfacet
  facet normal 0.93076 0.23231 0.282343
    outer loop
      vertex 3.62891 13.75 0.721834
      vertex 2.45196 18.75 0.487726
      vertex 3.41835 13.75 1.41593
    endloop
  endfacet
  facet normal 3.12323e-15 -1 3.07612e-16
    outer loop
      vertex 3.62891 13.75 0.721834
      vertex 3.41835 13.75 1.41593
      vertex 3.7 13.75 -5.55112e-16
    endloop
  endfacet
  facet normal 1.05459e-15 -1 -1.03868e-16
    outer loop
      vertex 3.7 13.75 -5.55112e-16
      vertex 3.41835 13.75 1.41593
      vertex 3.62891 13.75 -0.721834
    endloop
  endfacet
  facet normal 0.93076 0.23231 -0.282343
    outer loop
      vertex 3.41835 13.75 -1.41593
      vertex 2.45196 18.75 -0.487726
      vertex 3.62891 13.75 -0.721834
    endloop
  endfacet
  facet normal 2.76777e-15 -1 -1.47941e-15
    outer loop
      vertex 3.62891 13.75 -0.721834
      vertex 3.07644 13.75 -2.05561
      vertex 3.41835 13.75 -1.41593
    endloop
  endfacet
  facet normal 8.19151e-16 -1 -6.7226e-16
    outer loop
      vertex 3.62891 13.75 -0.721834
      vertex 2.67846 13.75 -2.5
      vertex 2.71174 13.75 -2.5
    endloop
  endfacet
  facet normal 8.19151e-16 -1 -6.7226e-16
    outer loop
      vertex 3.07644 13.75 -2.05561
      vertex 3.62891 13.75 -0.721834
      vertex 2.71174 13.75 -2.5
    endloop
  endfacet
  facet normal 0.967958 0.23231 -0.0953356
    outer loop
      vertex 3.62891 13.75 -0.721834
      vertex 2.5 18.75 5.55112e-16
      vertex 3.7 13.75 -5.55112e-16
    endloop
  endfacet
  facet normal 0.967958 0.23231 -0.0953356
    outer loop
      vertex 3.62891 13.75 -0.721834
      vertex 2.45196 18.75 -0.487726
      vertex 2.5 18.75 5.55112e-16
    endloop
  endfacet
  facet normal 0.751862 0.23231 -0.617037
    outer loop
      vertex 2.56535 14.2238 -2.5
      vertex 2.07867 18.75 -1.38893
      vertex 3.07644 13.75 -2.05561
    endloop
  endfacet
  facet normal 0.751862 0.23231 -0.617037
    outer loop
      vertex 2.71174 13.75 -2.5
      vertex 2.56535 14.2238 -2.5
      vertex 3.07644 13.75 -2.05561
    endloop
  endfacet
  facet normal 0.751862 0.23231 -0.617037
    outer loop
      vertex 2.5 14.4353 -2.5
      vertex 1.76777 18.75 -1.76777
      vertex 2.07867 18.75 -1.38893
    endloop
  endfacet
  facet normal 0.751862 0.23231 -0.617037
    outer loop
      vertex 2.56535 14.2238 -2.5
      vertex 2.5 14.4353 -2.5
      vertex 2.07867 18.75 -1.38893
    endloop
  endfacet
  facet normal 0.617037 0.23231 -0.751862
    outer loop
      vertex 1.38893 18.75 -2.07867
      vertex 1.76777 18.75 -1.76777
      vertex 2.3508 14.8316 -2.5
    endloop
  endfacet
  facet normal 0.617037 0.23231 -0.751862
    outer loop
      vertex 2.3508 14.8316 -2.5
      vertex 1.76777 18.75 -1.76777
      vertex 2.5 14.4353 -2.5
    endloop
  endfacet
  facet normal 0.617037 0.23231 -0.751862
    outer loop
      vertex 1.67045 16.6386 -2.5
      vertex 1.38893 18.75 -2.07867
      vertex 2.3508 14.8316 -2.5
    endloop
  endfacet
  facet normal 0.4585 0.23231 -0.857793
    outer loop
      vertex 1.39742 17.1775 -2.5
      vertex 1.38893 18.75 -2.07867
      vertex 1.67045 16.6386 -2.5
    endloop
  endfacet
  facet normal 0.4585 0.23231 -0.857793
    outer loop
      vertex 0.956709 18.75 -2.3097
      vertex 1.38893 18.75 -2.07867
      vertex 1.03553 17.8917 -2.5
    endloop
  endfacet
  facet normal 0.4585 0.23231 -0.857793
    outer loop
      vertex 1.03553 17.8917 -2.5
      vertex 1.38893 18.75 -2.07867
      vertex 1.39742 17.1775 -2.5
    endloop
  endfacet
  facet normal 0.857793 0.23231 -0.4585
    outer loop
      vertex 3.07644 13.75 -2.05561
      vertex 2.07867 18.75 -1.38893
      vertex 3.41835 13.75 -1.41593
    endloop
  endfacet
  facet normal 0.857793 0.23231 -0.4585
    outer loop
      vertex 3.41835 13.75 -1.41593
      vertex 2.07867 18.75 -1.38893
      vertex 2.3097 18.75 -0.956709
    endloop
  endfacet
  facet normal 0.93076 0.23231 -0.282343
    outer loop
      vertex 3.41835 13.75 -1.41593
      vertex 2.3097 18.75 -0.956709
      vertex 2.45196 18.75 -0.487726
    endloop
  endfacet
  facet normal 0.967958 0.23231 0.0953356
    outer loop
      vertex 3.7 13.75 -5.55112e-16
      vertex 2.5 18.75 5.55112e-16
      vertex 3.62891 13.75 0.721834
    endloop
  endfacet
  facet normal 0.967958 0.23231 0.0953356
    outer loop
      vertex 2.5 18.75 5.55112e-16
      vertex 2.45196 18.75 0.487726
      vertex 3.62891 13.75 0.721834
    endloop
  endfacet
  facet normal -0.967958 0.23231 -0.0953356
    outer loop
      vertex -2.45196 18.75 -0.487726
      vertex -3.7 13.75 -1.00823e-15
      vertex -2.5 18.75 2.4895e-16
    endloop
  endfacet
  facet normal -0.93076 0.23231 -0.282343
    outer loop
      vertex -2.3097 18.75 -0.956709
      vertex -3.41835 13.75 -1.41593
      vertex -2.45196 18.75 -0.487726
    endloop
  endfacet
  facet normal -0.857793 0.23231 -0.4585
    outer loop
      vertex -2.07867 18.75 -1.38893
      vertex -3.41835 13.75 -1.41593
      vertex -2.3097 18.75 -0.956709
    endloop
  endfacet
  facet normal -0.857793 0.23231 -0.4585
    outer loop
      vertex -3.07644 13.75 -2.05561
      vertex -3.41835 13.75 -1.41593
      vertex -2.07867 18.75 -1.38893
    endloop
  endfacet
  facet normal -0.751862 0.23231 -0.617037
    outer loop
      vertex -1.76777 18.75 -1.76777
      vertex -3.07644 13.75 -2.05561
      vertex -2.07867 18.75 -1.38893
    endloop
  endfacet
  facet normal -0.751862 0.23231 -0.617037
    outer loop
      vertex -3.07644 13.75 -2.05561
      vertex -1.76777 18.75 -1.76777
      vertex -2.71174 13.75 -2.5
    endloop
  endfacet
  facet normal -0.751862 0.23231 -0.617037
    outer loop
      vertex -2.71174 13.75 -2.5
      vertex -1.76777 18.75 -1.76777
      vertex -2.5 14.4353 -2.5
    endloop
  endfacet
  facet normal -0.617037 0.23231 -0.751862
    outer loop
      vertex -1.92882 15.9524 -2.5
      vertex -2.5 14.4353 -2.5
      vertex -1.76777 18.75 -1.76777
    endloop
  endfacet
  facet normal -0.617037 0.23231 -0.751862
    outer loop
      vertex -1.92882 15.9524 -2.5
      vertex -1.76777 18.75 -1.76777
      vertex -1.67045 16.6386 -2.5
    endloop
  endfacet
  facet normal -0.617037 0.23231 -0.751862
    outer loop
      vertex -1.67045 16.6386 -2.5
      vertex -1.76777 18.75 -1.76777
      vertex -1.38893 18.75 -2.07867
    endloop
  endfacet
  facet normal -0.4585 0.23231 -0.857793
    outer loop
      vertex -1.39742 17.1775 -2.5
      vertex -1.38893 18.75 -2.07867
      vertex -1.03553 17.8917 -2.5
    endloop
  endfacet
  facet normal -0.4585 0.23231 -0.857793
    outer loop
      vertex -1.03553 17.8917 -2.5
      vertex -1.38893 18.75 -2.07867
      vertex -0.956709 18.75 -2.3097
    endloop
  endfacet
  facet normal -0.4585 0.23231 -0.857793
    outer loop
      vertex -1.39742 17.1775 -2.5
      vertex -1.67045 16.6386 -2.5
      vertex -1.38893 18.75 -2.07867
    endloop
  endfacet
  facet normal -0.93076 0.23231 0.282343
    outer loop
      vertex -2.45196 18.75 0.487726
      vertex -3.62891 13.75 0.721834
      vertex -2.3097 18.75 0.956709
    endloop
  endfacet
  facet normal -0.967958 0.23231 0.0953356
    outer loop
      vertex -2.5 18.75 2.4895e-16
      vertex -3.62891 13.75 0.721834
      vertex -2.45196 18.75 0.487726
    endloop
  endfacet
  facet normal -0.967958 0.23231 0.0953356
    outer loop
      vertex -2.5 18.75 2.4895e-16
      vertex -3.7 13.75 -1.00823e-15
      vertex -3.62891 13.75 0.721834
    endloop
  endfacet
endsolid OpenSCAD_Model
